<svg xmlns="http://www.w3.org/2000/svg" viewBox='0 0 190.217 113.317' width="190.217" height="113.317" xml:space="preserve"><path fill="#FFC246" stroke="#46474D" stroke-width=".152" stroke-linecap="round" stroke-linejoin="round" stroke-miterlimit="10" d="M98.315 83.284v-.766h-.381a6.068 6.068 0 0 0-.284-1.503l.347-.141-.287-.711-.35.143c-.24-.5-.546-.963-.908-1.374l.266-.269-.54-.541-.267.268a6.015 6.015 0 0 0-1.269-.856l.148-.347-.706-.301-.147.349a6.066 6.066 0 0 0-1.614-.327v-.381h-.763v.381a6.003 6.003 0 0 0-1.507.287l-.142-.35-.708.286.142.353c-.499.24-.961.545-1.372.908l-.27-.27-.541.541.27.269c-.338.384-.625.81-.858 1.269l-.35-.148-.299.704.349.149c-.18.51-.291 1.05-.326 1.612h-.381v.766h.381c.031.522.129 1.026.286 1.504l-.349.141.286.71.353-.141c.24.498.543.961.908 1.371l-.27.27.541.541.269-.269c.382.338.808.626 1.27.857l-.149.348.705.3.146-.348c.512.18 1.052.292 1.616.327v.38h.763v-.38a5.944 5.944 0 0 0 1.504-.287l.141.349.71-.287-.14-.35c.5-.241.959-.546 1.373-.909l.267.269.54-.541-.266-.27c.336-.381.625-.806.857-1.264l.346.146.301-.704-.35-.148a5.891 5.891 0 0 0 .328-1.615h.381z"/><circle fill="none" stroke="#46474D" stroke-width="7.587" stroke-miterlimit="10" cx="35.332" cy="76.527" r="30.594"/><circle fill="none" stroke="#46474D" stroke-width="6.177" stroke-miterlimit="10" cx="153.425" cy="76.527" r="32.594"/><path fill="#46474D" d="M80.263 81.509s.691-.993 1.898-2.733c.598-.873 1.34-1.921 2.197-3.117.857-1.197 1.824-2.549 2.881-4.021 1.066-1.465 2.223-3.051 3.445-4.728 1.217-1.683 2.542-3.423 3.89-5.241 1.356-1.811 2.739-3.7 4.183-5.585l4.37-5.726c2.909-3.854 5.912-7.629 8.688-11.201 1.398-1.779 2.726-3.516 4.027-5.131 1.295-1.619 2.519-3.149 3.648-4.563 2.261-2.826 4.144-5.181 5.464-6.829l.882-1.099c.271-.307.695-.413 1.138-.418.217-.007.47.037.66.055.238.053.408.074.602.137.344.09.608.207.594.194l2.782 2.252c-.015-.013.154.222.313.538.101.176.157.339.259.56.057.185.153.423.191.636.088.435.073.871-.17 1.201-.261.316-.558.682-.891 1.092-1.338 1.633-3.25 3.966-5.541 6.766l-3.702 4.52c-1.308 1.609-2.73 3.271-4.179 5.008-2.915 3.46-5.98 7.186-9.144 10.832l-4.689 5.467c-1.542 1.807-3.103 3.551-4.59 5.256-1.499 1.697-2.924 3.355-4.315 4.896a10485.28 10485.28 0 0 0-3.905 4.355c-1.221 1.34-2.341 2.567-3.332 3.656a196.704 196.704 0 0 1-2.593 2.8l-2.277 2.424-2.784-2.253z"/><path fill="#46474D" d="M69.255 35.146s3.683-1.456 9.256-3.469a575.168 575.168 0 0 1 9.548-3.357c3.493-1.227 7.245-2.449 10.99-3.696 3.741-1.257 7.513-2.413 11.032-3.55 3.518-1.143 6.832-2.113 9.658-2.988 1.415-.433 2.713-.828 3.861-1.18 1.152-.336 2.142-.692 2.987-.875 1.72-.271 3.141 1.037 3.141 1.037l1.024 3.43s-.469 1.873-2.057 2.591c-.807.312-1.826.556-2.976.908l-3.875 1.134c-2.845.818-6.146 1.826-9.714 2.801-3.566.982-7.354 2.086-11.171 3.089-3.814 1.013-7.624 2.05-11.216 2.942a582.38 582.38 0 0 1-9.824 2.432c-5.764 1.378-9.641 2.182-9.641 2.182l-1.023-3.431z"/><path fill="none" stroke="#46474D" stroke-width="3.851" stroke-miterlimit="10" d="m119.57 7.18 10.71 26.112"/><path fill="none" stroke="#46474D" stroke-width="6.744" stroke-miterlimit="10" d="m125.729 12.383 27.697 64.144"/><path fill="none" stroke="#46474D" stroke-width="5.17" stroke-miterlimit="10" d="m118.955 11.695 10.458-4.716"/><path fill="none" stroke="#46474D" stroke-width="5.494" stroke-linecap="round" stroke-miterlimit="10" d="m122.202 2.747 8.599 4.858"/><path fill="#46474D" stroke="#46474D" stroke-width="4.215" stroke-linejoin="round" stroke-miterlimit="10" d="m53.437 22.28 26.302-1.716-7.885 2.61-16.091 3.592z"/><circle fill="#46474D" cx="81.655" cy="82.635" r="9.16"/><path fill="none" stroke="#46474D" stroke-width="3.579" stroke-linecap="round" stroke-miterlimit="10" d="m81.655 82.635 10.918 13.914M70.916 68.723l10.917 13.912M88.36 96.549h7.083M66.641 68.723h7.08"/><path fill="none" stroke="#46474D" stroke-width="6.744" stroke-linecap="round" stroke-linejoin="round" stroke-miterlimit="10" d="m81.655 82.635-46.322-5.244"/><path fill="none" stroke="#46474D" stroke-width="3.579" stroke-linejoin="round" stroke-miterlimit="10" d="M36.105 77.605 54.62 43.73M66.646 24.843l15.009 57.792"/><path fill="#46474D" stroke="#46474D" stroke-width="3.372" stroke-linecap="round" stroke-linejoin="round" stroke-miterlimit="10" d="m81.354 41.611-27.248 2.532 18.783 5.435z"/><path fill="#46474D" d="M114.935 26.205s5.549 5.058 5.27 5.198c-.283.141 4.005-7.164 4.005-7.164l-9.275 1.966z"/><path fill="none" stroke="#46474D" stroke-width="6.744" stroke-linecap="round" stroke-miterlimit="10" d="m131.099 25.123 22.327 51.404"/><path fill="none" stroke="#46474D" stroke-width="1.531" stroke-linecap="round" stroke-linejoin="round" stroke-miterlimit="10" d="m84.487 45.043-5.183 2.92M84.854 48.273l-5.183 2.921M85.221 51.504l-5.183 2.919M85.584 54.734l-5.182 2.92M85.948 57.964l-5.182 2.921M86.304 61.105l-5.182 2.918"/><path fill="none" stroke="#46474D" stroke-width="1.485" stroke-linecap="round" stroke-linejoin="round" stroke-miterlimit="10" d="m81.393 42.04 2.984 26.385"/><path fill="none" stroke="#46474D" stroke-width="4.215" stroke-linejoin="round" stroke-miterlimit="10" d="m82.79 54.395 1.587 14.03"/><path fill="#FFF" stroke="#46474D" stroke-width="4.215" stroke-linecap="round" stroke-linejoin="round" stroke-miterlimit="10" d="M80.149 69.169s5.407-.772 8.148 1.476"/><circle fill="none" stroke="#46474D" stroke-width="8.608" stroke-miterlimit="10" stroke-dasharray="2.532" cx="35.333" cy="76.527" r="31.03"/><circle fill="none" stroke="#46474D" stroke-width="6.369" stroke-miterlimit="10" stroke-dasharray="2.532" cx="153.426" cy="76.527" r="33.606"/><g fill="#4CFF3A" stroke="#46474D" stroke-width=".152" stroke-miterlimit="10"><path d="M98.977 39.66a1.146 1.146 0 1 0 1.404-1.812 1.146 1.146 0 0 0-1.404 1.812z"/><path d="M97.569 41.469a1.144 1.144 0 0 0 1.608-.201 1.144 1.144 0 1 0-1.608.201zM101.354 40.057c.5.387 1.221.301 1.607-.202a1.139 1.139 0 0 0-.2-1.606 1.148 1.148 0 0 0-1.608.2c-.387.5-.299 1.219.201 1.608z"/><circle cx="100.651" cy="40.961" r="1.145"/><circle cx="103.005" cy="41.34" r="1.145"/><circle cx="101.599" cy="43.149" r="1.147"/><path d="M104.641 42.611a1.146 1.146 0 1 0 1.406-1.811 1.146 1.146 0 0 0-1.406 1.811z"/><path d="M103.231 44.42a1.146 1.146 0 1 0 1.41-1.806 1.146 1.146 0 0 0-1.41 1.806zM105.584 44.797a1.146 1.146 0 1 0 1.412-1.806 1.146 1.146 0 0 0-1.412 1.806z"/><path d="M104.178 46.606a1.146 1.146 0 1 0 1.406-1.809 1.142 1.142 0 0 0-1.604.205 1.138 1.138 0 0 0 .198 1.604z"/><circle cx="96.838" cy="42.409" r="1.146"/><path d="M94.727 45.125c.499.389 1.22.298 1.608-.203a1.144 1.144 0 1 0-1.809-1.406c-.389.502-.3 1.22.201 1.609z"/><path d="M93.318 46.936a1.146 1.146 0 1 0 1.405-1.81 1.146 1.146 0 0 0-1.405 1.81z"/><path d="M91.912 48.746c.5.389 1.222.299 1.61-.2a1.15 1.15 0 0 0-.204-1.61 1.143 1.143 0 0 0-1.608.199c-.388.5-.299 1.22.202 1.611z"/><path d="M90.505 50.557a1.144 1.144 0 0 0 1.607-.203 1.146 1.146 0 1 0-1.607.203z"/><path d="M89.097 52.365a1.146 1.146 0 1 0 1.406-1.811 1.146 1.146 0 0 0-1.406 1.811z"/><circle cx="88.394" cy="53.269" r="1.145"/><path d="M98.514 43.712c.501.39 1.22.298 1.606-.198a1.15 1.15 0 0 0-.199-1.611 1.147 1.147 0 0 0-1.609.203 1.14 1.14 0 0 0 .202 1.606z"/><circle cx="97.81" cy="44.617" r="1.146"/><circle cx="96.402" cy="46.428" r="1.147"/><circle cx="94.995" cy="48.238" r="1.146"/><circle cx="93.588" cy="50.047" r="1.145"/><circle cx="92.181" cy="51.856" r="1.147"/><path d="M90.07 54.573a1.146 1.146 0 1 0 1.405-1.81 1.146 1.146 0 0 0-1.405 1.81zM99.456 45.899c.503.388 1.223.3 1.611-.2a1.146 1.146 0 1 0-1.81-1.408 1.15 1.15 0 0 0 .199 1.608z"/><path d="M98.052 47.709a1.145 1.145 0 1 0 1.404-1.809 1.144 1.144 0 0 0-1.404 1.809z"/><path d="M96.642 49.521a1.152 1.152 0 0 0 1.611-.202 1.145 1.145 0 1 0-1.809-1.406 1.148 1.148 0 0 0 .198 1.608z"/><path d="M95.239 51.334a1.148 1.148 0 0 0 1.607-.204c.388-.5.298-1.222-.205-1.608a1.14 1.14 0 0 0-1.604.199 1.15 1.15 0 0 0 .202 1.613z"/><path d="M93.832 53.141a1.144 1.144 0 1 0 1.407-1.806 1.141 1.141 0 0 0-1.609.198 1.143 1.143 0 0 0 .202 1.608z"/><path d="M92.424 54.95a1.146 1.146 0 1 0 1.406-1.812 1.146 1.146 0 0 0-1.406 1.812z"/><path d="M91.015 56.76a1.147 1.147 0 0 0 1.61-.201 1.145 1.145 0 1 0-1.809-1.408c-.39.5-.299 1.218.199 1.609zM101.798 46.268a1.146 1.146 0 1 0 1.406-1.81 1.147 1.147 0 1 0-1.406 1.81z"/><path d="M100.393 48.076a1.14 1.14 0 0 0 1.604-.199c.391-.501.301-1.219-.199-1.609s-1.221-.301-1.608.2-.3 1.22.203 1.608zM102.745 48.453a1.14 1.14 0 0 0 1.605-.203 1.144 1.144 0 0 0-.2-1.607 1.15 1.15 0 0 0-1.61.202c-.386.5-.295 1.219.205 1.608zM88.664 56.383a1.139 1.139 0 0 0 1.604-.203 1.142 1.142 0 0 0-.198-1.606 1.145 1.145 0 1 0-1.406 1.809z"/><circle cx="90.312" cy="57.666" r="1.147"/><path d="M108.024 35.018a1.146 1.146 0 1 0 1.406-1.808 1.142 1.142 0 0 0-1.608.201 1.147 1.147 0 0 0 .202 1.607z"/><path d="M110.36 35.385a1.148 1.148 0 0 0 1.609-.202c.389-.499.3-1.22-.203-1.608a1.14 1.14 0 0 0-1.605.201c-.388.497-.3 1.218.199 1.609zM112.714 35.762c.5.389 1.221.299 1.611-.201a1.15 1.15 0 0 0-.201-1.608 1.154 1.154 0 0 0-1.613.2 1.15 1.15 0 0 0 .203 1.609z"/><path d="M111.308 37.574c.5.387 1.22.295 1.607-.205a1.145 1.145 0 0 0-1.808-1.406c-.391.5-.298 1.219.201 1.611zM101.882 36.053a1.145 1.145 0 1 0 1.412-1.81 1.145 1.145 0 0 0-1.412 1.81z"/><path d="M100.476 37.859a1.147 1.147 0 0 0 1.611-.197 1.148 1.148 0 0 0-1.813-1.409 1.144 1.144 0 0 0 .202 1.606zM105.671 34.641a1.145 1.145 0 0 0 1.608-.202c.386-.5.296-1.218-.199-1.608a1.146 1.146 0 1 0-1.409 1.81z"/><circle cx="104.967" cy="35.546" r="1.147"/><path d="M102.854 38.261a1.147 1.147 0 1 0 1.408-1.81 1.147 1.147 0 0 0-1.408 1.81zM106.615 36.828a1.145 1.145 0 0 0 1.61-.201 1.15 1.15 0 0 0-.201-1.609 1.153 1.153 0 0 0-1.611.201 1.15 1.15 0 0 0 .202 1.609z"/><path d="M105.207 38.639a1.148 1.148 0 0 0 1.61-.203 1.14 1.14 0 0 0-.202-1.607 1.144 1.144 0 0 0-1.607.203c-.39.497-.3 1.216.199 1.607z"/><path d="M103.801 40.445a1.146 1.146 0 0 0 1.61-.198 1.147 1.147 0 0 0-.204-1.608 1.145 1.145 0 1 0-1.406 1.806z"/><circle cx="109.657" cy="36.29" r="1.146"/><path d="M107.546 39.002a1.145 1.145 0 1 0 1.411-1.805 1.145 1.145 0 0 0-1.411 1.805z"/><path d="M106.141 40.813a1.145 1.145 0 1 0-.202-1.605 1.142 1.142 0 0 0 .202 1.605zM109.898 39.383a1.15 1.15 0 0 0 1.609-.203c.39-.5.298-1.219-.2-1.605a1.14 1.14 0 0 0-1.607.197c-.39.5-.298 1.22.198 1.611z"/><path d="M108.492 41.191c.5.387 1.222.298 1.608-.201.391-.5.301-1.223-.202-1.607a1.14 1.14 0 0 0-1.606.2 1.147 1.147 0 0 0 .2 1.608zM107.085 43.001c.5.39 1.221.301 1.609-.202a1.142 1.142 0 0 0-.202-1.607 1.145 1.145 0 1 0-1.407 1.809zM94.751 55.426a1.147 1.147 0 1 0 1.409-1.81 1.147 1.147 0 0 0-1.409 1.81z"/><path d="M93.343 57.235a1.146 1.146 0 1 0 1.41-1.807 1.146 1.146 0 0 0-1.41 1.807z"/><circle cx="96.399" cy="56.709" r="1.146"/><path d="M94.29 59.422a1.14 1.14 0 0 0 1.607-.199 1.144 1.144 0 1 0-1.808-1.406 1.14 1.14 0 0 0 .201 1.605zM91.907 59.084a1.15 1.15 0 0 0 1.611-.203 1.149 1.149 0 0 0-.204-1.608 1.143 1.143 0 0 0-1.606.2 1.148 1.148 0 0 0 .199 1.611zM101.417 50.389c.5.388 1.221.297 1.609-.205a1.145 1.145 0 1 0-1.808-1.405 1.15 1.15 0 0 0 .199 1.61z"/><circle cx="99.769" cy="49.105" r="1.146"/><path d="M97.658 51.817a1.145 1.145 0 1 0 1.407-1.806 1.145 1.145 0 0 0-1.407 1.806z"/><path d="M96.252 53.628c.5.39 1.217.3 1.607-.198a1.15 1.15 0 0 0-.201-1.612 1.15 1.15 0 0 0-1.61.205 1.142 1.142 0 0 0 .204 1.605zM100.011 52.199a1.145 1.145 0 1 0 1.406-1.81 1.14 1.14 0 0 0-1.606.198c-.391.501-.3 1.22.2 1.612z"/><path d="M98.603 54.006c.5.389 1.225.299 1.609-.199.391-.5.299-1.225-.201-1.607-.5-.393-1.219-.301-1.608.199s-.3 1.22.2 1.607z"/><circle cx="97.899" cy="54.911" r="1.146"/></g></svg>