<svg xmlns="http://www.w3.org/2000/svg" viewBox='0 0 205.966 126.636' width="205.966" height="126.636" xml:space="preserve"><path fill="#FFC246" stroke="#46474D" stroke-width=".135" stroke-miterlimit="10" d="m82.041 74.97 4.788-1.469-1.533-4.944.012-.005-4.329-13.997-4.359 1.337-.001-.001-.821.251.254.821.391-.121.257.828-.388.117.251.823.392-.122.255.825-.392.125.253.821.39-.122.259.829-.39.121-.004.002-.009.002.257.817.39-.115.254.82-.379.116-.003.004-.009.007.253.815.396-.117.252.824-.38.118-.007.004.247.822.392-.123.255.827-.378.114v.004l-.012.005.257.818.388-.121.257.828-.378.113-.002.006-.011.002.255.82.392-.124.255.828-.381.119v.002l-.011.002.252.823.394-.125.256.83-.39.119.251.82.392-.119.257.825-.394.12.254.822.393-.12.259.825-.394.122.255.822z"/><circle fill="#FFC246" stroke="#46474D" stroke-width=".135" stroke-miterlimit="10" cx="36.359" cy="90.393" r="11.484"/><path fill="#46474D" d="M171.086 55.455a34.67 34.67 0 0 0-15.951 3.876c-.983-2.637-1.687-4.539-1.708-4.596l-.021-.055-1.079-2.683a2.054 2.054 0 0 0-.563-.786l-7.914-21.739c1.915-2.389 2.468-5.225 1.59-8.258-2.646-9.13-17.318-17.928-29.975-21.16a1.728 1.728 0 1 0-.855 3.348c12.92 3.301 25.517 11.896 27.509 18.773.415 1.427.342 2.714-.199 3.896l-2.636.958 3.917 10.764c-.206-.008-.418-.013-.644-.019a79.007 79.007 0 0 0-2.405-.031c-1.792-.01-3.957.041-6.437.137-2.479.126-5.271.285-8.304.586-3.037.276-6.313.683-9.767 1.196a162.179 162.179 0 0 0-10.794 2.001c-3.713.856-7.539 1.783-11.362 2.969-.48.142-.961.283-1.441.427l-1.434.47-2.879.95c-.952.348-1.904.697-2.859 1.044l-1.429.525-1.415.572-.501.203-3.886-12.556 13.107-4.217a3.15 3.15 0 0 0-1.439-6.113c-.045.007-4.684.705-9.782.705-3.57 0-6.52-.351-8.528-1.012-1.682-.555-3.201-.834-4.512-.834-3.399 0-4.677 1.889-5.069 2.702-.801 1.659-.484 3.586.871 5.287 1.149 1.447 4.779 4.045 6.286 5.096a3.144 3.144 0 0 0 2.766.414l3.801-1.223 3.945 12.747-2.665 1.195-1.385.622-1.358.672c-.903.448-1.805.894-2.703 1.341-3.529 1.901-6.969 3.842-10.114 6.016-.786.542-1.594 1.042-2.343 1.607l-.259.191c-6.102-4.654-13.714-7.427-21.965-7.427C16.285 54.037 0 70.321 0 90.333c0 20.018 16.285 36.302 36.299 36.302 17.482 0 32.116-12.425 35.539-28.909 1.399.125 2.811.249 4.247.369 1.972.163 3.947.32 6.012.439l2.79.156c1.313 3.927 5.011 6.759 9.379 6.759a9.829 9.829 0 0 0 4.655-1.164l2.336 2.977h-.517a1.728 1.728 0 1 0 0 3.457h6.837a1.727 1.727 0 1 0 0-3.457h-1.928l-4.016-5.118a9.844 9.844 0 0 0 2.331-8.543c2.985-1.804 5.692-3.983 8.109-6.313 3.103-2.999 5.759-6.23 8.211-9.374 2.456-3.142 4.658-6.242 6.801-9.081 2.135-2.842 4.21-5.427 6.253-7.619 2.034-2.194 4.03-4.023 5.955-5.334.466-.354.962-.61 1.415-.908l.674-.42.678-.336c.445-.217.865-.441 1.276-.631.421-.159.824-.312 1.206-.455.749-.331 1.47-.454 2.077-.632.307-.073.584-.175.852-.208a3.7 3.7 0 0 0 .712-.179c.071-.026.133-.058.198-.089l.024.069c-.16.462-.17.98.026 1.471l1.066 2.655c.132.354.92 2.494 1.97 5.295-9.208 6.286-15.265 16.858-15.265 28.821 0 19.236 15.65 34.885 34.883 34.885 19.234 0 34.88-15.649 34.88-34.885.001-19.231-15.645-34.878-34.879-34.878zM65.628 93.261c-.184-.012-.373-.021-.553-.032a346.436 346.436 0 0 1-10.071-.739c-3.105-.306-5.949-.616-8.446-.989-2.496-.376-4.667-.709-6.397-1.154a19.394 19.394 0 0 1-2.25-.732c-.313-.129-.598-.263-.858-.383a5.768 5.768 0 0 1-.555-.306c.12-.231.257-.477.415-.736l.544-.933c.192-.333.394-.688.646-1.041.481-.716 1.02-1.508 1.6-2.371.295-.428.588-.884.917-1.339.343-.444.7-.904 1.068-1.377l1.139-1.472.595-.769.657-.75c.902-1.005 1.807-2.098 2.829-3.169 1.051-1.041 2.112-2.16 3.272-3.254.593-.533 1.198-1.074 1.813-1.624.619-.542 1.219-1.126 1.895-1.64.364-.292.735-.591 1.104-.885 6.579 5.409 10.782 13.608 10.782 22.769 0 .987-.052 1.962-.146 2.926zm-29.329 26.552c-16.253 0-29.475-13.223-29.475-29.479 0-16.25 13.222-29.472 29.475-29.472 6.05 0 11.679 1.833 16.362 4.972l-.579.478c-.69.541-1.302 1.154-1.934 1.725l-1.849 1.706c-1.183 1.148-2.265 2.322-3.334 3.416-1.039 1.123-1.96 2.267-2.875 3.318-.226.265-.448.528-.666.788l-.605.803-1.156 1.538-1.082 1.442c-.333.475-.63.95-.928 1.398-.59.898-1.129 1.726-1.618 2.472-.664 1.044-1.138 1.98-1.576 2.705a2.664 2.664 0 0 0-.69-.154 2.583 2.583 0 0 0-.395 5.149s.137.011.397.045c.267.035.61.091 1.207.189.284.04.607.107.933.161.321.045.67.088 1.041.155.742.109 1.579.254 2.507.407 1.851.336 4.063.79 6.615 1.165 2.551.38 5.424.789 8.562 1.162 3.199.409 6.676.801 10.352 1.174-3.058 13.014-14.755 22.737-28.689 22.737zm40.042-26.049a691.542 691.542 0 0 1-3.897-.158 36.47 36.47 0 0 0 .154-3.272c0-10.671-4.632-20.281-11.987-26.928.62-.419 1.264-.817 1.9-1.233 3.093-2.039 6.478-3.845 9.942-5.612.881-.413 1.768-.825 2.655-1.241l1.333-.622 1.361-.574c.771-.326 1.545-.65 2.318-.976l10.302 33.29c-.234.099-.459.213-.685.329l-2.414-3.076a1.725 1.725 0 0 0-.718-3.295h-6.839a1.727 1.727 0 1 0 0 3.455h3.29l3.936 5.016a9.852 9.852 0 0 0-2.488 5.141c-.746-.017-1.493-.035-2.233-.05l-5.93-.194zm53.158-36.152c-4.516 4.79-8.721 10.935-13.376 17.103-2.339 3.074-4.821 6.153-7.62 8.922-2.072 2.043-4.323 3.91-6.75 5.464a9.87 9.87 0 0 0-7.487-3.438c-.443 0-.875.04-1.304.097L82.577 52.2l.729-.277 1.387-.527 1.406-.479 2.804-.954a1383.2 1383.2 0 0 1 2.752-.839c18.737-.987 33.851 3.785 40.158 6.195a57.3 57.3 0 0 0-2.314 2.293zm17.031-10.239c-.333.043-.683.156-1.069.243-.763.205-1.665.365-2.606.75l-1.509.554c-.513.226-1.033.488-1.585.751-.272.132-.553.269-.839.406l-.824.493c-.551.345-1.156.662-1.715 1.067-.78.519-1.557 1.1-2.334 1.729-4.614-1.9-16.473-6.119-32.241-6.884 1.302-.29 2.601-.568 3.879-.834 1.827-.336 3.619-.697 5.387-.968 1.76-.311 3.493-.556 5.18-.795 3.376-.453 6.577-.807 9.541-1.033 2.96-.252 5.681-.369 8.088-.459 2.408-.059 4.507-.081 6.227-.045.86.015 1.63.027 2.278.06.661.029 1.202.055 1.688-.003.295-.032.543-.088.753-.147l1.855 5.1c-.053.006-.101.008-.154.015zm24.556 70.498c-15.181 0-27.534-12.353-27.534-27.538 0-8.803 4.158-16.648 10.61-21.692 1.427 3.729 2.787 7.184 3.419 8.517 1.751 3.701 4.559 8.94 10.754 16.684a2.092 2.092 0 0 0 2.95.328 2.1 2.1 0 0 0 .33-2.95c-5.891-7.363-8.481-12.148-10.239-15.858-.635-1.338-2.114-5.128-3.628-9.102a27.375 27.375 0 0 1 13.338-3.457c15.182 0 27.532 12.35 27.532 27.53 0 15.186-12.35 27.538-27.532 27.538z"/><circle fill="#4CFF3A" stroke="#46474D" stroke-width=".154" stroke-miterlimit="10" cx="111.302" cy="53.79" r="1.052"/><circle fill="#4CFF3A" stroke="#46474D" stroke-width=".154" stroke-miterlimit="10" cx="109.933" cy="55.387" r="1.052"/><circle fill="#4CFF3A" stroke="#46474D" stroke-width=".154" stroke-miterlimit="10" cx="108.565" cy="56.986" r="1.052"/><circle fill="#4CFF3A" stroke="#46474D" stroke-width=".154" stroke-miterlimit="10" cx="107.196" cy="58.584" r="1.053"/><circle fill="#4CFF3A" stroke="#46474D" stroke-width=".154" stroke-miterlimit="10" cx="105.827" cy="60.182" r="1.051"/><circle fill="#4CFF3A" stroke="#46474D" stroke-width=".154" stroke-miterlimit="10" cx="113.443" cy="54.238" r="1.052"/><circle fill="#4CFF3A" stroke="#46474D" stroke-width=".154" stroke-miterlimit="10" cx="112.074" cy="55.836" r="1.052"/><circle fill="#4CFF3A" stroke="#46474D" stroke-width=".154" stroke-miterlimit="10" cx="110.705" cy="57.434" r="1.052"/><circle fill="#4CFF3A" stroke="#46474D" stroke-width=".154" stroke-miterlimit="10" cx="109.336" cy="59.032" r="1.051"/><circle fill="#4CFF3A" stroke="#46474D" stroke-width=".154" stroke-miterlimit="10" cx="107.967" cy="60.629" r="1.053"/><circle fill="#4CFF3A" stroke="#46474D" stroke-width=".154" stroke-miterlimit="10" cx="106.598" cy="62.227" r="1.052"/><circle fill="#4CFF3A" stroke="#46474D" stroke-width=".154" stroke-miterlimit="10" cx="115.608" cy="54.706" r="1.052"/><circle fill="#4CFF3A" stroke="#46474D" stroke-width=".154" stroke-miterlimit="10" cx="114.238" cy="56.304" r="1.052"/><circle fill="#4CFF3A" stroke="#46474D" stroke-width=".154" stroke-miterlimit="10" cx="112.87" cy="57.902" r="1.051"/><circle fill="#4CFF3A" stroke="#46474D" stroke-width=".154" stroke-miterlimit="10" cx="111.501" cy="59.5" r="1.053"/><circle fill="#4CFF3A" stroke="#46474D" stroke-width=".154" stroke-miterlimit="10" cx="110.132" cy="61.099" r="1.052"/><circle fill="#4CFF3A" stroke="#46474D" stroke-width=".154" stroke-miterlimit="10" cx="108.763" cy="62.697" r="1.053"/><circle fill="#4CFF3A" stroke="#46474D" stroke-width=".154" stroke-miterlimit="10" cx="117.748" cy="55.155" r="1.053"/><circle fill="#4CFF3A" stroke="#46474D" stroke-width=".154" stroke-miterlimit="10" cx="116.378" cy="56.753" r="1.052"/><circle fill="#4CFF3A" stroke="#46474D" stroke-width=".154" stroke-miterlimit="10" cx="115.01" cy="58.351" r="1.052"/><circle fill="#4CFF3A" stroke="#46474D" stroke-width=".154" stroke-miterlimit="10" cx="113.641" cy="59.949" r="1.052"/><circle fill="#4CFF3A" stroke="#46474D" stroke-width=".154" stroke-miterlimit="10" cx="112.272" cy="61.546" r="1.052"/><circle fill="#4CFF3A" stroke="#46474D" stroke-width=".154" stroke-miterlimit="10" cx="110.904" cy="63.144" r="1.052"/><circle fill="#4CFF3A" stroke="#46474D" stroke-width=".154" stroke-miterlimit="10" cx="109.535" cy="64.743" r="1.053"/><circle fill="#4CFF3A" stroke="#46474D" stroke-width=".154" stroke-miterlimit="10" cx="119.925" cy="55.634" r="1.051"/><circle fill="#4CFF3A" stroke="#46474D" stroke-width=".154" stroke-miterlimit="10" cx="118.557" cy="57.232" r="1.053"/><circle fill="#4CFF3A" stroke="#46474D" stroke-width=".154" stroke-miterlimit="10" cx="117.187" cy="58.831" r="1.052"/><circle fill="#4CFF3A" stroke="#46474D" stroke-width=".154" stroke-miterlimit="10" cx="115.818" cy="60.428" r="1.052"/><circle fill="#4CFF3A" stroke="#46474D" stroke-width=".154" stroke-miterlimit="10" cx="114.449" cy="62.026" r="1.053"/><circle fill="#4CFF3A" stroke="#46474D" stroke-width=".154" stroke-miterlimit="10" cx="113.08" cy="63.625" r="1.052"/><circle fill="#4CFF3A" stroke="#46474D" stroke-width=".154" stroke-miterlimit="10" cx="111.712" cy="65.222" r="1.051"/><circle fill="#4CFF3A" stroke="#46474D" stroke-width=".154" stroke-miterlimit="10" cx="120.696" cy="57.681" r="1.052"/><circle fill="#4CFF3A" stroke="#46474D" stroke-width=".154" stroke-miterlimit="10" cx="119.327" cy="59.279" r="1.053"/><circle fill="#4CFF3A" stroke="#46474D" stroke-width=".154" stroke-miterlimit="10" cx="117.958" cy="60.877" r="1.052"/><circle fill="#4CFF3A" stroke="#46474D" stroke-width=".154" stroke-miterlimit="10" cx="116.59" cy="62.475" r="1.052"/><circle fill="#4CFF3A" stroke="#46474D" stroke-width=".154" stroke-miterlimit="10" cx="115.222" cy="64.073" r="1.052"/><circle fill="#4CFF3A" stroke="#46474D" stroke-width=".154" stroke-miterlimit="10" cx="113.853" cy="65.67" r="1.053"/><circle fill="#4CFF3A" stroke="#46474D" stroke-width=".154" stroke-miterlimit="10" cx="112.484" cy="67.269" r="1.052"/><circle fill="#4CFF3A" stroke="#46474D" stroke-width=".154" stroke-miterlimit="10" cx="122.861" cy="58.149" r="1.051"/><circle fill="#4CFF3A" stroke="#46474D" stroke-width=".154" stroke-miterlimit="10" cx="121.493" cy="59.747" r="1.053"/><circle fill="#4CFF3A" stroke="#46474D" stroke-width=".154" stroke-miterlimit="10" cx="120.124" cy="61.345" r="1.052"/><circle fill="#4CFF3A" stroke="#46474D" stroke-width=".154" stroke-miterlimit="10" cx="118.755" cy="62.943" r="1.052"/><circle fill="#4CFF3A" stroke="#46474D" stroke-width=".154" stroke-miterlimit="10" cx="117.386" cy="64.542" r="1.053"/><circle fill="#4CFF3A" stroke="#46474D" stroke-width=".154" stroke-miterlimit="10" cx="116.018" cy="66.139" r="1.052"/><circle fill="#4CFF3A" stroke="#46474D" stroke-width=".154" stroke-miterlimit="10" cx="114.649" cy="67.738" r="1.053"/><circle fill="#4CFF3A" stroke="#46474D" stroke-width=".154" stroke-miterlimit="10" cx="123.632" cy="60.195" r="1.052"/><circle fill="#4CFF3A" stroke="#46474D" stroke-width=".154" stroke-miterlimit="10" cx="122.264" cy="61.793" r="1.052"/><circle fill="#4CFF3A" stroke="#46474D" stroke-width=".154" stroke-miterlimit="10" cx="120.896" cy="63.393" r="1.052"/><circle fill="#4CFF3A" stroke="#46474D" stroke-width=".154" stroke-miterlimit="10" cx="119.527" cy="64.991" r="1.052"/><circle fill="#4CFF3A" stroke="#46474D" stroke-width=".154" stroke-miterlimit="10" cx="118.158" cy="66.588" r="1.051"/><circle fill="#4CFF3A" stroke="#46474D" stroke-width=".154" stroke-miterlimit="10" cx="116.789" cy="68.185" r="1.053"/><circle fill="#4CFF3A" stroke="#46474D" stroke-width=".154" stroke-miterlimit="10" cx="115.42" cy="69.784" r="1.051"/><circle fill="#4CFF3A" stroke="#46474D" stroke-width=".154" stroke-miterlimit="10" cx="117.548" cy="70.22" r="1.053"/><circle fill="#4CFF3A" stroke="#46474D" stroke-width=".154" stroke-miterlimit="10" cx="104.458" cy="61.779" r="1.052"/><circle fill="#4CFF3A" stroke="#46474D" stroke-width=".154" stroke-miterlimit="10" cx="103.089" cy="63.378" r="1.053"/><circle fill="#4CFF3A" stroke="#46474D" stroke-width=".154" stroke-miterlimit="10" cx="101.72" cy="64.976" r="1.052"/><circle fill="#4CFF3A" stroke="#46474D" stroke-width=".154" stroke-miterlimit="10" cx="105.23" cy="63.825" r="1.052"/><circle fill="#4CFF3A" stroke="#46474D" stroke-width=".154" stroke-miterlimit="10" cx="103.861" cy="65.424" r="1.052"/><circle fill="#4CFF3A" stroke="#46474D" stroke-width=".154" stroke-miterlimit="10" cx="102.492" cy="67.021" r="1.052"/><circle fill="#4CFF3A" stroke="#46474D" stroke-width=".154" stroke-miterlimit="10" cx="107.394" cy="64.294" r="1.051"/><circle fill="#4CFF3A" stroke="#46474D" stroke-width=".154" stroke-miterlimit="10" cx="106.026" cy="65.892" r="1.052"/><circle fill="#4CFF3A" stroke="#46474D" stroke-width=".154" stroke-miterlimit="10" cx="104.657" cy="67.49" r="1.052"/><circle fill="#4CFF3A" stroke="#46474D" stroke-width=".154" stroke-miterlimit="10" cx="108.166" cy="66.341" r="1.052"/><circle fill="#4CFF3A" stroke="#46474D" stroke-width=".154" stroke-miterlimit="10" cx="106.798" cy="67.939" r="1.052"/><circle fill="#4CFF3A" stroke="#46474D" stroke-width=".154" stroke-miterlimit="10" cx="105.429" cy="69.536" r="1.052"/><circle fill="#4CFF3A" stroke="#46474D" stroke-width=".154" stroke-miterlimit="10" cx="110.344" cy="66.82" r="1.052"/><circle fill="#4CFF3A" stroke="#46474D" stroke-width=".154" stroke-miterlimit="10" cx="108.975" cy="68.418" r="1.053"/><circle fill="#4CFF3A" stroke="#46474D" stroke-width=".154" stroke-miterlimit="10" cx="107.606" cy="70.016" r="1.052"/><circle fill="#4CFF3A" stroke="#46474D" stroke-width=".154" stroke-miterlimit="10" cx="111.116" cy="68.867" r="1.052"/><circle fill="#4CFF3A" stroke="#46474D" stroke-width=".154" stroke-miterlimit="10" cx="109.747" cy="70.466" r="1.053"/><circle fill="#4CFF3A" stroke="#46474D" stroke-width=".154" stroke-miterlimit="10" cx="108.377" cy="72.063" r="1.051"/><circle fill="#4CFF3A" stroke="#46474D" stroke-width=".154" stroke-miterlimit="10" cx="113.28" cy="69.335" r="1.051"/><circle fill="#4CFF3A" stroke="#46474D" stroke-width=".154" stroke-miterlimit="10" cx="111.911" cy="70.933" r="1.053"/><circle fill="#4CFF3A" stroke="#46474D" stroke-width=".154" stroke-miterlimit="10" cx="110.542" cy="72.531" r="1.052"/><circle fill="#4CFF3A" stroke="#46474D" stroke-width=".154" stroke-miterlimit="10" cx="114.052" cy="71.383" r="1.053"/><circle fill="#4CFF3A" stroke="#46474D" stroke-width=".154" stroke-miterlimit="10" cx="112.683" cy="72.981" r="1.051"/><circle fill="#4CFF3A" stroke="#46474D" stroke-width=".154" stroke-miterlimit="10" cx="111.314" cy="74.578" r="1.053"/><circle fill="#4CFF3A" stroke="#46474D" stroke-width=".154" stroke-miterlimit="10" cx="116.179" cy="71.818" r="1.052"/><circle fill="#4CFF3A" stroke="#46474D" stroke-width=".154" stroke-miterlimit="10" cx="114.811" cy="73.417" r="1.052"/><circle fill="#4CFF3A" stroke="#46474D" stroke-width=".154" stroke-miterlimit="10" cx="113.442" cy="75.016" r="1.052"/><circle fill="#4CFF3A" stroke="#46474D" stroke-width=".154" stroke-miterlimit="10" cx="94.854" cy="52.167" r="1.053"/><circle fill="#4CFF3A" stroke="#46474D" stroke-width=".154" stroke-miterlimit="10" cx="97.031" cy="52.647" r="1.052"/><circle fill="#4CFF3A" stroke="#46474D" stroke-width=".154" stroke-miterlimit="10" cx="100.54" cy="51.497" r="1.052"/><circle fill="#4CFF3A" stroke="#46474D" stroke-width=".154" stroke-miterlimit="10" cx="99.171" cy="53.095" r="1.052"/><circle fill="#4CFF3A" stroke="#46474D" stroke-width=".154" stroke-miterlimit="10" cx="97.802" cy="54.694" r="1.052"/><circle fill="#4CFF3A" stroke="#46474D" stroke-width=".154" stroke-miterlimit="10" cx="102.705" cy="51.966" r="1.053"/><circle fill="#4CFF3A" stroke="#46474D" stroke-width=".154" stroke-miterlimit="10" cx="101.335" cy="53.564" r="1.052"/><circle fill="#4CFF3A" stroke="#46474D" stroke-width=".154" stroke-miterlimit="10" cx="99.966" cy="55.162" r="1.053"/><circle fill="#4CFF3A" stroke="#46474D" stroke-width=".154" stroke-miterlimit="10" cx="104.845" cy="52.415" r="1.052"/><circle fill="#4CFF3A" stroke="#46474D" stroke-width=".154" stroke-miterlimit="10" cx="103.477" cy="54.012" r="1.052"/><circle fill="#4CFF3A" stroke="#46474D" stroke-width=".154" stroke-miterlimit="10" cx="102.108" cy="55.61" r="1.053"/><circle fill="#4CFF3A" stroke="#46474D" stroke-width=".154" stroke-miterlimit="10" cx="100.739" cy="57.208" r="1.052"/><circle fill="#4CFF3A" stroke="#46474D" stroke-width=".154" stroke-miterlimit="10" cx="106.973" cy="52.852" r="1.052"/><circle fill="#4CFF3A" stroke="#46474D" stroke-width=".154" stroke-miterlimit="10" cx="105.604" cy="54.45" r="1.053"/><circle fill="#4CFF3A" stroke="#46474D" stroke-width=".154" stroke-miterlimit="10" cx="104.235" cy="56.048" r="1.052"/><circle fill="#4CFF3A" stroke="#46474D" stroke-width=".154" stroke-miterlimit="10" cx="102.867" cy="57.646" r="1.052"/><circle fill="#4CFF3A" stroke="#46474D" stroke-width=".154" stroke-miterlimit="10" cx="109.114" cy="53.301" r="1.052"/><circle fill="#4CFF3A" stroke="#46474D" stroke-width=".154" stroke-miterlimit="10" cx="107.745" cy="54.899" r="1.052"/><circle fill="#4CFF3A" stroke="#46474D" stroke-width=".154" stroke-miterlimit="10" cx="106.376" cy="56.497" r="1.051"/><circle fill="#4CFF3A" stroke="#46474D" stroke-width=".154" stroke-miterlimit="10" cx="105.007" cy="58.094" r="1.053"/><circle fill="#4CFF3A" stroke="#46474D" stroke-width=".154" stroke-miterlimit="10" cx="103.638" cy="59.693" r="1.052"/><circle fill="#4CFF3A" stroke="#46474D" stroke-width=".154" stroke-miterlimit="10" cx="89.181" cy="52.849" r="1.052"/><circle fill="#4CFF3A" stroke="#46474D" stroke-width=".154" stroke-miterlimit="10" cx="87.813" cy="54.446" r="1.052"/><circle fill="#4CFF3A" stroke="#46474D" stroke-width=".154" stroke-miterlimit="10" cx="91.345" cy="53.317" r="1.052"/><circle fill="#4CFF3A" stroke="#46474D" stroke-width=".154" stroke-miterlimit="10" cx="89.976" cy="54.916" r="1.053"/><circle fill="#4CFF3A" stroke="#46474D" stroke-width=".154" stroke-miterlimit="10" cx="93.485" cy="53.766" r="1.052"/><circle fill="#4CFF3A" stroke="#46474D" stroke-width=".154" stroke-miterlimit="10" cx="92.117" cy="55.364" r="1.052"/><circle fill="#4CFF3A" stroke="#46474D" stroke-width=".154" stroke-miterlimit="10" cx="90.749" cy="56.962" r="1.052"/><circle fill="#4CFF3A" stroke="#46474D" stroke-width=".154" stroke-miterlimit="10" cx="95.663" cy="54.245" r="1.052"/><circle fill="#4CFF3A" stroke="#46474D" stroke-width=".154" stroke-miterlimit="10" cx="94.293" cy="55.844" r="1.053"/><circle fill="#4CFF3A" stroke="#46474D" stroke-width=".154" stroke-miterlimit="10" cx="92.924" cy="57.442" r="1.051"/><circle fill="#4CFF3A" stroke="#46474D" stroke-width=".154" stroke-miterlimit="10" cx="96.434" cy="56.292" r="1.052"/><circle fill="#4CFF3A" stroke="#46474D" stroke-width=".154" stroke-miterlimit="10" cx="95.066" cy="57.89" r="1.052"/><circle fill="#4CFF3A" stroke="#46474D" stroke-width=".154" stroke-miterlimit="10" cx="93.697" cy="59.488" r="1.052"/><circle fill="#4CFF3A" stroke="#46474D" stroke-width=".154" stroke-miterlimit="10" cx="98.598" cy="56.76" r="1.051"/><circle fill="#4CFF3A" stroke="#46474D" stroke-width=".154" stroke-miterlimit="10" cx="97.23" cy="58.358" r="1.052"/><circle fill="#4CFF3A" stroke="#46474D" stroke-width=".154" stroke-miterlimit="10" cx="95.861" cy="59.956" r="1.052"/><circle fill="#4CFF3A" stroke="#46474D" stroke-width=".154" stroke-miterlimit="10" cx="99.37" cy="58.807" r="1.053"/><circle fill="#4CFF3A" stroke="#46474D" stroke-width=".154" stroke-miterlimit="10" cx="98.001" cy="60.405" r="1.051"/><circle fill="#4CFF3A" stroke="#46474D" stroke-width=".154" stroke-miterlimit="10" cx="96.633" cy="62.003" r="1.053"/><circle fill="#4CFF3A" stroke="#46474D" stroke-width=".154" stroke-miterlimit="10" cx="101.499" cy="59.244" r="1.052"/><circle fill="#4CFF3A" stroke="#46474D" stroke-width=".154" stroke-miterlimit="10" cx="100.129" cy="60.843" r="1.053"/><circle fill="#4CFF3A" stroke="#46474D" stroke-width=".154" stroke-miterlimit="10" cx="98.76" cy="62.44" r="1.052"/><circle fill="#4CFF3A" stroke="#46474D" stroke-width=".154" stroke-miterlimit="10" cx="102.269" cy="61.291" r="1.052"/><circle fill="#4CFF3A" stroke="#46474D" stroke-width=".154" stroke-miterlimit="10" cx="100.901" cy="62.888" r="1.051"/><circle fill="#4CFF3A" stroke="#46474D" stroke-width=".154" stroke-miterlimit="10" cx="99.533" cy="64.486" r="1.053"/><circle fill="#4CFF3A" stroke="#46474D" stroke-width=".154" stroke-miterlimit="10" cx="100.325" cy="66.604" r="1.052"/><circle fill="#4CFF3A" stroke="#46474D" stroke-width=".154" stroke-miterlimit="10" cx="98.956" cy="68.202" r="1.053"/><circle fill="#4CFF3A" stroke="#46474D" stroke-width=".154" stroke-miterlimit="10" cx="97.587" cy="69.802" r="1.052"/><circle fill="#4CFF3A" stroke="#46474D" stroke-width=".154" stroke-miterlimit="10" cx="96.219" cy="71.398" r="1.051"/><circle fill="#4CFF3A" stroke="#46474D" stroke-width=".154" stroke-miterlimit="10" cx="94.851" cy="72.996" r="1.052"/><circle fill="#4CFF3A" stroke="#46474D" stroke-width=".154" stroke-miterlimit="10" cx="93.482" cy="74.594" r="1.052"/><circle fill="#4CFF3A" stroke="#46474D" stroke-width=".154" stroke-miterlimit="10" cx="92.113" cy="76.193" r="1.052"/><circle fill="#4CFF3A" stroke="#46474D" stroke-width=".154" stroke-miterlimit="10" cx="101.098" cy="68.65" r="1.052"/><circle fill="#4CFF3A" stroke="#46474D" stroke-width=".154" stroke-miterlimit="10" cx="99.729" cy="70.249" r="1.053"/><circle fill="#4CFF3A" stroke="#46474D" stroke-width=".154" stroke-miterlimit="10" cx="98.359" cy="71.847" r="1.052"/><circle fill="#4CFF3A" stroke="#46474D" stroke-width=".154" stroke-miterlimit="10" cx="96.992" cy="73.444" r="1.051"/><circle fill="#4CFF3A" stroke="#46474D" stroke-width=".154" stroke-miterlimit="10" cx="95.624" cy="75.043" r="1.053"/><circle fill="#4CFF3A" stroke="#46474D" stroke-width=".154" stroke-miterlimit="10" cx="94.254" cy="76.641" r="1.052"/><circle fill="#4CFF3A" stroke="#46474D" stroke-width=".154" stroke-miterlimit="10" cx="92.885" cy="78.238" r="1.052"/><circle fill="#4CFF3A" stroke="#46474D" stroke-width=".154" stroke-miterlimit="10" cx="103.262" cy="69.12" r="1.052"/><circle fill="#4CFF3A" stroke="#46474D" stroke-width=".154" stroke-miterlimit="10" cx="101.893" cy="70.718" r="1.053"/><circle fill="#4CFF3A" stroke="#46474D" stroke-width=".154" stroke-miterlimit="10" cx="100.524" cy="72.316" r="1.051"/><circle fill="#4CFF3A" stroke="#46474D" stroke-width=".154" stroke-miterlimit="10" cx="99.156" cy="73.913" r="1.051"/><circle fill="#4CFF3A" stroke="#46474D" stroke-width=".154" stroke-miterlimit="10" cx="97.788" cy="75.511" r="1.053"/><circle fill="#4CFF3A" stroke="#46474D" stroke-width=".154" stroke-miterlimit="10" cx="96.418" cy="77.109" r="1.052"/><circle fill="#4CFF3A" stroke="#46474D" stroke-width=".154" stroke-miterlimit="10" cx="95.05" cy="78.708" r="1.053"/><circle fill="#4CFF3A" stroke="#46474D" stroke-width=".154" stroke-miterlimit="10" cx="104.034" cy="71.166" r="1.052"/><circle fill="#4CFF3A" stroke="#46474D" stroke-width=".154" stroke-miterlimit="10" cx="102.665" cy="72.764" r="1.052"/><circle fill="#4CFF3A" stroke="#46474D" stroke-width=".154" stroke-miterlimit="10" cx="101.295" cy="74.362" r="1.052"/><circle fill="#4CFF3A" stroke="#46474D" stroke-width=".154" stroke-miterlimit="10" cx="99.927" cy="75.959" r="1.051"/><circle fill="#4CFF3A" stroke="#46474D" stroke-width=".154" stroke-miterlimit="10" cx="98.559" cy="77.557" r="1.052"/><circle fill="#4CFF3A" stroke="#46474D" stroke-width=".154" stroke-miterlimit="10" cx="97.19" cy="79.156" r="1.052"/><circle fill="#4CFF3A" stroke="#46474D" stroke-width=".154" stroke-miterlimit="10" cx="95.821" cy="80.754" r="1.052"/><circle fill="#4CFF3A" stroke="#46474D" stroke-width=".154" stroke-miterlimit="10" cx="106.211" cy="71.646" r="1.052"/><circle fill="#4CFF3A" stroke="#46474D" stroke-width=".154" stroke-miterlimit="10" cx="104.841" cy="73.243" r="1.052"/><circle fill="#4CFF3A" stroke="#46474D" stroke-width=".154" stroke-miterlimit="10" cx="103.472" cy="74.842" r="1.052"/><circle fill="#4CFF3A" stroke="#46474D" stroke-width=".154" stroke-miterlimit="10" cx="102.104" cy="76.44" r="1.052"/><circle fill="#4CFF3A" stroke="#46474D" stroke-width=".154" stroke-miterlimit="10" cx="100.736" cy="78.037" r="1.052"/><circle fill="#4CFF3A" stroke="#46474D" stroke-width=".154" stroke-miterlimit="10" cx="99.367" cy="79.635" r="1.053"/><circle fill="#4CFF3A" stroke="#46474D" stroke-width=".154" stroke-miterlimit="10" cx="97.998" cy="81.233" r="1.052"/><circle fill="#4CFF3A" stroke="#46474D" stroke-width=".154" stroke-miterlimit="10" cx="106.983" cy="73.691" r="1.052"/><circle fill="#4CFF3A" stroke="#46474D" stroke-width=".154" stroke-miterlimit="10" cx="105.615" cy="75.289" r="1.052"/><circle fill="#4CFF3A" stroke="#46474D" stroke-width=".154" stroke-miterlimit="10" cx="104.245" cy="76.888" r="1.053"/><circle fill="#4CFF3A" stroke="#46474D" stroke-width=".154" stroke-miterlimit="10" cx="102.876" cy="78.486" r="1.051"/><circle fill="#4CFF3A" stroke="#46474D" stroke-width=".154" stroke-miterlimit="10" cx="101.508" cy="80.084" r="1.052"/><circle fill="#4CFF3A" stroke="#46474D" stroke-width=".154" stroke-miterlimit="10" cx="100.139" cy="81.682" r="1.052"/><circle fill="#4CFF3A" stroke="#46474D" stroke-width=".154" stroke-miterlimit="10" cx="98.771" cy="83.28" r="1.052"/><circle fill="#4CFF3A" stroke="#46474D" stroke-width=".154" stroke-miterlimit="10" cx="109.147" cy="74.16" r="1.052"/><circle fill="#4CFF3A" stroke="#46474D" stroke-width=".154" stroke-miterlimit="10" cx="107.779" cy="75.759" r="1.052"/><circle fill="#4CFF3A" stroke="#46474D" stroke-width=".154" stroke-miterlimit="10" cx="106.41" cy="77.356" r="1.052"/><circle fill="#4CFF3A" stroke="#46474D" stroke-width=".154" stroke-miterlimit="10" cx="105.042" cy="78.954" r="1.052"/><circle fill="#4CFF3A" stroke="#46474D" stroke-width=".154" stroke-miterlimit="10" cx="103.672" cy="80.552" r="1.053"/><circle fill="#4CFF3A" stroke="#46474D" stroke-width=".154" stroke-miterlimit="10" cx="102.303" cy="82.15" r="1.052"/><circle fill="#4CFF3A" stroke="#46474D" stroke-width=".154" stroke-miterlimit="10" cx="100.934" cy="83.748" r="1.052"/><circle fill="#4CFF3A" stroke="#46474D" stroke-width=".154" stroke-miterlimit="10" cx="109.919" cy="76.206" r="1.052"/><circle fill="#4CFF3A" stroke="#46474D" stroke-width=".154" stroke-miterlimit="10" cx="108.55" cy="77.804" r="1.053"/><circle fill="#4CFF3A" stroke="#46474D" stroke-width=".154" stroke-miterlimit="10" cx="107.181" cy="79.403" r="1.052"/><circle fill="#4CFF3A" stroke="#46474D" stroke-width=".154" stroke-miterlimit="10" cx="105.813" cy="81.001" r="1.052"/><circle fill="#4CFF3A" stroke="#46474D" stroke-width=".154" stroke-miterlimit="10" cx="104.444" cy="82.599" r="1.052"/><circle fill="#4CFF3A" stroke="#46474D" stroke-width=".154" stroke-miterlimit="10" cx="103.075" cy="84.196" r="1.052"/><circle fill="#4CFF3A" stroke="#46474D" stroke-width=".154" stroke-miterlimit="10" cx="112.046" cy="76.644" r="1.052"/><circle fill="#4CFF3A" stroke="#46474D" stroke-width=".154" stroke-miterlimit="10" cx="110.677" cy="78.242" r="1.052"/><circle fill="#4CFF3A" stroke="#46474D" stroke-width=".154" stroke-miterlimit="10" cx="109.308" cy="79.84" r="1.052"/><circle fill="#4CFF3A" stroke="#46474D" stroke-width=".154" stroke-miterlimit="10" cx="107.94" cy="81.437" r="1.051"/><path fill="#4CFF3A" stroke="#46474D" stroke-width=".154" stroke-miterlimit="10" d="M105.887 83.835a1.054 1.054 0 0 0 1.484-.116 1.05 1.05 0 1 0-1.597-1.368 1.051 1.051 0 0 0 .113 1.484z"/><circle fill="#4CFF3A" stroke="#46474D" stroke-width=".154" stroke-miterlimit="10" cx="93.681" cy="80.306" r="1.052"/><circle fill="#4CFF3A" stroke="#46474D" stroke-width=".154" stroke-miterlimit="10" cx="94.453" cy="82.352" r="1.052"/><circle fill="#4CFF3A" stroke="#46474D" stroke-width=".154" stroke-miterlimit="10" cx="96.629" cy="82.831" r="1.052"/><circle fill="#4CFF3A" stroke="#46474D" stroke-width=".154" stroke-miterlimit="10" cx="86.417" cy="56.076" r="1.052"/><circle fill="#4CFF3A" stroke="#46474D" stroke-width=".154" stroke-miterlimit="10" cx="88.58" cy="56.545" r="1.052"/><circle fill="#4CFF3A" stroke="#46474D" stroke-width=".154" stroke-miterlimit="10" cx="87.211" cy="58.143" r="1.052"/><circle fill="#4CFF3A" stroke="#46474D" stroke-width=".154" stroke-miterlimit="10" cx="89.353" cy="58.591" r="1.052"/><circle fill="#4CFF3A" stroke="#46474D" stroke-width=".154" stroke-miterlimit="10" cx="87.984" cy="60.189" r="1.053"/><circle fill="#4CFF3A" stroke="#46474D" stroke-width=".154" stroke-miterlimit="10" cx="91.53" cy="59.071" r="1.052"/><circle fill="#4CFF3A" stroke="#46474D" stroke-width=".154" stroke-miterlimit="10" cx="90.161" cy="60.668" r="1.052"/><circle fill="#4CFF3A" stroke="#46474D" stroke-width=".154" stroke-miterlimit="10" cx="88.792" cy="62.266" r="1.053"/><circle fill="#4CFF3A" stroke="#46474D" stroke-width=".154" stroke-miterlimit="10" cx="92.302" cy="61.115" r="1.052"/><circle fill="#4CFF3A" stroke="#46474D" stroke-width=".154" stroke-miterlimit="10" cx="90.933" cy="62.714" r="1.053"/><circle fill="#4CFF3A" stroke="#46474D" stroke-width=".154" stroke-miterlimit="10" cx="89.563" cy="64.313" r="1.053"/><circle fill="#4CFF3A" stroke="#46474D" stroke-width=".154" stroke-miterlimit="10" cx="94.465" cy="61.585" r="1.053"/><circle fill="#4CFF3A" stroke="#46474D" stroke-width=".154" stroke-miterlimit="10" cx="93.096" cy="63.184" r="1.052"/><circle fill="#4CFF3A" stroke="#46474D" stroke-width=".154" stroke-miterlimit="10" cx="91.728" cy="64.782" r="1.051"/><circle fill="#4CFF3A" stroke="#46474D" stroke-width=".154" stroke-miterlimit="10" cx="90.36" cy="66.379" r="1.052"/><circle fill="#4CFF3A" stroke="#46474D" stroke-width=".154" stroke-miterlimit="10" cx="95.238" cy="63.631" r="1.052"/><circle fill="#4CFF3A" stroke="#46474D" stroke-width=".154" stroke-miterlimit="10" cx="93.869" cy="65.23" r="1.053"/><circle fill="#4CFF3A" stroke="#46474D" stroke-width=".154" stroke-miterlimit="10" cx="92.5" cy="66.828" r="1.052"/><circle fill="#4CFF3A" stroke="#46474D" stroke-width=".154" stroke-miterlimit="10" cx="91.131" cy="68.426" r="1.052"/><circle fill="#4CFF3A" stroke="#46474D" stroke-width=".154" stroke-miterlimit="10" cx="97.366" cy="64.068" r="1.052"/><circle fill="#4CFF3A" stroke="#46474D" stroke-width=".154" stroke-miterlimit="10" cx="95.997" cy="65.667" r="1.053"/><circle fill="#4CFF3A" stroke="#46474D" stroke-width=".154" stroke-miterlimit="10" cx="94.627" cy="67.265" r="1.052"/><circle fill="#4CFF3A" stroke="#46474D" stroke-width=".154" stroke-miterlimit="10" cx="93.259" cy="68.863" r="1.051"/><circle fill="#4CFF3A" stroke="#46474D" stroke-width=".154" stroke-miterlimit="10" cx="91.891" cy="70.46" r="1.052"/><circle fill="#4CFF3A" stroke="#46474D" stroke-width=".154" stroke-miterlimit="10" cx="90.522" cy="72.059" r="1.053"/><circle fill="#4CFF3A" stroke="#46474D" stroke-width=".154" stroke-miterlimit="10" cx="98.138" cy="66.115" r="1.052"/><circle fill="#4CFF3A" stroke="#46474D" stroke-width=".154" stroke-miterlimit="10" cx="96.768" cy="67.713" r="1.053"/><circle fill="#4CFF3A" stroke="#46474D" stroke-width=".154" stroke-miterlimit="10" cx="95.399" cy="69.312" r="1.052"/><circle fill="#4CFF3A" stroke="#46474D" stroke-width=".154" stroke-miterlimit="10" cx="94.032" cy="70.909" r="1.051"/><circle fill="#4CFF3A" stroke="#46474D" stroke-width=".154" stroke-miterlimit="10" cx="92.663" cy="72.508" r="1.052"/><circle fill="#4CFF3A" stroke="#46474D" stroke-width=".154" stroke-miterlimit="10" cx="91.294" cy="74.106" r="1.052"/></svg>