<svg xmlns="http://www.w3.org/2000/svg" viewBox='0 0 215.043 119.101' width="215.043" height="119.101" xml:space="preserve"><path fill="#46474D" d="M171.945 1.119a2.925 2.925 0 0 0-4.107-.496l-5.248 5.793-17.996 5.958 2.039 5.481.971-.36.936 3.608-7.248 2.008-19.912 4.957-21.977 14.239-19.992-9.273-2.82-20.697h-4.672l3.826 27.173 1.4-.22 10.418 10.039-.779-.288a.737.737 0 0 0-.509 1.381l.324.121-1.043 1.111-.91-.335a.735.735 0 1 0-.507 1.381l.324.119-.057.061.955.895-.605.648-2.246-.828c-.381-.146-.803.055-.943.436s.053.805.434.945l1.66.611L82.62 56.7l-2.244-.83a.731.731 0 0 0-.945.436.734.734 0 0 0 .436.944l1.66.612-1.045 1.115-2.244-.828a.738.738 0 0 0-.945.437.735.735 0 0 0 .438.945l1.658.61-.955 1.018-.789-.686-16.547 7.309c-4.891-7.68-12.914-13.315-22.592-14.854C20.573 50.08 3.668 62.35.821 80.279c-2.846 17.928 9.424 34.832 27.354 37.678 17.93 2.848 34.83-9.422 37.678-27.35A32.692 32.692 0 0 0 63.962 73.4l12.66-5.459 7.916 6.906c-.027.163-.064.322-.086.49-.701 5.548 3.227 10.611 8.775 11.313a10.066 10.066 0 0 0 5.283-.758l2.336 3.896-.535-.066a1.81 1.81 0 0 0-2.025 1.57 1.81 1.81 0 0 0 1.568 2.025l4.229.535.006.002h.008l2.873.365a1.813 1.813 0 0 0 .455-3.597l-2.008-.254-3.886-6.488a10.113 10.113 0 0 0 1.708-2.165l7.574-.551s19.906-14.271 28.789-19.95c.541-3.955 11.891-23.132 15.787-25.887l-.08-.297.938-.272 2.203-.637 7.139 7.009-.004-.016-.002-.006-10.963-22.063-1.02-3.085-.078-.669 11.531-3.553-.006-.013c.277-.103.545-.235.789-.427l5.609-6.074a2.92 2.92 0 0 0 .5-4.105zM56.52 89.123c-2.031 12.783-14.08 21.533-26.863 19.501-12.785-2.028-21.533-14.081-19.504-26.864 2.031-12.781 14.084-21.53 26.867-19.502 6.383 1.016 11.758 4.528 15.291 9.383L47 73.975a17.774 17.774 0 0 1 3.137 5.502l5.168-2.273a23.295 23.295 0 0 1 1.215 11.919zm29.881-34.371.488.46-.684-.253.196-.207zm1.223 14.428-8.119-7.081.607-.647a1.807 1.807 0 0 0 1.453 1.144l3.426.433 3.33 5.561a9.786 9.786 0 0 0-.697.59zm3.744-8.16-.586 4.623-1.33-2.221a1.81 1.81 0 0 0 1.26-1.498c.125-.994-.58-1.9-1.572-2.025l-6.766-.855.604-.645 2.246.829a.732.732 0 0 0 .943-.436.73.73 0 0 0-.434-.942l-1.662-.614 1.043-1.11 2.248.826a.733.733 0 0 0 .943-.434.737.737 0 0 0-.436-.946l-.328-.119 1.043-1.113.914.337a.732.732 0 0 0 .945-.438.734.734 0 0 0-.436-.943l-.33-.121.891-.947 2.914 2.809-2.114 5.983z"/><path fill="none" stroke="#46474D" stroke-width="4.572" stroke-linejoin="round" stroke-miterlimit="10" d="m58.649 9.272 30.461 3.883-24.58-.656z"/><circle fill="#FFC246" stroke="#46474D" stroke-width=".192" stroke-miterlimit="10" cx="33.454" cy="85.323" r="17.859"/><path fill="#FFC246" stroke="#46474D" stroke-width=".146" stroke-miterlimit="10" d="m138.406 58.742-.002-.004-4.33-6.164-21.817 15.451.035.053-7.517 5.326 4.68 6.659.32.45.947-.667-.32-.451.953-.674.32.449.946-.668-.319-.453.951-.672.321.451.945-.672-.322-.447.955-.672.318.448.947-.669-.011-.011h.004l-.311-.44.877-.625.281.396.073-.052.041.057.943-.668-.008-.012v-.001l-.308-.439.878-.623.28.393.07-.049.041.057.947-.666-.011-.015-.307-.44.881-.619.279.392.07-.051.041.057.942-.669-.008-.012.004-.003-.311-.435.877-.627.282.396.07-.048.043.057.941-.672-.006-.012.004.002-.314-.442.883-.625.279.397.068-.049.039.056.948-.668-.01-.011.002-.002-.318-.453.88-.621.288.406.072-.052.031.044.943-.669-.32-.447.881-.626.291.408.072-.053.033.047.942-.67-.317-.449.879-.623.289.407.073-.051.031.043.943-.668-.353-.497.881-.623.322.452.947-.67-.01-.012h.002l-.32-.455.953-.67.32.449.944-.67-.321-.447.954-.678.324.455.941-.671-.318-.449.953-.675.32.452.944-.668z"/><path fill="#4CFF3A" d="m146.57 39.59-1.515 1.07-3.86-5.47 1.516-1.07zM147.042 39.256l1.51-1.07-3.861-5.463-1.516 1.066zM142.613 42.395l-1.513 1.069-3.862-5.465 1.514-1.07zM144.592 40.99l-1.515 1.072-3.865-5.468 1.516-1.071zM137.132 46.264l1.516-1.07-3.863-5.465-1.518 1.068zM140.634 43.783l-1.514 1.072-3.87-5.463 1.514-1.072zM134.685 47.99l-1.514 1.071-3.863-5.464 1.514-1.07zM136.67 46.598l-1.514 1.069-3.862-5.467 1.513-1.07zM130.72 50.795l-1.514 1.068-3.858-5.466 1.514-1.069zM132.706 49.394l-1.512 1.073-3.873-5.456 1.512-1.073zM126.76 53.596l-1.513 1.07-3.865-5.465 1.514-1.07zM128.742 52.194l-1.514 1.07-3.864-5.465 1.514-1.07zM122.798 56.407l-1.513 1.07-3.862-5.468 1.513-1.069zM124.785 54.999l-1.511 1.07-3.869-5.464 1.512-1.07zM118.834 59.21l-1.514 1.07-3.862-5.466 1.514-1.07zM120.814 57.8l-1.514 1.07-3.863-5.463 1.514-1.07zM114.87 62.003l-1.514 1.07-3.863-5.464 1.514-1.07zM116.85 60.61l-1.516 1.07-3.864-5.467 1.515-1.071zM110.907 64.817l-1.513 1.07-3.863-5.468 1.513-1.07zM112.885 63.41l-1.516 1.072-3.862-5.464 1.516-1.071zM106.946 67.614l-1.512 1.068-3.862-5.464 1.512-1.068zM107.412 67.283l1.509-1.072-3.865-5.465-1.512 1.074zM102.982 70.417l-1.515 1.07-3.86-5.468 1.515-1.07zM104.96 69.005l-1.511 1.072-3.873-5.46 1.512-1.072zM142.296 33.524l-1.513 1.072-3.868-5.46 1.514-1.072zM144.282 32.127l-1.511 1.07-3.868-5.463 1.512-1.07zM146.258 30.739l-1.514 1.067-3.857-5.47 1.513-1.068zM138.33 36.329l-1.513 1.072-3.868-5.46 1.514-1.073zM140.32 34.929l-1.51 1.07-3.867-5.46 1.512-1.07zM134.374 39.135l-1.511 1.07-3.867-5.46 1.512-1.07zM136.344 37.74l-1.516 1.069-3.859-5.469 1.516-1.07zM128.888 43.012l1.512-1.071-3.859-5.464-1.518 1.07zM130.871 41.609l1.511-1.068-3.861-5.465-1.518 1.07zM124.925 45.814l1.512-1.071-3.863-5.46-1.514 1.065zM128.423 43.34l-1.514 1.07-3.863-5.465 1.513-1.07zM122.48 47.551l-1.514 1.07-3.861-5.466 1.513-1.07zM124.456 46.134l-1.512 1.072-3.87-5.456 1.512-1.072zM118.52 50.35l-1.512 1.068-3.863-5.467 1.511-1.068zM120.502 48.946l-1.511 1.07-3.867-5.462 1.511-1.07zM114.554 53.152l-1.511 1.069-3.862-5.464 1.512-1.069zM116.535 51.754l-1.515 1.068-3.857-5.473 1.515-1.068zM110.592 55.956l-1.511 1.068-3.864-5.467 1.511-1.069zM112.563 54.548l-1.515 1.07-3.86-5.466 1.515-1.07zM106.625 58.747l-1.512 1.072-3.872-5.46 1.511-1.073zM108.607 57.36l-1.514 1.07-3.86-5.465 1.513-1.07zM126.116 35.887l-1.513 1.07-3.865-5.461 1.513-1.071zM122.152 38.696l-1.516 1.073-3.866-5.465 1.516-1.072zM124.142 37.29l-1.515 1.068-3.856-5.47 1.515-1.068zM118.198 41.498l-1.514 1.069-3.86-5.464 1.513-1.069zM118.666 41.164l1.509-1.07-3.861-5.466-1.516 1.071zM114.237 44.297l-1.511 1.068-3.863-5.466 1.511-1.068zM116.208 42.902l-1.516 1.067-3.854-5.473 1.516-1.067zM110.266 47.1l-1.516 1.074-3.87-5.46 1.515-1.075zM112.245 45.694l-1.513 1.071-3.865-5.46 1.514-1.072zM106.313 49.898l-1.511 1.07-3.866-5.46 1.511-1.07zM108.289 48.5l-1.512 1.071-3.87-5.46 1.513-1.071zM102.81 52.373l1.516-1.068-3.867-5.465-1.515 1.069zM102.663 61.563l-1.513 1.07-3.865-5.462 1.513-1.07zM104.644 60.164l-1.513 1.07-3.862-5.467 1.513-1.069zM98.7 64.36l-1.514 1.07-3.865-5.467 1.514-1.07zM100.682 62.959l-1.511 1.073-3.874-5.457 1.511-1.073z"/><circle fill="none" stroke="#46474D" stroke-width="1.213" stroke-miterlimit="10" stroke-dasharray="2.408,1.806" cx="178.211" cy="82.268" r="36.226"/><path fill="#46474D" d="m55.382 70.29 2.555 5.741-24.144 10.743-2.555-5.741z"/><path fill="#46474D" d="m31.248 81.046 5.309.585-.792 7.185-5.309-.585z"/><circle fill="none" stroke="#46474D" stroke-width="1.213" stroke-miterlimit="10" stroke-dasharray="2.4059,1.8044" cx="33.454" cy="85.324" r="32.844"/><circle fill="none" stroke="#46474D" stroke-width="9.1" stroke-miterlimit="10" cx="178.211" cy="82.268" r="31.776"/><circle fill="none" stroke="#46474D" stroke-width=".521" stroke-miterlimit="10" cx="178.21" cy="82.269" r="1.818"/><path fill="none" stroke="#46474D" stroke-width="6.066" stroke-linecap="round" stroke-miterlimit="10" d="m157.427 18.402 20.475 66.428"/></svg>