<svg xmlns="http://www.w3.org/2000/svg" viewBox='0 0 190.218 113.317' width="190.218" height="113.317" xml:space="preserve"><path fill="#FFC246" stroke="#46474D" stroke-width=".152" stroke-miterlimit="10" d="m94.32 61.902 8.511-10.762-2.343-1.855-.631-.496-.498.629.303.237-.503.639-.303-.237-.497.628.301.239-.502.635-.302-.237-.497.631.301.237-.504.636-.303-.238-.498.631.301.236-.504.637-.299-.237-.501.631.304.237-.504.638-.3-.238-.497.629.301.238-.507.635-.3-.237-.498.63.302.24-.505.634-.299-.238-.5.633.303.234-.503.638-.302-.239-.5.631.302.239z"/><circle fill="#FFC246" stroke="#46474D" stroke-width=".147" stroke-miterlimit="10" cx="35.94" cy="76.392" r="8.5"/><circle fill="none" stroke="#46474D" stroke-width="7.587" stroke-miterlimit="10" cx="35.334" cy="76.527" r="30.595"/><circle fill="none" stroke="#46474D" stroke-width="6.177" stroke-miterlimit="10" cx="153.426" cy="76.527" r="32.594"/><path fill="#46474D" d="m80.264 81.51 1.896-2.734c.6-.873 1.342-1.921 2.199-3.117.859-1.197 1.825-2.549 2.881-4.021l3.445-4.728c1.217-1.683 2.542-3.423 3.89-5.241 1.358-1.811 2.738-3.699 4.184-5.585 1.44-1.889 2.905-3.808 4.369-5.726 2.907-3.854 5.911-7.629 8.688-11.201 1.396-1.779 2.727-3.516 4.026-5.131l3.65-4.563c2.259-2.826 4.144-5.181 5.462-6.828l.881-1.1c.272-.307.695-.413 1.141-.418.216-.007.467.037.662.055.236.053.406.074.6.137.342.09.607.207.593.194l2.78 2.252c-.015-.013.154.222.316.538.1.176.156.339.258.56.058.185.152.423.19.636.088.435.073.871-.173 1.201-.257.316-.557.682-.889 1.092l-5.541 6.766-3.701 4.521c-1.308 1.608-2.729 3.27-4.179 5.007-2.915 3.46-5.981 7.186-9.144 10.832-1.57 1.832-3.145 3.664-4.69 5.467-1.542 1.807-3.102 3.551-4.589 5.256-1.499 1.697-2.924 3.355-4.316 4.896a9649.385 9649.385 0 0 1-3.906 4.355l-3.332 3.656a197.842 197.842 0 0 1-2.591 2.8l-2.277 2.425-2.783-2.253z"/><path fill="#46474D" d="M69.257 35.146s3.683-1.456 9.256-3.469a581 581 0 0 1 9.546-3.357c3.495-1.227 7.245-2.449 10.989-3.696 3.742-1.257 7.514-2.413 11.034-3.55 3.518-1.143 6.829-2.113 9.655-2.988l3.862-1.18c1.154-.336 2.141-.692 2.987-.875 1.72-.27 3.141 1.037 3.141 1.037l1.025 3.43s-.471 1.873-2.056 2.591c-.81.312-1.828.556-2.978.908l-3.875 1.134c-2.843.818-6.145 1.826-9.713 2.801-3.566.982-7.354 2.086-11.171 3.089-3.815 1.013-7.622 2.05-11.215 2.942-3.583.926-6.942 1.74-9.823 2.432-5.764 1.378-9.641 2.182-9.641 2.182l-1.023-3.431z"/><path fill="none" stroke="#46474D" stroke-width="3.851" stroke-miterlimit="10" d="m119.569 7.18 10.712 26.112"/><path fill="none" stroke="#46474D" stroke-width="6.744" stroke-miterlimit="10" d="m125.729 12.383 27.698 64.144"/><path fill="none" stroke="#46474D" stroke-width="5.17" stroke-miterlimit="10" d="m118.954 11.695 10.46-4.716"/><path fill="none" stroke="#46474D" stroke-width="5.494" stroke-linecap="round" stroke-miterlimit="10" d="m122.202 2.747 8.6 4.858"/><path fill="#46474D" stroke="#46474D" stroke-width="4.215" stroke-linejoin="round" stroke-miterlimit="10" d="m53.437 22.28 26.303-1.716-7.885 2.61-16.091 3.591z"/><circle fill="#46474D" cx="81.656" cy="82.635" r="9.16"/><path fill="none" stroke="#46474D" stroke-width="3.579" stroke-linecap="round" stroke-miterlimit="10" d="m81.655 82.635 10.919 13.914M70.918 68.723l10.917 13.912M88.36 96.549h7.082M66.641 68.723h7.082"/><path fill="none" stroke="#46474D" stroke-width="6.744" stroke-linecap="round" stroke-linejoin="round" stroke-miterlimit="10" d="m81.655 82.635-46.321-5.244"/><path fill="none" stroke="#46474D" stroke-width="3.579" stroke-linejoin="round" stroke-miterlimit="10" d="M36.104 77.605 54.621 43.73M66.648 24.844l15.007 57.791"/><path fill="#46474D" stroke="#46474D" stroke-width="3.372" stroke-linecap="round" stroke-linejoin="round" stroke-miterlimit="10" d="m81.353 41.611-27.245 2.532 18.78 5.435z"/><path fill="#46474D" d="M114.935 26.205s5.551 5.058 5.271 5.198c-.282.141 4.004-7.164 4.004-7.164l-9.275 1.966z"/><path fill="none" stroke="#46474D" stroke-width="6.744" stroke-linecap="round" stroke-miterlimit="10" d="m131.1 25.123 22.327 51.404"/><path fill="none" stroke="#46474D" stroke-width="1.531" stroke-linecap="round" stroke-linejoin="round" stroke-miterlimit="10" d="m84.489 45.043-5.183 2.92M84.855 48.273l-5.185 2.921M85.22 51.504l-5.183 2.919M85.587 54.734l-5.186 2.92M85.95 57.964l-5.183 2.921M86.306 61.105l-5.185 2.918"/><path fill="none" stroke="#46474D" stroke-width="1.485" stroke-linecap="round" stroke-linejoin="round" stroke-miterlimit="10" d="m81.394 42.04 2.983 26.386"/><path fill="none" stroke="#46474D" stroke-width="4.215" stroke-linejoin="round" stroke-miterlimit="10" d="m82.791 54.395 1.586 14.031"/><path fill="#FFF" stroke="#46474D" stroke-width="4.215" stroke-linecap="round" stroke-linejoin="round" stroke-miterlimit="10" d="M80.149 69.169s5.408-.772 8.146 1.476"/><circle fill="none" stroke="#46474D" stroke-width="8.608" stroke-miterlimit="10" stroke-dasharray="2.532" cx="35.333" cy="76.527" r="31.029"/><circle fill="none" stroke="#46474D" stroke-width="6.369" stroke-miterlimit="10" stroke-dasharray="2.532" cx="153.427" cy="76.527" r="33.606"/><g fill="#4CFF3A" stroke="#46474D" stroke-width=".152" stroke-miterlimit="10"><path d="M98.979 39.66a1.145 1.145 0 0 0 1.406-1.81 1.147 1.147 0 1 0-1.406 1.81z"/><path d="M97.569 41.469c.5.389 1.219.301 1.609-.201a1.147 1.147 0 1 0-1.609.201zM101.355 40.057c.502.387 1.22.301 1.608-.202a1.143 1.143 0 0 0-.2-1.606 1.146 1.146 0 0 0-1.408 1.808z"/><circle cx="100.652" cy="40.961" r="1.145"/><path d="M102.304 42.244a1.143 1.143 0 1 0 1.404-1.808 1.141 1.141 0 0 0-1.608.203 1.14 1.14 0 0 0 .204 1.605z"/><path d="M100.896 44.055c.5.388 1.222.299 1.607-.202a1.143 1.143 0 0 0-.199-1.608 1.148 1.148 0 0 0-1.408 1.81zM104.642 42.611a1.149 1.149 0 0 0 1.609-.201 1.147 1.147 0 0 0-1.811-1.406 1.147 1.147 0 0 0 .202 1.607zM103.233 44.42a1.145 1.145 0 1 0 1.408-1.808 1.143 1.143 0 0 0-1.608.203c-.389.498-.3 1.217.2 1.605zM105.586 44.797a1.145 1.145 0 1 0 1.407-1.807 1.14 1.14 0 0 0-1.605.2 1.142 1.142 0 0 0 .198 1.607z"/><path d="M104.18 46.606a1.139 1.139 0 0 0 1.606-.2 1.145 1.145 0 1 0-1.806-1.404 1.14 1.14 0 0 0 .2 1.604z"/><circle cx="96.84" cy="42.409" r="1.146"/><path d="M94.728 45.125a1.143 1.143 0 0 0 1.607-.203 1.143 1.143 0 0 0-.197-1.607 1.148 1.148 0 1 0-1.41 1.81z"/><path d="M93.317 46.936a1.15 1.15 0 0 0 1.611-.203 1.146 1.146 0 0 0-1.81-1.408c-.388.5-.298 1.218.199 1.611z"/><path d="M91.911 48.746a1.15 1.15 0 0 0 1.612-.2 1.15 1.15 0 0 0-.206-1.61 1.14 1.14 0 0 0-1.606.199c-.388.5-.298 1.22.2 1.611zM90.506 50.557a1.145 1.145 0 1 0 1.405-1.81 1.145 1.145 0 0 0-1.405 1.81z"/><path d="M89.097 52.365a1.148 1.148 0 0 0 1.609-.201 1.143 1.143 0 0 0-.2-1.607c-.5-.393-1.221-.3-1.609.199a1.149 1.149 0 0 0 .2 1.609zM87.692 54.173a1.144 1.144 0 1 0 1.404-1.807 1.144 1.144 0 1 0-1.404 1.807zM98.515 43.712a1.146 1.146 0 1 0-.202-1.606 1.14 1.14 0 0 0 .202 1.606z"/><path d="M97.106 45.521a1.15 1.15 0 0 0 1.613-.201 1.15 1.15 0 0 0-.205-1.608 1.142 1.142 0 0 0-1.606.202 1.14 1.14 0 0 0 .198 1.607z"/><circle cx="96.402" cy="46.428" r="1.148"/><path d="M94.291 49.143c.5.389 1.222.299 1.61-.201a1.143 1.143 0 0 0-.203-1.607 1.143 1.143 0 0 0-1.606.201c-.391.496-.3 1.219.199 1.607z"/><circle cx="93.588" cy="50.047" r="1.145"/><path d="M91.478 52.762c.502.391 1.22.299 1.607-.2a1.15 1.15 0 0 0-.199-1.61 1.148 1.148 0 0 0-1.608.203c-.39.5-.299 1.22.2 1.607z"/><circle cx="90.775" cy="53.667" r="1.147"/><path d="M99.459 45.899c.501.388 1.221.3 1.61-.2a1.15 1.15 0 0 0-.2-1.609 1.146 1.146 0 1 0-1.41 1.809z"/><circle cx="98.756" cy="46.804" r="1.145"/><circle cx="97.35" cy="48.615" r="1.148"/><path d="M95.24 51.334a1.145 1.145 0 1 0 1.404-1.812 1.141 1.141 0 0 0-1.606.199 1.15 1.15 0 0 0 .202 1.613z"/><path d="M93.833 53.14a1.145 1.145 0 1 0 1.407-1.805 1.141 1.141 0 0 0-1.609.198c-.39.498-.3 1.219.202 1.607z"/><circle cx="93.128" cy="54.045" r="1.147"/><circle cx="91.72" cy="55.855" r="1.146"/><path d="M101.798 46.268a1.149 1.149 0 0 0 1.612-.203 1.15 1.15 0 0 0-.205-1.607 1.146 1.146 0 1 0-1.407 1.81z"/><path d="M100.393 48.076a1.145 1.145 0 1 0 1.405-1.808 1.14 1.14 0 0 0-1.606.201 1.14 1.14 0 0 0 .201 1.607zM102.746 48.453a1.138 1.138 0 0 0 1.605-.203 1.144 1.144 0 1 0-1.809-1.404c-.386.5-.298 1.218.204 1.607zM88.663 56.383a1.14 1.14 0 0 0 1.605-.203 1.142 1.142 0 0 0-.196-1.606 1.15 1.15 0 0 0-1.612.2 1.15 1.15 0 0 0 .203 1.609z"/><path d="M89.609 58.571c.5.387 1.221.296 1.61-.201a1.151 1.151 0 0 0-.203-1.61 1.147 1.147 0 1 0-1.407 1.811zM114.232 33.871a1.146 1.146 0 1 0 1.406-1.809 1.153 1.153 0 0 0-1.612.202c-.383.5-.297 1.22.206 1.607zM107.079 32.83a1.146 1.146 0 1 0 1.408-1.809 1.146 1.146 0 0 0-1.408 1.809zM109.432 33.209c.501.387 1.22.297 1.606-.201a1.144 1.144 0 1 0-1.805-1.408 1.144 1.144 0 0 0 .199 1.609z"/><path d="M108.026 35.018a1.15 1.15 0 0 0 1.609-.199 1.147 1.147 0 0 0-.204-1.609 1.144 1.144 0 1 0-1.405 1.808z"/><circle cx="112.473" cy="32.668" r="1.148"/><circle cx="111.065" cy="34.479" r="1.146"/><path d="M112.715 35.762a1.147 1.147 0 1 0 1.41-1.81 1.147 1.147 0 0 0-1.41 1.81z"/><path d="M111.308 37.574c.501.387 1.22.295 1.609-.205a1.142 1.142 0 0 0-.202-1.607 1.144 1.144 0 0 0-1.606.201 1.15 1.15 0 0 0 .199 1.611z"/><circle cx="103.995" cy="33.338" r="1.147"/><path d="M101.884 36.053a1.145 1.145 0 1 0 1.408-1.808c-.5-.392-1.22-.3-1.609.199a1.15 1.15 0 0 0 .201 1.609z"/><path d="M100.476 37.859a1.147 1.147 0 0 0 1.611-.197 1.148 1.148 0 0 0-1.814-1.409 1.149 1.149 0 0 0 .203 1.606z"/><circle cx="106.375" cy="33.735" r="1.147"/><path d="M104.264 36.451a1.146 1.146 0 1 0 1.409-1.809 1.146 1.146 0 0 0-1.409 1.809z"/><circle cx="103.561" cy="37.356" r="1.147"/><circle cx="107.322" cy="35.923" r="1.147"/><circle cx="105.912" cy="37.733" r="1.147"/><path d="M103.804 40.445c.5.391 1.22.301 1.609-.198a1.149 1.149 0 0 0-1.812-1.411 1.148 1.148 0 0 0 .203 1.609z"/><circle cx="109.658" cy="36.29" r="1.146"/><path d="M107.548 39.002a1.144 1.144 0 1 0 1.406-1.807 1.144 1.144 0 1 0-1.406 1.807z"/><path d="M106.142 40.813a1.147 1.147 0 1 0 1.41-1.809 1.147 1.147 0 0 0-1.41 1.809zM109.901 39.383c.499.385 1.22.297 1.607-.203.389-.5.298-1.219-.201-1.605a1.138 1.138 0 0 0-1.606.197c-.391.5-.3 1.22.2 1.611z"/><path d="M108.492 41.191a1.15 1.15 0 0 0 1.61-.201c.39-.5.298-1.223-.201-1.607a1.146 1.146 0 1 0-1.409 1.808z"/><path d="M107.086 43.001a1.145 1.145 0 1 0 1.41-1.807 1.145 1.145 0 0 0-1.41 1.807z"/></g></svg>