<svg xmlns="http://www.w3.org/2000/svg" viewBox='0 0 211.939 132.655' width="211.939" height="132.655" xml:space="preserve"><circle fill="#FFC246" stroke="#46474D" stroke-width=".146" stroke-miterlimit="10" cx="33.755" cy="98.61" r="13.612"/><path fill="#FFC246" stroke="#46474D" stroke-width=".146" stroke-miterlimit="10" d="m108.117 85.622-5.133-4.609 15.077-16.918 4.752 4.267.001.004.733.651-.652.732-.35-.312-.658.739.347.309-.65.735-.354-.315-.658.741.35.31-.651.732-.349-.31-.662.735.351.315v.001l.008.008-.652.732-.354-.311-.654.736.342.304-.002-.001.006.009-.651.736-.353-.315-.653.738.338.301-.002.004.012.008-.652.732-.35-.309-.658.733.338.305.01.01-.655.732-.349-.312-.657.736.338.305.01.008-.654.732-.348-.314-.658.74.34.304-.002.001.01.009-.655.732-.347-.31-.661.738.35.308-.652.735-.35-.312-.658.736.348.312-.653.733-.349-.31-.661.738.352.312-.656.731z"/><circle fill="none" stroke="#46474D" stroke-width="1.82" stroke-miterlimit="10" stroke-dasharray="2.408,1.204" cx="174.803" cy="95.519" r="36.225"/><path fill="#46474D" d="m53.91 81.268 3.17 5.425-22.82 13.334-3.17-5.425z"/><path fill="#46474D" d="M31.09 94.599h5.342v7.229H31.09z"/><circle fill="none" stroke="#46474D" stroke-width="1.82" stroke-miterlimit="10" stroke-dasharray="2.413,1.2065" cx="33.754" cy="98.61" r="32.844"/><path fill="#46474D" d="M174.615 59.247c-4.191.02-8.213.761-11.955 2.09l-6.963-15.908-.002-.006-11.021-25.185-4.127 1.806-2.344-4.762 10.973-5.02-.006-.012a2.9 2.9 0 0 0 .727-.527l4.771-6.75a2.925 2.925 0 1 0-4.176-4.098l-4.453 6.428-17.068 8.244 2.734 5.171.916-.483 3.572 7.563-28.35 29.22-15.316-6.146-20.652-7.688-1.111-6.035 11-2.56a2.704 2.704 0 0 0 2.43-2.728c-.023-1.4.174-2.046-1.225-2.145l-31.447-1.902a2.722 2.722 0 0 0-2.656 1.592 2.701 2.701 0 0 0 .588 3.041l5.414 5.711a2.699 2.699 0 0 0 2.146.746l9.1-1.291 2.609 12.313 1.379-.328 11.168 9.197-.799-.226a.734.734 0 0 0-.908.51.732.732 0 0 0 .508.905l.332.097-.953 1.188-.934-.264a.74.74 0 0 0-.908.509.733.733 0 0 0 .51.907l.332.096-.053.063 1.023.818-.555.694-2.303-.65a.728.728 0 0 0-.906.507.734.734 0 0 0 .506.908l1.705.48-.953 1.189-2.303-.65a.729.729 0 0 0-.908.507.734.734 0 0 0 .506.908l1.705.482-.955 1.192-2.303-.65a.735.735 0 1 0-.398 1.416l1.701.48-.873 1.088-.84-.623-12.936 7.469c-5.701-7.098-14.293-11.822-24.082-12.293C17.096 64.986 1.635 79.03.768 97.163c-.871 18.133 13.176 33.594 31.309 34.461 18.131.871 33.588-13.176 34.461-31.308a32.734 32.734 0 0 0-3.76-16.896l9.033-5.217 8.432 6.27c-.018.165-.041.328-.049.495-.268 5.585 4.043 10.329 9.629 10.596a10.06 10.06 0 0 0 5.209-1.167l2.631 3.703-.539-.025a1.812 1.812 0 0 0-.173 3.621l4.256.205.008.001.008-.001 2.893.14a1.813 1.813 0 0 0 .173-3.622l-2.021-.098-4.379-6.165c.609-.687 2.807-7.533 3.213-8.37l42.99-47.167 12.057 27.796c-10.609 6.375-17.703 18.018-17.645 31.27.09 20.002 16.436 36.203 36.436 36.114 20.002-.091 36.203-16.435 36.115-36.437-.092-20.004-16.438-36.203-36.44-36.115zM57.096 99.863c-.617 12.929-11.639 22.944-24.568 22.323-12.928-.619-22.943-11.643-22.322-24.57s11.643-22.943 24.57-22.323c6.457.31 12.184 3.214 16.227 7.653l-5.025 2.9a17.725 17.725 0 0 1 3.723 5.125l4.889-2.824a23.328 23.328 0 0 1 2.506 11.716zm23.437-35.569.523.42-.701-.198.178-.222zm2.344 14.289-8.646-6.428.557-.691c.279.577.85.992 1.537 1.025l3.447.165 3.754 5.285a9.857 9.857 0 0 0-.649.644zm5.855-6.551-2.982 2.779-1.5-2.111a1.807 1.807 0 0 0 1.139-1.591 1.81 1.81 0 0 0-1.725-1.897l-6.811-.327.551-.689 2.305.651a.735.735 0 0 0 .4-1.413l-1.705-.482.953-1.189 2.305.651a.733.733 0 0 0 .906-.507.735.735 0 0 0-.506-.909l-.338-.094.955-1.191.936.265a.735.735 0 0 0 .908-.509.732.732 0 0 0-.508-.907l-.336-.095.813-1.015 7.844 6.911-3.604 3.669zm86.164 50.809c-15.063.067-27.371-12.133-27.438-27.196-.043-9.571 4.869-18.022 12.318-22.937l11.713 26.763a3.599 3.599 0 0 0 3.314 2.159 3.58 3.58 0 0 0 1.426-.305 3.596 3.596 0 0 0 1.855-4.738L166.26 69.569a27.194 27.194 0 0 1 8.393-1.365c15.063-.067 27.373 12.133 27.439 27.197.07 15.065-12.131 27.373-27.196 27.44z"/><g fill="#4CFF3A"><path d="m137.275 40.51-1.264 1.358-4.899-4.56 1.264-1.358zM138.931 38.738l-1.263 1.355-4.894-4.562 1.263-1.355zM140.578 36.97l-1.264 1.354-4.894-4.566 1.264-1.354zM133.967 44.066l-1.264 1.355-4.895-4.564 1.263-1.355zM135.627 42.296l-1.264 1.356-4.897-4.561 1.264-1.357zM130.658 47.617l-1.264 1.356-4.896-4.565 1.264-1.355zM132.31 45.853l-1.266 1.355-4.89-4.57 1.265-1.354zM127.34 51.173l-1.262 1.353-4.895-4.563 1.262-1.354zM128.995 49.397l-1.264 1.354-4.893-4.565 1.264-1.355zM122.773 56.078l1.262-1.356-4.894-4.561-1.264 1.351zM125.687 52.947l-1.265 1.355-4.892-4.568 1.265-1.355zM120.729 58.268l-1.264 1.356-4.895-4.564 1.263-1.356zM122.381 56.492l-1.262 1.356-4.897-4.555 1.262-1.357zM117.422 61.823l-1.263 1.354-4.893-4.568 1.264-1.354zM119.07 60.043l-1.262 1.357-4.898-4.557 1.262-1.356zM114.102 65.376l-1.263 1.354-4.894-4.566 1.263-1.354zM115.76 63.6l-1.266 1.355-4.893-4.57 1.265-1.355zM110.801 68.931l-1.262 1.356-4.9-4.561 1.262-1.356zM112.452 67.155l-1.268 1.357-4.892-4.569 1.267-1.357zM107.49 72.477l-1.26 1.357-4.904-4.557 1.262-1.357zM109.144 70.704l-1.262 1.356-4.896-4.557 1.262-1.356zM104.183 76.03l-1.265 1.358-4.895-4.563 1.266-1.358zM105.837 74.248l-1.264 1.355-4.895-4.564 1.264-1.355zM100.871 79.575l-1.264 1.355-4.896-4.565 1.264-1.355zM102.525 77.804l-1.262 1.358-4.903-4.557 1.262-1.357z"/></g><path fill="none" stroke="#FFF" stroke-width="3" stroke-miterlimit="10" d="M1012.09 11.328-233.794-308.57"/></svg>