<svg xmlns="http://www.w3.org/2000/svg" viewBox='0 0 201.117 111.149' width="201.117" height="111.149" xml:space="preserve"><path fill="#46474D" d="m92.235 72.889 1.692-2.548c1.068-1.628 2.648-3.913 4.517-6.676 3.73-5.531 8.794-12.84 13.914-20.108l7.55-10.654c2.407-3.401 4.688-6.551 6.639-9.254l4.714-6.533c.289-.392.528-.754.77-1.045.257-.28.565-.454.858-.563.595-.211 1.147-.154 1.146-.154l4.002 2.907s.225.507.208 1.139a2.174 2.174 0 0 1-.27.989c-.202.32-.473.66-.755 1.056l-4.756 6.502c-1.968 2.69-4.259 5.834-6.75 9.175l-7.799 10.473c-5.331 7.114-10.717 14.189-14.824 19.447-2.05 2.631-3.736 4.84-4.953 6.359l-1.901 2.396-4.002-2.908z"/><path fill="#46474D" d="m139.027 22.66-2.249-6.548-3.044 1.529.068-.134-11.042 4.659s3.371 2.055 2.754 4.768c.39-.583 4.7-3.416 5.047-3.949l.537 2.824 7.929-3.149z"/><path fill="#4CFF3A" stroke="#46474D" stroke-width=".118" stroke-miterlimit="10" d="m122.027 31.358-.379-.198c-4.605-.279-10.542 2.924-11.301 3.771-.58.647-10.782 14.516-15.616 21.095-1.037 2.176.062 3.017 1.505 3.534l4.657 1.664-.158.543.931.254 20.007-26.729s.952-1.314.99-2.335c.035-.896-.636-1.599-.636-1.599z"/><path fill="#46474D" d="M82.827 74.286c1.387-.776 3.324-3.565 5.024-3.565.062 0 .123.006.182.006.123.003.242.006.361.011.136.01.272.021.407.036.036.003.078.008.115.01.162.019.322.041.482.068l.014.002c.169.026.334.056.498.095v-.006l3.863.873 3.05-3.628-5.983-1.354-.004.004a12.205 12.205 0 0 0-.738-.143l-.023-.002a12.511 12.511 0 0 0-.657-.093l-.211-.021-.02-.002c-.173-.017-.346-.03-.519-.044l-.038-.001a11.443 11.443 0 0 0-.417-.016l-.072-.002h-.024c-.095-.003-.182-.007-.266-.007-4.702 0-9.722 4.127-11.367 8.254l6.343-.475z"/><circle fill="none" stroke="#46474D" stroke-width="5.865" stroke-miterlimit="10" cx="36.699" cy="74.285" r="33.002"/><circle fill="none" stroke="#46474D" stroke-width="5.865" stroke-miterlimit="10" cx="164.414" cy="74.446" r="33"/><path fill="none" stroke="#46474D" stroke-width="4.092" stroke-miterlimit="10" d="m131.959 9.444 9.877-4.084"/><path fill="none" stroke="#46474D" stroke-width="4.092" stroke-linecap="round" stroke-miterlimit="10" d="m135.953 2.045 5.883 3.315"/><path fill="none" stroke="#46474D" stroke-width="3.969" stroke-linejoin="round" stroke-miterlimit="10" d="m57.076 14.582 26.658.143-21.25 2.018z"/><path fill="none" stroke="#46474D" stroke-width="3.163" stroke-linecap="round" stroke-miterlimit="10" d="m76.484 63.132 10.083 11.945M72.708 63.266l6.257-.222"/><path fill="#46474D" d="M35.733 73.007s.191-.018.54.036l1.524.245c.657.11 1.454.27 2.372.409.917.145 1.956.23 3.093.271 4.543.213 10.604.456 16.656.582 6.049.066 12.105.045 16.538-.305 2.208-.167 4.022-.392 5.109-.646.56-.122.867-.25 1.016-.306.014-.04.04-.019.039-.022l2.972 2.192a1.34 1.34 0 0 1-.127 2.24s-.318.183-.947.45c-.521.183-1.213.37-1.963.485-1.525.254-3.501.404-5.847.472-2.341.06-5.036.071-7.913.036a383.961 383.961 0 0 1-8.987-.246 667.63 667.63 0 0 1-16.762-.741c-1.141-.075-2.188-.103-3.121-.061l-2.419.136-1.559.06c-.362.009-.55-.032-.55-.032a2.665 2.665 0 0 1 .336-5.255z"/><path fill="none" stroke="#46474D" stroke-width="3.945" stroke-linecap="round" stroke-miterlimit="10" d="m36.7 74.287 34.322-23.979s8.744-7.435 16.521-2.92c-3.344 2.977-6.087 5.357-6.087 5.357l-6.783-3.446"/><path fill="none" stroke="#46474D" stroke-width="3.687" stroke-linecap="round" stroke-miterlimit="10" d="M74.638 33.491s4.792 1.408 8 2.7c3.21 1.29 10.216.236 13.314-1.002 9.947-3.975 40.498-21.929 40.498-21.929"/><path fill="none" stroke="#46474D" stroke-width="3.163" stroke-linejoin="round" stroke-miterlimit="10" d="m83.107 73.94-1.696-22.422-13.77-35.702"/><path fill="none" stroke="#46474D" stroke-width="4.213" stroke-linejoin="round" stroke-miterlimit="10" d="m83.107 73.94-1.696-22.422-6.773-18.027"/><path fill="none" stroke="#46474D" stroke-width="6.907" stroke-miterlimit="10" d="m89.009 47.333.102 12.692"/><path fill="none" stroke="#46474D" stroke-width="3.687" stroke-linecap="round" stroke-miterlimit="10" d="m89.037 57.96.486 13.643"/><path fill="none" stroke="#46474D" stroke-width="5.656" stroke-linecap="round" stroke-miterlimit="10" d="m164.416 74.447-12.433-30.576"/><path fill="none" stroke="#46474D" stroke-width="3.406" stroke-miterlimit="10" d="m151.983 43.871-9.566-23.526"/><path fill="none" stroke="#46474D" stroke-width="2.633" stroke-miterlimit="10" d="m158.068 48.18-5.507-12.349"/><path fill="none" stroke="#46474D" stroke-width="6.846" stroke-miterlimit="10" d="m140.645 21.891-5.066-12.456"/><path fill="none" stroke="#46474D" stroke-width="4.213" stroke-linecap="square" stroke-miterlimit="10" d="m139.364 21.961 3.888-1.45"/><path fill="none" stroke="#46474D" stroke-width="5.99" stroke-miterlimit="10" stroke-dasharray="2.1172,2.1172" d="M70.382 73.083c.664 18.604-13.881 34.223-32.482 34.887-18.603.663-34.223-13.88-34.883-32.483-.666-18.603 13.877-34.22 32.479-34.884 18.603-.665 34.222 13.878 34.886 32.48zM197.938 77.941c-1.93 18.513-18.504 31.959-37.021 30.028-18.511-1.93-31.958-18.503-30.028-37.019 1.934-18.513 18.504-31.958 37.019-30.027 18.513 1.929 31.96 18.503 30.03 37.018z"/><path fill="#FFC246" stroke="#46474D" stroke-width=".158" stroke-miterlimit="10" d="M102.196 80.826c.047-.066.086-.138.131-.21.05-.079.104-.159.15-.241.038-.072.073-.146.112-.217.044-.086.087-.175.124-.265.036-.073.064-.146.096-.223a5.91 5.91 0 0 0 .102-.281 6.035 6.035 0 0 0 .256-1.113c.007-.062.017-.123.024-.188.021-.183.027-.367.03-.554V77.521a6.05 6.05 0 0 0-.03-.555c-.008-.063-.018-.126-.024-.188a5.272 5.272 0 0 0-.103-.575c-.023-.105-.052-.209-.08-.31a3.126 3.126 0 0 0-.073-.226 3.944 3.944 0 0 0-.102-.282c-.031-.076-.06-.15-.096-.223a3.704 3.704 0 0 0-.124-.263c-.039-.074-.074-.146-.112-.217-.047-.084-.101-.162-.15-.244-.045-.07-.084-.141-.131-.209a5.419 5.419 0 0 0-.174-.233c-.094-.116-.188-.233-.287-.344-.063-.071-.124-.142-.189-.21-.066-.067-.139-.13-.209-.194a12.408 12.408 0 0 0-.171-.159 5.689 5.689 0 0 0-.235-.182c-.058-.045-.12-.094-.181-.136-.083-.058-.166-.111-.249-.165a2.078 2.078 0 0 0-.191-.113 3.657 3.657 0 0 0-.465-.243c-.095-.044-.186-.087-.281-.124-.068-.027-.135-.048-.201-.075-.102-.034-.202-.07-.305-.103l-.185-.048c-.109-.029-.218-.06-.33-.081l-9.492-2.146v.005a6.673 6.673 0 0 0-.417-.082l-.009-.002c-.137-.02-.271-.039-.406-.055-.031-.004-.066-.005-.096-.009a7.975 7.975 0 0 0-.338-.029c-.102-.007-.2-.007-.302-.009-.051 0-.104-.005-.151-.005a8.037 8.037 0 0 0-8.039 8.037v.003a8.036 8.036 0 0 0 8.039 8.036 10.151 10.151 0 0 0 .453-.014 9.99 9.99 0 0 0 .338-.026c.029-.005.064-.008.096-.012a7.06 7.06 0 0 0 .406-.055s.005 0 .009-.003c.141-.022.277-.049.417-.079v.003l9.492-2.145c.112-.022.221-.052.33-.081.062-.018.124-.03.185-.049.103-.032.203-.066.305-.104l.201-.069c.096-.041.187-.084.281-.125.066-.033.133-.064.199-.096.09-.049.179-.097.266-.148.065-.036.129-.074.191-.113.083-.055.166-.107.249-.165.061-.045.123-.091.181-.137.079-.06.158-.119.235-.183l.171-.157c.07-.066.143-.129.209-.196.065-.068.127-.137.189-.211a6.94 6.94 0 0 0 .461-.572z"/><path fill="none" stroke="#46474D" stroke-width="3.163" stroke-linecap="round" stroke-miterlimit="10" d="m87.262 77.19 9.649 12.296M93.186 89.486h6.26"/><path fill="#46474D" d="m94.017 61.726.483 6.584 3.072 2.15 6.013-6.892 7.592-10.18 2.192-3.688s2.429-3.55.835-1.843c-6.101 6.539-15.745 12.334-18.643 11.194-1.56.679-1.544 2.675-1.544 2.675z"/></svg>