<svg xmlns="http://www.w3.org/2000/svg" viewBox='0 0 213.222 141.168' width="213.222" height="141.168" xml:space="preserve"><path fill="#46474D" d="M177.191 67.194a36.083 36.083 0 0 0-12.047 1.461l-6.121-16.252-.002-.006-9.689-25.727-4.215 1.588-4.617-11.747 11.221-4.44-.006-.012c.268-.125.525-.277.754-.487l5.119-6.493A2.926 2.926 0 0 0 153.631.77l-4.781 6.186-17.479 7.34 2.459 5.307.941-.435 5.697 14.61-7.068 2.566-12.104 3.477-28.163 18.921-20.653-7.688-2.104-10.161 12.822-2.561a2.704 2.704 0 0 0 2.43-2.727c-.023-1.401-.146-3.398-1.545-3.496l-34.398-3.535a2.719 2.719 0 0 0-2.656 1.592 2.704 2.704 0 0 0 .588 3.041l6.863 8.695a2.708 2.708 0 0 0 2.146.746l9.102-1.291 3.602 16.438 1.379-.329 11.166 9.198-.799-.226a.735.735 0 1 0-.398 1.415l.33.096-.953 1.189-.934-.264a.736.736 0 0 0-.396 1.416l.332.094-.053.064 1.021.818-.553.693-2.303-.649a.736.736 0 1 0-.4 1.414l1.703.481-.953 1.189-2.301-.651a.73.73 0 0 0-.908.507.733.733 0 0 0 .506.908l1.705.482-.957 1.191-2.301-.65a.735.735 0 1 0-.4 1.416l1.701.48-.871 1.09-.84-.623-12.936 7.469C54.214 78.915 45.624 74.19 35.835 73.72c-18.132-.866-33.594 13.179-34.463 31.311-.869 18.134 13.177 33.593 31.31 34.462 18.133.87 33.59-13.176 34.461-31.309a32.713 32.713 0 0 0-3.76-16.895l9.033-5.217 8.432 6.27c-.016.164-.039.326-.049.495-.268 5.585 4.045 10.327 9.631 10.595a10.084 10.084 0 0 0 5.209-1.166l2.629 3.703-.537-.025a1.81 1.81 0 0 0-1.896 1.723 1.81 1.81 0 0 0 1.723 1.897l4.256.205.008.001.008-.001 2.891.141a1.812 1.812 0 1 0 .175-3.622l-2.021-.098-4.379-6.165a10.077 10.077 0 0 0 1.533-2.292l7.508-1.139s12.215-10.448 20.627-16.803c-2.213-5.512 5.166-23.176 20.246-32.365l-.102-.29.912-.345 9.26 24.595c-10.928 5.812-18.623 17.067-19.258 30.306-.957 19.979 14.518 37.012 34.496 37.971 19.98.956 37.014-14.519 37.973-34.496.955-19.982-14.521-37.016-34.5-37.973zM57.703 107.732c-.619 12.928-11.641 22.943-24.568 22.321-12.93-.617-22.943-11.641-22.322-24.569.619-12.929 11.641-22.942 24.57-22.323 6.455.311 12.184 3.215 16.225 7.653l-5.023 2.9a17.723 17.723 0 0 1 3.721 5.126l4.889-2.824a23.319 23.319 0 0 1 2.508 11.716zm23.436-35.569.525.42-.701-.199.176-.221zm2.343 14.289-8.646-6.428.557-.693c.279.578.852.994 1.537 1.027l3.447.164 3.754 5.285c-.225.205-.442.42-.649.645zm3.098-8.428-.225 4.655-1.498-2.111a1.807 1.807 0 0 0-.586-3.487l-6.813-.328.553-.688 2.303.651a.73.73 0 0 0 .906-.508.733.733 0 0 0-.504-.906l-1.705-.482.953-1.188 2.303.649a.734.734 0 1 0 .402-1.414l-.338-.095.955-1.19.936.264a.735.735 0 1 0 .4-1.416l-.338-.094.813-1.016 3.125 2.574-1.642 6.13zm116.162 26.713c-.721 15.045-13.551 26.699-28.596 25.978-15.047-.722-26.699-13.548-25.979-28.595.459-9.561 5.807-17.743 13.504-22.26l10.295 27.338a3.598 3.598 0 0 0 4.636 2.1 3.598 3.598 0 0 0 2.102-4.635l-10.395-27.599a27.293 27.293 0 0 1 8.451-.925c15.049.723 26.703 13.549 25.982 28.598z"/><circle fill="#FFC246" stroke="#46474D" stroke-width=".146" stroke-miterlimit="10" cx="34.361" cy="106.477" r="13.611"/><path fill="#FFC246" stroke="#46474D" stroke-width=".146" stroke-miterlimit="10" d="m106.096 95.601-5.186-6.274 20.549-17.104 4.797 5.81v.003l.742.886-.887.743-.355-.426-.897.746.352.424-.887.741-.357-.429-.899.75.354.422-.887.742-.353-.425-.901.744.356.427-.002.002.01.01-.891.74-.358-.424-.892.745.348.414h-.004l.007.011-.888.745-.358-.429-.89.747.342.41-.002.004.009.012-.888.739-.354-.422-.896.741.341.414.01.014-.89.739-.354-.425-.896.745.341.414v.002l.01.009-.888.741-.354-.427-.896.747.343.416h-.002l.01.012-.891.738-.351-.42-.9.743.355.422-.891.743-.355-.426-.895.747.352.424-.891.74-.353-.422-.899.744.356.426-.893.739z"/><path fill="#4CFF3A" d="m139.948 52.365-1.425 1.185-4.28-5.146 1.426-1.185zM140.393 51.993l1.42-1.186-4.274-5.145-1.428 1.181zM136.22 55.469l-1.424 1.184-4.28-5.143 1.424-1.185zM138.084 53.917l-1.426 1.185-4.28-5.147 1.426-1.185zM132.484 58.564l-1.427 1.185-4.274-5.151 1.428-1.185zM134.344 57.014 132.92 58.2l-4.284-5.147 1.426-1.186zM127.324 62.852l1.426-1.185-4.277-5.145-1.428 1.18zM130.61 60.114l-1.428 1.184-4.272-5.154 1.428-1.183zM125.016 64.763l-1.426 1.185-4.276-5.147 1.426-1.184zM126.888 63.22l-1.424 1.186-4.284-5.14 1.423-1.187zM121.285 67.867l-1.426 1.185-4.279-5.15 1.426-1.185zM123.15 66.316l-1.426 1.184-4.276-5.148 1.426-1.184zM117.551 70.974l-1.427 1.185-4.274-5.152 1.427-1.185zM119.415 69.424l-1.424 1.186-4.283-5.144 1.424-1.186zM113.819 74.083l-1.424 1.185-4.28-5.144 1.424-1.185zM115.678 72.526l-1.428 1.184-4.271-5.153 1.428-1.184zM110.083 77.175l-1.424 1.182-4.276-5.148 1.424-1.183zM111.959 75.63l-1.428 1.186-4.276-5.15 1.428-1.185zM106.346 80.284l-1.428 1.184-4.274-5.156 1.428-1.184zM108.226 78.731l-1.428 1.186-4.275-5.148 1.428-1.186zM102.62 83.391l-1.424 1.185-4.279-5.143 1.424-1.184zM104.49 81.834l-1.423 1.186-4.286-5.143 1.424-1.186zM98.894 86.49l-1.428 1.185-4.275-5.148 1.428-1.185zM100.75 84.937l-1.423 1.185-4.283-5.143 1.424-1.186zM135.21 46.66l-1.425 1.186-4.28-5.146 1.426-1.185zM137.077 45.111l-1.426 1.186-4.279-5.146 1.426-1.185zM138.94 43.561l-1.425 1.184-4.278-5.146 1.424-1.184zM131.476 49.767l-1.425 1.185-4.28-5.146 1.426-1.186zM133.343 48.215l-1.424 1.184-4.28-5.147 1.425-1.184zM127.743 52.864l-1.424 1.186-4.282-5.143 1.424-1.185zM129.603 51.31l-1.429 1.185-4.271-5.153 1.428-1.184zM124.008 55.965l-1.424 1.186-4.281-5.142 1.424-1.186zM125.873 54.42l-1.424 1.184-4.278-5.145 1.424-1.184zM120.276 59.073l-1.426 1.186-4.277-5.144 1.425-1.186zM122.145 57.517l-1.428 1.184-4.273-5.15 1.428-1.185zM116.542 62.17l-1.425 1.182-4.273-5.151 1.425-1.183zM118.409 60.62l-1.424 1.185-4.28-5.14 1.423-1.186zM112.815 65.28l-1.423 1.185-4.281-5.145 1.423-1.185zM114.676 63.722l-1.424 1.186-4.282-5.142 1.424-1.186zM109.082 68.377l-1.426 1.184-4.274-5.15 1.426-1.183zM110.94 66.825l-1.427 1.184-4.273-5.155 1.428-1.183zM105.343 71.486l-1.424 1.184-4.28-5.149 1.424-1.184zM107.207 69.927l-1.429 1.183-4.271-5.153 1.428-1.183zM101.613 74.58l-1.424 1.186-4.284-5.145 1.424-1.186zM103.478 73.024l-1.426 1.185-4.274-5.146 1.426-1.184zM119.271 50.257l-1.424 1.188-4.284-5.137 1.424-1.188zM115.545 53.368l-1.428 1.185-4.276-5.15 1.428-1.185zM117.41 51.814 115.984 53l-4.275-5.148 1.428-1.186zM111.803 56.462l-1.426 1.185-4.274-5.145 1.426-1.184zM113.677 54.923l-1.424 1.184-4.28-5.144 1.424-1.184zM108.072 59.573l-1.426 1.183-4.273-5.153 1.425-1.182zM109.934 58.022l-1.428 1.183-4.272-5.153 1.428-1.184zM104.34 62.675l-1.425 1.188-4.285-5.144 1.427-1.188zM106.206 61.118l-1.426 1.184-4.275-5.146 1.426-1.185zM100.606 65.775l-1.424 1.186-4.281-5.142 1.424-1.186zM102.476 64.232l-1.424 1.185-4.28-5.144 1.423-1.185zM97.314 68.512l1.428-1.183-4.279-5.147-1.43 1.186zM97.88 77.69l-1.426 1.185-4.278-5.144 1.426-1.186zM99.75 76.134l-1.426 1.184-4.275-5.15 1.426-1.183zM94.148 80.783l-1.426 1.185-4.278-5.15 1.426-1.184zM96.015 79.23l-1.424 1.187-4.287-5.14 1.424-1.187z"/><circle fill="none" stroke="#46474D" stroke-width="3.033" stroke-miterlimit="10" stroke-dasharray="2.9941,2.9941" cx="175.479" cy="103.424" r="36.226"/><path fill="#46474D" d="m54.518 89.137 3.17 5.425-22.82 13.334-3.17-5.425z"/><path fill="#46474D" d="M31.697 102.467h5.34v7.228h-5.34z"/><circle fill="none" stroke="#46474D" stroke-width="3.033" stroke-miterlimit="10" stroke-dasharray="2.9473,2.9473" cx="34.361" cy="106.477" r="32.844"/><path fill="#46474D" stroke="#46474D" stroke-width=".975" stroke-linecap="round" stroke-linejoin="round" stroke-miterlimit="10" d="M55.291 88.567c8.082-7.092 7.256-20.118-37.27-28.199 48.648 1.979 50.793 19.623 52.111 22.262 1.32 2.64-3.133 4.783-3.133 4.783L56.61 91.042l-1.319-2.475z"/><path fill="#46474D" stroke="#46474D" stroke-width=".975" stroke-miterlimit="10" d="M174.268 43.374c-15.59-.116-30.027 10.625-37.764 23.444-.23 3.233-1.039 4.157 1.732.462 2.771-3.696 15.822-18.247 31.527-19.865 15.706-1.616 4.505-4.041 4.505-4.041z"/><path fill="#46474D" d="M157.178 32.851s4.805-1.758 7.125-1.61c1.436 4.133.254 10.367-1.518 12.27-3.1-2.084-3.984-2.822-3.984-2.822l-1.623-7.838z"/><path fill="none" stroke="#46474D" stroke-width="2.438" stroke-miterlimit="10" d="M153.146 46.165c4.633-1.824 7.396-4.91 7.559-7.756"/></svg>