<svg xmlns="http://www.w3.org/2000/svg" viewBox='0 0 190.219 113.317' width="190.219" height="113.317" xml:space="preserve"><path fill="#FFC246" stroke="#46474D" stroke-width=".152" stroke-linecap="round" stroke-linejoin="round" stroke-miterlimit="10" d="M102.794 84.074v-1.081h-.535a8.486 8.486 0 0 0-.404-2.119l.49-.198-.404-1-.494.199a8.398 8.398 0 0 0-1.281-1.936l.379-.379-.764-.764-.379.378a8.479 8.479 0 0 0-1.787-1.208l.209-.489-.992-.423-.211.491a8.387 8.387 0 0 0-2.271-.462v-.535h-1.08v.535a8.514 8.514 0 0 0-2.119.404l-.201-.492-1 .402.201.498a8.566 8.566 0 0 0-1.936 1.279l-.379-.379-.764.764.379.379a8.521 8.521 0 0 0-1.209 1.787l-.49-.21-.426.993.494.211a8.432 8.432 0 0 0-.461 2.272h-.535v1.081h.535c.047.734.184 1.445.404 2.119l-.492.197.404 1.002.496-.199c.338.703.77 1.354 1.279 1.935l-.379.378.764.764.379-.379a8.459 8.459 0 0 0 1.787 1.209l-.209.49.994.422.209-.49c.719.254 1.48.412 2.273.463v.535h1.08v-.535a8.544 8.544 0 0 0 2.117-.404l.197.49 1.004-.404-.201-.494a8.52 8.52 0 0 0 1.938-1.281l.377.379.764-.764-.379-.378a8.393 8.393 0 0 0 1.207-1.784l.492.209.422-.994-.49-.209a8.447 8.447 0 0 0 .463-2.275h.535z"/><circle fill="none" stroke="#46474D" stroke-width="7.587" stroke-miterlimit="10" cx="35.334" cy="76.527" r="30.593"/><circle fill="none" stroke="#46474D" stroke-width="6.177" stroke-miterlimit="10" cx="153.427" cy="76.527" r="32.594"/><path fill="#46474D" d="m80.264 81.509 1.896-2.732c.599-.873 1.341-1.922 2.198-3.119l2.881-4.021 3.445-4.728c1.217-1.683 2.542-3.423 3.889-5.242 1.358-1.81 2.738-3.7 4.184-5.584l4.369-5.726c2.908-3.854 5.912-7.628 8.688-11.202 1.398-1.778 2.727-3.515 4.027-5.13l3.649-4.563 5.462-6.829.883-1.098c.271-.308.695-.414 1.139-.417.216-.008.468.036.661.053.238.054.408.075.601.137.343.09.608.207.592.194l2.782 2.252c-.016-.013.155.222.314.539.101.176.157.338.259.559.057.185.152.423.19.635.088.435.073.872-.171 1.201l-.89 1.092-5.541 6.766a21539.46 21539.46 0 0 0-3.702 4.521c-1.308 1.608-2.73 3.27-4.178 5.007-2.916 3.459-5.981 7.185-9.145 10.832l-4.689 5.466c-1.542 1.807-3.103 3.551-4.59 5.256-1.498 1.697-2.924 3.356-4.315 4.896l-3.905 4.355-3.332 3.656a192.34 192.34 0 0 1-2.592 2.8l-2.278 2.424-2.781-2.25z"/><path fill="#46474D" d="M69.256 35.146s3.682-1.456 9.257-3.468a576.454 576.454 0 0 1 9.546-3.359c3.494-1.226 7.245-2.449 10.99-3.695 3.741-1.257 7.513-2.413 11.033-3.55 3.519-1.143 6.831-2.113 9.657-2.989l3.861-1.179c1.154-.336 2.141-.692 2.987-.875 1.721-.271 3.141 1.037 3.141 1.037l1.025 3.43s-.47 1.873-2.056 2.591c-.808.312-1.828.556-2.977.908l-3.875 1.133c-2.843.819-6.145 1.826-9.713 2.802-3.566.982-7.354 2.085-11.171 3.088-3.814 1.013-7.622 2.05-11.215 2.942-3.583.926-6.942 1.74-9.824 2.432-5.764 1.378-9.641 2.181-9.641 2.182l-1.025-3.43z"/><path fill="none" stroke="#46474D" stroke-width="3.851" stroke-miterlimit="10" d="m119.571 7.18 10.711 26.112"/><path fill="none" stroke="#46474D" stroke-width="6.744" stroke-miterlimit="10" d="m125.729 12.383 27.698 64.144"/><path fill="none" stroke="#46474D" stroke-width="5.17" stroke-miterlimit="10" d="m118.956 11.695 10.459-4.716"/><path fill="none" stroke="#46474D" stroke-width="5.494" stroke-linecap="round" stroke-miterlimit="10" d="m122.202 2.747 8.6 4.858"/><path fill="#46474D" stroke="#46474D" stroke-width="4.215" stroke-linejoin="round" stroke-miterlimit="10" d="m53.438 22.28 26.303-1.716-7.885 2.61-16.093 3.591z"/><circle fill="#46474D" cx="81.656" cy="82.635" r="9.161"/><path fill="none" stroke="#46474D" stroke-width="3.579" stroke-linecap="round" stroke-miterlimit="10" d="m81.655 82.635 10.92 13.914M70.919 68.723l10.918 13.912M88.36 96.549h7.084M66.642 68.723h7.08"/><path fill="none" stroke="#46474D" stroke-width="6.744" stroke-linecap="round" stroke-linejoin="round" stroke-miterlimit="10" d="m81.655 82.635-46.322-5.244"/><path fill="none" stroke="#46474D" stroke-width="3.579" stroke-linejoin="round" stroke-miterlimit="10" d="M36.106 77.605 54.622 43.73M66.647 24.843l15.008 57.792"/><path fill="#46474D" stroke="#46474D" stroke-width="3.372" stroke-linecap="round" stroke-linejoin="round" stroke-miterlimit="10" d="m81.354 41.611-27.246 2.532 18.782 5.435z"/><path fill="#46474D" d="M114.935 26.205s5.551 5.058 5.27 5.198c-.279.141 4.004-7.164 4.004-7.164l-9.274 1.966z"/><path fill="none" stroke="#46474D" stroke-width="6.744" stroke-linecap="round" stroke-miterlimit="10" d="m131.101 25.123 22.326 51.404"/><path fill="none" stroke="#46474D" stroke-width="1.531" stroke-linecap="round" stroke-linejoin="round" stroke-miterlimit="10" d="m84.489 45.043-5.183 2.92M84.856 48.273l-5.185 2.922M85.222 51.504l-5.184 2.919M85.587 54.734l-5.186 2.92M85.952 57.964l-5.185 2.921M86.306 61.105l-5.184 2.918"/><path fill="none" stroke="#46474D" stroke-width="1.485" stroke-linecap="round" stroke-linejoin="round" stroke-miterlimit="10" d="m81.394 42.04 2.984 26.385"/><path fill="none" stroke="#46474D" stroke-width="4.215" stroke-linejoin="round" stroke-miterlimit="10" d="m82.79 54.395 1.588 14.03"/><path fill="#FFF" stroke="#46474D" stroke-width="4.215" stroke-linecap="round" stroke-linejoin="round" stroke-miterlimit="10" d="M80.149 69.169s5.408-.772 8.148 1.476"/><circle fill="none" stroke="#46474D" stroke-width="8.608" stroke-miterlimit="10" stroke-dasharray="2.532" cx="35.334" cy="76.527" r="31.03"/><circle fill="none" stroke="#46474D" stroke-width="6.369" stroke-miterlimit="10" stroke-dasharray="2.532" cx="153.428" cy="76.527" r="33.606"/><g fill="#4CFF3A" stroke="#46474D" stroke-width=".152" stroke-miterlimit="10"><path d="M98.065 33.899a1.105 1.105 0 0 0 1.541-.201 1.103 1.103 0 0 0-.203-1.538 1.094 1.094 0 0 0-1.537.201 1.093 1.093 0 0 0 .199 1.538z"/><path d="M96.728 35.639c.484.367 1.168.28 1.541-.201a1.1 1.1 0 0 0-.203-1.538 1.089 1.089 0 0 0-1.535.198 1.093 1.093 0 0 0 .197 1.541zM100.354 34.275c.484.373 1.17.279 1.541-.199a1.096 1.096 0 0 0-1.736-1.337 1.093 1.093 0 0 0 .195 1.536z"/><path d="M99.022 36.016a1.096 1.096 0 1 0 1.335-1.737 1.096 1.096 0 0 0-1.335 1.737zM103.948 32.889a1.092 1.092 0 0 0 1.537-.204 1.094 1.094 0 0 0-.203-1.532 1.094 1.094 0 1 0-1.334 1.736z"/><path d="M102.608 34.623c.484.373 1.17.285 1.535-.199a1.09 1.09 0 0 0-.195-1.535 1.098 1.098 0 0 0-1.543.201 1.099 1.099 0 0 0 .203 1.533z"/><path d="M101.278 36.369a1.085 1.085 0 0 0 1.527-.207 1.091 1.091 0 0 0-.197-1.539 1.102 1.102 0 0 0-1.539.204 1.104 1.104 0 0 0 .209 1.542zM99.94 38.106a1.086 1.086 0 0 0 1.529-.207 1.081 1.081 0 0 0-.197-1.531 1.09 1.09 0 0 0-1.535.198 1.096 1.096 0 0 0 .203 1.54zM107.558 31.518a1.107 1.107 0 0 0 1.543-.198 1.1 1.1 0 0 0-.203-1.54 1.095 1.095 0 0 0-1.535.199 1.1 1.1 0 0 0 .195 1.539z"/><path d="M106.224 33.256c.48.37 1.172.279 1.543-.199a1.097 1.097 0 0 0-.209-1.539 1.096 1.096 0 0 0-1.334 1.738z"/><path d="M104.89 34.996a1.093 1.093 0 0 0 1.533-.203 1.09 1.09 0 0 0-.199-1.537 1.1 1.1 0 0 0-1.539.201 1.098 1.098 0 0 0 .205 1.539z"/><path d="M103.556 36.732a1.095 1.095 0 1 0 1.334-1.736 1.103 1.103 0 0 0-1.543.199 1.096 1.096 0 0 0 .209 1.537z"/><path d="M102.218 38.469a1.09 1.09 0 0 0 1.537-.197 1.105 1.105 0 0 0-.199-1.539 1.102 1.102 0 0 0-1.543.2 1.095 1.095 0 0 0 .205 1.536zM111.153 30.126a1.089 1.089 0 0 0 1.533-.199 1.086 1.086 0 0 0-.203-1.536 1.094 1.094 0 0 0-1.539.2 1.102 1.102 0 0 0 .209 1.535z"/><path d="M109.815 31.863a1.098 1.098 0 0 0 1.535-.199 1.102 1.102 0 0 0-.197-1.538 1.098 1.098 0 0 0-1.537.202 1.086 1.086 0 0 0 .199 1.535z"/><path d="M108.476 33.605a1.108 1.108 0 0 0 1.543-.203 1.108 1.108 0 0 0-.203-1.539 1.099 1.099 0 0 0-1.537.205 1.087 1.087 0 0 0 .197 1.537z"/><path d="M107.144 35.344a1.096 1.096 0 1 0 1.33-1.736 1.096 1.096 0 0 0-1.33 1.736z"/><path d="M105.806 37.081a1.097 1.097 0 0 0 1.338-1.737 1.108 1.108 0 0 0-1.541.199c-.366.48-.28 1.171.203 1.538z"/><path d="M104.468 38.822a1.093 1.093 0 0 0 1.535-.204 1.094 1.094 0 1 0-1.732-1.336 1.095 1.095 0 0 0 .197 1.54z"/><path d="M103.128 40.561c.484.367 1.17.279 1.541-.197a1.098 1.098 0 1 0-1.541.197zM113.39 30.466c.479.372 1.17.283 1.537-.202a1.096 1.096 0 1 0-1.537.202z"/><path d="M112.054 32.201a1.09 1.09 0 0 0 1.535-.198 1.096 1.096 0 0 0-.199-1.537 1.102 1.102 0 0 0-1.541.198 1.1 1.1 0 0 0 .205 1.537z"/><path d="M110.714 33.941a1.1 1.1 0 0 0 1.543-.199 1.107 1.107 0 0 0-.203-1.541 1.097 1.097 0 0 0-1.34 1.74zM109.382 35.682a1.097 1.097 0 0 0 1.535-.203 1.1 1.1 0 0 0-.203-1.537 1.1 1.1 0 0 0-1.535.201 1.092 1.092 0 0 0 .203 1.539z"/><path d="M108.044 37.422a1.094 1.094 0 0 0 1.535-.205 1.093 1.093 0 0 0-.197-1.535 1.1 1.1 0 0 0-1.541.203 1.091 1.091 0 0 0 .203 1.537z"/><path d="M106.704 39.156c.484.371 1.17.283 1.537-.199a1.093 1.093 0 0 0-.197-1.535 1.102 1.102 0 0 0-1.541.194 1.107 1.107 0 0 0 .201 1.54z"/><path d="M105.37 40.9a1.098 1.098 0 1 0 1.334-1.744 1.094 1.094 0 0 0-1.535.205 1.103 1.103 0 0 0 .201 1.539zM114.31 32.552c.475.37 1.16.28 1.527-.199a1.09 1.09 0 0 0-.197-1.538 1.087 1.087 0 0 0-1.533.205 1.08 1.08 0 0 0 .203 1.532z"/><path d="M112.962 34.29a1.1 1.1 0 0 0 1.348-1.738 1.102 1.102 0 0 0-1.543.202 1.097 1.097 0 0 0 .195 1.536z"/><path d="M111.632 36.029a1.1 1.1 0 0 0 1.541-.203 1.093 1.093 0 0 0-.211-1.536 1.092 1.092 0 0 0-1.529.2 1.097 1.097 0 0 0 .199 1.539z"/><path d="M110.294 37.771a1.1 1.1 0 0 0 1.539-.208 1.094 1.094 0 1 0-1.736-1.332 1.097 1.097 0 0 0 .197 1.54z"/><path d="M108.954 39.508c.484.367 1.17.277 1.543-.199a1.093 1.093 0 0 0-.203-1.537 1.099 1.099 0 0 0-1.541.197 1.11 1.11 0 0 0 .201 1.539z"/><path d="M107.622 41.248c.48.365 1.17.277 1.537-.201a1.098 1.098 0 0 0-.205-1.539 1.093 1.093 0 0 0-1.533.204 1.099 1.099 0 0 0 .201 1.536z"/><path d="M106.286 42.986a1.095 1.095 0 1 0 1.336-1.738 1.09 1.09 0 0 0-1.535.201 1.09 1.09 0 0 0 .199 1.537zM90.862 36.659c.479.368 1.17.28 1.535-.202a1.096 1.096 0 0 0-1.736-1.336 1.1 1.1 0 0 0 .201 1.538z"/><path d="M89.522 38.4c.484.367 1.17.278 1.537-.207a1.09 1.09 0 0 0-.197-1.534 1.104 1.104 0 0 0-1.543.2 1.112 1.112 0 0 0 .203 1.541zM94.478 35.29a1.098 1.098 0 0 0 1.535-.196 1.105 1.105 0 0 0-.201-1.542 1.096 1.096 0 1 0-1.334 1.738z"/><path d="M93.138 37.031a1.098 1.098 0 0 0 1.34-1.741 1.09 1.09 0 0 0-1.539.204 1.1 1.1 0 0 0 .199 1.537z"/><path d="M91.802 38.764a1.096 1.096 0 0 0 1.537-.195 1.09 1.09 0 0 0-.201-1.537 1.095 1.095 0 1 0-1.336 1.732zM95.396 37.379a1.098 1.098 0 0 0 1.535-.203c.373-.48.281-1.17-.203-1.537a1.097 1.097 0 0 0-1.535.197c-.368.486-.28 1.17.203 1.543z"/><path d="M94.056 39.115a1.097 1.097 0 1 0 1.337-1.74 1.097 1.097 0 0 0-1.337 1.74z"/><path d="M92.72 40.854a1.105 1.105 0 0 0 1.541-.199 1.102 1.102 0 0 0-.205-1.539 1.09 1.09 0 0 0-1.533.197 1.09 1.09 0 0 0 .197 1.541zM97.685 37.754c.479.369 1.17.279 1.535-.199a1.098 1.098 0 0 0-.197-1.539 1.103 1.103 0 0 0-1.541.205 1.095 1.095 0 0 0 .203 1.533z"/><path d="M96.349 39.492a1.094 1.094 0 0 0 1.537-.201 1.098 1.098 0 0 0-.201-1.537 1.1 1.1 0 0 0-1.537.201c-.37.482-.28 1.171.201 1.537z"/><path d="M95.015 41.232a1.095 1.095 0 1 0 1.334-1.74 1.1 1.1 0 0 0-1.537.201 1.088 1.088 0 0 0 .203 1.539zM98.603 39.846a1.095 1.095 0 0 0 1.535-.207 1.09 1.09 0 0 0-.197-1.532 1.098 1.098 0 1 0-1.338 1.739z"/><path d="M97.265 41.583c.479.366 1.17.278 1.539-.206a1.09 1.09 0 0 0-.201-1.531 1.09 1.09 0 0 0-1.537.198 1.097 1.097 0 0 0 .199 1.539z"/><path d="M95.933 43.32a1.092 1.092 0 0 0 1.533-.203 1.089 1.089 0 0 0-.201-1.534 1.094 1.094 0 1 0-1.332 1.737zM100.88 40.21a1.101 1.101 0 0 0 1.543-.2 1.11 1.11 0 0 0-.205-1.541 1.106 1.106 0 0 0-1.541.203 1.095 1.095 0 0 0 .203 1.538z"/><path d="M99.542 41.951c.48.364 1.17.277 1.543-.203a1.1 1.1 0 0 0-1.746-1.34 1.106 1.106 0 0 0 .203 1.543z"/><path d="M98.21 43.689a1.099 1.099 0 0 0 1.535-.201 1.1 1.1 0 0 0-.203-1.537 1.092 1.092 0 0 0-1.535.196 1.097 1.097 0 0 0 .203 1.542zM101.798 42.301a1.096 1.096 0 0 0 1.535-.207 1.085 1.085 0 0 0-.205-1.533 1.09 1.09 0 0 0-1.531.201 1.1 1.1 0 0 0 .201 1.539z"/><path d="M100.458 44.037a1.1 1.1 0 0 0 1.537-.199 1.096 1.096 0 1 0-1.537.199z"/><path d="M99.12 45.777c.479.365 1.17.276 1.537-.201a1.09 1.09 0 0 0-.199-1.539 1.1 1.1 0 0 0-1.539.201 1.104 1.104 0 0 0 .201 1.539zM104.036 42.635c.479.366 1.17.28 1.535-.197.373-.48.275-1.17-.201-1.537a1.091 1.091 0 0 0-1.539.198 1.092 1.092 0 0 0 .205 1.536z"/><path d="M102.696 44.375c.482.371 1.17.279 1.535-.201a1.096 1.096 0 0 0-.195-1.539 1.105 1.105 0 0 0-1.543.203 1.104 1.104 0 0 0 .203 1.537z"/><path d="M101.358 46.113a1.097 1.097 0 1 0 1.338-1.738 1.098 1.098 0 0 0-1.338 1.738zM104.948 44.721a1.102 1.102 0 0 0 1.541-.197 1.09 1.09 0 0 0-.203-1.537 1.097 1.097 0 0 0-1.537.198 1.1 1.1 0 0 0 .199 1.536z"/><path d="M103.614 46.461a1.096 1.096 0 1 0 1.337-1.738 1.096 1.096 0 0 0-1.337 1.738z"/><path d="M102.276 48.199a1.097 1.097 0 0 0 1.338-1.738 1.09 1.09 0 0 0-1.533.203 1.085 1.085 0 0 0 .195 1.535zM87.245 38.083a1.096 1.096 0 0 0 1.34-1.735 1.096 1.096 0 1 0-1.34 1.735z"/><path d="M85.907 39.822a1.096 1.096 0 1 0 1.343-1.737 1.096 1.096 0 0 0-1.343 1.737zM88.163 40.172a1.096 1.096 0 0 0 1.535-.203 1.09 1.09 0 0 0-.199-1.535 1.097 1.097 0 1 0-1.336 1.738z"/><path d="M86.823 41.911a1.105 1.105 0 0 0 1.541-.204 1.096 1.096 0 0 0-1.736-1.336 1.1 1.1 0 0 0 .195 1.54zM90.44 40.538c.48.368 1.17.278 1.539-.198a1.1 1.1 0 0 0-.199-1.539 1.11 1.11 0 0 0-1.543.197 1.1 1.1 0 0 0 .203 1.54z"/><path d="M89.108 42.277a1.094 1.094 0 0 0 1.533-.2 1.1 1.1 0 0 0-.201-1.539 1.097 1.097 0 0 0-1.535.202 1.089 1.089 0 0 0 .203 1.537z"/><path d="M87.772 44.018a1.093 1.093 0 0 0 1.533-.201 1.101 1.101 0 0 0-.197-1.539 1.103 1.103 0 0 0-1.541.199 1.095 1.095 0 0 0 .205 1.541zM91.353 42.627a1.11 1.11 0 0 0 1.545-.199 1.094 1.094 0 0 0-.209-1.539 1.087 1.087 0 0 0-1.527.199 1.093 1.093 0 0 0 .191 1.539z"/><path d="M90.019 44.364a1.1 1.1 0 0 0 1.543-.202 1.097 1.097 0 0 0-.209-1.535 1.095 1.095 0 0 0-1.334 1.737zM88.683 46.104a1.096 1.096 0 1 0 1.336-1.739 1.108 1.108 0 0 0-1.539.2 1.103 1.103 0 0 0 .203 1.539zM93.646 43.006a1.109 1.109 0 0 0 1.543-.199 1.096 1.096 0 1 0-1.738-1.337 1.094 1.094 0 0 0 .195 1.536z"/><path d="M92.315 44.744a1.088 1.088 0 0 0 1.529-.202 1.087 1.087 0 0 0-.199-1.536c-.477-.37-1.166-.279-1.533.201s-.273 1.168.203 1.537z"/><path d="M90.978 46.482a1.096 1.096 0 0 0 1.338-1.738 1.093 1.093 0 0 0-1.535.201 1.087 1.087 0 0 0 .197 1.537z"/><path d="M89.64 48.219a1.1 1.1 0 0 0 1.541-.199 1.097 1.097 0 1 0-1.541.199z"/><path d="M88.308 49.959a1.095 1.095 0 1 0-.203-1.537c-.37.482-.284 1.17.203 1.537zM94.565 45.094c.482.369 1.17.274 1.533-.203a1.09 1.09 0 0 0-.195-1.537 1.097 1.097 0 1 0-1.338 1.74z"/><path d="M93.226 46.83a1.103 1.103 0 0 0 1.543-.203 1.096 1.096 0 1 0-1.543.203z"/><path d="M91.894 48.57a1.096 1.096 0 1 0 1.332-1.74 1.088 1.088 0 0 0-1.533.203 1.093 1.093 0 0 0 .201 1.537z"/><path d="M90.556 50.307a1.094 1.094 0 0 0 1.535-.202 1.092 1.092 0 0 0-.197-1.534 1.099 1.099 0 0 0-1.541.199 1.102 1.102 0 0 0 .203 1.537z"/><path d="M89.224 52.045a1.095 1.095 0 0 0 1.535-.197c.367-.482.273-1.17-.203-1.541s-1.17-.279-1.539.202a1.092 1.092 0 0 0 .207 1.536zM96.843 45.46a1.105 1.105 0 0 0 1.541-.198 1.101 1.101 0 0 0-.203-1.541 1.097 1.097 0 1 0-1.338 1.739z"/><circle cx="96.176" cy="46.33" r="1.096"/><path d="M94.173 48.939a1.09 1.09 0 0 0 1.533-.202 1.095 1.095 0 1 0-1.736-1.335 1.09 1.09 0 0 0 .203 1.537z"/><path d="M92.841 50.676a1.09 1.09 0 0 0 1.529-.199 1.093 1.093 0 0 0-.197-1.537 1.103 1.103 0 0 0-1.543.199 1.097 1.097 0 0 0 .211 1.537z"/><path d="M91.495 52.412a1.1 1.1 0 0 0 1.543-.199 1.103 1.103 0 0 0-.197-1.537 1.102 1.102 0 0 0-1.541.203 1.092 1.092 0 0 0 .195 1.533z"/><path d="M90.163 54.152c.479.371 1.168.28 1.543-.201a1.1 1.1 0 0 0-.211-1.539 1.092 1.092 0 0 0-1.531.204 1.09 1.09 0 0 0 .199 1.536zM97.761 47.547a1.092 1.092 0 0 0 1.533-.201 1.092 1.092 0 1 0-1.73-1.336 1.087 1.087 0 0 0 .197 1.537z"/><path d="M96.421 49.286a1.1 1.1 0 0 0 1.541-.2 1.102 1.102 0 0 0-.201-1.539 1.099 1.099 0 0 0-1.34 1.739z"/><path d="M95.091 51.025c.477.366 1.16.281 1.535-.199a1.093 1.093 0 0 0-.205-1.54 1.09 1.09 0 0 0-1.533.2 1.094 1.094 0 0 0 .203 1.539z"/><path d="M93.753 52.764a1.097 1.097 0 0 0 1.338-1.738 1.091 1.091 0 0 0-1.535.199 1.092 1.092 0 0 0 .197 1.539z"/><path d="M92.413 54.504a1.102 1.102 0 0 0 1.537-.205 1.1 1.1 0 0 0-.197-1.535 1.09 1.09 0 0 0-1.535.201 1.096 1.096 0 0 0 .195 1.539z"/><path d="M91.081 56.242a1.096 1.096 0 0 0 1.535-.199 1.103 1.103 0 0 0-.203-1.539 1.092 1.092 0 0 0-1.537.201 1.094 1.094 0 0 0 .205 1.537z"/><path d="M89.743 57.982a1.097 1.097 0 0 0 1.533-.203 1.093 1.093 0 0 0-.195-1.537 1.1 1.1 0 0 0-1.541.201 1.101 1.101 0 0 0 .203 1.539zM99.997 47.883a1.103 1.103 0 0 0 1.543-.193 1.113 1.113 0 0 0-.203-1.545 1.096 1.096 0 0 0-1.537.205 1.092 1.092 0 0 0 .197 1.533z"/><path d="M98.661 49.624a1.1 1.1 0 0 0 1.539-.196 1.11 1.11 0 0 0-.203-1.545 1.097 1.097 0 0 0-1.336 1.741z"/><path d="M97.329 51.365a1.09 1.09 0 0 0 1.533-.205 1.086 1.086 0 0 0-.201-1.536 1.09 1.09 0 0 0-1.535.204 1.09 1.09 0 0 0 .203 1.537z"/><path d="M95.989 53.103a1.1 1.1 0 0 0 1.537-.204 1.094 1.094 0 0 0-.197-1.533 1.098 1.098 0 0 0-1.543.199 1.103 1.103 0 0 0 .203 1.538z"/><path d="M94.651 54.844a1.1 1.1 0 0 0 1.541-.208 1.09 1.09 0 0 0-.203-1.533 1.1 1.1 0 0 0-1.541.201 1.112 1.112 0 0 0 .203 1.54z"/><path d="M93.319 56.582a1.1 1.1 0 0 0 1.535-.201 1.099 1.099 0 0 0-.203-1.537 1.092 1.092 0 0 0-1.535.198 1.097 1.097 0 0 0 .203 1.54z"/><path d="M91.983 58.318a1.096 1.096 0 1 0-.205-1.537 1.088 1.088 0 0 0 .205 1.537zM100.911 49.973a1.099 1.099 0 0 0 1.541-.201 1.098 1.098 0 0 0-1.74-1.34 1.103 1.103 0 0 0 .199 1.541z"/><path d="M99.577 51.714c.484.365 1.17.278 1.543-.2a1.102 1.102 0 0 0-.209-1.541 1.094 1.094 0 0 0-1.531.198 1.1 1.1 0 0 0 .197 1.543z"/><path d="M98.239 53.451a1.1 1.1 0 0 0 1.537-.201 1.088 1.088 0 0 0-.199-1.536 1.1 1.1 0 0 0-1.541.196 1.11 1.11 0 0 0 .203 1.541z"/><path d="M96.909 55.189a1.093 1.093 0 0 0 1.533-.199 1.096 1.096 0 0 0-.203-1.539 1.095 1.095 0 1 0-1.33 1.738z"/><path d="M95.569 56.928a1.095 1.095 0 0 0 1.539-.203 1.102 1.102 0 0 0-.199-1.535 1.091 1.091 0 0 0-1.537.201 1.09 1.09 0 0 0 .197 1.537z"/><path d="M94.231 58.665c.482.366 1.17.28 1.541-.198a1.096 1.096 0 1 0-1.541.198z"/><path d="M92.899 60.404a1.1 1.1 0 0 0 1.533-.201 1.09 1.09 0 0 0-.201-1.538 1.095 1.095 0 1 0-1.332 1.739zM90.646 60.057a1.094 1.094 0 0 0 1.533-.2 1.097 1.097 0 1 0-1.533.2z"/><path d="M91.452 62.203a1.096 1.096 0 1 0 1.335-1.739 1.096 1.096 0 0 0-1.335 1.739zM115.595 30.705a1.1 1.1 0 0 0 1.346-1.738 1.1 1.1 0 0 0-1.539.202 1.095 1.095 0 0 0 .193 1.536z"/></g></svg>