<svg xmlns="http://www.w3.org/2000/svg" viewBox='0 0 207.067 115.529' width="207.067" height="115.529" xml:space="preserve"><circle fill="none" stroke="#46474D" stroke-width="6.756" stroke-miterlimit="10" cx="41.859" cy="71.913" r="38.016"/><circle fill="none" stroke="#46474D" stroke-width="6.756" stroke-miterlimit="10" cx="165.109" cy="73.569" r="38.015"/><path fill="none" stroke="#46474D" stroke-width="3.644" stroke-linejoin="round" stroke-miterlimit="10" d="M79.875 39.508 90.979 80.5l-49.12-8.587 38.016-32.405"/><path fill="#46474D" d="m88.674 78.826 1.948-2.936c1.231-1.874 3.051-4.508 5.204-7.689 4.297-6.371 10.131-14.79 16.027-23.163 2.929-4.201 5.92-8.356 8.697-12.272 2.773-3.918 5.401-7.547 7.648-10.66l5.43-7.526c.333-.45.608-.868.887-1.203.296-.322.65-.522.989-.647.686-.244 1.321-.178 1.321-.178l4.609 3.35c0-.001.259.583.239 1.311-.014.36-.095.759-.31 1.141-.232.368-.545.76-.871 1.215l-5.479 7.49c-2.267 3.1-4.905 6.72-7.775 10.568-2.866 3.851-5.894 7.979-8.984 12.063-6.142 8.195-12.345 16.346-17.077 22.401-2.361 3.03-4.303 5.575-5.706 7.325l-2.189 2.761-4.608-3.351z"/><path fill="none" stroke="#46474D" stroke-width="3.644" stroke-miterlimit="10" d="m79.875 39.508 60.11-27.24"/><path fill="none" stroke="#46474D" stroke-width="4.545" stroke-miterlimit="10" d="m137.927 6.801 7.633 23.256"/><path fill="none" stroke="#46474D" stroke-width="4.545" stroke-linecap="round" stroke-miterlimit="10" d="m152.276 38.233 12.832 35.338"/><path fill="none" stroke="#46474D" stroke-width="3.03" stroke-miterlimit="10" d="m148.192 27.935 4.262 11.573"/><path fill="none" stroke="#46474D" stroke-width="3.001" stroke-miterlimit="10" d="m152.866 31.095 4.533 12.005"/><path fill="none" stroke="#46474D" stroke-width="4.166" stroke-linecap="round" stroke-miterlimit="10" d="m144.755 29.04 3.447-1.243"/><path fill="none" stroke="#46474D" stroke-width="3.644" stroke-miterlimit="10" d="m137.7 9.408 10.502-4.001"/><path fill="none" stroke="#46474D" stroke-width="3.644" stroke-linecap="round" stroke-miterlimit="10" d="m141.772 2.622 6.43 2.785"/><path fill="none" stroke="#46474D" stroke-width="3.644" stroke-linejoin="round" stroke-miterlimit="10" d="m54.506 1.822 26.435.928-21.148 1.072z"/><path fill="none" stroke="#46474D" stroke-width="3.644" stroke-linecap="round" stroke-miterlimit="10" d="M80.67 66.336 91.785 80.5M75.66 65.274h7.211"/><path fill="none" stroke="#46474D" stroke-width="3.644" stroke-linejoin="round" stroke-miterlimit="10" d="M79.875 39.508 69.139 4.014"/><path fill="#46474D" d="m142.573 20.963-2.588-7.543-3.51 1.764.08-.154-12.721 5.365s3.883 2.368 3.172 5.492c.453-.67 5.418-3.933 5.814-4.549l.621 3.254 9.132-3.629z"/><circle fill="none" stroke="#46474D" stroke-width="6.066" stroke-miterlimit="10" stroke-dasharray="2.4388,2.4388" cx="41.858" cy="71.915" r="38.825"/><circle fill="none" stroke="#46474D" stroke-width="6.066" stroke-miterlimit="10" stroke-dasharray="2.4451,2.4451" cx="165.109" cy="73.569" r="38.925"/><path fill="#4CFF3A" stroke="#46474D" stroke-width=".145" stroke-miterlimit="10" d="m123.763 31.088-.467-.242c-5.65-.344-12.936 3.585-13.867 4.625-.709.793-13.228 17.809-19.159 25.882-1.27 2.669.078 3.701 1.848 4.335l5.713 2.042-.193.665 1.14.314 24.547-32.795s1.172-1.613 1.219-2.864c.039-1.099-.781-1.962-.781-1.962z"/><path fill="#46474D" d="M86.693 71.537a10.996 10.996 0 0 1 5.398-1.409c.068 0 .139.006.209.006.141.004.279.006.416.014.154.01.313.024.465.04.043.005.092.007.135.011.188.021.371.048.557.078l.014.002c.193.032.385.066.576.111v-.006l4.446 1.006 3.518-4.181-6.894-1.559-.006.004c-.26-.06-.531-.112-.85-.165l-.027-.003c-.25-.042-.5-.077-.754-.106l-.248-.023-.02-.002c-.199-.02-.398-.037-.598-.051l-.043-.002c-.16-.009-.32-.014-.482-.017l-.082-.003h-.025c-.111-.004-.211-.008-.307-.008-5.42 0-10.215 2.723-13.094 6.869l7.696-.606z"/><path fill="#FFC246" stroke="#46474D" stroke-width=".127" stroke-miterlimit="10" d="M108.612 81.766c.055-.075.1-.158.152-.239.059-.091.117-.185.172-.28.047-.082.086-.166.129-.25.051-.1.1-.201.145-.305a4.823 4.823 0 0 0 .226-.58c.031-.086.061-.172.084-.262.033-.113.064-.235.092-.354.02-.084.043-.168.055-.251.027-.136.047-.276.064-.413.01-.071.021-.145.029-.219.021-.209.031-.423.033-.637v-.016a7.18 7.18 0 0 0-.033-.64c-.008-.073-.02-.146-.029-.218a6.456 6.456 0 0 0-.064-.41c-.012-.084-.035-.169-.055-.25a6.655 6.655 0 0 0-.092-.357c-.023-.088-.053-.172-.084-.261a4.849 4.849 0 0 0-.117-.325c-.035-.086-.07-.172-.109-.255a5.3 5.3 0 0 0-.145-.304c-.043-.085-.082-.17-.129-.25a5.975 5.975 0 0 0-.172-.28c-.053-.081-.098-.161-.152-.241-.063-.09-.133-.18-.199-.27a9.714 9.714 0 0 0-.33-.395c-.074-.082-.143-.164-.219-.242-.078-.078-.162-.15-.242-.224-.066-.062-.131-.124-.199-.184a5.959 5.959 0 0 0-.266-.209c-.07-.052-.139-.107-.209-.156a17.697 17.697 0 0 0-.287-.19 4.046 4.046 0 0 0-.221-.133 5.684 5.684 0 0 0-.536-.278 5.337 5.337 0 0 0-.328-.144c-.076-.031-.15-.055-.229-.084-.117-.041-.232-.083-.352-.119-.068-.02-.141-.036-.213-.057-.125-.032-.25-.066-.381-.092l-10.933-2.471v.004a8.654 8.654 0 0 0-.48-.094l-.012-.002a14.054 14.054 0 0 0-.465-.064c-.037-.004-.076-.004-.111-.01-.131-.013-.26-.024-.389-.033-.115-.007-.232-.008-.35-.012-.057 0-.117-.004-.176-.004-5.115 0-9.26 4.145-9.26 9.258v.002a9.26 9.26 0 0 0 9.26 9.26c.059 0 .119-.004.176-.006a6.783 6.783 0 0 0 .739-.043l.111-.012c.156-.018.311-.039.465-.063 0 0 .008 0 .012-.003.162-.026.32-.059.48-.092v.004l10.933-2.471c.131-.025.256-.062.381-.094.072-.02.145-.035.213-.056.119-.036.234-.077.352-.12.078-.027.152-.053.229-.082.113-.045.219-.094.328-.145.078-.035.152-.072.229-.108.104-.056.207-.11.307-.171.072-.041.146-.086.221-.131.094-.062.191-.122.287-.189l.209-.156c.09-.07.18-.139.266-.211.068-.06.133-.12.199-.182.08-.076.164-.148.242-.226.076-.079.145-.159.219-.242.113-.128.223-.26.33-.395.066-.086.137-.172.199-.266z"/><path fill="none" stroke="#46474D" stroke-width="3.644" stroke-linecap="round" stroke-miterlimit="10" d="m91.41 77.579 11.114 14.167M98.236 91.746h7.21"/></svg>