<svg xmlns="http://www.w3.org/2000/svg" viewBox='0 0 201.551 112.45' width="201.551" height="112.45" xml:space="preserve"><path fill="#FFC246" stroke="#46474D" stroke-width=".148" stroke-miterlimit="10" d="m95.915 63.588 7.79-10.85-2.36-1.697-.636-.454-.455.635.305.216-.459.645-.307-.219-.453.633.302.221-.46.638-.305-.216-.453.634.303.219-.463.641-.304-.217-.458.633.307.219-.462.64-.303-.217-.458.638.305.216-.46.642-.303-.217-.456.634.305.219-.463.639-.306-.217-.454.634.305.222-.463.636-.301-.217-.457.638.305.213-.461.646-.305-.219-.459.636.307.218z"/><circle fill="#FFC246" stroke="#46474D" stroke-width=".148" stroke-miterlimit="10" cx="40.746" cy="69.997" r="8.514"/><g fill="#4CFF3A" stroke="#46474D" stroke-width=".148" stroke-miterlimit="10"><path d="M99.564 41.758a1.115 1.115 0 1 0 1.3-1.814 1.117 1.117 0 1 0-1.3 1.814z"/><path d="M98.262 43.571c.5.359 1.195.248 1.557-.256.359-.5.245-1.195-.255-1.558a1.117 1.117 0 0 0-1.302 1.814zM101.891 42.058a1.118 1.118 0 0 0 1.557-.258 1.112 1.112 0 0 0-.256-1.555 1.118 1.118 0 0 0-1.557.254 1.118 1.118 0 0 0 .256 1.559z"/><path d="M100.592 43.868a1.11 1.11 0 0 0 1.557-.257 1.113 1.113 0 0 0-.258-1.554 1.115 1.115 0 1 0-1.299 1.811z"/><circle cx="103.544" cy="43.242" r="1.115"/><circle cx="102.243" cy="45.054" r="1.116"/><path d="M105.182 44.417a1.12 1.12 0 0 0 1.559-.254 1.117 1.117 0 1 0-1.559.254z"/><path d="M103.881 46.23a1.117 1.117 0 0 0 1.301-1.814 1.118 1.118 0 0 0-1.558.259 1.114 1.114 0 0 0 .257 1.555zM106.183 46.509c.501.361 1.2.246 1.56-.256a1.112 1.112 0 0 0-.258-1.555 1.113 1.113 0 0 0-1.555.254c-.361.5-.248 1.199.253 1.557z"/><circle cx="105.533" cy="47.416" r="1.116"/><path d="M96.936 45.419c.5.361 1.197.246 1.556-.254s.245-1.198-.257-1.56a1.115 1.115 0 1 0-1.299 1.814z"/><circle cx="96.285" cy="46.326" r="1.117"/><path d="M94.332 49.048a1.116 1.116 0 1 0 1.299-1.816 1.116 1.116 0 0 0-1.299 1.816z"/><path d="M93.031 50.86a1.12 1.12 0 0 0 1.56-.255 1.117 1.117 0 1 0-1.56.255z"/><path d="M91.732 52.675a1.116 1.116 0 1 0 1.296-1.816 1.116 1.116 0 0 0-1.296 1.816z"/><path d="M90.429 54.487a1.117 1.117 0 0 0 1.303-1.813 1.115 1.115 0 0 0-1.558.254c-.361.5-.244 1.2.255 1.559z"/><path d="M89.129 56.298a1.115 1.115 0 1 0 1.3-1.811 1.12 1.12 0 0 0-1.56.254 1.119 1.119 0 0 0 .26 1.557zM99.263 45.718a1.118 1.118 0 0 0 1.558-.254 1.12 1.12 0 0 0-.256-1.56 1.118 1.118 0 0 0-1.302 1.814z"/><path d="M97.961 47.531a1.12 1.12 0 0 0 1.561-.257 1.118 1.118 0 0 0-.259-1.557 1.114 1.114 0 0 0-1.554.257 1.113 1.113 0 0 0 .252 1.557z"/><circle cx="97.311" cy="48.438" r="1.116"/><path d="M95.362 51.159a1.115 1.115 0 1 0-.256-1.558 1.113 1.113 0 0 0 .256 1.558z"/><circle cx="94.71" cy="52.065" r="1.116"/><path d="M92.76 54.784c.5.36 1.196.245 1.555-.255a1.12 1.12 0 0 0-.256-1.559 1.113 1.113 0 0 0-1.554.257 1.113 1.113 0 0 0 .255 1.557z"/><circle cx="92.109" cy="55.691" r="1.117"/><path d="M100.264 47.81a1.12 1.12 0 0 0 1.561-.254 1.12 1.12 0 0 0-.257-1.559 1.116 1.116 0 0 0-1.304 1.813z"/><path d="M98.964 49.623c.503.36 1.198.245 1.558-.253a1.117 1.117 0 0 0-1.814-1.305 1.118 1.118 0 0 0 .256 1.558z"/><path d="M97.66 51.438a1.126 1.126 0 0 0 1.563-.257 1.117 1.117 0 1 0-1.563.257z"/><path d="M96.365 53.254a1.115 1.115 0 1 0 1.296-1.816 1.112 1.112 0 0 0-1.553.254 1.12 1.12 0 0 0 .257 1.562z"/><path d="M95.064 55.063a1.115 1.115 0 1 0 1.3-1.811 1.115 1.115 0 0 0-1.3 1.811z"/><path d="M93.761 56.877a1.116 1.116 0 1 0-.256-1.557 1.117 1.117 0 0 0 .256 1.557z"/><circle cx="93.11" cy="57.783" r="1.115"/><path d="M102.553 48.081a1.122 1.122 0 0 0 1.561-.257 1.116 1.116 0 1 0-1.561.257z"/><circle cx="101.904" cy="48.986" r="1.114"/><circle cx="104.207" cy="49.265" r="1.116"/><circle cx="90.807" cy="57.504" r="1.115"/><path d="M91.159 60.505c.5.355 1.196.241 1.558-.257a1.118 1.118 0 1 0-1.558.257zM114.183 35.559c.5.357 1.2.244 1.558-.255a1.118 1.118 0 1 0-1.817-1.301c-.356.5-.244 1.198.259 1.556zM107.187 34.813a1.118 1.118 0 0 0 1.558-.255 1.122 1.122 0 0 0-.256-1.559 1.12 1.12 0 0 0-1.557.257 1.115 1.115 0 0 0 .255 1.557zM109.489 35.095a1.122 1.122 0 0 0 1.557-.257 1.12 1.12 0 0 0-.253-1.56 1.116 1.116 0 0 0-1.558.258 1.116 1.116 0 0 0 .254 1.559z"/><path d="M108.191 36.905a1.117 1.117 0 0 0 1.556-.254 1.112 1.112 0 0 0-.258-1.557 1.112 1.112 0 0 0-1.556.255c-.359.5-.245 1.198.258 1.556zM111.776 35.36a1.12 1.12 0 0 0 1.559-.254 1.117 1.117 0 1 0-1.559.254z"/><circle cx="111.125" cy="36.268" r="1.116"/><path d="M112.778 37.454a1.12 1.12 0 0 0 1.561-.257 1.12 1.12 0 0 0-.256-1.557 1.118 1.118 0 0 0-1.305 1.814z"/><path d="M111.478 39.269a1.116 1.116 0 0 0 1.3-1.815 1.116 1.116 0 1 0-1.3 1.815z"/><circle cx="104.207" cy="35.423" r="1.116"/><path d="M102.254 38.142a1.12 1.12 0 0 0 1.557-.254 1.117 1.117 0 0 0-1.813-1.304 1.12 1.12 0 0 0 .256 1.558z"/><path d="M100.953 39.952a1.12 1.12 0 0 0 1.561-.252 1.12 1.12 0 0 0-1.818-1.304c-.359.502-.243 1.2.257 1.556z"/><circle cx="106.536" cy="35.72" r="1.116"/><path d="M104.584 38.44c.5.357 1.196.244 1.561-.258a1.118 1.118 0 0 0-1.817-1.301c-.36.5-.244 1.2.256 1.559z"/><circle cx="103.934" cy="39.347" r="1.115"/><path d="M106.887 38.719a1.118 1.118 0 0 0 1.559-.255c.357-.5.242-1.2-.255-1.559a1.116 1.116 0 1 0-1.304 1.814z"/><circle cx="106.236" cy="39.625" r="1.116"/><path d="M104.285 42.344a1.114 1.114 0 1 0 1.299-1.812 1.115 1.115 0 1 0-1.299 1.812z"/><circle cx="109.825" cy="38.082" r="1.115"/><path d="M107.873 40.8a1.116 1.116 0 1 0 1.303-1.813 1.116 1.116 0 0 0-1.303 1.813z"/><path d="M106.574 42.611c.5.361 1.195.246 1.557-.251a1.118 1.118 0 1 0-1.815-1.302 1.113 1.113 0 0 0 .258 1.553zM110.178 41.082c.5.354 1.197.242 1.555-.259.361-.5.244-1.197-.255-1.555a1.108 1.108 0 0 0-1.554.254c-.363.5-.246 1.198.254 1.56zM108.873 42.892a1.122 1.122 0 0 0 1.561-.254 1.114 1.114 0 0 0-.256-1.556 1.116 1.116 0 0 0-1.305 1.81z"/><path d="M107.574 44.704a1.115 1.115 0 1 0 1.306-1.808 1.115 1.115 0 0 0-1.306 1.808z"/></g><circle fill="none" stroke="#46474D" stroke-width="6.576" stroke-miterlimit="10" cx="40.745" cy="69.997" r="37.002"/><path fill="none" stroke="#46474D" stroke-width="6.576" stroke-miterlimit="10" d="M197.713 71.608c0 20.437-16.567 37.005-37.004 37.005-20.434 0-37-16.568-37-37.005 0-20.435 16.566-37 37-37 20.437 0 37.004 16.566 37.004 37z"/><path fill="none" stroke="#46474D" stroke-width="3.547" stroke-linejoin="round" stroke-miterlimit="10" d="m77.747 38.456 10.808 39.899-47.811-8.358 37.003-31.541"/><path fill="#46474D" d="M87.12 77.313s2.808-4.12 7.092-10.248c2.135-3.068 4.621-6.652 7.332-10.458l8.459-11.949c2.864-4.079 5.805-8.103 8.528-11.899l7.464-10.362 5.28-7.329c.322-.44.595-.843.859-1.175a3.35 3.35 0 0 1 .843-.717c.551-.321 1.012-.371 1.012-.371l2.869 2.084s.095.455-.041 1.077c-.071.31-.197.663-.421 1.023-.234.354-.533.737-.852 1.18l-5.339 7.286-7.548 10.301c-2.769 3.763-5.687 7.804-8.681 11.788l-8.75 11.737c-2.781 3.754-5.421 7.227-7.68 10.205-4.503 5.968-7.554 9.911-7.554 9.911l-2.872-2.084z"/><path fill="none" stroke="#46474D" stroke-width="3.547" stroke-miterlimit="10" d="m77.747 38.456 58.507-26.515"/><path fill="none" stroke="#46474D" stroke-width="4.423" stroke-miterlimit="10" d="m134.252 6.62 7.428 22.637"/><path fill="none" stroke="#46474D" stroke-width="4.423" stroke-linecap="round" stroke-miterlimit="10" d="m148.219 37.214 12.49 34.396"/><path fill="none" stroke="#46474D" stroke-width="2.949" stroke-miterlimit="10" d="m144.244 27.19 4.15 11.266"/><path fill="none" stroke="#46474D" stroke-width="2.921" stroke-miterlimit="10" d="m148.793 30.267 4.412 11.685"/><path fill="none" stroke="#46474D" stroke-width="4.055" stroke-linecap="round" stroke-miterlimit="10" d="m140.898 28.267 3.356-1.21"/><path fill="none" stroke="#46474D" stroke-width="3.547" stroke-miterlimit="10" d="m134.031 9.157 10.223-3.894"/><path fill="none" stroke="#46474D" stroke-width="3.547" stroke-linecap="round" stroke-miterlimit="10" d="m137.996 2.552 6.258 2.711"/><path fill="none" stroke="#46474D" stroke-width="3.547" stroke-linejoin="round" stroke-miterlimit="10" d="m53.054 1.773 25.733.904L58.201 3.72z"/><circle fill="#46474D" cx="89.161" cy="78.355" r="10.536"/><path fill="none" stroke="#46474D" stroke-width="3.547" stroke-linecap="round" stroke-miterlimit="10" d="m89.162 78.355 10.819 13.789M78.52 64.569l10.82 13.786M95.806 92.144h7.018M74.285 64.569h7.018"/><path fill="none" stroke="#46474D" stroke-width="3.547" stroke-linejoin="round" stroke-miterlimit="10" d="M77.747 38.456 67.297 3.907"/><path fill="#46474D" d="m138.776 20.405-2.521-7.342-3.414 1.717.078-.15-7.962 2.673s3.776 2.305 3.088 5.346c.44-.652.853-1.278 1.237-1.878l.605 3.167 8.889-3.533z"/><circle fill="none" stroke="#46474D" stroke-width="5.905" stroke-miterlimit="10" stroke-dasharray="2.3738,2.3738" cx="40.744" cy="69.999" r="37.792"/><path fill="none" stroke="#46474D" stroke-width="5.905" stroke-miterlimit="10" stroke-dasharray="2.3799,2.3799" d="M198.599 71.608c0 20.928-16.964 37.89-37.89 37.89-20.924 0-37.886-16.962-37.886-37.89 0-20.923 16.962-37.887 37.886-37.887 20.926.001 37.89 16.965 37.89 37.887z"/></svg>