<svg xmlns="http://www.w3.org/2000/svg" viewBox='0 0 190.219 113.317' width="190.219" height="113.317" xml:space="preserve"><path fill="#FFC246" stroke="#46474D" stroke-width=".152" stroke-miterlimit="10" d="m94.321 61.902 8.511-10.761-2.343-1.856-.631-.496-.498.629.303.237-.502.639-.305-.237-.496.628.301.239-.502.635-.303-.237-.496.631.301.237-.504.636-.303-.238-.498.631.301.236-.504.637-.299-.237-.501.631.304.237-.504.638-.3-.238-.497.629.301.238-.506.635-.301-.236-.498.629.303.24-.506.634-.298-.238-.5.633.302.234-.503.638-.303-.239-.5.631.303.239z"/><circle fill="#FFC246" stroke="#46474D" stroke-width=".238" stroke-miterlimit="10" cx="153.428" cy="76.391" r="13.747"/><circle fill="none" stroke="#46474D" stroke-width="7.587" stroke-miterlimit="10" cx="35.335" cy="76.527" r="30.594"/><circle fill="none" stroke="#46474D" stroke-width="6.177" stroke-miterlimit="10" cx="153.427" cy="76.527" r="32.594"/><path fill="#46474D" d="m80.266 81.509 1.896-2.733c.598-.873 1.341-1.921 2.198-3.117a5090.89 5090.89 0 0 1 2.881-4.021c1.066-1.465 2.222-3.051 3.445-4.728 1.216-1.683 2.542-3.423 3.89-5.241 1.358-1.811 2.738-3.7 4.184-5.585l4.369-5.726c2.908-3.854 5.913-7.629 8.688-11.201 1.398-1.779 2.727-3.516 4.027-5.131 1.296-1.619 2.52-3.149 3.649-4.563l5.463-6.829.883-1.099c.271-.307.694-.413 1.138-.418.217-.007.469.037.66.055.238.053.409.074.602.137.344.09.608.207.594.194l2.781 2.252c-.015-.013.154.222.313.538.102.176.158.339.259.56.057.185.153.423.191.636.089.435.072.871-.171 1.201-.261.316-.558.682-.891 1.092l-5.542 6.766-3.7 4.521c-1.31 1.608-2.73 3.27-4.178 5.007-2.916 3.46-5.981 7.186-9.146 10.832l-4.689 5.467c-1.542 1.807-3.103 3.551-4.589 5.256-1.499 1.697-2.925 3.355-4.316 4.896l-3.905 4.355c-1.222 1.34-2.341 2.567-3.332 3.656a197.271 197.271 0 0 1-2.592 2.8l-2.279 2.424-2.781-2.253z"/><path fill="#46474D" d="M69.258 35.146s3.682-1.456 9.256-3.469a577.723 577.723 0 0 1 9.546-3.357c3.494-1.227 7.246-2.449 10.99-3.696 3.74-1.257 7.513-2.413 11.033-3.55 3.518-1.143 6.83-2.113 9.657-2.988l3.86-1.18c1.154-.336 2.141-.692 2.987-.875 1.72-.271 3.14 1.037 3.14 1.037l1.026 3.43s-.47 1.873-2.058 2.591c-.806.312-1.826.556-2.976.908l-3.875 1.134c-2.843.818-6.145 1.826-9.713 2.801-3.566.982-7.354 2.086-11.171 3.089-3.814 1.013-7.623 2.05-11.214 2.942-3.584.926-6.944 1.74-9.825 2.432-5.762 1.378-9.64 2.182-9.64 2.182l-1.023-3.431z"/><path fill="none" stroke="#46474D" stroke-width="3.851" stroke-miterlimit="10" d="m119.571 7.18 10.711 26.112"/><path fill="none" stroke="#46474D" stroke-width="6.744" stroke-miterlimit="10" d="m125.729 12.383 27.698 64.144"/><path fill="none" stroke="#46474D" stroke-width="5.17" stroke-miterlimit="10" d="m118.955 11.695 10.46-4.716"/><path fill="none" stroke="#46474D" stroke-width="5.494" stroke-linecap="round" stroke-miterlimit="10" d="m122.204 2.747 8.598 4.858"/><path fill="#46474D" stroke="#46474D" stroke-width="4.215" stroke-linejoin="round" stroke-miterlimit="10" d="m53.438 22.28 26.303-1.716-7.885 2.61-16.091 3.592z"/><circle fill="#46474D" cx="81.657" cy="82.635" r="9.16"/><path fill="none" stroke="#46474D" stroke-width="3.579" stroke-linecap="round" stroke-miterlimit="10" d="m81.656 82.635 10.919 13.914M70.919 68.723l10.918 13.912M88.36 96.549h7.084M66.642 68.723h7.082"/><path fill="none" stroke="#46474D" stroke-width="6.744" stroke-linecap="round" stroke-linejoin="round" stroke-miterlimit="10" d="m81.656 82.635-46.321-5.244"/><path fill="none" stroke="#46474D" stroke-width="3.579" stroke-linejoin="round" stroke-miterlimit="10" d="M36.106 77.605 54.622 43.73M66.649 24.843l15.007 57.792"/><path fill="#46474D" stroke="#46474D" stroke-width="3.372" stroke-linecap="round" stroke-linejoin="round" stroke-miterlimit="10" d="m81.354 41.611-27.246 2.532 18.782 5.435z"/><path fill="#46474D" d="M114.936 26.205s5.55 5.058 5.271 5.198c-.281.141 4.004-7.164 4.004-7.164l-9.275 1.966z"/><path fill="none" stroke="#46474D" stroke-width="6.744" stroke-linecap="round" stroke-miterlimit="10" d="m131.101 25.123 22.326 51.404"/><path fill="none" stroke="#46474D" stroke-width="1.531" stroke-linecap="round" stroke-linejoin="round" stroke-miterlimit="10" d="m84.489 45.043-5.182 2.92M84.856 48.273l-5.185 2.921M85.222 51.504l-5.184 2.919M85.588 54.734l-5.186 2.92M85.952 57.964l-5.184 2.921M86.307 61.105l-5.185 2.918"/><path fill="none" stroke="#46474D" stroke-width="1.485" stroke-linecap="round" stroke-linejoin="round" stroke-miterlimit="10" d="m81.395 42.04 2.983 26.385"/><path fill="none" stroke="#46474D" stroke-width="4.215" stroke-linejoin="round" stroke-miterlimit="10" d="m82.792 54.395 1.586 14.03"/><path fill="#FFF" stroke="#46474D" stroke-width="4.215" stroke-linecap="round" stroke-linejoin="round" stroke-miterlimit="10" d="M80.151 69.169s5.408-.772 8.146 1.476"/><circle fill="none" stroke="#46474D" stroke-width="8.608" stroke-miterlimit="10" stroke-dasharray="2.532" cx="35.334" cy="76.527" r="31.03"/><circle fill="none" stroke="#46474D" stroke-width="6.369" stroke-miterlimit="10" stroke-dasharray="2.532" cx="153.428" cy="76.527" r="33.606"/><g fill="#4CFF3A" stroke="#46474D" stroke-width=".152" stroke-miterlimit="10"><path d="M98.979 39.66a1.146 1.146 0 1 0 1.404-1.812 1.146 1.146 0 0 0-1.404 1.812z"/><path d="M97.571 41.469a1.146 1.146 0 1 0 1.405-1.81 1.146 1.146 0 0 0-1.405 1.81zM101.356 40.057a1.145 1.145 0 1 0 1.408-1.807 1.145 1.145 0 0 0-1.408 1.807z"/><circle cx="100.653" cy="40.961" r="1.145"/><circle cx="103.007" cy="41.34" r="1.145"/><circle cx="101.6" cy="43.149" r="1.147"/><path d="M104.643 42.611a1.149 1.149 0 0 0 1.609-.201 1.147 1.147 0 0 0-1.811-1.406 1.147 1.147 0 0 0 .202 1.607zM103.235 44.42a1.143 1.143 0 0 0 1.607-.199 1.147 1.147 0 0 0-.2-1.609 1.144 1.144 0 0 0-1.608.203 1.14 1.14 0 0 0 .201 1.605z"/><circle cx="106.291" cy="43.893" r="1.146"/><path d="M104.181 46.606a1.14 1.14 0 0 0 1.607-.2 1.145 1.145 0 1 0-1.808-1.404 1.14 1.14 0 0 0 .201 1.604z"/><circle cx="96.84" cy="42.409" r="1.146"/><path d="M94.728 45.125a1.146 1.146 0 0 0 1.609-.203 1.147 1.147 0 1 0-1.609.203zM93.319 46.936c.5.387 1.221.298 1.61-.203a1.149 1.149 0 0 0-.202-1.607 1.143 1.143 0 0 0-1.607.199 1.15 1.15 0 0 0 .199 1.611z"/><path d="M91.913 48.746a1.15 1.15 0 0 0 1.611-.2 1.15 1.15 0 0 0-.205-1.61 1.142 1.142 0 0 0-1.607.199 1.15 1.15 0 0 0 .201 1.611zM90.507 50.557a1.145 1.145 0 1 0 1.405-1.81 1.145 1.145 0 0 0-1.405 1.81z"/><path d="M89.099 52.365a1.146 1.146 0 1 0 1.406-1.81 1.146 1.146 0 0 0-1.406 1.81z"/><circle cx="88.396" cy="53.269" r="1.145"/><path d="M98.515 43.712c.5.39 1.222.298 1.609-.198a1.151 1.151 0 0 0-.201-1.611 1.148 1.148 0 0 0-1.609.203 1.143 1.143 0 0 0 .201 1.606z"/><path d="M97.107 45.521a1.149 1.149 0 0 0 1.612-.201 1.15 1.15 0 0 0-.205-1.608 1.141 1.141 0 0 0-1.605.202 1.14 1.14 0 0 0 .198 1.607z"/><circle cx="96.403" cy="46.428" r="1.147"/><circle cx="94.996" cy="48.238" r="1.146"/><circle cx="93.589" cy="50.047" r="1.145"/><circle cx="92.183" cy="51.856" r="1.146"/><path d="M90.073 54.573a1.144 1.144 0 0 0 1.605-.202 1.144 1.144 0 1 0-1.806-1.406 1.14 1.14 0 0 0 .201 1.608z"/><circle cx="100.165" cy="44.995" r="1.147"/><circle cx="98.757" cy="46.804" r="1.146"/><circle cx="97.35" cy="48.615" r="1.148"/><path d="M95.241 51.334a1.148 1.148 0 0 0 1.607-.204c.388-.5.299-1.222-.203-1.608a1.144 1.144 0 0 0-1.607.199 1.15 1.15 0 0 0 .203 1.613z"/><path d="M93.833 53.141a1.145 1.145 0 1 0 1.408-1.806 1.141 1.141 0 0 0-1.609.198 1.143 1.143 0 0 0 .201 1.608zM92.425 54.95a1.145 1.145 0 1 0 1.406-1.808 1.145 1.145 0 0 0-1.406 1.808z"/><circle cx="91.722" cy="55.855" r="1.146"/><path d="M101.798 46.268a1.148 1.148 0 1 0-.199-1.611 1.15 1.15 0 0 0 .199 1.611z"/><path d="M100.394 48.076a1.145 1.145 0 1 0 1.404-1.808 1.139 1.139 0 0 0-1.605.2 1.141 1.141 0 0 0 .201 1.608zM102.747 48.453c.5.39 1.218.299 1.605-.203a1.144 1.144 0 0 0-.199-1.607 1.152 1.152 0 0 0-1.611.202c-.385.5-.297 1.219.205 1.608zM88.665 56.383a1.14 1.14 0 0 0 1.605-.203 1.142 1.142 0 0 0-.197-1.606 1.148 1.148 0 0 0-1.611.2 1.148 1.148 0 0 0 .203 1.609z"/><circle cx="90.314" cy="57.666" r="1.147"/><path d="M114.233 33.871a1.146 1.146 0 1 0 1.406-1.809 1.152 1.152 0 0 0-1.611.202c-.384.5-.297 1.22.205 1.607zM107.081 32.83a1.145 1.145 0 1 0 1.407-1.807 1.145 1.145 0 0 0-1.407 1.807zM109.433 33.209a1.147 1.147 0 0 0 1.409-1.813 1.144 1.144 0 0 0-1.608.204 1.143 1.143 0 0 0 .199 1.609z"/><path d="M108.027 35.018a1.145 1.145 0 1 0 1.405-1.808 1.14 1.14 0 0 0-1.607.201 1.144 1.144 0 0 0 .202 1.607z"/><circle cx="112.474" cy="32.668" r="1.148"/><circle cx="111.065" cy="34.479" r="1.146"/><circle cx="113.421" cy="34.857" r="1.147"/><path d="M111.308 37.574a1.15 1.15 0 0 0 1.61-.205c.389-.497.3-1.219-.202-1.607a1.145 1.145 0 0 0-1.607.201c-.39.5-.297 1.219.199 1.611zM103.294 34.244a1.145 1.145 0 0 0 1.607-.205c.387-.498.299-1.221-.202-1.607s-1.218-.297-1.609.201c-.386.5-.297 1.22.204 1.611zM101.884 36.053a1.146 1.146 0 1 0 1.41-1.809 1.146 1.146 0 0 0-1.41 1.809z"/><path d="M100.476 37.859a1.15 1.15 0 0 0 1.613-.197 1.149 1.149 0 0 0-1.814-1.409 1.146 1.146 0 0 0 .201 1.606z"/><circle cx="106.377" cy="33.735" r="1.147"/><path d="M104.265 36.451a1.146 1.146 0 1 0 1.41-1.81 1.146 1.146 0 0 0-1.41 1.81zM102.856 38.261c.5.39 1.22.298 1.611-.202a1.144 1.144 0 0 0-.203-1.607 1.15 1.15 0 0 0-1.611.201 1.148 1.148 0 0 0 .203 1.608zM106.618 36.828a1.143 1.143 0 0 0 1.608-.201 1.149 1.149 0 0 0-.199-1.609 1.146 1.146 0 1 0-1.409 1.81z"/><circle cx="105.913" cy="37.733" r="1.147"/><path d="M103.804 40.445a1.145 1.145 0 1 0 1.405-1.806 1.145 1.145 0 1 0-1.405 1.806z"/><circle cx="109.659" cy="36.29" r="1.146"/><path d="M107.549 39.002a1.144 1.144 0 1 0 1.407-1.807 1.146 1.146 0 1 0-1.407 1.807z"/><path d="M106.144 40.813a1.145 1.145 0 1 0-.203-1.605 1.142 1.142 0 0 0 .203 1.605zM109.901 39.383c.5.385 1.221.297 1.608-.203a1.14 1.14 0 0 0-.202-1.605 1.138 1.138 0 0 0-1.605.197c-.39.5-.299 1.22.199 1.611z"/><path d="M108.493 41.191a1.15 1.15 0 0 0 1.61-.201c.39-.5.298-1.223-.202-1.607a1.146 1.146 0 0 0-1.408 1.808z"/><circle cx="107.79" cy="42.096" r="1.146"/></g></svg>