<?xml version="1.0" encoding="UTF-8" standalone="no"?>
<svg
   aria-hidden="true"
   focusable="false"
   data-prefix="fas"
   data-icon="hand-point-right"
   class="svg-inline--fa fa-hand-point-right fa-w-16"
   role="img"
   viewBox="0 0 71.199997 58.400002"
   version="1.1"
   id="svg4"
   sodipodi:docname="hand-point-right-solid.svg"
   width="71.199997"
   height="58.400002"
   inkscape:version="1.1.1 (3bf5ae0d25, 2021-09-20)"
   xmlns:inkscape="http://www.inkscape.org/namespaces/inkscape"
   xmlns:sodipodi="http://sodipodi.sourceforge.net/DTD/sodipodi-0.dtd"
   xmlns="http://www.w3.org/2000/svg"
   xmlns:svg="http://www.w3.org/2000/svg">
  <defs
     id="defs8" />
  <sodipodi:namedview
     id="namedview6"
     pagecolor="#ffffff"
     bordercolor="#666666"
     borderopacity="1.0"
     inkscape:pageshadow="2"
     inkscape:pageopacity="0.0"
     inkscape:pagecheckerboard="0"
     showgrid="false"
     fit-margin-top="10"
     fit-margin-left="10"
     fit-margin-bottom="10"
     fit-margin-right="10"
     inkscape:zoom="9.6343299"
     inkscape:cx="32.69558"
     inkscape:cy="33.577841"
     inkscape:window-width="1858"
     inkscape:window-height="1057"
     inkscape:window-x="-8"
     inkscape:window-y="-8"
     inkscape:window-maximized="1"
     inkscape:current-layer="svg4" />
  <path
     fill="currentColor"
     d="m 61.2,23.5652 c 0,2.3625 -2.065,4.3826 -4.48,4.3826 h -9.9851 c 1.634,1.7048 1.8346,4.9766 -0.6299,7.0944 1.4288,2.2829 0.2147,5.3017 -1.645,6.2315 C 45.3574,46.1878 42.2654,48.4 37.2,48.4 36.9254,48.4 35.8724,48.3797 35.6,48.3805 29.4029,48.3973 27.9106,45.274 23.2269,44.549 22.0596,44.3683 21.2,43.3599 21.2,42.1786 V 25.0261 l 2e-4,-10e-5 c 0.001,-1.8366 1.0607,-3.5889 2.8464,-4.3845 2.8886,-1.2994 9.5413,-4.9038 10.7534,-7.7323 0.7797,-1.8194 2.1384,-2.9084 4,-2.9092 3.4222,-9.998e-4 5.7752,3.5098 4.4119,6.6908 -0.3583,0.8359 -0.8312,1.667 -1.4153,2.4918 H 56.72 c 2.345,0 4.48,2.0543 4.48,4.3826 z M 19.6,23.6 v 19.2 c 0,1.3255 -1.0745,2.4 -2.4,2.4 H 12.4 C 11.0745,45.2 10,44.1255 10,42.8 V 23.6 c 0,-1.3255 1.0745,-2.4 2.4,-2.4 h 4.8 c 1.3255,0 2.4,1.0745 2.4,2.4 z m -2.8,16.8 c 0,-1.1046 -0.8954,-2 -2,-2 -1.1046,0 -2,0.8954 -2,2 0,1.1046 0.8954,2 2,2 1.1046,0 2,-0.8954 2,-2 z"
     id="path2"
     style="stroke-width:0.1" />
  <path
     style="fill:#46474d;stroke-width:0.103795"
     d="m 34.044921,48.255235 c -1.076838,-0.09788 -2.6034,-0.465654 -3.640486,-0.87704 -0.395408,-0.156848 -1.554495,-0.702272 -2.575747,-1.212052 -1.90739,-0.952114 -3.119834,-1.408614 -4.342412,-1.634971 -0.900415,-0.16671 -1.534249,-0.568952 -1.913667,-1.214449 l -0.294533,-0.501083 -0.0304,-8.926412 c -0.02052,-6.024993 0.0059,-9.145705 0.08131,-9.601083 0.157739,-0.952683 0.655042,-1.914885 1.343032,-2.598547 0.479816,-0.476798 0.911365,-0.740382 2.536826,-1.549454 3.66135,-1.822435 6.641466,-3.768068 8.267061,-5.39733 0.689693,-0.691248 0.997422,-1.101198 1.399323,-1.864155 0.283361,-0.537921 0.741583,-1.225738 1.018273,-1.52848 2.114571,-2.3136778 6.103718,-1.332538 7.353129,1.808519 0.189599,0.476657 0.236876,0.799536 0.238983,1.632159 0.0023,0.911616 -0.03392,1.126393 -0.297648,1.764524 -0.165151,0.399612 -0.550027,1.142281 -0.855278,1.650375 -0.305251,0.508094 -0.555003,0.940143 -0.555003,0.960108 0,0.01997 3.407383,0.0363 7.571962,0.0363 5.14699,0 7.748115,0.03689 8.121997,0.115173 1.788019,0.374397 3.328937,1.934138 3.608644,3.652723 0.350152,2.151416 -1.345036,4.422434 -3.617702,4.846582 -0.326722,0.06097 -2.690591,0.104343 -5.687558,0.104343 h -5.128464 l 0.364366,0.477196 c 0.483268,0.632916 0.792733,1.487494 0.86084,2.37718 0.104142,1.360426 -0.364578,2.672049 -1.333887,3.732627 -0.489035,0.535083 -0.508075,0.577162 -0.363479,0.803313 0.673036,1.052646 0.608504,2.976498 -0.143954,4.291658 -0.284,0.496381 -1.071217,1.333132 -1.466584,1.558866 -0.146269,0.08351 -0.155587,0.182813 -0.06753,0.719654 0.218233,1.330416 -0.09821,2.908119 -0.79363,3.956841 -0.864941,1.304367 -2.617075,2.15575 -4.986991,2.423237 -1.071344,0.12092 -3.304242,0.117897 -4.670797,-0.0063 z"
     id="path903" />
  <path
     style="fill:#46474d;stroke-width:0.103795"
     d="m 11.650833,45.005288 c -0.600427,-0.217879 -1.070423,-0.6304 -1.338505,-1.17482 L 10.068163,43.334617 V 33.154508 22.974398 l 0.313842,-0.507615 c 0.172613,-0.279189 0.515269,-0.649185 0.761458,-0.822213 l 0.447617,-0.314597 h 3.199777 3.199778 l 0.448537,0.315244 c 0.521662,0.366637 0.875714,0.852325 1.024727,1.405716 0.0691,0.256603 0.09593,3.850879 0.07763,10.398009 l -0.02797,10.005847 -0.31413,0.508045 c -0.194514,0.31459 -0.507496,0.627662 -0.82194,0.822176 l -0.507809,0.314131 -2.914698,0.02373 c -2.247582,0.0183 -3.003834,-0.0086 -3.304142,-0.117586 z m 4.05074,-2.774298 c 1.205728,-0.583682 1.515417,-2.146165 0.626127,-3.15901 -0.424775,-0.483793 -0.820993,-0.677348 -1.413609,-0.690557 -0.699158,-0.01559 -1.198888,0.184077 -1.615836,0.645589 -1.513197,1.674927 0.371532,4.187549 2.403318,3.203978 z"
     id="path942" />
</svg>
