<?xml version="1.0" encoding="UTF-8" standalone="no"?>
<svg
   aria-hidden="true"
   focusable="false"
   data-prefix="fas"
   data-icon="hand-point-left"
   class="svg-inline--fa fa-hand-point-left fa-w-16"
   role="img"
   viewBox="0 0 71.199997 58.400002"
   version="1.1"
   id="svg4"
   sodipodi:docname="hand-point-left-solid.svg"
   width="71.199997"
   height="58.400002"
   inkscape:version="1.1.1 (3bf5ae0d25, 2021-09-20)"
   xmlns:inkscape="http://www.inkscape.org/namespaces/inkscape"
   xmlns:sodipodi="http://sodipodi.sourceforge.net/DTD/sodipodi-0.dtd"
   xmlns="http://www.w3.org/2000/svg"
   xmlns:svg="http://www.w3.org/2000/svg">
  <defs
     id="defs8" />
  <sodipodi:namedview
     id="namedview6"
     pagecolor="#ffffff"
     bordercolor="#666666"
     borderopacity="1.0"
     inkscape:pageshadow="2"
     inkscape:pageopacity="0.0"
     inkscape:pagecheckerboard="0"
     showgrid="false"
     inkscape:zoom="6.8125"
     inkscape:cx="31.559633"
     inkscape:cy="54.825688"
     inkscape:window-width="1858"
     inkscape:window-height="1057"
     inkscape:window-x="-8"
     inkscape:window-y="-8"
     inkscape:window-maximized="1"
     inkscape:current-layer="svg4"
     fit-margin-left="10"
     fit-margin-top="10"
     fit-margin-right="10"
     fit-margin-bottom="10" />
  <path
     fill="currentColor"
     d="M 14.48,19.1826 H 29.4034 C 28.8193,18.3578 28.3464,17.5268 27.9881,16.6908 26.6248,13.5098 28.9778,9.9986004 32.4,10 c 1.8616,8e-4 3.2203,1.0897 4,2.9092 1.2122,2.8286 7.8648,6.4329 10.7534,7.7323 1.7857,0.7956 2.8453,2.5479 2.8464,4.3845 l 2e-4,10e-5 v 17.1526 c 0,1.1812 -0.8596,2.1897 -2.0269,2.3703 C 43.2894,45.274 41.7971,48.3973 35.6,48.3805 35.3276,48.3798 34.2746,48.4 34,48.4 28.9346,48.4 25.8426,46.1878 26.74,41.2737 24.8803,40.344 23.6662,37.3251 25.095,35.0422 22.6305,32.9245 22.8311,29.6526 24.4651,27.9478 H 14.48 c -2.415,0 -4.48,-2.0201 -4.48,-4.3826 0,-2.3283 2.135,-4.3826 4.48,-4.3826 z M 54,21.2 h 4.8 c 1.3255,0 2.4,1.0745 2.4,2.4 v 19.2 c 0,1.3255 -1.0745,2.4 -2.4,2.4 H 54 c -1.3255,0 -2.4,-1.0745 -2.4,-2.4 V 23.6 c 0,-1.3255 1.0745,-2.4 2.4,-2.4 z m 2.4,21.2 c 1.1046,0 2,-0.8954 2,-2 0,-1.1046 -0.8954,-2 -2,-2 -1.1046,0 -2,0.8954 -2,2 0,1.1046 0.8954,2 2,2 z"
     id="path2"
     style="stroke-width:0.1" />
  <path
     style="fill:#46474d;stroke-width:0.146789"
     d="m 31.380182,48.071767 c -2.080722,-0.452119 -3.626384,-1.552752 -4.326689,-3.080941 -0.285521,-0.623056 -0.33534,-0.97019 -0.329735,-2.297596 0.0066,-1.557776 0.0051,-1.564556 -0.402189,-1.805127 -0.498312,-0.294361 -1.230181,-1.330729 -1.520172,-2.152652 -0.307371,-0.871182 -0.26907,-2.27013 0.08342,-3.046983 l 0.291215,-0.641805 -0.531479,-0.588285 C 23.129767,32.78169 22.917976,30.281616 24.141638,28.521735 l 0.428226,-0.615878 -5.606032,-0.04467 -5.606034,-0.04467 -0.733945,-0.390987 c -0.882155,-0.469942 -1.681222,-1.280847 -2.14603,-2.177821 -0.4698,-0.906609 -0.471167,-2.442994 -0.003,-3.346063 0.498006,-0.960582 1.279785,-1.739521 2.198837,-2.190849 l 0.830905,-0.408042 7.963303,-0.04152 c 4.379816,-0.02284 7.963303,-0.0611 7.963303,-0.08504 0,-0.02393 -0.299284,-0.566719 -0.665073,-1.206187 -1.248797,-2.183124 -1.378496,-3.5293 -0.510005,-5.293455 0.788915,-1.602515 2.331815,-2.549526 4.14913,-2.546681 1.706594,0.0027 2.98311,0.916536 3.93895,2.819912 0.99128,1.973946 4.12639,4.359699 9.13844,6.954163 2.97642,1.540729 3.413258,1.900849 4.09254,3.373799 L 49.908257,24 l 0.04298,9.061892 c 0.02929,6.174921 -0.0077,9.250026 -0.116031,9.652423 -0.282979,1.050906 -0.90213,1.496809 -2.694063,1.940219 -1.156571,0.286191 -2.187874,0.690244 -3.881069,1.520562 -2.691997,1.320114 -3.481032,1.611703 -5.150862,1.903501 -1.552959,0.271376 -5.46697,0.267402 -6.729031,-0.0068 z"
     id="path870" />
  <path
     style="fill:#46474d;stroke-width:0.146789"
     d="m 52.805998,44.771435 c -0.263123,-0.160429 -0.609665,-0.50697 -0.770094,-0.770093 -0.283693,-0.465294 -0.291702,-0.759425 -0.292236,-10.731451 -6.17e-4,-11.537245 -0.05611,-10.948533 1.095669,-11.623521 0.599963,-0.351602 0.700428,-0.361966 3.508549,-0.361966 3.270389,0 3.617628,0.07795 4.293315,0.963824 l 0.423019,0.554607 v 10.385984 c 0,10.308216 -0.0023,10.389086 -0.307075,10.800417 -0.168891,0.227938 -0.525448,0.563058 -0.792349,0.744709 -0.465464,0.316793 -0.611731,0.330253 -3.582834,0.329726 -2.831944,-4.4e-4 -3.138581,-0.02556 -3.575964,-0.292236 z m 4.662105,-2.593076 c 0.627561,-0.37071 1.078593,-1.276872 0.984547,-1.978039 -0.343735,-2.562733 -4.067329,-2.421226 -4.067329,0.15457 0,0.783688 0.328581,1.416105 0.924558,1.779492 0.580445,0.353919 1.59842,0.374662 2.158224,0.04398 z"
     id="path909" />
</svg>
