<?xml version="1.0" encoding="UTF-8" standalone="no"?>
<!-- Created with Inkscape (http://www.inkscape.org/) -->

<svg
   width="36.717819mm"
   height="15.87316mm"
   viewBox="0 0 36.717819 15.87316"
   version="1.1"
   id="svg2222"
   inkscape:version="1.1.1 (3bf5ae0d25, 2021-09-20)"
   sodipodi:docname="rebel-electric-logo.svg"
   xmlns:inkscape="http://www.inkscape.org/namespaces/inkscape"
   xmlns:sodipodi="http://sodipodi.sourceforge.net/DTD/sodipodi-0.dtd"
   xmlns="http://www.w3.org/2000/svg"
   xmlns:svg="http://www.w3.org/2000/svg">
  <sodipodi:namedview
     id="namedview2224"
     pagecolor="#ffffff"
     bordercolor="#666666"
     borderopacity="1.0"
     inkscape:pageshadow="2"
     inkscape:pageopacity="0.0"
     inkscape:pagecheckerboard="0"
     inkscape:document-units="mm"
     showgrid="false"
     inkscape:zoom="6.2145903"
     inkscape:cx="61.629163"
     inkscape:cy="19.711677"
     inkscape:window-width="1849"
     inkscape:window-height="1057"
     inkscape:window-x="-8"
     inkscape:window-y="1072"
     inkscape:window-maximized="1"
     inkscape:current-layer="layer1" />
  <defs
     id="defs2219" />
  <g
     inkscape:label="Warstwa 1"
     inkscape:groupmode="layer"
     id="layer1"
     transform="translate(-112.77068,-153.16549)">
    <path
       fill="#46474d"
       d="m 134.10642,159.62435 -0.21511,-2.42993 -0.75565,-0.35719 -0.20479,-0.24659 -0.91837,-0.24712 -0.14181,0.12091 -0.063,-0.15795 -1.12131,-0.0979 -0.1643,0.35904 -0.13997,-0.28363 -1.35811,0.38126 v 1.21788 l -0.20981,0.12594 -0.58817,1.49807 1.24592,1.94866 -0.23098,4.21984 1.22158,0.97472 2.2024,-0.127 0.93794,-0.88424 -0.3937,-3.89942 0.89774,-1.80579 v -0.30956 z m -2.09021,-1.56236 0.0169,-1.14459 0.70009,0.15399 -0.0841,1.12712 -0.44609,0.53023 -0.36327,-0.11219 z m -0.35375,-1.30519 -0.12594,1.19009 -0.64029,-0.19949 -0.032,-1.09564 z m -1.49781,-0.0281 0.18204,0.82577 -0.65088,-0.17516 -0.16827,-0.46196 z m 3.33825,2.96016 -0.64452,1.77747 -0.29343,-0.0696 0.4617,3.98885 -0.51541,0.61172 -1.9595,0.13467 -0.65696,-0.5834 0.17859,-3.74597 0.85434,0.39184 v 0.81201 l 0.30798,2.14154 0.49001,-4.03807 -0.5633,0.30083 -1.07448,-0.49001 -1.32979,-1.51183 0.54583,-1.31577 0.49001,-0.30771 1.63804,0.65431 -0.0709,0.35349 -0.44027,0.30136 -0.89561,-0.19659 0.0701,0.14764 1.0713,0.38497 0.87921,1.05119 -0.30586,-1.23349 1.2872,0.14737 0.47599,-0.61595 v 0.90911 z m -0.0823,-1.17581 -0.46726,0.39899 -0.28628,-0.077 0.22622,-0.4826 0.18918,-1.12713 0.58817,0.23813 z"
       id="path721"
       style="stroke-width:0.264583" />
    <path
       fill="#46474d"
       d="m 112.77068,157.84715 1.02631,1.5068 h 8.79608 c 0.11192,-0.52097 0.27014,-1.02473 0.46937,-1.5068 z"
       id="path723"
       style="stroke-width:0.264583" />
    <path
       fill="#46474d"
       d="m 149.4885,157.84715 h -10.29177 c 0.1995,0.48207 0.35772,0.9861 0.46964,1.5068 h 8.79634 z"
       id="path725"
       style="stroke-width:0.264583" />
    <circle
       fill="none"
       stroke="#46474d"
       stroke-width="1.21245"
       stroke-miterlimit="10"
       cx="131.2169"
       cy="161.10205"
       r="6.8574705"
       id="circle727" />
    <g
       id="g731"
       transform="matrix(0.26458333,0,0,0.26458333,381.12962,294.26975)">
      <circle
         fill="none"
         stroke="#46474d"
         stroke-width="4.3694"
         stroke-miterlimit="10"
         stroke-dasharray="3.3036, 2.1559"
         cx="-944.552"
         cy="-503.311"
         r="27.812"
         id="circle729" />
    </g>
    <polygon
       fill="#ffc246"
       points="-951.934,-518.846 -956.971,-519.479 -952.314,-522.898 -979.143,-527.603 -961.447,-520.959 -966.398,-516.621 -954.471,-512.836 -953.581,-515.012 -952.494,-515.672 -950.867,-516.551 "
       id="polygon733"
       transform="matrix(0.26458333,0,0,0.26458333,381.12962,294.26975)" />
    <polygon
       fill="#ffc246"
       points="-918.775,-506.299 -934.947,-512.814 -938.001,-510.433 -942.887,-511.883 -943.176,-511.308 -941.844,-507.444 -927.634,-504.252 -934.334,-499.264 -909.097,-496.77 -924.174,-502.072 "
       id="polygon735"
       transform="matrix(0.26458333,0,0,0.26458333,381.12962,294.26975)" />
    <path
       fill="#46474d"
       d="m 122.43406,160.3927 h -7.92957 l 1.02579,1.5068 h 6.89055 c -0.0169,-0.22489 -0.0259,-0.45164 -0.0259,-0.67998 0,-0.27913 0.0135,-0.55509 0.0392,-0.82682 z"
       id="path739"
       style="stroke-width:0.264583" />
    <path
       fill="#46474d"
       d="m 117.26409,164.44453 h 5.73909 c -0.18971,-0.4826 -0.33788,-0.98663 -0.44027,-1.50627 h -6.32487 z"
       id="path741"
       style="stroke-width:0.264583" />
    <path
       fill="#46474d"
       d="m 146.72889,161.8995 1.02659,-1.5068 h -7.92983 c 0.0251,0.27173 0.0386,0.54769 0.0386,0.82682 0,0.22834 -0.008,0.45535 -0.0259,0.67998 z"
       id="path743"
       style="stroke-width:0.264583" />
    <path
       fill="#46474d"
       d="m 146.02166,162.93826 h -6.32486 c -0.10293,0.5199 -0.25109,1.02367 -0.4408,1.50627 h 5.73961 z"
       id="path745"
       style="stroke-width:0.264583" />
  </g>
</svg>
