<?xml version="1.0" encoding="UTF-8" standalone="no"?>
<svg
   width="2000"
   height="1500"
   viewBox="0 0 76.688557 57.516418"
   version="1.1"
   id="svg14"
   sodipodi:docname="rebel-logo-2000.svg"
   inkscape:version="1.2.1 (9c6d41e410, 2022-07-14)"
   xmlns:inkscape="http://www.inkscape.org/namespaces/inkscape"
   xmlns:sodipodi="http://sodipodi.sourceforge.net/DTD/sodipodi-0.dtd"
   xmlns="http://www.w3.org/2000/svg"
   xmlns:svg="http://www.w3.org/2000/svg">
  <defs
     id="defs18" />
  <sodipodi:namedview
     id="namedview16"
     pagecolor="#ffffff"
     bordercolor="#000000"
     borderopacity="0.25"
     inkscape:showpageshadow="2"
     inkscape:pageopacity="0.0"
     inkscape:pagecheckerboard="0"
     inkscape:deskcolor="#d1d1d1"
     showgrid="false"
     inkscape:zoom="0.38533284"
     inkscape:cx="1054.9321"
     inkscape:cy="687.71714"
     inkscape:window-width="1858"
     inkscape:window-height="1057"
     inkscape:window-x="1974"
     inkscape:window-y="-8"
     inkscape:window-maximized="1"
     inkscape:current-layer="svg14" />
  <g
     transform="translate(-92.66908,-132.58112)"
     id="g12">
    <path
       fill="#46474d"
       d="m 134.106,159.624 -0.215,-2.43 -0.755,-0.357 -0.205,-0.246 -0.919,-0.247 -0.141,0.12 -0.063,-0.158 -1.122,-0.097 -0.164,0.359 -0.14,-0.284 -1.358,0.381 v 1.218 l -0.21,0.126 -0.588,1.498 1.246,1.949 -0.231,4.22 1.222,0.974 2.202,-0.127 0.938,-0.884 -0.394,-3.9 0.898,-1.805 v -0.31 z m -2.09,-1.562 0.017,-1.145 0.7,0.154 -0.084,1.128 -0.446,0.53 -0.363,-0.112 z m -0.354,-1.305 -0.125,1.19 -0.64,-0.2 -0.033,-1.095 z m -1.497,-0.028 0.182,0.825 -0.651,-0.175 -0.168,-0.462 z m 3.338,2.96 -0.645,1.777 -0.293,-0.07 0.462,3.99 -0.516,0.611 -1.96,0.135 -0.656,-0.583 0.178,-3.746 0.855,0.391 v 0.812 l 0.308,2.142 0.49,-4.038 -0.564,0.3 -1.074,-0.49 -1.33,-1.511 0.546,-1.316 0.49,-0.308 1.638,0.655 -0.07,0.353 -0.441,0.302 -0.896,-0.197 0.07,0.148 1.072,0.385 0.879,1.05 -0.306,-1.233 1.287,0.148 0.476,-0.616 z m -0.082,-1.176 -0.468,0.399 -0.286,-0.077 0.226,-0.483 0.19,-1.127 0.588,0.238 z m -20.651,-0.666 1.027,1.507 h 8.796 c 0.112,-0.521 0.27,-1.025 0.47,-1.507 z m 36.718,0 h -10.291 c 0.2,0.482 0.357,0.986 0.47,1.507 h 8.796 z"
       style="stroke-width:0.264583"
       id="path2" />
    <circle
       fill="none"
       stroke="#46474d"
       stroke-width="1.212"
       stroke-miterlimit="10"
       cx="131.217"
       cy="161.10201"
       r="6.8569999"
       id="circle4" />
    <circle
       fill="none"
       stroke="#46474d"
       stroke-width="4.369"
       stroke-miterlimit="10"
       stroke-dasharray="3.3036, 2.1559"
       cx="-944.552"
       cy="-503.311"
       r="27.812"
       transform="matrix(0.26458,0,0,0.26458,381.13,294.27)"
       id="circle6" />
    <path
       fill="#ffc246"
       d="m 129.264,156.992 -1.333,-0.168 1.232,-0.904 -7.098,-1.245 4.682,1.758 -1.31,1.147 3.156,1.002 0.235,-0.576 0.288,-0.174 0.43,-0.233 z m 8.773,3.319 -4.279,-1.723 -0.808,0.63 -1.293,-0.384 -0.076,0.152 0.352,1.023 3.76,0.844 -1.773,1.32 6.678,0.66 -3.99,-1.403 z"
       id="path8" />
    <path
       fill="#46474d"
       d="m 122.434,160.393 h -7.93 l 1.026,1.506 h 6.89 a 9.072,9.072 0 0 1 0.014,-1.506 z m -5.17,4.052 h 5.74 a 8.731,8.731 0 0 1 -0.441,-1.507 h -6.325 z m 29.465,-2.545 1.026,-1.507 h -7.93 a 8.99,8.99 0 0 1 0.013,1.506 z m -0.707,1.038 h -6.325 a 8.774,8.774 0 0 1 -0.441,1.507 h 5.74 z"
       style="stroke-width:0.264583"
       id="path10" />
  </g>
</svg>
