<svg width="138.776" height="59.993" viewBox="0 0 36.718 15.873" xmlns="http://www.w3.org/2000/svg"><g transform="translate(-112.77 -153.165)"><path fill="#46474d" d="m134.106 159.624-.215-2.43-.755-.357-.205-.246-.919-.247-.141.12-.063-.158-1.122-.097-.164.359-.14-.284-1.358.381v1.218l-.21.126-.588 1.498 1.246 1.949-.231 4.22 1.222.974 2.202-.127.938-.884-.394-3.9.898-1.805v-.31zm-2.09-1.562.017-1.145.7.154-.084 1.128-.446.53-.363-.112zm-.354-1.305-.125 1.19-.64-.2-.033-1.095zm-1.497-.028.182.825-.651-.175-.168-.462zm3.338 2.96-.645 1.777-.293-.07.462 3.99-.516.611-1.96.135-.656-.583.178-3.746.855.391v.812l.308 2.142.49-4.038-.564.3-1.074-.49-1.33-1.511.546-1.316.49-.308 1.638.655-.07.353-.441.302-.896-.197.07.148 1.072.385.879 1.05-.306-1.233 1.287.148.476-.616v.909zm-.082-1.176-.468.399-.286-.077.226-.483.19-1.127.588.238zM112.77 157.847l1.027 1.507h8.796c.112-.521.27-1.025.47-1.507zM149.488 157.847h-10.291c.2.482.357.986.47 1.507h8.796z" style="stroke-width:.264583"/><circle fill="none" stroke="#46474d" stroke-width="1.212" stroke-miterlimit="10" cx="131.217" cy="161.102" r="6.857"/><circle fill="none" stroke="#46474d" stroke-width="4.369" stroke-miterlimit="10" stroke-dasharray="3.3036, 2.1559" cx="-944.552" cy="-503.311" r="27.812" transform="matrix(.26458 0 0 .26458 381.13 294.27)"/><path fill="#ffc246" d="m129.264 156.992-1.333-.168 1.232-.904-7.098-1.245 4.682 1.758-1.31 1.147 3.156 1.002.235-.576.288-.174.43-.233zM138.037 160.311l-4.279-1.723-.808.63-1.293-.384-.076.152.352 1.023 3.76.844-1.773 1.32 6.678.66-3.99-1.403z"/><path fill="#46474d" d="M122.434 160.393h-7.93l1.026 1.506h6.89a9.072 9.072 0 0 1 .014-1.506zM117.264 164.445h5.74a8.731 8.731 0 0 1-.441-1.507h-6.325zM146.729 161.9l1.026-1.507h-7.93a8.99 8.99 0 0 1 .013 1.506zM146.022 162.938h-6.325a8.774 8.774 0 0 1-.441 1.507h5.74z" style="stroke-width:.264583"/></g></svg>