<svg xmlns="http://www.w3.org/2000/svg" viewBox='0 0 241.633 148.489' width="241.633" height="148.489" xml:space="preserve"><circle fill="#FFC246" stroke="#46474D" stroke-width=".157" stroke-miterlimit="10" cx="37.927" cy="110.563" r="17.843"/><path fill="#46474D" d="M201.61 36.243c-2.22-.807-6.86-2.017-6.86-2.017l-20.788-.809-1.01-1.614-13.319-21.798h-2.424v2.918l-.607-3.22-.302-1.616V7.08h2.322V4.959h-1.818l-.504-2.42h-3.936l-.506 1.312-1.108.502S150.648.722 147.218.42c-.779-.07-1.434.061-1.981.319A1.737 1.737 0 0 0 143.821 0c-.956 0-1.729.775-1.729 1.729 0 .744.472 1.372 1.129 1.619-.194.771-.203 1.568-.04 2.217.504 2.017 3.333 2.522 3.333 2.522l-.709 1.918 1.011 4.44 1.686 1.514h.937l1.058 1.124-1.157.592-.809 1.616.809 2.22v2.42l-5.517 3.029-13.455 6.054-27.248 6.256-50.455-2.423-43.193-4.64-2.173.959 2.173 2.573 18.414 3.483s3.028 1.966 3.934 3.932c14.687 22.554 25.736 19.907 25.736 19.907l13.925-2.345 20.132 18.177-.152.894-.453 2.572v3.029l-.91-1.36-2.12-.305-.604 1.665-.606 1.515-.604 2.271-.15 1.664-56.766 18.315 2.269 6.964 44.354-11.807 2.572.908.456 2.906h2.875l1.363-.002s-1.212 1.181 2.118 2.444c3.33 1.256 2.876-3.684 2.876-3.684l.756-1.966 1.668-.457h3.026l1.363-1.662 6.356 6.206 3.839-2.725s22.604 1.212 25.429.807c2.826-.403 15.542-.403 17.355-25.631 0-.403.406-1.413.406-1.413l1.815-1.147s1.414-1.075 1.614-3.164c9.083-22.276 16.047-24.547 16.047-24.547l11.602 21.53.404 2.046h1.924l18.864 37.98h3.361l3.502-.807 1.615-3.809-2.422-2.65-2.695-1.413s-27.378-56.512-28.385-58.933c5.045-5.046 21.595-4.843 26.034-.606 8.277 1.413 16.349 6.459 16.349 6.459s5.047 1.01 9.084 0c-2.827-5.048-23.209-13.93-25.432-14.737zM98.425 56.097l-1.515-.454h-1.665l-.832 1.135-.983 1.138-2.875.681-2.802 10.215-11.124-12.034s-.911-.377-.608-1.061c.303-.681 6.661-2.116 6.661-2.116l4.087.831 2.347.756 4.087.077 4.846-.833 1.131.529-.755 1.136z"/><circle fill="none" stroke="#46474D" stroke-width="3.027" stroke-miterlimit="10" stroke-dasharray="2.9883,2.9883" cx="203.963" cy="108.121" r="36.156"/><path fill="none" stroke="#46474D" stroke-width="4.238" stroke-miterlimit="10" stroke-dasharray="3.2132,3.2132" d="M73.736 110.565c0 19.776-16.032 35.805-35.81 35.805-19.774 0-35.807-16.029-35.807-35.805 0-19.778 16.033-35.808 35.807-35.808 19.778 0 35.81 16.03 35.81 35.808z"/><path fill="none" stroke="#46474D" stroke-width="10.57" stroke-miterlimit="10" d="M68.738 110.565c0 17.015-13.794 30.811-30.812 30.811-17.017 0-30.812-13.796-30.812-30.811 0-17.02 13.795-30.813 30.812-30.813 17.018 0 30.812 13.793 30.812 30.813z"/><circle fill="none" stroke="#46474D" stroke-width="7.871" stroke-miterlimit="10" cx="203.964" cy="108.121" r="31.184"/><circle fill="#46474D" cx="206.201" cy="108.85" r="5.45"/><path fill="#46474D" d="M42.974 110.565a5.046 5.046 0 1 1-10.092-.004 5.046 5.046 0 0 1 10.092.004z"/><path fill="#4CFF3A" stroke="#46474D" stroke-width=".188" stroke-miterlimit="10" d="M120.079 99.325a1.346 1.346 0 0 0 1.349 1.351 1.344 1.344 0 0 0 1.354-1.358 1.349 1.349 0 0 0-1.355-1.356 1.36 1.36 0 0 0-1.348 1.363z"/><path fill="#4CFF3A" stroke="#46474D" stroke-width=".188" stroke-miterlimit="10" d="M117.367 99.324a1.357 1.357 0 0 0 1.354 1.354 1.367 1.367 0 0 0 1.359-1.353c0-.75-.62-1.36-1.359-1.354a1.34 1.34 0 0 0-1.354 1.353z"/><path fill="#4CFF3A" stroke="#46474D" stroke-width=".188" stroke-miterlimit="10" d="M114.648 99.327c0 .744.611 1.352 1.363 1.357.743 0 1.354-.617 1.355-1.36a1.357 1.357 0 0 0-1.359-1.351 1.35 1.35 0 0 0-1.359 1.354z"/><path fill="#4CFF3A" stroke="#46474D" stroke-width=".188" stroke-miterlimit="10" d="M111.94 99.335a1.355 1.355 0 1 0 2.708-.008 1.354 1.354 0 1 0-2.708.008z"/><path fill="#4CFF3A" stroke="#46474D" stroke-width=".188" stroke-miterlimit="10" d="M109.23 99.334a1.348 1.348 0 0 0 1.356 1.353c.75 0 1.354-.609 1.354-1.352a1.366 1.366 0 0 0-1.357-1.359 1.351 1.351 0 0 0-1.353 1.358zM121.434 101.773a1.346 1.346 0 0 0 1.358 1.353 1.348 1.348 0 0 0 1.353-1.36 1.349 1.349 0 0 0-1.356-1.35c-.748 0-1.357.602-1.355 1.357z"/><path fill="#4CFF3A" stroke="#46474D" stroke-width=".188" stroke-miterlimit="10" d="M118.725 101.772a1.355 1.355 0 0 0 2.709 0 1.361 1.361 0 0 0-1.359-1.361 1.359 1.359 0 0 0-1.35 1.361zM116.008 101.772a1.36 1.36 0 0 0 1.359 1.362 1.368 1.368 0 0 0 1.358-1.362 1.363 1.363 0 0 0-1.36-1.353 1.364 1.364 0 0 0-1.357 1.353z"/><path fill="#4CFF3A" stroke="#46474D" stroke-width=".188" stroke-miterlimit="10" d="M113.297 101.781a1.36 1.36 0 0 0 1.358 1.352 1.362 1.362 0 0 0 1.353-1.36 1.358 1.358 0 0 0-1.356-1.352c-.753 0-1.357.607-1.355 1.36zM128.213 99.36a1.363 1.363 0 0 0 1.36 1.352 1.352 1.352 0 1 0-.002-2.706 1.358 1.358 0 0 0-1.358 1.354z"/><path fill="#4CFF3A" stroke="#46474D" stroke-width=".188" stroke-miterlimit="10" d="M125.503 99.366a1.356 1.356 0 0 0 1.354 1.354 1.36 1.36 0 0 0 1.356-1.36 1.351 1.351 0 0 0-1.356-1.354 1.353 1.353 0 0 0-1.354 1.36z"/><path fill="#4CFF3A" stroke="#46474D" stroke-width=".188" stroke-miterlimit="10" d="M122.79 99.37a1.359 1.359 0 0 0 1.357 1.35 1.348 1.348 0 0 0 1.356-1.354 1.36 1.36 0 0 0-1.356-1.358 1.362 1.362 0 0 0-1.357 1.362zM124.149 101.818a1.355 1.355 0 0 0 2.71-.002 1.353 1.353 0 0 0-1.359-1.361 1.35 1.35 0 0 0-1.351 1.363zM121.434 96.851a1.346 1.346 0 0 0 1.358 1.353 1.35 1.35 0 0 0 1.353-1.361 1.349 1.349 0 0 0-1.356-1.35 1.353 1.353 0 0 0-1.355 1.358z"/><path fill="#4CFF3A" stroke="#46474D" stroke-width=".188" stroke-miterlimit="10" d="M118.725 96.851a1.355 1.355 0 0 0 2.709 0 1.361 1.361 0 0 0-1.359-1.361 1.358 1.358 0 0 0-1.35 1.361zM116.008 96.851a1.36 1.36 0 0 0 1.359 1.362c.748 0 1.356-.617 1.358-1.362a1.364 1.364 0 0 0-1.36-1.353 1.363 1.363 0 0 0-1.357 1.353z"/><path fill="#4CFF3A" stroke="#46474D" stroke-width=".188" stroke-miterlimit="10" d="M113.297 96.86a1.36 1.36 0 0 0 1.358 1.352 1.363 1.363 0 0 0 1.353-1.361 1.359 1.359 0 0 0-1.356-1.352c-.753 0-1.357.607-1.355 1.361z"/><path fill="#4CFF3A" stroke="#46474D" stroke-width=".188" stroke-miterlimit="10" d="M110.583 96.862a1.354 1.354 0 0 0 1.359 1.35 1.349 1.349 0 0 0 1.356-1.352 1.356 1.356 0 0 0-1.362-1.356 1.35 1.35 0 0 0-1.353 1.358z"/><path fill="#4CFF3A" stroke="#46474D" stroke-width=".188" stroke-miterlimit="10" d="M107.874 96.859a1.348 1.348 0 0 0 1.355 1.355 1.35 1.35 0 0 0 1.354-1.352 1.362 1.362 0 0 0-1.353-1.364 1.37 1.37 0 0 0-1.356 1.361zM120.079 89.482a1.346 1.346 0 0 0 1.349 1.351 1.344 1.344 0 0 0 1.354-1.358 1.348 1.348 0 0 0-1.355-1.355 1.36 1.36 0 0 0-1.348 1.362z"/><path fill="#4CFF3A" stroke="#46474D" stroke-width=".188" stroke-miterlimit="10" d="M117.367 89.481a1.357 1.357 0 0 0 1.354 1.354 1.367 1.367 0 0 0 1.359-1.353c0-.75-.62-1.36-1.359-1.354a1.34 1.34 0 0 0-1.354 1.353z"/><path fill="#4CFF3A" stroke="#46474D" stroke-width=".188" stroke-miterlimit="10" d="M114.648 89.483c0 .744.611 1.352 1.363 1.357.743 0 1.354-.617 1.355-1.36a1.357 1.357 0 0 0-1.359-1.351 1.35 1.35 0 0 0-1.359 1.354z"/><path fill="#4CFF3A" stroke="#46474D" stroke-width=".188" stroke-miterlimit="10" d="M111.94 89.492a1.354 1.354 0 1 0 2.708-.008 1.354 1.354 0 1 0-2.708.008z"/><path fill="#4CFF3A" stroke="#46474D" stroke-width=".188" stroke-miterlimit="10" d="M109.23 89.491a1.348 1.348 0 0 0 1.356 1.353c.75 0 1.354-.609 1.354-1.352a1.366 1.366 0 0 0-1.357-1.359 1.351 1.351 0 0 0-1.353 1.358z"/><path fill="#4CFF3A" stroke="#46474D" stroke-width=".188" stroke-miterlimit="10" d="M106.51 89.492a1.355 1.355 0 0 0 1.361 1.351 1.352 1.352 0 0 0 1.359-1.352 1.36 1.36 0 0 0-2.72.001zM103.798 89.495c.005.75.609 1.355 1.357 1.36a1.36 1.36 0 0 0 1.354-1.362 1.356 1.356 0 0 0-2.711.002zM121.434 91.93a1.347 1.347 0 0 0 1.358 1.353 1.348 1.348 0 0 0 1.353-1.36 1.35 1.35 0 0 0-1.356-1.351c-.748 0-1.357.603-1.355 1.358z"/><path fill="#4CFF3A" stroke="#46474D" stroke-width=".188" stroke-miterlimit="10" d="M118.725 91.929a1.35 1.35 0 0 0 1.354 1.354 1.354 1.354 0 0 0 1.355-1.353 1.361 1.361 0 0 0-1.359-1.361 1.357 1.357 0 0 0-1.35 1.36z"/><path fill="#4CFF3A" stroke="#46474D" stroke-width=".188" stroke-miterlimit="10" d="M116.008 91.929a1.359 1.359 0 0 0 1.359 1.361c.748 0 1.356-.616 1.358-1.361a1.363 1.363 0 0 0-1.36-1.353 1.364 1.364 0 0 0-1.357 1.353z"/><path fill="#4CFF3A" stroke="#46474D" stroke-width=".188" stroke-miterlimit="10" d="M113.297 91.938a1.36 1.36 0 0 0 1.358 1.352 1.363 1.363 0 0 0 1.353-1.36 1.36 1.36 0 0 0-1.356-1.353 1.354 1.354 0 0 0-1.355 1.361z"/><path fill="#4CFF3A" stroke="#46474D" stroke-width=".188" stroke-miterlimit="10" d="M110.583 91.94a1.353 1.353 0 0 0 1.359 1.35 1.349 1.349 0 0 0 1.356-1.352 1.355 1.355 0 0 0-1.362-1.355 1.35 1.35 0 0 0-1.353 1.357z"/><path fill="#4CFF3A" stroke="#46474D" stroke-width=".188" stroke-miterlimit="10" d="M107.874 91.938a1.347 1.347 0 0 0 1.355 1.354 1.35 1.35 0 0 0 1.354-1.352 1.362 1.362 0 0 0-1.353-1.364 1.37 1.37 0 0 0-1.356 1.362zM105.157 91.946a1.359 1.359 0 0 0 2.716-.009 1.355 1.355 0 0 0-1.362-1.35 1.364 1.364 0 0 0-1.354 1.359zM120.082 94.405a1.342 1.342 0 0 0 1.352 1.345 1.344 1.344 0 0 0 1.356-1.354c0-.75-.605-1.355-1.359-1.348a1.344 1.344 0 0 0-1.349 1.357z"/><path fill="#4CFF3A" stroke="#46474D" stroke-width=".188" stroke-miterlimit="10" d="M117.365 94.396a1.354 1.354 0 0 0 1.36 1.357c.747 0 1.354-.605 1.356-1.349a1.361 1.361 0 0 0-1.361-1.36 1.36 1.36 0 0 0-1.355 1.352z"/><path fill="#4CFF3A" stroke="#46474D" stroke-width=".188" stroke-miterlimit="10" d="M114.654 94.405a1.36 1.36 0 0 0 1.361 1.355 1.35 1.35 0 0 0 1.35-1.364 1.351 1.351 0 0 0-1.353-1.347 1.36 1.36 0 0 0-1.358 1.356z"/><path fill="#4CFF3A" stroke="#46474D" stroke-width=".188" stroke-miterlimit="10" d="M111.938 94.409a1.364 1.364 0 0 0 1.369 1.353c.744 0 1.354-.604 1.348-1.356a1.354 1.354 0 0 0-1.355-1.353 1.361 1.361 0 0 0-1.362 1.356z"/><path fill="#4CFF3A" stroke="#46474D" stroke-width=".188" stroke-miterlimit="10" d="M109.228 94.408a1.367 1.367 0 0 0 1.358 1.36 1.348 1.348 0 0 0 1.352-1.359 1.358 1.358 0 0 0-1.356-1.361 1.371 1.371 0 0 0-1.354 1.36zM106.515 94.415a1.364 1.364 0 0 0 1.359 1.354 1.357 1.357 0 0 0 1.354-1.361 1.358 1.358 0 0 0-1.358-1.35 1.36 1.36 0 0 0-1.355 1.357zM132.286 96.884a1.358 1.358 0 0 0 1.359 1.353A1.352 1.352 0 0 0 135 96.888a1.36 1.36 0 0 0-1.362-1.363 1.36 1.36 0 0 0-1.352 1.359z"/><path fill="#4CFF3A" stroke="#46474D" stroke-width=".188" stroke-miterlimit="10" d="M129.569 96.889a1.363 1.363 0 0 0 1.366 1.354 1.35 1.35 0 0 0 1.351-1.359 1.362 1.362 0 0 0-1.36-1.358c-.74.011-1.351.61-1.357 1.363z"/><path fill="#4CFF3A" stroke="#46474D" stroke-width=".188" stroke-miterlimit="10" d="M126.86 96.894a1.361 1.361 0 0 0 1.357 1.354 1.358 1.358 0 0 0 1.352-1.36 1.355 1.355 0 1 0-2.709.006z"/><path fill="#4CFF3A" stroke="#46474D" stroke-width=".188" stroke-miterlimit="10" d="M124.149 96.896a1.355 1.355 0 0 0 2.71-.002 1.352 1.352 0 0 0-1.359-1.36 1.35 1.35 0 0 0-1.351 1.362zM136.352 89.506a1.359 1.359 0 0 0 1.359 1.36 1.366 1.366 0 0 0 1.356-1.359 1.361 1.361 0 0 0-1.359-1.356 1.356 1.356 0 0 0-1.356 1.355z"/><path fill="#4CFF3A" stroke="#46474D" stroke-width=".188" stroke-miterlimit="10" d="M133.641 89.515a1.36 1.36 0 0 0 1.355 1.354c.752 0 1.358-.605 1.355-1.363a1.352 1.352 0 0 0-1.356-1.352 1.36 1.36 0 0 0-1.354 1.361z"/><path fill="#4CFF3A" stroke="#46474D" stroke-width=".188" stroke-miterlimit="10" d="M130.93 89.517a1.355 1.355 0 0 0 2.711-.001 1.345 1.345 0 0 0-1.354-1.354 1.348 1.348 0 0 0-1.357 1.355z"/><path fill="#4CFF3A" stroke="#46474D" stroke-width=".188" stroke-miterlimit="10" d="M128.213 89.517a1.363 1.363 0 0 0 1.36 1.352 1.352 1.352 0 1 0-.002-2.706 1.358 1.358 0 0 0-1.358 1.354z"/><path fill="#4CFF3A" stroke="#46474D" stroke-width=".188" stroke-miterlimit="10" d="M125.503 89.522c.001.748.607 1.35 1.354 1.354a1.36 1.36 0 0 0 1.356-1.36 1.351 1.351 0 0 0-1.356-1.354 1.354 1.354 0 0 0-1.354 1.36z"/><path fill="#4CFF3A" stroke="#46474D" stroke-width=".188" stroke-miterlimit="10" d="M122.79 89.526a1.36 1.36 0 0 0 1.357 1.351 1.35 1.35 0 0 0 1.356-1.354 1.36 1.36 0 0 0-1.356-1.358 1.361 1.361 0 0 0-1.357 1.361zM135 91.966a1.347 1.347 0 0 0 1.356 1.346 1.344 1.344 0 0 0 1.354-1.357 1.35 1.35 0 0 0-1.361-1.351A1.35 1.35 0 0 0 135 91.966z"/><path fill="#4CFF3A" stroke="#46474D" stroke-width=".188" stroke-miterlimit="10" d="M132.286 91.963a1.358 1.358 0 0 0 1.359 1.353A1.351 1.351 0 0 0 135 91.967a1.361 1.361 0 0 0-1.362-1.363 1.36 1.36 0 0 0-1.352 1.359z"/><path fill="#4CFF3A" stroke="#46474D" stroke-width=".188" stroke-miterlimit="10" d="M129.569 91.967a1.365 1.365 0 0 0 1.366 1.355 1.351 1.351 0 0 0 1.351-1.359 1.362 1.362 0 0 0-1.36-1.358c-.74.01-1.351.609-1.357 1.362z"/><path fill="#4CFF3A" stroke="#46474D" stroke-width=".188" stroke-miterlimit="10" d="M126.86 91.973a1.361 1.361 0 0 0 1.357 1.354 1.358 1.358 0 0 0 1.352-1.36 1.347 1.347 0 0 0-1.351-1.354 1.354 1.354 0 0 0-1.358 1.36z"/><path fill="#4CFF3A" stroke="#46474D" stroke-width=".188" stroke-miterlimit="10" d="M124.149 91.974a1.355 1.355 0 0 0 2.71-.002 1.353 1.353 0 0 0-1.359-1.361 1.352 1.352 0 0 0-1.351 1.363zM133.643 94.432a1.355 1.355 0 0 0 1.355 1.352 1.345 1.345 0 0 0 1.357-1.354c0-.749-.607-1.357-1.357-1.362a1.371 1.371 0 0 0-1.355 1.364z"/><path fill="#4CFF3A" stroke="#46474D" stroke-width=".188" stroke-miterlimit="10" d="M130.934 94.44a1.353 1.353 0 0 0 1.354 1.352 1.358 1.358 0 0 0-.002-2.714c-.745 0-1.355.607-1.352 1.362z"/><path fill="#4CFF3A" stroke="#46474D" stroke-width=".188" stroke-miterlimit="10" d="M128.221 94.44a1.353 1.353 0 0 0 1.359 1.354 1.363 1.363 0 0 0 1.353-1.354 1.349 1.349 0 0 0-1.356-1.355 1.347 1.347 0 0 0-1.356 1.355z"/><path fill="#4CFF3A" stroke="#46474D" stroke-width=".188" stroke-miterlimit="10" d="M125.509 94.438c.004.751.61 1.357 1.356 1.361a1.355 1.355 0 1 0-.001-2.711 1.345 1.345 0 0 0-1.355 1.35z"/><path fill="#4CFF3A" stroke="#46474D" stroke-width=".188" stroke-miterlimit="10" d="M122.799 94.447a1.36 1.36 0 0 0 1.354 1.35 1.347 1.347 0 0 0 1.356-1.358 1.358 1.358 0 0 0-1.362-1.355 1.352 1.352 0 0 0-1.348 1.363zM121.434 87.008a1.346 1.346 0 0 0 1.358 1.353 1.348 1.348 0 0 0 1.353-1.36 1.349 1.349 0 0 0-1.356-1.35 1.35 1.35 0 0 0-1.355 1.357z"/><path fill="#4CFF3A" stroke="#46474D" stroke-width=".188" stroke-miterlimit="10" d="M118.725 87.007a1.355 1.355 0 0 0 2.709 0 1.361 1.361 0 0 0-1.359-1.361 1.359 1.359 0 0 0-1.35 1.361zM116.008 87.007a1.36 1.36 0 0 0 1.359 1.362c.748 0 1.356-.617 1.358-1.362a1.363 1.363 0 0 0-1.36-1.353 1.364 1.364 0 0 0-1.357 1.353z"/><path fill="#4CFF3A" stroke="#46474D" stroke-width=".188" stroke-miterlimit="10" d="M113.297 87.016a1.36 1.36 0 0 0 1.358 1.352 1.362 1.362 0 0 0 1.353-1.36 1.358 1.358 0 0 0-1.356-1.352c-.753 0-1.357.607-1.355 1.36z"/><path fill="#4CFF3A" stroke="#46474D" stroke-width=".188" stroke-miterlimit="10" d="M110.583 87.019a1.353 1.353 0 0 0 1.359 1.35 1.355 1.355 0 1 0-.006-2.708 1.35 1.35 0 0 0-1.353 1.358z"/><path fill="#4CFF3A" stroke="#46474D" stroke-width=".188" stroke-miterlimit="10" d="M107.874 87.016a1.347 1.347 0 0 0 1.355 1.354 1.35 1.35 0 0 0 1.354-1.352 1.36 1.36 0 0 0-1.353-1.363 1.369 1.369 0 0 0-1.356 1.361z"/><path fill="#4CFF3A" stroke="#46474D" stroke-width=".188" stroke-miterlimit="10" d="M105.157 87.025a1.36 1.36 0 0 0 1.36 1.354 1.36 1.36 0 0 0 1.356-1.363 1.355 1.355 0 0 0-1.362-1.35 1.363 1.363 0 0 0-1.354 1.359z"/><path fill="#4CFF3A" stroke="#46474D" stroke-width=".188" stroke-miterlimit="10" d="M102.451 87.026a1.36 1.36 0 0 0 1.353 1.356 1.355 1.355 0 0 0 1.354-1.357 1.352 1.352 0 0 0-1.354-1.359 1.35 1.35 0 0 0-1.353 1.36zM120.079 79.639a1.346 1.346 0 0 0 1.349 1.351 1.344 1.344 0 0 0 1.354-1.358 1.347 1.347 0 0 0-1.355-1.355 1.36 1.36 0 0 0-1.348 1.362z"/><path fill="#4CFF3A" stroke="#46474D" stroke-width=".188" stroke-miterlimit="10" d="M117.367 79.637a1.357 1.357 0 0 0 1.354 1.354 1.367 1.367 0 0 0 1.359-1.353c0-.75-.62-1.361-1.359-1.354a1.34 1.34 0 0 0-1.354 1.353z"/><path fill="#4CFF3A" stroke="#46474D" stroke-width=".188" stroke-miterlimit="10" d="M114.648 79.64c0 .744.611 1.352 1.363 1.358a1.368 1.368 0 0 0 1.355-1.36 1.358 1.358 0 0 0-1.359-1.351 1.348 1.348 0 0 0-1.359 1.353z"/><path fill="#4CFF3A" stroke="#46474D" stroke-width=".188" stroke-miterlimit="10" d="M111.94 79.648a1.354 1.354 0 1 0 2.708-.009 1.354 1.354 0 0 0-1.354-1.354 1.36 1.36 0 0 0-1.354 1.363zM109.23 79.647A1.348 1.348 0 0 0 110.586 81c.75 0 1.354-.609 1.354-1.352a1.366 1.366 0 0 0-1.357-1.359 1.352 1.352 0 0 0-1.353 1.358z"/><path fill="#4CFF3A" stroke="#46474D" stroke-width=".188" stroke-miterlimit="10" d="M106.51 79.649a1.354 1.354 0 0 0 1.361 1.35 1.352 1.352 0 0 0 1.359-1.352 1.36 1.36 0 0 0-2.72.002zM103.798 79.651c.005.75.609 1.355 1.357 1.36a1.36 1.36 0 0 0 1.354-1.362 1.353 1.353 0 0 0-1.354-1.354 1.357 1.357 0 0 0-1.357 1.356zM121.434 82.086a1.346 1.346 0 0 0 1.358 1.353 1.35 1.35 0 0 0 1.353-1.361 1.349 1.349 0 0 0-1.356-1.35 1.354 1.354 0 0 0-1.355 1.358z"/><path fill="#4CFF3A" stroke="#46474D" stroke-width=".188" stroke-miterlimit="10" d="M118.725 82.085a1.35 1.35 0 0 0 1.354 1.354 1.354 1.354 0 0 0 1.355-1.354 1.362 1.362 0 0 0-1.359-1.361 1.36 1.36 0 0 0-1.35 1.361z"/><path fill="#4CFF3A" stroke="#46474D" stroke-width=".188" stroke-miterlimit="10" d="M116.008 82.085a1.36 1.36 0 0 0 1.359 1.362c.748 0 1.356-.617 1.358-1.362a1.364 1.364 0 0 0-1.36-1.353 1.364 1.364 0 0 0-1.357 1.353z"/><path fill="#4CFF3A" stroke="#46474D" stroke-width=".188" stroke-miterlimit="10" d="M113.297 82.095a1.36 1.36 0 0 0 1.358 1.352 1.363 1.363 0 0 0 1.353-1.361 1.359 1.359 0 0 0-1.356-1.352c-.753 0-1.357.607-1.355 1.361z"/><path fill="#4CFF3A" stroke="#46474D" stroke-width=".188" stroke-miterlimit="10" d="M110.583 82.097a1.354 1.354 0 0 0 1.359 1.35 1.349 1.349 0 0 0 1.356-1.352 1.356 1.356 0 0 0-1.362-1.356 1.35 1.35 0 0 0-1.353 1.358z"/><path fill="#4CFF3A" stroke="#46474D" stroke-width=".188" stroke-miterlimit="10" d="M107.874 82.094a1.347 1.347 0 0 0 1.355 1.354 1.35 1.35 0 0 0 1.354-1.352 1.362 1.362 0 0 0-1.353-1.364 1.371 1.371 0 0 0-1.356 1.362z"/><path fill="#4CFF3A" stroke="#46474D" stroke-width=".188" stroke-miterlimit="10" d="M105.157 82.103a1.36 1.36 0 0 0 1.36 1.354 1.36 1.36 0 0 0 1.356-1.363 1.354 1.354 0 0 0-1.362-1.35 1.364 1.364 0 0 0-1.354 1.359zM120.082 84.562a1.343 1.343 0 0 0 1.352 1.345 1.344 1.344 0 0 0 1.356-1.353c0-.75-.605-1.355-1.359-1.348a1.342 1.342 0 0 0-1.349 1.356z"/><path fill="#4CFF3A" stroke="#46474D" stroke-width=".188" stroke-miterlimit="10" d="M117.365 84.553a1.354 1.354 0 0 0 1.36 1.357c.747 0 1.354-.606 1.356-1.349a1.359 1.359 0 0 0-2.716-.008z"/><path fill="#4CFF3A" stroke="#46474D" stroke-width=".188" stroke-miterlimit="10" d="M114.654 84.562a1.36 1.36 0 0 0 1.361 1.355 1.35 1.35 0 0 0 1.35-1.363 1.353 1.353 0 0 0-1.353-1.348 1.359 1.359 0 0 0-1.358 1.356z"/><path fill="#4CFF3A" stroke="#46474D" stroke-width=".188" stroke-miterlimit="10" d="M111.938 84.565a1.363 1.363 0 0 0 1.369 1.353c.744 0 1.354-.604 1.348-1.356a1.354 1.354 0 0 0-1.355-1.353 1.362 1.362 0 0 0-1.362 1.356z"/><path fill="#4CFF3A" stroke="#46474D" stroke-width=".188" stroke-miterlimit="10" d="M109.228 84.564a1.367 1.367 0 0 0 1.358 1.36 1.348 1.348 0 0 0 1.352-1.359 1.357 1.357 0 0 0-1.356-1.36 1.371 1.371 0 0 0-1.354 1.359zM106.515 84.571a1.364 1.364 0 0 0 1.359 1.354 1.357 1.357 0 0 0 1.354-1.361 1.358 1.358 0 0 0-1.358-1.35 1.36 1.36 0 0 0-1.355 1.357z"/><path fill="#4CFF3A" stroke="#46474D" stroke-width=".188" stroke-miterlimit="10" d="M103.803 84.574a1.363 1.363 0 0 0 1.359 1.355 1.351 1.351 0 0 0 1.353-1.358 1.344 1.344 0 0 0-1.354-1.351 1.348 1.348 0 0 0-1.358 1.354zM101.089 79.659a1.357 1.357 0 0 0 1.361 1.349 1.343 1.343 0 0 0 1.348-1.356 1.35 1.35 0 0 0-1.353-1.351 1.361 1.361 0 0 0-1.356 1.358zM102.451 82.105a1.359 1.359 0 0 0 1.353 1.355 1.355 1.355 0 0 0 1.354-1.357 1.352 1.352 0 0 0-1.354-1.359 1.351 1.351 0 0 0-1.353 1.361zM135 87.045a1.348 1.348 0 0 0 1.356 1.346 1.344 1.344 0 0 0 1.354-1.357 1.35 1.35 0 0 0-1.361-1.35A1.347 1.347 0 0 0 135 87.045z"/><path fill="#4CFF3A" stroke="#46474D" stroke-width=".188" stroke-miterlimit="10" d="M132.286 87.041a1.358 1.358 0 0 0 1.359 1.353A1.352 1.352 0 0 0 135 87.045a1.36 1.36 0 0 0-1.362-1.363 1.36 1.36 0 0 0-1.352 1.359z"/><path fill="#4CFF3A" stroke="#46474D" stroke-width=".188" stroke-miterlimit="10" d="M129.569 87.045a1.363 1.363 0 0 0 1.366 1.354 1.351 1.351 0 0 0 1.351-1.359 1.362 1.362 0 0 0-1.36-1.358 1.378 1.378 0 0 0-1.357 1.363z"/><path fill="#4CFF3A" stroke="#46474D" stroke-width=".188" stroke-miterlimit="10" d="M126.86 87.051a1.361 1.361 0 0 0 1.357 1.354 1.358 1.358 0 0 0 1.352-1.36 1.347 1.347 0 0 0-1.351-1.354 1.355 1.355 0 0 0-1.358 1.36z"/><path fill="#4CFF3A" stroke="#46474D" stroke-width=".188" stroke-miterlimit="10" d="M124.149 87.053a1.355 1.355 0 0 0 2.71-.002 1.352 1.352 0 0 0-1.359-1.36 1.35 1.35 0 0 0-1.351 1.362zM136.352 79.663a1.358 1.358 0 0 0 1.359 1.36 1.366 1.366 0 0 0 1.356-1.359 1.36 1.36 0 0 0-1.359-1.356 1.356 1.356 0 0 0-1.356 1.355z"/><path fill="#4CFF3A" stroke="#46474D" stroke-width=".188" stroke-miterlimit="10" d="M133.641 79.672a1.36 1.36 0 0 0 1.355 1.354c.752 0 1.358-.606 1.355-1.363.006-.75-.609-1.347-1.356-1.352a1.36 1.36 0 0 0-1.354 1.361z"/><path fill="#4CFF3A" stroke="#46474D" stroke-width=".188" stroke-miterlimit="10" d="M130.93 79.673a1.355 1.355 0 0 0 2.711-.001 1.345 1.345 0 0 0-1.354-1.354 1.348 1.348 0 0 0-1.357 1.355z"/><path fill="#4CFF3A" stroke="#46474D" stroke-width=".188" stroke-miterlimit="10" d="M128.213 79.673a1.362 1.362 0 0 0 1.36 1.352 1.359 1.359 0 0 0 1.356-1.352 1.351 1.351 0 0 0-1.358-1.353 1.357 1.357 0 0 0-1.358 1.353z"/><path fill="#4CFF3A" stroke="#46474D" stroke-width=".188" stroke-miterlimit="10" d="M125.503 79.679c.001.748.607 1.35 1.354 1.354a1.36 1.36 0 0 0 1.356-1.361 1.35 1.35 0 0 0-1.356-1.353 1.354 1.354 0 0 0-1.354 1.36z"/><path fill="#4CFF3A" stroke="#46474D" stroke-width=".188" stroke-miterlimit="10" d="M122.79 79.683a1.36 1.36 0 0 0 1.357 1.351 1.35 1.35 0 0 0 1.356-1.354 1.36 1.36 0 0 0-1.356-1.358 1.361 1.361 0 0 0-1.357 1.361zM135 82.123a1.348 1.348 0 0 0 1.356 1.346 1.345 1.345 0 0 0 1.354-1.358 1.35 1.35 0 0 0-1.361-1.35A1.348 1.348 0 0 0 135 82.123z"/><path fill="#4CFF3A" stroke="#46474D" stroke-width=".188" stroke-miterlimit="10" d="M132.286 82.12a1.358 1.358 0 0 0 1.359 1.353A1.352 1.352 0 0 0 135 82.124a1.36 1.36 0 0 0-1.362-1.363 1.36 1.36 0 0 0-1.352 1.359z"/><path fill="#4CFF3A" stroke="#46474D" stroke-width=".188" stroke-miterlimit="10" d="M129.569 82.124a1.363 1.363 0 0 0 1.366 1.354 1.35 1.35 0 0 0 1.351-1.358 1.362 1.362 0 0 0-1.36-1.358 1.375 1.375 0 0 0-1.357 1.362z"/><path fill="#4CFF3A" stroke="#46474D" stroke-width=".188" stroke-miterlimit="10" d="M126.86 82.129a1.361 1.361 0 0 0 1.357 1.354 1.358 1.358 0 0 0 1.352-1.36 1.355 1.355 0 1 0-2.709.006z"/><path fill="#4CFF3A" stroke="#46474D" stroke-width=".188" stroke-miterlimit="10" d="M124.149 82.131a1.355 1.355 0 0 0 2.71-.002 1.352 1.352 0 0 0-1.359-1.36 1.35 1.35 0 0 0-1.351 1.362zM133.643 84.589a1.355 1.355 0 0 0 1.355 1.352 1.346 1.346 0 0 0 1.357-1.354c0-.749-.607-1.357-1.357-1.362a1.37 1.37 0 0 0-1.355 1.364z"/><path fill="#4CFF3A" stroke="#46474D" stroke-width=".188" stroke-miterlimit="10" d="M130.934 84.597a1.354 1.354 0 1 0 2.709-.008 1.354 1.354 0 1 0-2.709.008z"/><path fill="#4CFF3A" stroke="#46474D" stroke-width=".188" stroke-miterlimit="10" d="M128.221 84.597a1.353 1.353 0 0 0 1.359 1.354 1.363 1.363 0 0 0 1.353-1.354 1.349 1.349 0 0 0-1.356-1.355 1.347 1.347 0 0 0-1.356 1.355z"/><path fill="#4CFF3A" stroke="#46474D" stroke-width=".188" stroke-miterlimit="10" d="M125.509 84.595c.004.751.61 1.357 1.356 1.36a1.355 1.355 0 1 0-.001-2.711 1.346 1.346 0 0 0-1.355 1.351z"/><path fill="#4CFF3A" stroke="#46474D" stroke-width=".188" stroke-miterlimit="10" d="M122.799 84.603a1.359 1.359 0 0 0 1.354 1.35 1.348 1.348 0 0 0 1.356-1.358 1.358 1.358 0 0 0-1.362-1.355c-.749 0-1.345.608-1.348 1.363zM121.434 77.165a1.346 1.346 0 0 0 1.358 1.353 1.348 1.348 0 0 0 1.353-1.36 1.35 1.35 0 0 0-1.356-1.351c-.748 0-1.357.603-1.355 1.358z"/><path fill="#4CFF3A" stroke="#46474D" stroke-width=".188" stroke-miterlimit="10" d="M118.725 77.164a1.35 1.35 0 0 0 1.354 1.354 1.354 1.354 0 0 0 1.355-1.353 1.361 1.361 0 0 0-1.359-1.361 1.357 1.357 0 0 0-1.35 1.36z"/><path fill="#4CFF3A" stroke="#46474D" stroke-width=".188" stroke-miterlimit="10" d="M116.008 77.164a1.36 1.36 0 0 0 1.359 1.362 1.368 1.368 0 0 0 1.358-1.362 1.363 1.363 0 0 0-1.36-1.353 1.363 1.363 0 0 0-1.357 1.353z"/><path fill="#4CFF3A" stroke="#46474D" stroke-width=".188" stroke-miterlimit="10" d="M113.297 77.173a1.36 1.36 0 0 0 1.358 1.352 1.363 1.363 0 0 0 1.353-1.36 1.358 1.358 0 0 0-1.356-1.352c-.753 0-1.357.606-1.355 1.36z"/><path fill="#4CFF3A" stroke="#46474D" stroke-width=".188" stroke-miterlimit="10" d="M110.583 77.175a1.353 1.353 0 0 0 1.359 1.35 1.349 1.349 0 0 0 1.356-1.352 1.355 1.355 0 0 0-1.362-1.355 1.35 1.35 0 0 0-1.353 1.357z"/><path fill="#4CFF3A" stroke="#46474D" stroke-width=".188" stroke-miterlimit="10" d="M107.874 77.172a1.347 1.347 0 0 0 1.355 1.354 1.35 1.35 0 0 0 1.354-1.352 1.36 1.36 0 0 0-1.353-1.363 1.37 1.37 0 0 0-1.356 1.361zM105.157 77.181a1.359 1.359 0 0 0 2.716-.009 1.355 1.355 0 0 0-1.362-1.35 1.364 1.364 0 0 0-1.354 1.359z"/><path fill="#4CFF3A" stroke="#46474D" stroke-width=".188" stroke-miterlimit="10" d="M102.451 77.183a1.36 1.36 0 0 0 1.353 1.356 1.356 1.356 0 0 0 1.354-1.358 1.35 1.35 0 0 0-1.354-1.358 1.35 1.35 0 0 0-1.353 1.36zM120.079 69.795a1.347 1.347 0 0 0 1.349 1.351 1.344 1.344 0 0 0 1.354-1.358 1.349 1.349 0 0 0-1.355-1.356 1.36 1.36 0 0 0-1.348 1.363z"/><path fill="#4CFF3A" stroke="#46474D" stroke-width=".188" stroke-miterlimit="10" d="M117.367 69.794a1.357 1.357 0 0 0 1.354 1.354 1.367 1.367 0 0 0 1.359-1.353c0-.75-.62-1.361-1.359-1.354a1.34 1.34 0 0 0-1.354 1.353z"/><path fill="#4CFF3A" stroke="#46474D" stroke-width=".188" stroke-miterlimit="10" d="M114.648 69.796c0 .744.611 1.352 1.363 1.357.743 0 1.354-.617 1.355-1.36a1.357 1.357 0 0 0-1.359-1.351 1.35 1.35 0 0 0-1.359 1.354z"/><path fill="#4CFF3A" stroke="#46474D" stroke-width=".188" stroke-miterlimit="10" d="M111.94 69.805a1.355 1.355 0 1 0 2.708-.008 1.354 1.354 0 1 0-2.708.008z"/><path fill="#4CFF3A" stroke="#46474D" stroke-width=".188" stroke-miterlimit="10" d="M109.23 69.804a1.348 1.348 0 0 0 1.356 1.353c.75 0 1.354-.609 1.354-1.353a1.367 1.367 0 0 0-1.357-1.359 1.353 1.353 0 0 0-1.353 1.359z"/><path fill="#4CFF3A" stroke="#46474D" stroke-width=".188" stroke-miterlimit="10" d="M106.51 69.806a1.354 1.354 0 0 0 1.361 1.35 1.352 1.352 0 0 0 1.359-1.352 1.36 1.36 0 0 0-2.72.002zM121.434 72.243a1.346 1.346 0 0 0 1.358 1.353 1.35 1.35 0 0 0 1.353-1.361 1.349 1.349 0 0 0-1.356-1.35c-.748 0-1.357.603-1.355 1.358z"/><path fill="#4CFF3A" stroke="#46474D" stroke-width=".188" stroke-miterlimit="10" d="M118.725 72.242a1.355 1.355 0 0 0 2.709 0 1.361 1.361 0 0 0-1.359-1.361 1.36 1.36 0 0 0-1.35 1.361zM116.008 72.242a1.36 1.36 0 0 0 1.359 1.362c.748 0 1.356-.617 1.358-1.362a1.363 1.363 0 0 0-1.36-1.353 1.364 1.364 0 0 0-1.357 1.353z"/><path fill="#4CFF3A" stroke="#46474D" stroke-width=".188" stroke-miterlimit="10" d="M113.297 72.251a1.36 1.36 0 0 0 1.358 1.351 1.362 1.362 0 0 0 1.353-1.36 1.359 1.359 0 0 0-1.356-1.352 1.354 1.354 0 0 0-1.355 1.361z"/><path fill="#4CFF3A" stroke="#46474D" stroke-width=".188" stroke-miterlimit="10" d="M110.583 72.253a1.353 1.353 0 0 0 1.359 1.35 1.35 1.35 0 0 0 1.356-1.352 1.356 1.356 0 0 0-1.362-1.356 1.35 1.35 0 0 0-1.353 1.358z"/><path fill="#4CFF3A" stroke="#46474D" stroke-width=".188" stroke-miterlimit="10" d="M107.874 72.25a1.347 1.347 0 0 0 1.355 1.354 1.35 1.35 0 0 0 1.354-1.352 1.36 1.36 0 0 0-1.353-1.363 1.37 1.37 0 0 0-1.356 1.361z"/><path fill="#4CFF3A" stroke="#46474D" stroke-width=".188" stroke-miterlimit="10" d="M105.157 72.26a1.36 1.36 0 0 0 1.36 1.354 1.36 1.36 0 0 0 1.356-1.363 1.355 1.355 0 0 0-1.362-1.35 1.364 1.364 0 0 0-1.354 1.359zM120.082 74.718a1.344 1.344 0 0 0 1.352 1.345 1.344 1.344 0 0 0 1.356-1.354c0-.75-.605-1.355-1.359-1.348a1.344 1.344 0 0 0-1.349 1.357z"/><path fill="#4CFF3A" stroke="#46474D" stroke-width=".188" stroke-miterlimit="10" d="M117.365 74.709a1.355 1.355 0 0 0 1.36 1.358 1.357 1.357 0 0 0 1.356-1.349 1.358 1.358 0 0 0-2.716-.009z"/><path fill="#4CFF3A" stroke="#46474D" stroke-width=".188" stroke-miterlimit="10" d="M114.654 74.718a1.36 1.36 0 0 0 1.361 1.355 1.35 1.35 0 0 0 1.35-1.364 1.351 1.351 0 0 0-1.353-1.347 1.36 1.36 0 0 0-1.358 1.356z"/><path fill="#4CFF3A" stroke="#46474D" stroke-width=".188" stroke-miterlimit="10" d="M111.938 74.722a1.363 1.363 0 0 0 1.369 1.353c.744 0 1.354-.604 1.348-1.356a1.352 1.352 0 0 0-1.355-1.353 1.362 1.362 0 0 0-1.362 1.356z"/><path fill="#4CFF3A" stroke="#46474D" stroke-width=".188" stroke-miterlimit="10" d="M109.228 74.721a1.367 1.367 0 0 0 1.358 1.36 1.348 1.348 0 0 0 1.352-1.359 1.357 1.357 0 0 0-1.356-1.36 1.37 1.37 0 0 0-1.354 1.359z"/><path fill="#4CFF3A" stroke="#46474D" stroke-width=".188" stroke-miterlimit="10" d="M106.515 74.728a1.364 1.364 0 0 0 1.359 1.354 1.357 1.357 0 0 0 1.354-1.361 1.358 1.358 0 0 0-1.358-1.35 1.36 1.36 0 0 0-1.355 1.357z"/><path fill="#4CFF3A" stroke="#46474D" stroke-width=".188" stroke-miterlimit="10" d="M103.803 74.731a1.363 1.363 0 0 0 1.359 1.355 1.351 1.351 0 0 0 1.353-1.358 1.344 1.344 0 0 0-1.354-1.351 1.348 1.348 0 0 0-1.358 1.354zM137.71 77.19c.005.753.606 1.36 1.354 1.362a1.372 1.372 0 0 0 1.359-1.367 1.352 1.352 0 0 0-1.355-1.349 1.353 1.353 0 0 0-1.358 1.354z"/><path fill="#4CFF3A" stroke="#46474D" stroke-width=".188" stroke-miterlimit="10" d="M135 77.201a1.347 1.347 0 0 0 1.356 1.346 1.344 1.344 0 0 0 1.354-1.357 1.35 1.35 0 0 0-1.361-1.351A1.35 1.35 0 0 0 135 77.201z"/><path fill="#4CFF3A" stroke="#46474D" stroke-width=".188" stroke-miterlimit="10" d="M132.286 77.198a1.358 1.358 0 0 0 1.359 1.353A1.351 1.351 0 0 0 135 77.202a1.361 1.361 0 0 0-1.362-1.363 1.36 1.36 0 0 0-1.352 1.359z"/><path fill="#4CFF3A" stroke="#46474D" stroke-width=".188" stroke-miterlimit="10" d="M129.569 77.202a1.363 1.363 0 0 0 1.366 1.354 1.351 1.351 0 0 0 1.351-1.359 1.362 1.362 0 0 0-1.36-1.358 1.378 1.378 0 0 0-1.357 1.363z"/><path fill="#4CFF3A" stroke="#46474D" stroke-width=".188" stroke-miterlimit="10" d="M126.86 77.208a1.361 1.361 0 0 0 1.357 1.354 1.358 1.358 0 0 0 1.352-1.36 1.355 1.355 0 1 0-2.709.006z"/><path fill="#4CFF3A" stroke="#46474D" stroke-width=".188" stroke-miterlimit="10" d="M124.149 77.209a1.355 1.355 0 0 0 2.71-.002 1.353 1.353 0 0 0-1.359-1.361 1.352 1.352 0 0 0-1.351 1.363zM141.825 69.817a1.364 1.364 0 0 0 1.359 1.354 1.346 1.346 0 0 0 1.355-1.358 1.357 1.357 0 0 0-2.714.004zM139.067 69.821a1.352 1.352 0 0 0 1.354 1.351 1.356 1.356 0 0 0 1.359-1.352 1.354 1.354 0 0 0-1.357-1.354c-.753-.006-1.36.6-1.356 1.355z"/><path fill="#4CFF3A" stroke="#46474D" stroke-width=".188" stroke-miterlimit="10" d="M136.352 69.819a1.359 1.359 0 0 0 1.359 1.36 1.365 1.365 0 0 0 1.356-1.358 1.36 1.36 0 0 0-1.359-1.356 1.354 1.354 0 0 0-1.356 1.354z"/><path fill="#4CFF3A" stroke="#46474D" stroke-width=".188" stroke-miterlimit="10" d="M133.641 69.829a1.36 1.36 0 0 0 1.355 1.354 1.35 1.35 0 0 0 1.355-1.363c.006-.75-.609-1.347-1.356-1.352a1.36 1.36 0 0 0-1.354 1.361z"/><path fill="#4CFF3A" stroke="#46474D" stroke-width=".188" stroke-miterlimit="10" d="M130.93 69.83a1.355 1.355 0 0 0 2.711-.001 1.345 1.345 0 0 0-1.354-1.354 1.348 1.348 0 0 0-1.357 1.355z"/><path fill="#4CFF3A" stroke="#46474D" stroke-width=".188" stroke-miterlimit="10" d="M128.213 69.83a1.363 1.363 0 0 0 1.36 1.352 1.359 1.359 0 0 0 1.356-1.352 1.351 1.351 0 0 0-1.358-1.353 1.357 1.357 0 0 0-1.358 1.353z"/><path fill="#4CFF3A" stroke="#46474D" stroke-width=".188" stroke-miterlimit="10" d="M125.503 69.835a1.358 1.358 0 0 0 1.354 1.355 1.361 1.361 0 0 0 1.356-1.361 1.35 1.35 0 0 0-1.356-1.353 1.353 1.353 0 0 0-1.354 1.359z"/><path fill="#4CFF3A" stroke="#46474D" stroke-width=".188" stroke-miterlimit="10" d="M122.79 69.839a1.359 1.359 0 0 0 1.357 1.35 1.348 1.348 0 0 0 1.356-1.354 1.36 1.36 0 0 0-1.356-1.358 1.363 1.363 0 0 0-1.357 1.362zM140.423 72.263a1.366 1.366 0 0 0 1.354 1.367 1.372 1.372 0 0 0 1.361-1.365c0-.748-.61-1.354-1.36-1.35a1.35 1.35 0 0 0-1.355 1.348z"/><path fill="#4CFF3A" stroke="#46474D" stroke-width=".188" stroke-miterlimit="10" d="M137.71 72.268c.005.753.606 1.36 1.354 1.362a1.372 1.372 0 0 0 1.359-1.367 1.35 1.35 0 0 0-1.355-1.348 1.353 1.353 0 0 0-1.358 1.353z"/><path fill="#4CFF3A" stroke="#46474D" stroke-width=".188" stroke-miterlimit="10" d="M135 72.28a1.348 1.348 0 0 0 1.356 1.346 1.344 1.344 0 0 0 1.354-1.357 1.35 1.35 0 0 0-1.361-1.35A1.347 1.347 0 0 0 135 72.28z"/><path fill="#4CFF3A" stroke="#46474D" stroke-width=".188" stroke-miterlimit="10" d="M132.286 72.276a1.358 1.358 0 0 0 1.359 1.353A1.352 1.352 0 0 0 135 72.28a1.36 1.36 0 0 0-1.362-1.363 1.36 1.36 0 0 0-1.352 1.359z"/><path fill="#4CFF3A" stroke="#46474D" stroke-width=".188" stroke-miterlimit="10" d="M129.569 72.28a1.363 1.363 0 0 0 1.366 1.354 1.351 1.351 0 0 0 1.351-1.359 1.362 1.362 0 0 0-1.36-1.358 1.378 1.378 0 0 0-1.357 1.363z"/><path fill="#4CFF3A" stroke="#46474D" stroke-width=".188" stroke-miterlimit="10" d="M126.86 72.286a1.361 1.361 0 0 0 1.357 1.354 1.358 1.358 0 0 0 1.352-1.36 1.347 1.347 0 0 0-1.351-1.354 1.354 1.354 0 0 0-1.358 1.36z"/><path fill="#4CFF3A" stroke="#46474D" stroke-width=".188" stroke-miterlimit="10" d="M124.149 72.288a1.355 1.355 0 0 0 2.71-.002 1.352 1.352 0 0 0-1.359-1.36 1.35 1.35 0 0 0-1.351 1.362zM139.065 74.737a1.357 1.357 0 1 0 2.714-.003 1.356 1.356 0 0 0-1.354-1.356 1.366 1.366 0 0 0-1.36 1.359z"/><path fill="#4CFF3A" stroke="#46474D" stroke-width=".188" stroke-miterlimit="10" d="M136.355 74.744a1.368 1.368 0 0 0 1.359 1.361 1.361 1.361 0 0 0 1.352-1.368 1.354 1.354 0 0 0-1.349-1.352 1.36 1.36 0 0 0-1.362 1.359z"/><path fill="#4CFF3A" stroke="#46474D" stroke-width=".188" stroke-miterlimit="10" d="M133.643 74.745a1.355 1.355 0 0 0 1.355 1.352 1.345 1.345 0 0 0 1.357-1.353c0-.749-.607-1.358-1.357-1.362a1.37 1.37 0 0 0-1.355 1.363z"/><path fill="#4CFF3A" stroke="#46474D" stroke-width=".188" stroke-miterlimit="10" d="M130.934 74.753a1.355 1.355 0 0 0 1.354 1.353 1.358 1.358 0 0 0 1.355-1.36c0-.748-.609-1.358-1.357-1.353a1.352 1.352 0 0 0-1.352 1.36z"/><path fill="#4CFF3A" stroke="#46474D" stroke-width=".188" stroke-miterlimit="10" d="M128.221 74.754a1.353 1.353 0 0 0 1.359 1.354 1.363 1.363 0 0 0 1.353-1.355 1.349 1.349 0 0 0-1.356-1.355 1.348 1.348 0 0 0-1.356 1.356z"/><path fill="#4CFF3A" stroke="#46474D" stroke-width=".188" stroke-miterlimit="10" d="M125.509 74.751c.004.751.61 1.357 1.356 1.36a1.355 1.355 0 1 0-.001-2.711 1.347 1.347 0 0 0-1.355 1.351z"/><path fill="#4CFF3A" stroke="#46474D" stroke-width=".188" stroke-miterlimit="10" d="M122.799 74.76a1.359 1.359 0 0 0 1.354 1.35 1.347 1.347 0 0 0 1.356-1.358 1.358 1.358 0 0 0-1.362-1.355c-.749 0-1.345.607-1.348 1.363zM121.434 67.321a1.347 1.347 0 0 0 1.358 1.353 1.35 1.35 0 0 0 1.353-1.36 1.35 1.35 0 0 0-1.356-1.351c-.748 0-1.357.603-1.355 1.358z"/><path fill="#4CFF3A" stroke="#46474D" stroke-width=".188" stroke-miterlimit="10" d="M118.725 67.32a1.35 1.35 0 0 0 1.354 1.354 1.354 1.354 0 0 0 1.355-1.353 1.361 1.361 0 0 0-1.359-1.361 1.358 1.358 0 0 0-1.35 1.36z"/><path fill="#4CFF3A" stroke="#46474D" stroke-width=".188" stroke-miterlimit="10" d="M116.008 67.32a1.36 1.36 0 0 0 1.359 1.362c.748 0 1.356-.616 1.358-1.362a1.364 1.364 0 0 0-1.36-1.353 1.364 1.364 0 0 0-1.357 1.353z"/><path fill="#4CFF3A" stroke="#46474D" stroke-width=".188" stroke-miterlimit="10" d="M113.297 67.33a1.36 1.36 0 0 0 1.358 1.352 1.363 1.363 0 0 0 1.353-1.361 1.359 1.359 0 0 0-1.356-1.352c-.753 0-1.357.607-1.355 1.361z"/><path fill="#4CFF3A" stroke="#46474D" stroke-width=".188" stroke-miterlimit="10" d="M110.583 67.332a1.354 1.354 0 0 0 1.359 1.35 1.349 1.349 0 0 0 1.356-1.352 1.356 1.356 0 0 0-1.362-1.356 1.35 1.35 0 0 0-1.353 1.358z"/><path fill="#4CFF3A" stroke="#46474D" stroke-width=".188" stroke-miterlimit="10" d="M107.874 67.329a1.347 1.347 0 0 0 1.355 1.354 1.35 1.35 0 0 0 1.354-1.352 1.362 1.362 0 0 0-1.353-1.364 1.37 1.37 0 0 0-1.356 1.362zM120.079 59.952a1.346 1.346 0 0 0 1.349 1.351 1.344 1.344 0 0 0 1.354-1.358 1.349 1.349 0 0 0-1.355-1.356 1.36 1.36 0 0 0-1.348 1.363z"/><path fill="#4CFF3A" stroke="#46474D" stroke-width=".188" stroke-miterlimit="10" d="M117.367 59.951a1.357 1.357 0 0 0 1.354 1.354 1.367 1.367 0 0 0 1.359-1.353c0-.75-.62-1.36-1.359-1.354a1.34 1.34 0 0 0-1.354 1.353z"/><path fill="#4CFF3A" stroke="#46474D" stroke-width=".188" stroke-miterlimit="10" d="M114.648 59.953c0 .744.611 1.352 1.363 1.357.743 0 1.354-.617 1.355-1.36a1.357 1.357 0 0 0-1.359-1.351 1.35 1.35 0 0 0-1.359 1.354z"/><path fill="#4CFF3A" stroke="#46474D" stroke-width=".188" stroke-miterlimit="10" d="M111.94 59.961a1.355 1.355 0 1 0 2.708-.008 1.354 1.354 0 1 0-2.708.008z"/><path fill="#4CFF3A" stroke="#46474D" stroke-width=".188" stroke-miterlimit="10" d="M109.23 59.961a1.348 1.348 0 0 0 1.356 1.353c.75 0 1.354-.609 1.354-1.352a1.366 1.366 0 0 0-1.357-1.359 1.35 1.35 0 0 0-1.353 1.358zM121.434 62.399a1.346 1.346 0 0 0 1.358 1.353 1.348 1.348 0 0 0 1.353-1.36 1.35 1.35 0 0 0-1.356-1.351 1.354 1.354 0 0 0-1.355 1.358z"/><path fill="#4CFF3A" stroke="#46474D" stroke-width=".188" stroke-miterlimit="10" d="M118.725 62.399a1.355 1.355 0 0 0 2.709 0 1.361 1.361 0 0 0-1.359-1.361 1.358 1.358 0 0 0-1.35 1.361zM116.008 62.399a1.36 1.36 0 0 0 1.359 1.362 1.368 1.368 0 0 0 1.358-1.362 1.363 1.363 0 0 0-1.36-1.353 1.363 1.363 0 0 0-1.357 1.353z"/><path fill="#4CFF3A" stroke="#46474D" stroke-width=".188" stroke-miterlimit="10" d="M113.297 62.408a1.36 1.36 0 0 0 1.358 1.352 1.363 1.363 0 0 0 1.353-1.36 1.358 1.358 0 0 0-1.356-1.352 1.35 1.35 0 0 0-1.355 1.36z"/><path fill="#4CFF3A" stroke="#46474D" stroke-width=".188" stroke-miterlimit="10" d="M110.583 62.41a1.353 1.353 0 0 0 1.359 1.35 1.349 1.349 0 0 0 1.356-1.352 1.355 1.355 0 0 0-1.362-1.355 1.35 1.35 0 0 0-1.353 1.357z"/><path fill="#4CFF3A" stroke="#46474D" stroke-width=".188" stroke-miterlimit="10" d="M107.874 62.407a1.347 1.347 0 0 0 1.355 1.354 1.35 1.35 0 0 0 1.354-1.352 1.36 1.36 0 0 0-1.353-1.363 1.37 1.37 0 0 0-1.356 1.361zM120.082 64.875a1.342 1.342 0 0 0 1.352 1.345 1.344 1.344 0 0 0 1.356-1.354c0-.75-.605-1.355-1.359-1.348a1.344 1.344 0 0 0-1.349 1.357z"/><path fill="#4CFF3A" stroke="#46474D" stroke-width=".188" stroke-miterlimit="10" d="M117.365 64.866a1.354 1.354 0 0 0 1.36 1.357c.747 0 1.354-.605 1.356-1.349a1.361 1.361 0 0 0-1.361-1.36 1.36 1.36 0 0 0-1.355 1.352z"/><path fill="#4CFF3A" stroke="#46474D" stroke-width=".188" stroke-miterlimit="10" d="M114.654 64.875a1.36 1.36 0 0 0 1.361 1.355 1.35 1.35 0 0 0 1.35-1.364 1.351 1.351 0 0 0-1.353-1.347 1.359 1.359 0 0 0-1.358 1.356z"/><path fill="#4CFF3A" stroke="#46474D" stroke-width=".188" stroke-miterlimit="10" d="M111.938 64.878a1.364 1.364 0 0 0 1.369 1.353c.744 0 1.354-.604 1.348-1.356a1.354 1.354 0 0 0-1.355-1.353 1.362 1.362 0 0 0-1.362 1.356z"/><path fill="#4CFF3A" stroke="#46474D" stroke-width=".188" stroke-miterlimit="10" d="M109.228 64.878a1.367 1.367 0 0 0 1.358 1.36 1.348 1.348 0 0 0 1.352-1.359 1.358 1.358 0 0 0-1.356-1.361 1.372 1.372 0 0 0-1.354 1.36z"/><path fill="#4CFF3A" stroke="#46474D" stroke-width=".188" stroke-miterlimit="10" d="M106.515 64.884a1.364 1.364 0 0 0 1.359 1.354 1.357 1.357 0 0 0 1.354-1.361 1.358 1.358 0 0 0-1.358-1.35 1.361 1.361 0 0 0-1.355 1.357zM143.184 67.34a1.362 1.362 0 0 0 1.365 1.359 1.359 1.359 0 0 0-.011-2.716 1.363 1.363 0 0 0-1.354 1.357zM140.423 67.342a1.364 1.364 0 0 0 1.354 1.366 1.372 1.372 0 0 0 1.361-1.365c0-.748-.61-1.354-1.36-1.35a1.35 1.35 0 0 0-1.355 1.349z"/><path fill="#4CFF3A" stroke="#46474D" stroke-width=".188" stroke-miterlimit="10" d="M137.71 67.347c.005.753.606 1.36 1.354 1.362a1.372 1.372 0 0 0 1.359-1.367 1.352 1.352 0 0 0-1.355-1.349 1.353 1.353 0 0 0-1.358 1.354z"/><path fill="#4CFF3A" stroke="#46474D" stroke-width=".188" stroke-miterlimit="10" d="M135 67.358a1.348 1.348 0 0 0 1.356 1.346 1.344 1.344 0 0 0 1.354-1.357 1.35 1.35 0 0 0-1.361-1.351A1.348 1.348 0 0 0 135 67.358z"/><path fill="#4CFF3A" stroke="#46474D" stroke-width=".188" stroke-miterlimit="10" d="M132.286 67.354a1.358 1.358 0 0 0 1.359 1.353A1.352 1.352 0 0 0 135 67.358a1.36 1.36 0 0 0-1.362-1.363 1.36 1.36 0 0 0-1.352 1.359z"/><path fill="#4CFF3A" stroke="#46474D" stroke-width=".188" stroke-miterlimit="10" d="M129.569 67.358a1.363 1.363 0 0 0 1.366 1.354 1.35 1.35 0 0 0 1.351-1.358 1.362 1.362 0 0 0-1.36-1.358c-.74.01-1.351.61-1.357 1.362z"/><path fill="#4CFF3A" stroke="#46474D" stroke-width=".188" stroke-miterlimit="10" d="M126.86 67.364a1.361 1.361 0 0 0 1.357 1.354 1.358 1.358 0 0 0 1.352-1.36 1.347 1.347 0 0 0-1.351-1.354 1.355 1.355 0 0 0-1.358 1.36z"/><path fill="#4CFF3A" stroke="#46474D" stroke-width=".188" stroke-miterlimit="10" d="M124.149 67.366a1.355 1.355 0 0 0 2.71-.002 1.352 1.352 0 0 0-1.359-1.36 1.35 1.35 0 0 0-1.351 1.362zM147.253 59.972a1.357 1.357 0 0 0 1.361 1.349 1.343 1.343 0 0 0 1.348-1.356c.001-.748-.605-1.352-1.353-1.351s-1.352.608-1.356 1.358z"/><path fill="#4CFF3A" stroke="#46474D" stroke-width=".188" stroke-miterlimit="10" d="M144.539 59.969a1.364 1.364 0 0 0 1.358 1.358 1.352 1.352 0 0 0 1.356-1.355 1.357 1.357 0 0 0-1.359-1.359 1.367 1.367 0 0 0-1.355 1.356z"/><path fill="#4CFF3A" stroke="#46474D" stroke-width=".188" stroke-miterlimit="10" d="M141.825 59.974a1.363 1.363 0 0 0 1.359 1.353c.754 0 1.363-.603 1.355-1.357a1.356 1.356 0 1 0-2.714.004zM145.899 62.42a1.348 1.348 0 0 0 1.354 1.35 1.352 1.352 0 0 0 1.361-1.352c0-.754-.614-1.353-1.364-1.357a1.361 1.361 0 0 0-1.351 1.359z"/><path fill="#4CFF3A" stroke="#46474D" stroke-width=".188" stroke-miterlimit="10" d="M143.184 62.419a1.362 1.362 0 0 0 1.365 1.359 1.359 1.359 0 0 0-.011-2.716 1.361 1.361 0 0 0-1.354 1.357z"/><path fill="#4CFF3A" stroke="#46474D" stroke-width=".188" stroke-miterlimit="10" d="M144.547 64.892a1.356 1.356 0 1 0 2.711-.006 1.36 1.36 0 0 0-1.36-1.352 1.36 1.36 0 0 0-1.351 1.358z"/><path fill="#4CFF3A" stroke="#46474D" stroke-width=".188" stroke-miterlimit="10" d="M141.835 64.894c0 .748.61 1.354 1.353 1.352a1.352 1.352 0 1 0 .002-2.704 1.342 1.342 0 0 0-1.355 1.352zM139.067 59.977a1.352 1.352 0 0 0 1.354 1.351 1.356 1.356 0 0 0 1.359-1.352 1.354 1.354 0 0 0-1.357-1.354c-.753-.005-1.36.6-1.356 1.355z"/><path fill="#4CFF3A" stroke="#46474D" stroke-width=".188" stroke-miterlimit="10" d="M136.352 59.976a1.359 1.359 0 0 0 1.359 1.36 1.366 1.366 0 0 0 1.356-1.359 1.361 1.361 0 0 0-1.359-1.356 1.356 1.356 0 0 0-1.356 1.355z"/><path fill="#4CFF3A" stroke="#46474D" stroke-width=".188" stroke-miterlimit="10" d="M133.641 59.985a1.36 1.36 0 0 0 1.355 1.354c.752 0 1.358-.605 1.355-1.363.006-.75-.609-1.347-1.356-1.352a1.36 1.36 0 0 0-1.354 1.361z"/><path fill="#4CFF3A" stroke="#46474D" stroke-width=".188" stroke-miterlimit="10" d="M130.93 59.986a1.355 1.355 0 0 0 2.711-.001 1.345 1.345 0 0 0-1.354-1.354 1.348 1.348 0 0 0-1.357 1.355z"/><path fill="#4CFF3A" stroke="#46474D" stroke-width=".188" stroke-miterlimit="10" d="M128.213 59.986a1.363 1.363 0 0 0 1.36 1.352 1.352 1.352 0 1 0-.002-2.706 1.36 1.36 0 0 0-1.358 1.354z"/><path fill="#4CFF3A" stroke="#46474D" stroke-width=".188" stroke-miterlimit="10" d="M125.503 59.992a1.356 1.356 0 0 0 1.354 1.354 1.36 1.36 0 0 0 1.356-1.36 1.351 1.351 0 0 0-1.356-1.354 1.354 1.354 0 0 0-1.354 1.36z"/><path fill="#4CFF3A" stroke="#46474D" stroke-width=".188" stroke-miterlimit="10" d="M122.79 59.996a1.359 1.359 0 0 0 1.357 1.35 1.348 1.348 0 0 0 1.356-1.354 1.36 1.36 0 0 0-1.356-1.358 1.363 1.363 0 0 0-1.357 1.362zM140.423 62.42a1.366 1.366 0 0 0 1.354 1.367 1.372 1.372 0 0 0 1.361-1.365c0-.749-.61-1.354-1.36-1.351a1.35 1.35 0 0 0-1.355 1.349z"/><path fill="#4CFF3A" stroke="#46474D" stroke-width=".188" stroke-miterlimit="10" d="M137.71 62.425c.005.753.606 1.36 1.354 1.362a1.372 1.372 0 0 0 1.359-1.367 1.352 1.352 0 0 0-1.355-1.349 1.353 1.353 0 0 0-1.358 1.354z"/><path fill="#4CFF3A" stroke="#46474D" stroke-width=".188" stroke-miterlimit="10" d="M135 62.436a1.347 1.347 0 0 0 1.356 1.346 1.344 1.344 0 0 0 1.354-1.357 1.35 1.35 0 0 0-1.361-1.351A1.35 1.35 0 0 0 135 62.436z"/><path fill="#4CFF3A" stroke="#46474D" stroke-width=".188" stroke-miterlimit="10" d="M132.286 62.433a1.358 1.358 0 0 0 1.359 1.353A1.351 1.351 0 0 0 135 62.437a1.361 1.361 0 0 0-1.362-1.363 1.36 1.36 0 0 0-1.352 1.359z"/><path fill="#4CFF3A" stroke="#46474D" stroke-width=".188" stroke-miterlimit="10" d="M129.569 62.437a1.363 1.363 0 0 0 1.366 1.354 1.351 1.351 0 0 0 1.351-1.359 1.362 1.362 0 0 0-1.36-1.358 1.378 1.378 0 0 0-1.357 1.363z"/><path fill="#4CFF3A" stroke="#46474D" stroke-width=".188" stroke-miterlimit="10" d="M126.86 62.442a1.361 1.361 0 0 0 1.357 1.354 1.358 1.358 0 0 0 1.352-1.36 1.355 1.355 0 1 0-2.709.006z"/><path fill="#4CFF3A" stroke="#46474D" stroke-width=".188" stroke-miterlimit="10" d="M124.149 62.444a1.355 1.355 0 0 0 2.71-.001 1.353 1.353 0 0 0-1.359-1.361 1.35 1.35 0 0 0-1.351 1.362zM139.065 64.894a1.357 1.357 0 1 0 2.714-.003 1.355 1.355 0 0 0-1.354-1.356 1.366 1.366 0 0 0-1.36 1.359z"/><path fill="#4CFF3A" stroke="#46474D" stroke-width=".188" stroke-miterlimit="10" d="M136.355 64.9c.006.75.608 1.357 1.359 1.361a1.362 1.362 0 0 0 1.352-1.368 1.353 1.353 0 0 0-1.349-1.352 1.361 1.361 0 0 0-1.362 1.359z"/><path fill="#4CFF3A" stroke="#46474D" stroke-width=".188" stroke-miterlimit="10" d="M133.643 64.902a1.355 1.355 0 0 0 1.355 1.352 1.345 1.345 0 0 0 1.357-1.354c0-.749-.607-1.357-1.357-1.362a1.371 1.371 0 0 0-1.355 1.364z"/><path fill="#4CFF3A" stroke="#46474D" stroke-width=".188" stroke-miterlimit="10" d="M130.934 64.91a1.353 1.353 0 0 0 1.354 1.352 1.358 1.358 0 0 0 1.355-1.36c0-.748-.609-1.358-1.357-1.353a1.352 1.352 0 0 0-1.352 1.361z"/><path fill="#4CFF3A" stroke="#46474D" stroke-width=".188" stroke-miterlimit="10" d="M128.221 64.91a1.353 1.353 0 0 0 1.359 1.354 1.363 1.363 0 0 0 1.353-1.354 1.349 1.349 0 0 0-1.356-1.355 1.347 1.347 0 0 0-1.356 1.355z"/><path fill="#4CFF3A" stroke="#46474D" stroke-width=".188" stroke-miterlimit="10" d="M125.509 64.908c.004.751.61 1.357 1.356 1.361a1.355 1.355 0 1 0-.001-2.711 1.345 1.345 0 0 0-1.355 1.35z"/><path fill="#4CFF3A" stroke="#46474D" stroke-width=".188" stroke-miterlimit="10" d="M122.799 64.917a1.36 1.36 0 0 0 1.354 1.35 1.347 1.347 0 0 0 1.356-1.358 1.358 1.358 0 0 0-1.362-1.355 1.352 1.352 0 0 0-1.348 1.363zM121.434 57.478a1.346 1.346 0 0 0 1.358 1.353 1.35 1.35 0 0 0 1.353-1.361 1.349 1.349 0 0 0-1.356-1.35c-.748 0-1.357.603-1.355 1.358z"/><path fill="#4CFF3A" stroke="#46474D" stroke-width=".188" stroke-miterlimit="10" d="M118.725 57.477a1.355 1.355 0 0 0 2.709 0 1.361 1.361 0 0 0-1.359-1.361 1.359 1.359 0 0 0-1.35 1.361zM116.008 57.477a1.36 1.36 0 0 0 1.359 1.362c.748 0 1.356-.617 1.358-1.362a1.363 1.363 0 0 0-1.36-1.353 1.363 1.363 0 0 0-1.357 1.353z"/><path fill="#4CFF3A" stroke="#46474D" stroke-width=".188" stroke-miterlimit="10" d="M113.297 57.486a1.36 1.36 0 0 0 1.358 1.352 1.363 1.363 0 0 0 1.353-1.361 1.359 1.359 0 0 0-1.356-1.352c-.753 0-1.357.607-1.355 1.361z"/><path fill="#4CFF3A" stroke="#46474D" stroke-width=".188" stroke-miterlimit="10" d="M110.583 57.489a1.354 1.354 0 0 0 1.359 1.35 1.349 1.349 0 0 0 1.356-1.352 1.356 1.356 0 0 0-1.362-1.356 1.35 1.35 0 0 0-1.353 1.358zM120.079 50.108a1.346 1.346 0 0 0 1.349 1.351 1.344 1.344 0 0 0 1.354-1.358 1.348 1.348 0 0 0-1.355-1.355 1.36 1.36 0 0 0-1.348 1.362z"/><path fill="#4CFF3A" stroke="#46474D" stroke-width=".188" stroke-miterlimit="10" d="M117.367 50.107a1.357 1.357 0 0 0 1.354 1.354 1.366 1.366 0 0 0 1.359-1.353c0-.75-.62-1.36-1.359-1.354a1.34 1.34 0 0 0-1.354 1.353z"/><path fill="#4CFF3A" stroke="#46474D" stroke-width=".188" stroke-miterlimit="10" d="M114.648 50.11c0 .744.611 1.351 1.363 1.357.743 0 1.354-.617 1.355-1.36a1.357 1.357 0 0 0-1.359-1.351 1.35 1.35 0 0 0-1.359 1.354zM121.434 52.556a1.347 1.347 0 0 0 1.358 1.353 1.35 1.35 0 0 0 1.353-1.36 1.35 1.35 0 0 0-1.356-1.351c-.748 0-1.357.603-1.355 1.358z"/><path fill="#4CFF3A" stroke="#46474D" stroke-width=".188" stroke-miterlimit="10" d="M118.725 52.555a1.35 1.35 0 0 0 1.354 1.354 1.354 1.354 0 0 0 1.355-1.353 1.361 1.361 0 0 0-1.359-1.361 1.358 1.358 0 0 0-1.35 1.36z"/><path fill="#4CFF3A" stroke="#46474D" stroke-width=".188" stroke-miterlimit="10" d="M116.008 52.555a1.36 1.36 0 0 0 1.359 1.362c.748 0 1.356-.616 1.358-1.362a1.364 1.364 0 0 0-1.36-1.353 1.363 1.363 0 0 0-1.357 1.353z"/><path fill="#4CFF3A" stroke="#46474D" stroke-width=".188" stroke-miterlimit="10" d="M113.297 52.564a1.36 1.36 0 0 0 1.358 1.352 1.363 1.363 0 0 0 1.353-1.361 1.36 1.36 0 0 0-1.356-1.352 1.354 1.354 0 0 0-1.355 1.361zM120.082 55.031a1.342 1.342 0 0 0 1.352 1.345 1.343 1.343 0 0 0 1.356-1.353c0-.75-.605-1.355-1.359-1.348a1.343 1.343 0 0 0-1.349 1.356z"/><path fill="#4CFF3A" stroke="#46474D" stroke-width=".188" stroke-miterlimit="10" d="M117.365 55.023a1.354 1.354 0 0 0 1.36 1.357c.747 0 1.354-.605 1.356-1.349a1.358 1.358 0 0 0-2.716-.008z"/><path fill="#4CFF3A" stroke="#46474D" stroke-width=".188" stroke-miterlimit="10" d="M114.654 55.031a1.36 1.36 0 0 0 1.361 1.355 1.35 1.35 0 0 0 1.35-1.363 1.351 1.351 0 0 0-1.353-1.347 1.358 1.358 0 0 0-1.358 1.355z"/><path fill="#4CFF3A" stroke="#46474D" stroke-width=".188" stroke-miterlimit="10" d="M111.938 55.035a1.364 1.364 0 0 0 1.369 1.353c.744 0 1.354-.604 1.348-1.356a1.354 1.354 0 0 0-1.355-1.353 1.362 1.362 0 0 0-1.362 1.356zM148.614 57.497a1.36 1.36 0 0 0 1.353 1.355 1.355 1.355 0 0 0 1.354-1.357 1.352 1.352 0 0 0-1.354-1.359 1.35 1.35 0 0 0-1.353 1.361z"/><path fill="#4CFF3A" stroke="#46474D" stroke-width=".188" stroke-miterlimit="10" d="M145.899 57.498a1.35 1.35 0 0 0 1.354 1.351 1.352 1.352 0 0 0 1.361-1.352c0-.754-.614-1.354-1.364-1.358a1.362 1.362 0 0 0-1.351 1.359z"/><path fill="#4CFF3A" stroke="#46474D" stroke-width=".188" stroke-miterlimit="10" d="M143.184 57.497a1.362 1.362 0 0 0 1.365 1.359 1.354 1.354 0 0 0 1.35-1.358c.006-.749-.61-1.353-1.361-1.358a1.361 1.361 0 0 0-1.354 1.357zM140.423 57.498a1.366 1.366 0 0 0 1.354 1.367 1.372 1.372 0 0 0 1.361-1.365c0-.748-.61-1.354-1.36-1.35a1.349 1.349 0 0 0-1.355 1.348z"/><path fill="#4CFF3A" stroke="#46474D" stroke-width=".188" stroke-miterlimit="10" d="M137.71 57.503c.005.753.606 1.36 1.354 1.362a1.372 1.372 0 0 0 1.359-1.367 1.35 1.35 0 0 0-1.355-1.348 1.352 1.352 0 0 0-1.358 1.353z"/><path fill="#4CFF3A" stroke="#46474D" stroke-width=".188" stroke-miterlimit="10" d="M135 57.515a1.348 1.348 0 0 0 1.356 1.346 1.345 1.345 0 0 0 1.354-1.358 1.35 1.35 0 0 0-1.361-1.35A1.348 1.348 0 0 0 135 57.515z"/><path fill="#4CFF3A" stroke="#46474D" stroke-width=".188" stroke-miterlimit="10" d="M132.286 57.511a1.358 1.358 0 0 0 1.359 1.353A1.352 1.352 0 0 0 135 57.515a1.36 1.36 0 0 0-1.362-1.363 1.36 1.36 0 0 0-1.352 1.359z"/><path fill="#4CFF3A" stroke="#46474D" stroke-width=".188" stroke-miterlimit="10" d="M129.569 57.515a1.363 1.363 0 0 0 1.366 1.354 1.35 1.35 0 0 0 1.351-1.359 1.362 1.362 0 0 0-1.36-1.358 1.378 1.378 0 0 0-1.357 1.363z"/><path fill="#4CFF3A" stroke="#46474D" stroke-width=".188" stroke-miterlimit="10" d="M126.86 57.521a1.361 1.361 0 0 0 1.357 1.354 1.358 1.358 0 0 0 1.352-1.36 1.347 1.347 0 0 0-1.351-1.354 1.354 1.354 0 0 0-1.358 1.36z"/><path fill="#4CFF3A" stroke="#46474D" stroke-width=".188" stroke-miterlimit="10" d="M124.149 57.522a1.355 1.355 0 0 0 2.71-.002 1.352 1.352 0 0 0-1.359-1.36 1.35 1.35 0 0 0-1.351 1.362zM147.253 50.129a1.357 1.357 0 0 0 1.361 1.349 1.343 1.343 0 0 0 1.348-1.356 1.35 1.35 0 0 0-1.353-1.351 1.36 1.36 0 0 0-1.356 1.358z"/><path fill="#4CFF3A" stroke="#46474D" stroke-width=".188" stroke-miterlimit="10" d="M144.539 50.126a1.364 1.364 0 0 0 1.358 1.358 1.352 1.352 0 0 0 1.356-1.355 1.356 1.356 0 1 0-2.714-.003z"/><path fill="#4CFF3A" stroke="#46474D" stroke-width=".188" stroke-miterlimit="10" d="M141.825 50.13a1.363 1.363 0 0 0 1.359 1.353c.754 0 1.363-.603 1.355-1.357a1.357 1.357 0 0 0-1.357-1.356c-.747 0-1.353.611-1.357 1.36zM148.614 52.575a1.361 1.361 0 0 0 1.353 1.356 1.356 1.356 0 0 0 1.354-1.358 1.35 1.35 0 0 0-1.354-1.358 1.348 1.348 0 0 0-1.353 1.36z"/><path fill="#4CFF3A" stroke="#46474D" stroke-width=".188" stroke-miterlimit="10" d="M145.899 52.577a1.348 1.348 0 0 0 1.354 1.35 1.352 1.352 0 0 0 1.361-1.352c0-.754-.614-1.354-1.364-1.357a1.36 1.36 0 0 0-1.351 1.359z"/><path fill="#4CFF3A" stroke="#46474D" stroke-width=".188" stroke-miterlimit="10" d="M143.184 52.575a1.362 1.362 0 0 0 1.365 1.359 1.359 1.359 0 0 0-.011-2.716 1.363 1.363 0 0 0-1.354 1.357zM147.259 55.042a1.36 1.36 0 0 0 1.355 1.36 1.346 1.346 0 0 0 1.353-1.358 1.354 1.354 0 1 0-2.708-.002z"/><path fill="#4CFF3A" stroke="#46474D" stroke-width=".188" stroke-miterlimit="10" d="M144.547 55.049a1.356 1.356 0 1 0 2.711-.007 1.36 1.36 0 0 0-1.36-1.352 1.362 1.362 0 0 0-1.351 1.359z"/><path fill="#4CFF3A" stroke="#46474D" stroke-width=".188" stroke-miterlimit="10" d="M141.835 55.051c0 .748.61 1.354 1.353 1.352a1.352 1.352 0 1 0 .002-2.704 1.342 1.342 0 0 0-1.355 1.352zM139.067 50.134a1.352 1.352 0 0 0 1.354 1.351 1.356 1.356 0 0 0 1.359-1.352 1.354 1.354 0 0 0-1.357-1.354c-.753-.005-1.36.6-1.356 1.355z"/><path fill="#4CFF3A" stroke="#46474D" stroke-width=".188" stroke-miterlimit="10" d="M136.352 50.133a1.359 1.359 0 0 0 1.359 1.36 1.366 1.366 0 0 0 1.356-1.359 1.36 1.36 0 0 0-1.359-1.356 1.354 1.354 0 0 0-1.356 1.355z"/><path fill="#4CFF3A" stroke="#46474D" stroke-width=".188" stroke-miterlimit="10" d="M133.641 50.142a1.36 1.36 0 0 0 1.355 1.354c.752 0 1.358-.606 1.355-1.363a1.353 1.353 0 0 0-1.356-1.353 1.361 1.361 0 0 0-1.354 1.362z"/><path fill="#4CFF3A" stroke="#46474D" stroke-width=".188" stroke-miterlimit="10" d="M130.93 50.143a1.356 1.356 0 0 0 2.711-.001 1.345 1.345 0 0 0-1.354-1.354 1.348 1.348 0 0 0-1.357 1.355z"/><path fill="#4CFF3A" stroke="#46474D" stroke-width=".188" stroke-miterlimit="10" d="M128.213 50.143a1.359 1.359 0 0 0 2.716 0 1.358 1.358 0 0 0-2.716 0z"/><path fill="#4CFF3A" stroke="#46474D" stroke-width=".188" stroke-miterlimit="10" d="M125.503 50.149c.001.748.607 1.35 1.354 1.354a1.36 1.36 0 0 0 1.356-1.36 1.351 1.351 0 0 0-1.356-1.354 1.354 1.354 0 0 0-1.354 1.36z"/><path fill="#4CFF3A" stroke="#46474D" stroke-width=".188" stroke-miterlimit="10" d="M122.79 50.152a1.36 1.36 0 0 0 1.357 1.351 1.35 1.35 0 0 0 1.356-1.354 1.36 1.36 0 0 0-1.356-1.358 1.361 1.361 0 0 0-1.357 1.361zM140.423 52.577a1.366 1.366 0 0 0 1.354 1.367 1.372 1.372 0 0 0 1.361-1.365c0-.748-.61-1.354-1.36-1.35a1.349 1.349 0 0 0-1.355 1.348z"/><path fill="#4CFF3A" stroke="#46474D" stroke-width=".188" stroke-miterlimit="10" d="M137.71 52.582c.005.753.606 1.36 1.354 1.362a1.372 1.372 0 0 0 1.359-1.367 1.352 1.352 0 0 0-1.355-1.349 1.353 1.353 0 0 0-1.358 1.354z"/><path fill="#4CFF3A" stroke="#46474D" stroke-width=".188" stroke-miterlimit="10" d="M135 52.593a1.347 1.347 0 0 0 1.356 1.346 1.344 1.344 0 0 0 1.354-1.357 1.35 1.35 0 0 0-1.361-1.351A1.348 1.348 0 0 0 135 52.593z"/><path fill="#4CFF3A" stroke="#46474D" stroke-width=".188" stroke-miterlimit="10" d="M132.286 52.589a1.358 1.358 0 0 0 1.359 1.353A1.351 1.351 0 0 0 135 52.593a1.36 1.36 0 0 0-1.362-1.363 1.36 1.36 0 0 0-1.352 1.359z"/><path fill="#4CFF3A" stroke="#46474D" stroke-width=".188" stroke-miterlimit="10" d="M129.569 52.593a1.363 1.363 0 0 0 1.366 1.354 1.35 1.35 0 0 0 1.351-1.358 1.362 1.362 0 0 0-1.36-1.358c-.74.01-1.351.61-1.357 1.362z"/><path fill="#4CFF3A" stroke="#46474D" stroke-width=".188" stroke-miterlimit="10" d="M126.86 52.599a1.363 1.363 0 0 0 1.357 1.355 1.358 1.358 0 0 0 1.352-1.36 1.347 1.347 0 0 0-1.351-1.354 1.353 1.353 0 0 0-1.358 1.359z"/><path fill="#4CFF3A" stroke="#46474D" stroke-width=".188" stroke-miterlimit="10" d="M124.149 52.601a1.355 1.355 0 0 0 2.71-.002 1.352 1.352 0 0 0-1.359-1.36 1.35 1.35 0 0 0-1.351 1.362zM139.065 55.05a1.358 1.358 0 1 0 1.36-1.359 1.367 1.367 0 0 0-1.36 1.359z"/><path fill="#4CFF3A" stroke="#46474D" stroke-width=".188" stroke-miterlimit="10" d="M136.355 55.057c.006.75.608 1.357 1.359 1.361a1.362 1.362 0 0 0 1.352-1.368 1.353 1.353 0 0 0-1.349-1.352 1.361 1.361 0 0 0-1.362 1.359z"/><path fill="#4CFF3A" stroke="#46474D" stroke-width=".188" stroke-miterlimit="10" d="M133.643 55.059a1.355 1.355 0 0 0 1.355 1.352 1.346 1.346 0 0 0 1.357-1.354c0-.749-.607-1.357-1.357-1.362a1.37 1.37 0 0 0-1.355 1.364z"/><path fill="#4CFF3A" stroke="#46474D" stroke-width=".188" stroke-miterlimit="10" d="M130.934 55.066a1.353 1.353 0 0 0 1.354 1.352 1.358 1.358 0 0 0-.002-2.714 1.355 1.355 0 0 0-1.352 1.362z"/><path fill="#4CFF3A" stroke="#46474D" stroke-width=".188" stroke-miterlimit="10" d="M128.221 55.067a1.353 1.353 0 0 0 1.359 1.354 1.363 1.363 0 0 0 1.353-1.354 1.349 1.349 0 0 0-1.356-1.355 1.346 1.346 0 0 0-1.356 1.355z"/><path fill="#4CFF3A" stroke="#46474D" stroke-width=".188" stroke-miterlimit="10" d="M125.509 55.064c.004.751.61 1.357 1.356 1.361a1.355 1.355 0 1 0-.001-2.711 1.345 1.345 0 0 0-1.355 1.35z"/><path fill="#4CFF3A" stroke="#46474D" stroke-width=".188" stroke-miterlimit="10" d="M122.799 55.073a1.36 1.36 0 0 0 1.354 1.35 1.347 1.347 0 0 0 1.356-1.358 1.358 1.358 0 0 0-1.362-1.355c-.749 0-1.345.607-1.348 1.363zM121.434 47.634a1.346 1.346 0 0 0 1.358 1.353 1.348 1.348 0 0 0 1.353-1.36 1.349 1.349 0 0 0-1.356-1.35c-.748 0-1.357.602-1.355 1.357z"/><path fill="#4CFF3A" stroke="#46474D" stroke-width=".188" stroke-miterlimit="10" d="M118.725 47.634a1.355 1.355 0 0 0 2.709 0 1.361 1.361 0 0 0-1.359-1.361 1.358 1.358 0 0 0-1.35 1.361zM116.008 47.634a1.36 1.36 0 0 0 1.359 1.362 1.368 1.368 0 0 0 1.358-1.362 1.363 1.363 0 0 0-1.36-1.353 1.363 1.363 0 0 0-1.357 1.353zM120.082 45.188a1.343 1.343 0 0 0 1.352 1.345 1.344 1.344 0 0 0 1.356-1.353c0-.75-.605-1.355-1.359-1.348a1.343 1.343 0 0 0-1.349 1.356zM145.899 47.655a1.35 1.35 0 0 0 1.354 1.351 1.353 1.353 0 0 0 1.361-1.353c0-.754-.614-1.353-1.364-1.357a1.36 1.36 0 0 0-1.351 1.359z"/><path fill="#4CFF3A" stroke="#46474D" stroke-width=".188" stroke-miterlimit="10" d="M143.184 47.654a1.362 1.362 0 0 0 1.365 1.359 1.354 1.354 0 0 0 1.35-1.358c.006-.75-.61-1.353-1.361-1.358a1.361 1.361 0 0 0-1.354 1.357zM140.423 47.655a1.366 1.366 0 0 0 1.354 1.367 1.372 1.372 0 0 0 1.361-1.365c0-.749-.61-1.354-1.36-1.351a1.35 1.35 0 0 0-1.355 1.349z"/><path fill="#4CFF3A" stroke="#46474D" stroke-width=".188" stroke-miterlimit="10" d="M137.71 47.66c.005.753.606 1.36 1.354 1.362a1.372 1.372 0 0 0 1.359-1.367 1.352 1.352 0 0 0-1.355-1.349 1.353 1.353 0 0 0-1.358 1.354z"/><path fill="#4CFF3A" stroke="#46474D" stroke-width=".188" stroke-miterlimit="10" d="M135 47.671a1.347 1.347 0 0 0 1.356 1.346 1.344 1.344 0 0 0 1.354-1.357 1.35 1.35 0 0 0-1.361-1.35A1.348 1.348 0 0 0 135 47.671z"/><path fill="#4CFF3A" stroke="#46474D" stroke-width=".188" stroke-miterlimit="10" d="M132.286 47.667a1.358 1.358 0 0 0 1.359 1.353A1.351 1.351 0 0 0 135 47.671a1.361 1.361 0 0 0-1.362-1.363 1.36 1.36 0 0 0-1.352 1.359z"/><path fill="#4CFF3A" stroke="#46474D" stroke-width=".188" stroke-miterlimit="10" d="M129.569 47.672a1.363 1.363 0 0 0 1.366 1.354 1.351 1.351 0 0 0 1.351-1.359 1.362 1.362 0 0 0-1.36-1.358c-.74.011-1.351.61-1.357 1.363z"/><path fill="#4CFF3A" stroke="#46474D" stroke-width=".188" stroke-miterlimit="10" d="M126.86 47.677a1.361 1.361 0 0 0 1.357 1.354 1.358 1.358 0 0 0 1.352-1.36 1.355 1.355 0 1 0-2.709.006z"/><path fill="#4CFF3A" stroke="#46474D" stroke-width=".188" stroke-miterlimit="10" d="M124.149 47.679a1.355 1.355 0 0 0 2.71-.002 1.353 1.353 0 0 0-1.359-1.361 1.35 1.35 0 0 0-1.351 1.363zM141.825 40.287a1.364 1.364 0 0 0 1.359 1.354c.754 0 1.363-.604 1.355-1.357a1.357 1.357 0 0 0-1.357-1.356 1.363 1.363 0 0 0-1.357 1.359zM143.184 42.732a1.362 1.362 0 0 0 1.365 1.359 1.354 1.354 0 0 0 1.35-1.358c.006-.749-.61-1.353-1.361-1.358a1.361 1.361 0 0 0-1.354 1.357zM144.547 45.206a1.356 1.356 0 1 0 2.711-.007 1.36 1.36 0 0 0-1.36-1.352 1.36 1.36 0 0 0-1.351 1.359z"/><path fill="#4CFF3A" stroke="#46474D" stroke-width=".188" stroke-miterlimit="10" d="M141.835 45.207c0 .749.61 1.354 1.353 1.353a1.351 1.351 0 1 0 .002-2.704 1.34 1.34 0 0 0-1.355 1.351zM139.067 40.291a1.352 1.352 0 0 0 1.354 1.351 1.356 1.356 0 0 0 1.359-1.352 1.354 1.354 0 0 0-1.357-1.354c-.753-.005-1.36.6-1.356 1.355z"/><path fill="#4CFF3A" stroke="#46474D" stroke-width=".188" stroke-miterlimit="10" d="M136.352 40.289a1.358 1.358 0 0 0 1.359 1.36 1.365 1.365 0 0 0 1.356-1.358 1.36 1.36 0 0 0-1.359-1.356 1.354 1.354 0 0 0-1.356 1.354z"/><path fill="#4CFF3A" stroke="#46474D" stroke-width=".188" stroke-miterlimit="10" d="M133.641 40.298a1.36 1.36 0 0 0 1.355 1.354c.752 0 1.358-.606 1.355-1.363.006-.75-.609-1.347-1.356-1.352a1.36 1.36 0 0 0-1.354 1.361z"/><path fill="#4CFF3A" stroke="#46474D" stroke-width=".188" stroke-miterlimit="10" d="M130.93 40.299a1.355 1.355 0 0 0 2.711-.001 1.345 1.345 0 0 0-1.354-1.354 1.349 1.349 0 0 0-1.357 1.355zM140.423 42.733a1.366 1.366 0 0 0 1.354 1.367 1.372 1.372 0 0 0 1.361-1.365c0-.748-.61-1.354-1.36-1.35a1.35 1.35 0 0 0-1.355 1.348z"/><path fill="#4CFF3A" stroke="#46474D" stroke-width=".188" stroke-miterlimit="10" d="M137.71 42.738c.005.753.606 1.36 1.354 1.362a1.372 1.372 0 0 0 1.359-1.367 1.35 1.35 0 0 0-1.355-1.348 1.352 1.352 0 0 0-1.358 1.353z"/><path fill="#4CFF3A" stroke="#46474D" stroke-width=".188" stroke-miterlimit="10" d="M135 42.75a1.348 1.348 0 0 0 1.356 1.346 1.345 1.345 0 0 0 1.354-1.358 1.35 1.35 0 0 0-1.361-1.35A1.348 1.348 0 0 0 135 42.75z"/><path fill="#4CFF3A" stroke="#46474D" stroke-width=".188" stroke-miterlimit="10" d="M132.286 42.746a1.358 1.358 0 0 0 1.359 1.353A1.352 1.352 0 0 0 135 42.75a1.36 1.36 0 0 0-1.362-1.363 1.36 1.36 0 0 0-1.352 1.359z"/><path fill="#4CFF3A" stroke="#46474D" stroke-width=".188" stroke-miterlimit="10" d="M129.569 42.75a1.363 1.363 0 0 0 1.366 1.354 1.35 1.35 0 0 0 1.351-1.359 1.362 1.362 0 0 0-1.36-1.358 1.378 1.378 0 0 0-1.357 1.363z"/><path fill="#4CFF3A" stroke="#46474D" stroke-width=".188" stroke-miterlimit="10" d="M126.86 42.755a1.361 1.361 0 0 0 1.357 1.354 1.358 1.358 0 0 0 1.352-1.36 1.355 1.355 0 1 0-2.709.006z"/><path fill="#4CFF3A" stroke="#46474D" stroke-width=".188" stroke-miterlimit="10" d="M124.149 42.757a1.355 1.355 0 0 0 2.71-.002 1.352 1.352 0 0 0-1.359-1.36 1.35 1.35 0 0 0-1.351 1.362zM139.065 45.207a1.357 1.357 0 1 0 2.714-.003 1.357 1.357 0 0 0-1.354-1.356 1.366 1.366 0 0 0-1.36 1.359z"/><path fill="#4CFF3A" stroke="#46474D" stroke-width=".188" stroke-miterlimit="10" d="M136.355 45.213c.006.75.608 1.357 1.359 1.361a1.362 1.362 0 0 0 1.352-1.368 1.354 1.354 0 0 0-1.349-1.352 1.361 1.361 0 0 0-1.362 1.359z"/><path fill="#4CFF3A" stroke="#46474D" stroke-width=".188" stroke-miterlimit="10" d="M133.643 45.215a1.354 1.354 0 0 0 1.355 1.351 1.345 1.345 0 0 0 1.357-1.353c0-.749-.607-1.357-1.357-1.362a1.371 1.371 0 0 0-1.355 1.364z"/><path fill="#4CFF3A" stroke="#46474D" stroke-width=".188" stroke-miterlimit="10" d="M130.934 45.223a1.354 1.354 0 1 0 2.709-.008 1.354 1.354 0 1 0-2.709.008z"/><path fill="#4CFF3A" stroke="#46474D" stroke-width=".188" stroke-miterlimit="10" d="M128.221 45.224a1.353 1.353 0 0 0 1.359 1.354 1.363 1.363 0 0 0 1.353-1.354 1.348 1.348 0 0 0-1.356-1.355 1.346 1.346 0 0 0-1.356 1.355z"/><path fill="#4CFF3A" stroke="#46474D" stroke-width=".188" stroke-miterlimit="10" d="M125.509 45.221c.004.751.61 1.357 1.356 1.36a1.355 1.355 0 1 0-.001-2.711 1.347 1.347 0 0 0-1.355 1.351z"/><path fill="#4CFF3A" stroke="#46474D" stroke-width=".188" stroke-miterlimit="10" d="M122.799 45.229a1.359 1.359 0 0 0 1.354 1.35 1.347 1.347 0 0 0 1.356-1.358 1.354 1.354 0 1 0-2.71.008z"/><path fill="#FFC246" stroke="#46474D" stroke-width=".157" stroke-miterlimit="10" d="m148.278 88.771-7.662-4.202 13.714-25.215 7.09 3.888.005.005 1.088.59-.589 1.093-.523-.286-.6 1.101.519.282-.591 1.093-.525-.287-.598 1.106.519.283-.59 1.09-.522-.285-.601 1.098.523.288v.001l.013.006-.594 1.096-.524-.287-.596 1.101.51.275-.006.001.013.01-.59 1.093-.527-.286-.593 1.1.507.271-.005.004.017.009-.594 1.092-.518-.282-.6 1.096.502.279.018.009-.597 1.092-.52-.284-.598 1.095.504.278v.003l.015.005-.595 1.091-.521-.284-.596 1.101.506.279-.002.001.016.007-.596 1.09-.518-.278-.602 1.095.522.283-.592 1.094-.524-.283-.602 1.097.523.286-.595 1.09-.519-.28-.602 1.098.522.285-.596 1.094z"/></svg>