<svg xmlns="http://www.w3.org/2000/svg" viewBox='0 0 241.633 148.49' width="241.633" height="148.49" xml:space="preserve"><path fill="#46474D" d="M201.61 36.243c-2.22-.807-6.86-2.017-6.86-2.017l-20.788-.809-1.01-1.614-13.319-21.798h-2.424v2.918l-.607-3.22-.302-1.616V7.08h2.322V4.959h-1.819l-.503-2.42h-3.936l-.506 1.312-1.108.502S150.648.722 147.218.42c-.779-.07-1.434.061-1.981.319A1.737 1.737 0 0 0 143.821 0a1.73 1.73 0 0 0-1.73 1.729c0 .744.472 1.372 1.129 1.619-.194.771-.203 1.568-.04 2.217.504 2.017 3.333 2.522 3.333 2.522l-.709 1.918 1.011 4.44 1.686 1.514h.936l1.058 1.124-1.157.592-.809 1.616.809 2.22v2.42l-5.517 3.029-13.455 6.054-27.246 6.256-50.455-2.423-43.193-4.64-2.173.959 2.173 2.573 18.414 3.483s3.028 1.966 3.934 3.932c14.687 22.554 25.736 19.907 25.736 19.907l13.924-2.345 20.132 18.177-.152.894-.453 2.572v3.029l-.909-1.36-2.12-.305-.604 1.665-.606 1.515-.604 2.271-.151 1.664-56.766 18.315 2.27 6.964L75.87 104.31l2.573.908.456 2.906h2.875l1.362-.002s-1.211 1.181 2.119 2.444c3.33 1.256 2.875-3.684 2.875-3.684l.756-1.966 1.668-.457h3.026l1.362-1.662 6.357 6.206 3.839-2.725s22.604 1.212 25.429.807c2.826-.403 15.542-.403 17.355-25.631 0-.403.406-1.413.406-1.413l1.815-1.147s1.415-1.075 1.615-3.164c9.083-22.276 16.047-24.547 16.047-24.547l11.602 21.53.403 2.046h1.924l18.864 37.98h3.361l3.502-.807 1.615-3.809-2.423-2.65-2.694-1.413s-27.378-56.512-28.385-58.933c5.045-5.046 21.595-4.843 26.034-.606 8.277 1.413 16.348 6.459 16.348 6.459s5.048 1.01 9.085 0c-2.826-5.048-23.208-13.93-25.431-14.737zM98.425 56.097l-1.514-.454h-1.665l-.832 1.135-.983 1.138-2.875.681-2.802 10.215-11.125-12.034s-.911-.377-.609-1.061c.303-.681 6.661-2.116 6.661-2.116l4.087.831 2.347.756 4.087.077 4.846-.833 1.131.529-.754 1.136z"/><circle fill="none" stroke="#46474D" stroke-width="3.027" stroke-miterlimit="10" stroke-dasharray="2.9883,2.9883" cx="203.963" cy="108.121" r="36.156"/><path fill="none" stroke="#46474D" stroke-width="4.238" stroke-miterlimit="10" stroke-dasharray="3.2132,3.2132" d="M73.735 110.565c0 19.776-16.032 35.805-35.809 35.805-19.774 0-35.807-16.029-35.807-35.805 0-19.778 16.033-35.808 35.807-35.808 19.778 0 35.809 16.03 35.809 35.808z"/><path fill="none" stroke="#46474D" stroke-width="10.57" stroke-miterlimit="10" d="M68.738 110.565c0 17.015-13.794 30.811-30.812 30.811-17.017 0-30.812-13.796-30.812-30.811 0-17.02 13.795-30.813 30.812-30.813 17.018 0 30.812 13.793 30.812 30.813z"/><circle fill="none" stroke="#46474D" stroke-width="7.871" stroke-miterlimit="10" cx="203.964" cy="108.121" r="31.184"/><circle fill="#46474D" cx="206.2" cy="108.85" r="5.45"/><path fill="#46474D" d="M42.973 110.565a5.046 5.046 0 1 1-10.092-.004 5.046 5.046 0 0 1 10.092.004z"/><circle fill="#FFC246" stroke="#46474D" stroke-width=".146" stroke-miterlimit="10" cx="106.01" cy="81.349" r="8.448"/><circle fill="none" stroke="#FFC246" stroke-width="1.816" stroke-miterlimit="10" stroke-dasharray="1.2116,1.2116" cx="107.205" cy="93.303" r="9.643"/><circle fill="#FFC246" cx="107.205" cy="93.303" r="9.643"/><path fill="#4CFF3A" stroke="#46474D" stroke-width=".188" stroke-miterlimit="10" d="M126.358 98.56a1.345 1.345 0 0 0 1.349 1.351 1.344 1.344 0 0 0 1.354-1.358 1.349 1.349 0 0 0-1.355-1.356 1.36 1.36 0 0 0-1.348 1.363z"/><path fill="#4CFF3A" stroke="#46474D" stroke-width=".188" stroke-miterlimit="10" d="M123.646 98.559A1.357 1.357 0 0 0 125 99.913a1.367 1.367 0 0 0 1.359-1.353c0-.75-.62-1.36-1.359-1.354a1.34 1.34 0 0 0-1.354 1.353zM127.713 101.008a1.346 1.346 0 0 0 1.358 1.353 1.348 1.348 0 0 0 1.353-1.36 1.349 1.349 0 0 0-1.356-1.35 1.35 1.35 0 0 0-1.355 1.357z"/><path fill="#4CFF3A" stroke="#46474D" stroke-width=".188" stroke-miterlimit="10" d="M125.004 101.007a1.355 1.355 0 0 0 2.709 0 1.362 1.362 0 0 0-1.36-1.361 1.36 1.36 0 0 0-1.349 1.361zM134.493 98.595a1.363 1.363 0 0 0 1.36 1.352 1.352 1.352 0 1 0-.001-2.706 1.358 1.358 0 0 0-1.359 1.354z"/><path fill="#4CFF3A" stroke="#46474D" stroke-width=".188" stroke-miterlimit="10" d="M131.783 98.601a1.356 1.356 0 0 0 1.354 1.354 1.36 1.36 0 0 0 1.356-1.36 1.351 1.351 0 0 0-1.356-1.354 1.353 1.353 0 0 0-1.354 1.36z"/><path fill="#4CFF3A" stroke="#46474D" stroke-width=".188" stroke-miterlimit="10" d="M129.069 98.604a1.359 1.359 0 0 0 1.357 1.35 1.348 1.348 0 0 0 1.356-1.354 1.36 1.36 0 0 0-1.356-1.358 1.364 1.364 0 0 0-1.357 1.362zM130.429 101.053a1.355 1.355 0 0 0 2.71-.002 1.353 1.353 0 0 0-1.359-1.361 1.35 1.35 0 0 0-1.351 1.363zM127.713 96.086a1.346 1.346 0 0 0 1.358 1.353 1.35 1.35 0 0 0 1.353-1.361 1.349 1.349 0 0 0-1.356-1.35 1.353 1.353 0 0 0-1.355 1.358z"/><path fill="#4CFF3A" stroke="#46474D" stroke-width=".188" stroke-miterlimit="10" d="M125.004 96.085a1.355 1.355 0 0 0 2.709 0 1.362 1.362 0 0 0-1.36-1.361 1.36 1.36 0 0 0-1.349 1.361zM122.287 96.085a1.36 1.36 0 0 0 1.359 1.362c.748 0 1.356-.617 1.358-1.362a1.364 1.364 0 0 0-1.36-1.353 1.364 1.364 0 0 0-1.357 1.353zM126.358 88.717a1.345 1.345 0 0 0 1.349 1.351 1.344 1.344 0 0 0 1.354-1.358 1.348 1.348 0 0 0-1.355-1.355 1.36 1.36 0 0 0-1.348 1.362z"/><path fill="#4CFF3A" stroke="#46474D" stroke-width=".188" stroke-miterlimit="10" d="M123.646 88.716A1.357 1.357 0 0 0 125 90.07a1.367 1.367 0 0 0 1.359-1.353c0-.75-.62-1.36-1.359-1.354a1.34 1.34 0 0 0-1.354 1.353z"/><path fill="#4CFF3A" stroke="#46474D" stroke-width=".188" stroke-miterlimit="10" d="M120.927 88.718c0 .744.611 1.352 1.363 1.357.743 0 1.354-.617 1.355-1.36a1.357 1.357 0 0 0-1.359-1.351 1.35 1.35 0 0 0-1.359 1.354zM127.713 91.165a1.346 1.346 0 0 0 1.358 1.353 1.348 1.348 0 0 0 1.353-1.36 1.35 1.35 0 0 0-1.356-1.351c-.748 0-1.357.603-1.355 1.358z"/><path fill="#4CFF3A" stroke="#46474D" stroke-width=".188" stroke-miterlimit="10" d="M125.004 91.164a1.354 1.354 0 0 0 2.709.001 1.362 1.362 0 0 0-1.36-1.361 1.358 1.358 0 0 0-1.349 1.36z"/><path fill="#4CFF3A" stroke="#46474D" stroke-width=".188" stroke-miterlimit="10" d="M122.287 91.164a1.359 1.359 0 0 0 1.359 1.361c.748 0 1.356-.616 1.358-1.361a1.364 1.364 0 0 0-1.36-1.353 1.363 1.363 0 0 0-1.357 1.353zM126.361 93.64a1.342 1.342 0 0 0 1.352 1.345 1.344 1.344 0 0 0 1.356-1.354c0-.75-.605-1.355-1.359-1.348a1.344 1.344 0 0 0-1.349 1.357z"/><path fill="#4CFF3A" stroke="#46474D" stroke-width=".188" stroke-miterlimit="10" d="M123.645 93.631a1.354 1.354 0 0 0 1.36 1.357c.747 0 1.354-.605 1.356-1.349a1.358 1.358 0 0 0-2.716-.008z"/><path fill="#4CFF3A" stroke="#46474D" stroke-width=".188" stroke-miterlimit="10" d="M120.933 93.64a1.36 1.36 0 0 0 1.361 1.355 1.35 1.35 0 0 0 1.35-1.364 1.351 1.351 0 0 0-1.353-1.347 1.36 1.36 0 0 0-1.358 1.356zM138.565 96.119a1.358 1.358 0 0 0 2.714.004 1.36 1.36 0 0 0-1.362-1.363 1.36 1.36 0 0 0-1.352 1.359z"/><path fill="#4CFF3A" stroke="#46474D" stroke-width=".188" stroke-miterlimit="10" d="M135.848 96.124a1.363 1.363 0 0 0 1.366 1.354 1.352 1.352 0 0 0 1.352-1.359 1.362 1.362 0 0 0-1.36-1.358c-.741.01-1.352.61-1.358 1.363z"/><path fill="#4CFF3A" stroke="#46474D" stroke-width=".188" stroke-miterlimit="10" d="M133.139 96.129a1.361 1.361 0 0 0 1.357 1.354 1.358 1.358 0 0 0 1.352-1.36 1.347 1.347 0 0 0-1.351-1.354 1.357 1.357 0 0 0-1.358 1.36z"/><path fill="#4CFF3A" stroke="#46474D" stroke-width=".188" stroke-miterlimit="10" d="M130.429 96.131a1.355 1.355 0 0 0 2.71-.002 1.352 1.352 0 0 0-1.359-1.36 1.35 1.35 0 0 0-1.351 1.362zM142.631 88.741a1.359 1.359 0 0 0 1.359 1.36 1.366 1.366 0 0 0 1.356-1.359 1.361 1.361 0 0 0-1.359-1.356 1.356 1.356 0 0 0-1.356 1.355z"/><path fill="#4CFF3A" stroke="#46474D" stroke-width=".188" stroke-miterlimit="10" d="M139.92 88.75a1.36 1.36 0 0 0 1.355 1.354c.752 0 1.358-.605 1.355-1.363a1.352 1.352 0 0 0-1.356-1.352 1.36 1.36 0 0 0-1.354 1.361z"/><path fill="#4CFF3A" stroke="#46474D" stroke-width=".188" stroke-miterlimit="10" d="M137.209 88.751a1.357 1.357 0 0 0 2.712-.001 1.346 1.346 0 0 0-1.354-1.354 1.35 1.35 0 0 0-1.358 1.355z"/><path fill="#4CFF3A" stroke="#46474D" stroke-width=".188" stroke-miterlimit="10" d="M134.493 88.751a1.363 1.363 0 0 0 1.36 1.352 1.352 1.352 0 1 0-.001-2.706 1.36 1.36 0 0 0-1.359 1.354z"/><path fill="#4CFF3A" stroke="#46474D" stroke-width=".188" stroke-miterlimit="10" d="M131.783 88.757c.001.748.607 1.35 1.354 1.354a1.36 1.36 0 0 0 1.356-1.36 1.351 1.351 0 0 0-1.356-1.354 1.354 1.354 0 0 0-1.354 1.36z"/><path fill="#4CFF3A" stroke="#46474D" stroke-width=".188" stroke-miterlimit="10" d="M129.069 88.761a1.36 1.36 0 0 0 1.357 1.351 1.35 1.35 0 0 0 1.356-1.354 1.36 1.36 0 0 0-1.356-1.358 1.362 1.362 0 0 0-1.357 1.361zM141.279 91.201a1.347 1.347 0 0 0 1.356 1.346 1.344 1.344 0 0 0 1.354-1.357 1.35 1.35 0 0 0-1.361-1.351 1.349 1.349 0 0 0-1.349 1.362z"/><path fill="#4CFF3A" stroke="#46474D" stroke-width=".188" stroke-miterlimit="10" d="M138.565 91.198a1.358 1.358 0 0 0 1.359 1.353 1.351 1.351 0 0 0 1.355-1.349 1.361 1.361 0 0 0-1.362-1.363 1.36 1.36 0 0 0-1.352 1.359z"/><path fill="#4CFF3A" stroke="#46474D" stroke-width=".188" stroke-miterlimit="10" d="M135.848 91.202a1.365 1.365 0 0 0 1.366 1.355 1.352 1.352 0 0 0 1.352-1.359 1.362 1.362 0 0 0-1.36-1.358 1.376 1.376 0 0 0-1.358 1.362z"/><path fill="#4CFF3A" stroke="#46474D" stroke-width=".188" stroke-miterlimit="10" d="M133.139 91.208a1.361 1.361 0 0 0 1.357 1.354 1.358 1.358 0 0 0 1.352-1.36 1.355 1.355 0 1 0-2.709.006z"/><path fill="#4CFF3A" stroke="#46474D" stroke-width=".188" stroke-miterlimit="10" d="M130.429 91.209a1.355 1.355 0 0 0 2.71-.002 1.353 1.353 0 0 0-1.359-1.361 1.351 1.351 0 0 0-1.351 1.363zM139.922 93.667a1.355 1.355 0 0 0 1.355 1.352 1.345 1.345 0 0 0 1.357-1.354c0-.749-.607-1.357-1.357-1.362a1.372 1.372 0 0 0-1.355 1.364z"/><path fill="#4CFF3A" stroke="#46474D" stroke-width=".188" stroke-miterlimit="10" d="M137.213 93.675a1.353 1.353 0 0 0 1.354 1.352 1.358 1.358 0 0 0-.003-2.714c-.744 0-1.354.606-1.351 1.362z"/><path fill="#4CFF3A" stroke="#46474D" stroke-width=".188" stroke-miterlimit="10" d="M134.5 93.675a1.354 1.354 0 0 0 1.36 1.354 1.363 1.363 0 0 0 1.353-1.354 1.349 1.349 0 0 0-1.356-1.355 1.348 1.348 0 0 0-1.357 1.355z"/><path fill="#4CFF3A" stroke="#46474D" stroke-width=".188" stroke-miterlimit="10" d="M131.789 93.673c.004.751.61 1.357 1.356 1.361a1.363 1.363 0 0 0 1.355-1.358 1.354 1.354 0 0 0-1.356-1.353 1.345 1.345 0 0 0-1.355 1.35z"/><path fill="#4CFF3A" stroke="#46474D" stroke-width=".188" stroke-miterlimit="10" d="M129.079 93.682a1.36 1.36 0 0 0 1.354 1.35 1.347 1.347 0 0 0 1.356-1.358 1.358 1.358 0 0 0-1.362-1.355 1.35 1.35 0 0 0-1.348 1.363zM127.713 86.243a1.346 1.346 0 0 0 1.358 1.353 1.35 1.35 0 0 0 1.353-1.361 1.349 1.349 0 0 0-1.356-1.35c-.748 0-1.357.603-1.355 1.358z"/><path fill="#4CFF3A" stroke="#46474D" stroke-width=".188" stroke-miterlimit="10" d="M125.004 86.242a1.355 1.355 0 0 0 2.709 0 1.362 1.362 0 0 0-1.36-1.361 1.36 1.36 0 0 0-1.349 1.361zM122.287 86.242a1.36 1.36 0 0 0 1.359 1.362c.748 0 1.356-.617 1.358-1.362a1.364 1.364 0 0 0-1.36-1.353 1.364 1.364 0 0 0-1.357 1.353z"/><path fill="#4CFF3A" stroke="#46474D" stroke-width=".188" stroke-miterlimit="10" d="M119.577 86.251a1.36 1.36 0 0 0 1.357 1.352 1.36 1.36 0 0 0 1.353-1.36 1.358 1.358 0 0 0-1.356-1.352 1.35 1.35 0 0 0-1.354 1.36zM126.358 78.874a1.346 1.346 0 0 0 1.349 1.351 1.344 1.344 0 0 0 1.354-1.358 1.347 1.347 0 0 0-1.355-1.355 1.36 1.36 0 0 0-1.348 1.362z"/><path fill="#4CFF3A" stroke="#46474D" stroke-width=".188" stroke-miterlimit="10" d="M123.646 78.872A1.357 1.357 0 0 0 125 80.226a1.367 1.367 0 0 0 1.359-1.353c0-.75-.62-1.361-1.359-1.354a1.34 1.34 0 0 0-1.354 1.353z"/><path fill="#4CFF3A" stroke="#46474D" stroke-width=".188" stroke-miterlimit="10" d="M120.927 78.875c0 .744.611 1.352 1.363 1.358a1.368 1.368 0 0 0 1.355-1.36 1.358 1.358 0 0 0-1.359-1.351c-.749-.006-1.36.6-1.359 1.353z"/><path fill="#4CFF3A" stroke="#46474D" stroke-width=".188" stroke-miterlimit="10" d="M118.219 78.883a1.353 1.353 0 1 0 2.708-.009 1.354 1.354 0 0 0-1.354-1.354 1.36 1.36 0 0 0-1.354 1.363zM127.713 81.321a1.347 1.347 0 0 0 1.358 1.353 1.35 1.35 0 0 0 1.353-1.361 1.349 1.349 0 0 0-1.356-1.35c-.748 0-1.357.603-1.355 1.358z"/><path fill="#4CFF3A" stroke="#46474D" stroke-width=".188" stroke-miterlimit="10" d="M125.004 81.32a1.354 1.354 0 0 0 2.709.001 1.362 1.362 0 0 0-1.36-1.361 1.358 1.358 0 0 0-1.349 1.36z"/><path fill="#4CFF3A" stroke="#46474D" stroke-width=".188" stroke-miterlimit="10" d="M122.287 81.32a1.36 1.36 0 0 0 1.359 1.362c.748 0 1.356-.617 1.358-1.362a1.364 1.364 0 0 0-1.36-1.353 1.364 1.364 0 0 0-1.357 1.353z"/><path fill="#4CFF3A" stroke="#46474D" stroke-width=".188" stroke-miterlimit="10" d="M119.577 81.33a1.36 1.36 0 0 0 1.357 1.352 1.361 1.361 0 0 0 1.353-1.361 1.359 1.359 0 0 0-1.356-1.352 1.35 1.35 0 0 0-1.354 1.361zM126.361 83.796a1.343 1.343 0 0 0 1.352 1.345 1.344 1.344 0 0 0 1.356-1.353c0-.75-.605-1.355-1.359-1.348a1.343 1.343 0 0 0-1.349 1.356z"/><path fill="#4CFF3A" stroke="#46474D" stroke-width=".188" stroke-miterlimit="10" d="M123.645 83.788a1.354 1.354 0 0 0 1.36 1.357c.747 0 1.354-.606 1.356-1.349a1.361 1.361 0 0 0-1.361-1.36 1.357 1.357 0 0 0-1.355 1.352z"/><path fill="#4CFF3A" stroke="#46474D" stroke-width=".188" stroke-miterlimit="10" d="M120.933 83.796a1.36 1.36 0 0 0 1.361 1.355 1.35 1.35 0 0 0 1.35-1.363 1.353 1.353 0 0 0-1.353-1.348 1.36 1.36 0 0 0-1.358 1.356zM141.279 86.28a1.348 1.348 0 0 0 1.356 1.346 1.344 1.344 0 0 0 1.354-1.357 1.35 1.35 0 0 0-1.361-1.35 1.346 1.346 0 0 0-1.349 1.361z"/><path fill="#4CFF3A" stroke="#46474D" stroke-width=".188" stroke-miterlimit="10" d="M138.565 86.276a1.358 1.358 0 0 0 1.359 1.353 1.352 1.352 0 0 0 1.355-1.349 1.36 1.36 0 0 0-1.362-1.363 1.36 1.36 0 0 0-1.352 1.359z"/><path fill="#4CFF3A" stroke="#46474D" stroke-width=".188" stroke-miterlimit="10" d="M135.848 86.28a1.363 1.363 0 0 0 1.366 1.354 1.352 1.352 0 0 0 1.352-1.359 1.362 1.362 0 0 0-1.36-1.358 1.378 1.378 0 0 0-1.358 1.363z"/><path fill="#4CFF3A" stroke="#46474D" stroke-width=".188" stroke-miterlimit="10" d="M133.139 86.286a1.361 1.361 0 0 0 1.357 1.354 1.358 1.358 0 0 0 1.352-1.36 1.355 1.355 0 1 0-2.709.006z"/><path fill="#4CFF3A" stroke="#46474D" stroke-width=".188" stroke-miterlimit="10" d="M130.429 86.288a1.355 1.355 0 0 0 2.71-.002 1.352 1.352 0 0 0-1.359-1.36 1.349 1.349 0 0 0-1.351 1.362zM142.631 78.897a1.358 1.358 0 0 0 1.359 1.36 1.366 1.366 0 0 0 1.356-1.359 1.36 1.36 0 0 0-1.359-1.356 1.356 1.356 0 0 0-1.356 1.355z"/><path fill="#4CFF3A" stroke="#46474D" stroke-width=".188" stroke-miterlimit="10" d="M139.92 78.907a1.36 1.36 0 0 0 1.355 1.354c.752 0 1.358-.606 1.355-1.363.006-.75-.609-1.347-1.356-1.352a1.36 1.36 0 0 0-1.354 1.361z"/><path fill="#4CFF3A" stroke="#46474D" stroke-width=".188" stroke-miterlimit="10" d="M137.209 78.908a1.357 1.357 0 0 0 2.712-.001 1.346 1.346 0 0 0-1.354-1.354 1.348 1.348 0 0 0-1.358 1.355z"/><path fill="#4CFF3A" stroke="#46474D" stroke-width=".188" stroke-miterlimit="10" d="M134.493 78.908a1.362 1.362 0 0 0 1.36 1.352 1.359 1.359 0 0 0 1.356-1.352 1.351 1.351 0 0 0-1.357-1.353 1.357 1.357 0 0 0-1.359 1.353z"/><path fill="#4CFF3A" stroke="#46474D" stroke-width=".188" stroke-miterlimit="10" d="M131.783 78.914c.001.748.607 1.35 1.354 1.354a1.36 1.36 0 0 0 1.356-1.361 1.35 1.35 0 0 0-1.356-1.353 1.354 1.354 0 0 0-1.354 1.36z"/><path fill="#4CFF3A" stroke="#46474D" stroke-width=".188" stroke-miterlimit="10" d="M129.069 78.917a1.36 1.36 0 0 0 1.357 1.351 1.35 1.35 0 0 0 1.356-1.354 1.36 1.36 0 0 0-1.356-1.358 1.363 1.363 0 0 0-1.357 1.361zM141.279 81.358a1.348 1.348 0 0 0 1.356 1.346 1.345 1.345 0 0 0 1.354-1.358 1.35 1.35 0 0 0-1.361-1.35 1.347 1.347 0 0 0-1.349 1.362z"/><path fill="#4CFF3A" stroke="#46474D" stroke-width=".188" stroke-miterlimit="10" d="M138.565 81.354a1.358 1.358 0 0 0 1.359 1.353 1.352 1.352 0 0 0 1.355-1.349 1.36 1.36 0 0 0-1.362-1.363 1.36 1.36 0 0 0-1.352 1.359z"/><path fill="#4CFF3A" stroke="#46474D" stroke-width=".188" stroke-miterlimit="10" d="M135.848 81.358a1.363 1.363 0 0 0 1.366 1.354 1.352 1.352 0 0 0 1.352-1.358 1.362 1.362 0 0 0-1.36-1.358c-.741.01-1.352.61-1.358 1.362z"/><path fill="#4CFF3A" stroke="#46474D" stroke-width=".188" stroke-miterlimit="10" d="M133.139 81.364a1.361 1.361 0 0 0 1.357 1.354 1.358 1.358 0 0 0 1.352-1.36 1.347 1.347 0 0 0-1.351-1.354 1.356 1.356 0 0 0-1.358 1.36z"/><path fill="#4CFF3A" stroke="#46474D" stroke-width=".188" stroke-miterlimit="10" d="M130.429 81.366a1.355 1.355 0 0 0 2.71-.002 1.352 1.352 0 0 0-1.359-1.36 1.349 1.349 0 0 0-1.351 1.362zM139.922 83.824a1.355 1.355 0 0 0 1.355 1.352 1.346 1.346 0 0 0 1.357-1.354c0-.749-.607-1.357-1.357-1.362a1.371 1.371 0 0 0-1.355 1.364z"/><path fill="#4CFF3A" stroke="#46474D" stroke-width=".188" stroke-miterlimit="10" d="M137.213 83.832a1.354 1.354 0 1 0 2.709-.008 1.353 1.353 0 1 0-2.709.008z"/><path fill="#4CFF3A" stroke="#46474D" stroke-width=".188" stroke-miterlimit="10" d="M134.5 83.832a1.354 1.354 0 0 0 1.36 1.354 1.363 1.363 0 0 0 1.353-1.354 1.349 1.349 0 0 0-1.356-1.355 1.348 1.348 0 0 0-1.357 1.355z"/><path fill="#4CFF3A" stroke="#46474D" stroke-width=".188" stroke-miterlimit="10" d="M131.789 83.83c.004.751.61 1.357 1.356 1.36a1.363 1.363 0 0 0 1.355-1.358 1.353 1.353 0 0 0-1.356-1.353 1.346 1.346 0 0 0-1.355 1.351z"/><path fill="#4CFF3A" stroke="#46474D" stroke-width=".188" stroke-miterlimit="10" d="M129.079 83.838a1.359 1.359 0 0 0 1.354 1.35 1.348 1.348 0 0 0 1.356-1.358 1.358 1.358 0 0 0-1.362-1.355c-.75 0-1.346.608-1.348 1.363zM127.713 76.399a1.346 1.346 0 0 0 1.358 1.353 1.348 1.348 0 0 0 1.353-1.36 1.35 1.35 0 0 0-1.356-1.351 1.354 1.354 0 0 0-1.355 1.358z"/><path fill="#4CFF3A" stroke="#46474D" stroke-width=".188" stroke-miterlimit="10" d="M125.004 76.399a1.354 1.354 0 0 0 2.709.001 1.362 1.362 0 0 0-1.36-1.361 1.357 1.357 0 0 0-1.349 1.36z"/><path fill="#4CFF3A" stroke="#46474D" stroke-width=".188" stroke-miterlimit="10" d="M122.287 76.399a1.36 1.36 0 0 0 1.359 1.362 1.368 1.368 0 0 0 1.358-1.362 1.364 1.364 0 0 0-1.36-1.353 1.363 1.363 0 0 0-1.357 1.353z"/><path fill="#4CFF3A" stroke="#46474D" stroke-width=".188" stroke-miterlimit="10" d="M119.577 76.408a1.36 1.36 0 0 0 1.357 1.352 1.361 1.361 0 0 0 1.353-1.36 1.358 1.358 0 0 0-1.356-1.352 1.35 1.35 0 0 0-1.354 1.36z"/><path fill="#4CFF3A" stroke="#46474D" stroke-width=".188" stroke-miterlimit="10" d="M116.862 76.41a1.353 1.353 0 0 0 1.358 1.35 1.348 1.348 0 0 0 1.356-1.352 1.355 1.355 0 0 0-1.362-1.355 1.349 1.349 0 0 0-1.352 1.357zM126.358 69.03a1.346 1.346 0 0 0 1.349 1.351 1.344 1.344 0 0 0 1.354-1.358 1.349 1.349 0 0 0-1.355-1.356 1.36 1.36 0 0 0-1.348 1.363z"/><path fill="#4CFF3A" stroke="#46474D" stroke-width=".188" stroke-miterlimit="10" d="M123.646 69.029A1.357 1.357 0 0 0 125 70.383a1.367 1.367 0 0 0 1.359-1.353c0-.75-.62-1.361-1.359-1.354a1.34 1.34 0 0 0-1.354 1.353z"/><path fill="#4CFF3A" stroke="#46474D" stroke-width=".188" stroke-miterlimit="10" d="M120.927 69.031c0 .744.611 1.352 1.363 1.357.743 0 1.354-.617 1.355-1.36a1.357 1.357 0 0 0-1.359-1.351 1.35 1.35 0 0 0-1.359 1.354z"/><path fill="#4CFF3A" stroke="#46474D" stroke-width=".188" stroke-miterlimit="10" d="M118.219 69.04a1.354 1.354 0 1 0 2.708-.008 1.354 1.354 0 1 0-2.708.008z"/><path fill="#4CFF3A" stroke="#46474D" stroke-width=".188" stroke-miterlimit="10" d="M115.509 69.039a1.348 1.348 0 0 0 1.356 1.353c.75 0 1.354-.609 1.354-1.353a1.367 1.367 0 0 0-1.357-1.359 1.353 1.353 0 0 0-1.353 1.359z"/><path fill="#4CFF3A" stroke="#46474D" stroke-width=".188" stroke-miterlimit="10" d="M112.789 69.041a1.354 1.354 0 0 0 1.361 1.35 1.351 1.351 0 0 0 1.358-1.352 1.358 1.358 0 0 0-1.357-1.353 1.358 1.358 0 0 0-1.362 1.355zM127.713 71.478a1.346 1.346 0 0 0 1.358 1.353 1.35 1.35 0 0 0 1.353-1.361 1.349 1.349 0 0 0-1.356-1.35c-.748 0-1.357.603-1.355 1.358z"/><path fill="#4CFF3A" stroke="#46474D" stroke-width=".188" stroke-miterlimit="10" d="M125.004 71.477a1.355 1.355 0 0 0 2.709 0 1.362 1.362 0 0 0-1.36-1.361 1.36 1.36 0 0 0-1.349 1.361zM122.287 71.477a1.36 1.36 0 0 0 1.359 1.362c.748 0 1.356-.617 1.358-1.362a1.364 1.364 0 0 0-1.36-1.353 1.363 1.363 0 0 0-1.357 1.353z"/><path fill="#4CFF3A" stroke="#46474D" stroke-width=".188" stroke-miterlimit="10" d="M119.577 71.486c.004.744.607 1.35 1.357 1.351a1.36 1.36 0 0 0 1.353-1.36 1.359 1.359 0 0 0-1.356-1.352 1.35 1.35 0 0 0-1.354 1.361z"/><path fill="#4CFF3A" stroke="#46474D" stroke-width=".188" stroke-miterlimit="10" d="M116.862 71.489a1.354 1.354 0 0 0 1.358 1.35 1.349 1.349 0 0 0 1.356-1.352 1.356 1.356 0 0 0-1.362-1.356 1.35 1.35 0 0 0-1.352 1.358z"/><path fill="#4CFF3A" stroke="#46474D" stroke-width=".188" stroke-miterlimit="10" d="M114.153 71.485a1.347 1.347 0 0 0 1.355 1.354 1.35 1.35 0 0 0 1.354-1.351 1.362 1.362 0 0 0-1.353-1.364 1.37 1.37 0 0 0-1.356 1.361zM126.361 73.953a1.344 1.344 0 0 0 1.352 1.345 1.344 1.344 0 0 0 1.356-1.354c0-.75-.605-1.355-1.359-1.348a1.344 1.344 0 0 0-1.349 1.357z"/><path fill="#4CFF3A" stroke="#46474D" stroke-width=".188" stroke-miterlimit="10" d="M123.645 73.944a1.355 1.355 0 0 0 1.36 1.358 1.357 1.357 0 0 0 1.356-1.349 1.361 1.361 0 0 0-1.361-1.36 1.357 1.357 0 0 0-1.355 1.351z"/><path fill="#4CFF3A" stroke="#46474D" stroke-width=".188" stroke-miterlimit="10" d="M120.933 73.953a1.36 1.36 0 0 0 1.361 1.355 1.35 1.35 0 0 0 1.35-1.364 1.351 1.351 0 0 0-1.353-1.347 1.36 1.36 0 0 0-1.358 1.356z"/><path fill="#4CFF3A" stroke="#46474D" stroke-width=".188" stroke-miterlimit="10" d="M118.217 73.957a1.363 1.363 0 0 0 1.369 1.353c.744 0 1.354-.604 1.348-1.356a1.352 1.352 0 0 0-1.355-1.353 1.362 1.362 0 0 0-1.362 1.356z"/><path fill="#4CFF3A" stroke="#46474D" stroke-width=".188" stroke-miterlimit="10" d="M115.506 73.956a1.368 1.368 0 0 0 1.359 1.36 1.349 1.349 0 0 0 1.352-1.359 1.357 1.357 0 0 0-1.356-1.36 1.373 1.373 0 0 0-1.355 1.359zM143.99 76.425c.005.753.606 1.36 1.354 1.362a1.372 1.372 0 0 0 1.359-1.367 1.352 1.352 0 0 0-1.355-1.349 1.353 1.353 0 0 0-1.358 1.354z"/><path fill="#4CFF3A" stroke="#46474D" stroke-width=".188" stroke-miterlimit="10" d="M141.279 76.436a1.347 1.347 0 0 0 1.356 1.346 1.344 1.344 0 0 0 1.354-1.357 1.35 1.35 0 0 0-1.361-1.351 1.349 1.349 0 0 0-1.349 1.362z"/><path fill="#4CFF3A" stroke="#46474D" stroke-width=".188" stroke-miterlimit="10" d="M138.565 76.433a1.358 1.358 0 0 0 1.359 1.353 1.351 1.351 0 0 0 1.355-1.349 1.361 1.361 0 0 0-1.362-1.363 1.36 1.36 0 0 0-1.352 1.359z"/><path fill="#4CFF3A" stroke="#46474D" stroke-width=".188" stroke-miterlimit="10" d="M135.848 76.437a1.363 1.363 0 0 0 1.366 1.354 1.352 1.352 0 0 0 1.352-1.359 1.362 1.362 0 0 0-1.36-1.358 1.377 1.377 0 0 0-1.358 1.363z"/><path fill="#4CFF3A" stroke="#46474D" stroke-width=".188" stroke-miterlimit="10" d="M133.139 76.442a1.361 1.361 0 0 0 1.357 1.354 1.358 1.358 0 0 0 1.352-1.36 1.349 1.349 0 0 0-1.351-1.355 1.358 1.358 0 0 0-1.358 1.361z"/><path fill="#4CFF3A" stroke="#46474D" stroke-width=".188" stroke-miterlimit="10" d="M130.429 76.444a1.355 1.355 0 0 0 2.71-.001 1.353 1.353 0 0 0-1.359-1.361 1.35 1.35 0 0 0-1.351 1.362zM148.104 69.052a1.364 1.364 0 0 0 1.359 1.354c.753 0 1.363-.604 1.355-1.357a1.357 1.357 0 0 0-1.357-1.356 1.363 1.363 0 0 0-1.357 1.359zM145.346 69.056a1.351 1.351 0 0 0 1.354 1.351 1.356 1.356 0 0 0 1.359-1.352 1.355 1.355 0 0 0-1.357-1.354c-.752-.006-1.36.6-1.356 1.355z"/><path fill="#4CFF3A" stroke="#46474D" stroke-width=".188" stroke-miterlimit="10" d="M142.631 69.054a1.359 1.359 0 0 0 1.359 1.36 1.365 1.365 0 0 0 1.356-1.358 1.36 1.36 0 0 0-1.359-1.356 1.354 1.354 0 0 0-1.356 1.354z"/><path fill="#4CFF3A" stroke="#46474D" stroke-width=".188" stroke-miterlimit="10" d="M139.92 69.063a1.36 1.36 0 0 0 1.355 1.354 1.35 1.35 0 0 0 1.355-1.363c.006-.75-.609-1.347-1.356-1.352a1.36 1.36 0 0 0-1.354 1.361z"/><path fill="#4CFF3A" stroke="#46474D" stroke-width=".188" stroke-miterlimit="10" d="M137.209 69.064a1.357 1.357 0 0 0 2.712-.001 1.346 1.346 0 0 0-1.354-1.354 1.35 1.35 0 0 0-1.358 1.355z"/><path fill="#4CFF3A" stroke="#46474D" stroke-width=".188" stroke-miterlimit="10" d="M134.493 69.064a1.363 1.363 0 0 0 1.36 1.352 1.359 1.359 0 0 0 1.356-1.352 1.351 1.351 0 0 0-1.357-1.353 1.358 1.358 0 0 0-1.359 1.353z"/><path fill="#4CFF3A" stroke="#46474D" stroke-width=".188" stroke-miterlimit="10" d="M131.783 69.07a1.358 1.358 0 0 0 1.354 1.355 1.36 1.36 0 0 0 1.356-1.361 1.35 1.35 0 0 0-1.356-1.353 1.353 1.353 0 0 0-1.354 1.359z"/><path fill="#4CFF3A" stroke="#46474D" stroke-width=".188" stroke-miterlimit="10" d="M129.069 69.074a1.359 1.359 0 0 0 1.357 1.35 1.348 1.348 0 0 0 1.356-1.354 1.36 1.36 0 0 0-1.356-1.358 1.363 1.363 0 0 0-1.357 1.362zM146.702 71.498a1.366 1.366 0 0 0 1.354 1.367 1.372 1.372 0 0 0 1.361-1.365c0-.748-.61-1.354-1.36-1.35a1.35 1.35 0 0 0-1.355 1.348z"/><path fill="#4CFF3A" stroke="#46474D" stroke-width=".188" stroke-miterlimit="10" d="M143.99 71.503c.005.753.606 1.36 1.354 1.362a1.372 1.372 0 0 0 1.359-1.367 1.35 1.35 0 0 0-1.355-1.348 1.351 1.351 0 0 0-1.358 1.353z"/><path fill="#4CFF3A" stroke="#46474D" stroke-width=".188" stroke-miterlimit="10" d="M141.279 71.515a1.348 1.348 0 0 0 1.356 1.346 1.344 1.344 0 0 0 1.354-1.357 1.35 1.35 0 0 0-1.361-1.35 1.346 1.346 0 0 0-1.349 1.361z"/><path fill="#4CFF3A" stroke="#46474D" stroke-width=".188" stroke-miterlimit="10" d="M138.565 71.511a1.358 1.358 0 0 0 1.359 1.353 1.352 1.352 0 0 0 1.355-1.349 1.36 1.36 0 0 0-1.362-1.363 1.36 1.36 0 0 0-1.352 1.359z"/><path fill="#4CFF3A" stroke="#46474D" stroke-width=".188" stroke-miterlimit="10" d="M135.848 71.515a1.363 1.363 0 0 0 1.366 1.354 1.352 1.352 0 0 0 1.352-1.359 1.362 1.362 0 0 0-1.36-1.358 1.378 1.378 0 0 0-1.358 1.363z"/><path fill="#4CFF3A" stroke="#46474D" stroke-width=".188" stroke-miterlimit="10" d="M133.139 71.521a1.361 1.361 0 0 0 1.357 1.354 1.358 1.358 0 0 0 1.352-1.36 1.355 1.355 0 1 0-2.709.006z"/><path fill="#4CFF3A" stroke="#46474D" stroke-width=".188" stroke-miterlimit="10" d="M130.429 71.522a1.355 1.355 0 0 0 2.71-.002 1.352 1.352 0 0 0-1.359-1.36 1.35 1.35 0 0 0-1.351 1.362zM145.345 73.972a1.357 1.357 0 1 0 2.714-.003 1.357 1.357 0 0 0-1.354-1.356 1.366 1.366 0 0 0-1.36 1.359z"/><path fill="#4CFF3A" stroke="#46474D" stroke-width=".188" stroke-miterlimit="10" d="M142.634 73.979c.006.75.607 1.357 1.359 1.361a1.361 1.361 0 0 0 1.352-1.368 1.354 1.354 0 0 0-1.349-1.352 1.36 1.36 0 0 0-1.362 1.359z"/><path fill="#4CFF3A" stroke="#46474D" stroke-width=".188" stroke-miterlimit="10" d="M139.922 73.98a1.355 1.355 0 0 0 1.355 1.352 1.345 1.345 0 0 0 1.357-1.353c0-.749-.607-1.358-1.357-1.362a1.37 1.37 0 0 0-1.355 1.363z"/><path fill="#4CFF3A" stroke="#46474D" stroke-width=".188" stroke-miterlimit="10" d="M137.213 73.988a1.355 1.355 0 0 0 1.354 1.353 1.358 1.358 0 0 0 1.355-1.36c0-.748-.609-1.358-1.358-1.353a1.35 1.35 0 0 0-1.351 1.36z"/><path fill="#4CFF3A" stroke="#46474D" stroke-width=".188" stroke-miterlimit="10" d="M134.5 73.989a1.354 1.354 0 0 0 1.36 1.354 1.363 1.363 0 0 0 1.353-1.355 1.349 1.349 0 0 0-1.356-1.355 1.348 1.348 0 0 0-1.357 1.356z"/><path fill="#4CFF3A" stroke="#46474D" stroke-width=".188" stroke-miterlimit="10" d="M131.789 73.986c.004.751.61 1.357 1.356 1.36a1.363 1.363 0 0 0 1.355-1.358 1.353 1.353 0 0 0-1.356-1.353 1.346 1.346 0 0 0-1.355 1.351z"/><path fill="#4CFF3A" stroke="#46474D" stroke-width=".188" stroke-miterlimit="10" d="M129.079 73.995a1.359 1.359 0 0 0 1.354 1.35 1.347 1.347 0 0 0 1.356-1.358 1.358 1.358 0 0 0-1.362-1.355c-.75 0-1.346.607-1.348 1.363zM127.713 66.556a1.347 1.347 0 0 0 1.358 1.353 1.35 1.35 0 0 0 1.353-1.36 1.35 1.35 0 0 0-1.356-1.351c-.748 0-1.357.603-1.355 1.358z"/><path fill="#4CFF3A" stroke="#46474D" stroke-width=".188" stroke-miterlimit="10" d="M125.004 66.555a1.35 1.35 0 0 0 1.354 1.354 1.354 1.354 0 0 0 1.355-1.353 1.362 1.362 0 0 0-1.36-1.361 1.358 1.358 0 0 0-1.349 1.36z"/><path fill="#4CFF3A" stroke="#46474D" stroke-width=".188" stroke-miterlimit="10" d="M122.287 66.555a1.36 1.36 0 0 0 1.359 1.362c.748 0 1.356-.616 1.358-1.362a1.364 1.364 0 0 0-1.36-1.353 1.363 1.363 0 0 0-1.357 1.353z"/><path fill="#4CFF3A" stroke="#46474D" stroke-width=".188" stroke-miterlimit="10" d="M119.577 66.564a1.36 1.36 0 0 0 1.357 1.352 1.361 1.361 0 0 0 1.353-1.361 1.359 1.359 0 0 0-1.356-1.352 1.352 1.352 0 0 0-1.354 1.361z"/><path fill="#4CFF3A" stroke="#46474D" stroke-width=".188" stroke-miterlimit="10" d="M116.862 66.567a1.354 1.354 0 0 0 1.358 1.35 1.348 1.348 0 0 0 1.356-1.352 1.356 1.356 0 0 0-1.362-1.356 1.35 1.35 0 0 0-1.352 1.358z"/><path fill="#4CFF3A" stroke="#46474D" stroke-width=".188" stroke-miterlimit="10" d="M114.153 66.564a1.347 1.347 0 0 0 1.355 1.354 1.35 1.35 0 0 0 1.354-1.352 1.362 1.362 0 0 0-1.353-1.364 1.37 1.37 0 0 0-1.356 1.362zM126.358 59.187a1.345 1.345 0 0 0 1.349 1.351 1.344 1.344 0 0 0 1.354-1.358 1.349 1.349 0 0 0-1.355-1.356 1.36 1.36 0 0 0-1.348 1.363z"/><path fill="#4CFF3A" stroke="#46474D" stroke-width=".188" stroke-miterlimit="10" d="M123.646 59.186A1.357 1.357 0 0 0 125 60.54a1.367 1.367 0 0 0 1.359-1.353c0-.75-.62-1.36-1.359-1.354a1.34 1.34 0 0 0-1.354 1.353z"/><path fill="#4CFF3A" stroke="#46474D" stroke-width=".188" stroke-miterlimit="10" d="M120.927 59.188c0 .744.611 1.352 1.363 1.357.743 0 1.354-.617 1.355-1.36a1.357 1.357 0 0 0-1.359-1.351 1.35 1.35 0 0 0-1.359 1.354z"/><path fill="#4CFF3A" stroke="#46474D" stroke-width=".188" stroke-miterlimit="10" d="M118.219 59.196a1.354 1.354 0 1 0 2.708-.008 1.354 1.354 0 1 0-2.708.008zM115.509 59.196a1.348 1.348 0 0 0 1.356 1.353c.75 0 1.354-.609 1.354-1.352a1.366 1.366 0 0 0-1.357-1.359 1.35 1.35 0 0 0-1.353 1.358zM127.713 61.634a1.346 1.346 0 0 0 1.358 1.353 1.348 1.348 0 0 0 1.353-1.36 1.35 1.35 0 0 0-1.356-1.351 1.353 1.353 0 0 0-1.355 1.358z"/><path fill="#4CFF3A" stroke="#46474D" stroke-width=".188" stroke-miterlimit="10" d="M125.004 61.634a1.355 1.355 0 0 0 2.709 0 1.362 1.362 0 0 0-1.36-1.361 1.359 1.359 0 0 0-1.349 1.361zM122.287 61.634a1.36 1.36 0 0 0 1.359 1.362 1.368 1.368 0 0 0 1.358-1.362 1.364 1.364 0 0 0-1.36-1.353 1.363 1.363 0 0 0-1.357 1.353z"/><path fill="#4CFF3A" stroke="#46474D" stroke-width=".188" stroke-miterlimit="10" d="M119.577 61.643a1.36 1.36 0 0 0 1.357 1.352 1.361 1.361 0 0 0 1.353-1.36 1.358 1.358 0 0 0-1.356-1.352 1.35 1.35 0 0 0-1.354 1.36z"/><path fill="#4CFF3A" stroke="#46474D" stroke-width=".188" stroke-miterlimit="10" d="M116.862 61.645a1.353 1.353 0 0 0 1.358 1.35 1.348 1.348 0 0 0 1.356-1.352 1.355 1.355 0 0 0-1.362-1.355 1.349 1.349 0 0 0-1.352 1.357z"/><path fill="#4CFF3A" stroke="#46474D" stroke-width=".188" stroke-miterlimit="10" d="M114.153 61.642a1.347 1.347 0 0 0 1.355 1.354 1.35 1.35 0 0 0 1.354-1.352 1.36 1.36 0 0 0-1.353-1.363 1.37 1.37 0 0 0-1.356 1.361zM126.361 64.109a1.342 1.342 0 0 0 1.352 1.345 1.344 1.344 0 0 0 1.356-1.354c0-.75-.605-1.355-1.359-1.348a1.344 1.344 0 0 0-1.349 1.357z"/><path fill="#4CFF3A" stroke="#46474D" stroke-width=".188" stroke-miterlimit="10" d="M123.645 64.101a1.354 1.354 0 0 0 1.36 1.357c.747 0 1.354-.605 1.356-1.349a1.357 1.357 0 0 0-2.716-.008z"/><path fill="#4CFF3A" stroke="#46474D" stroke-width=".188" stroke-miterlimit="10" d="M120.933 64.109a1.36 1.36 0 0 0 1.361 1.355 1.35 1.35 0 0 0 1.35-1.364 1.351 1.351 0 0 0-1.353-1.347 1.36 1.36 0 0 0-1.358 1.356z"/><path fill="#4CFF3A" stroke="#46474D" stroke-width=".188" stroke-miterlimit="10" d="M118.217 64.113a1.364 1.364 0 0 0 1.369 1.353c.744 0 1.354-.604 1.348-1.356a1.354 1.354 0 0 0-1.355-1.353 1.363 1.363 0 0 0-1.362 1.356z"/><path fill="#4CFF3A" stroke="#46474D" stroke-width=".188" stroke-miterlimit="10" d="M115.506 64.113a1.368 1.368 0 0 0 1.359 1.36 1.349 1.349 0 0 0 1.352-1.359 1.358 1.358 0 0 0-1.356-1.361 1.373 1.373 0 0 0-1.355 1.36z"/><path fill="#4CFF3A" stroke="#46474D" stroke-width=".188" stroke-miterlimit="10" d="M112.794 64.119a1.364 1.364 0 0 0 1.359 1.354 1.357 1.357 0 0 0 1.354-1.361 1.357 1.357 0 0 0-2.713.007zM149.463 66.575a1.362 1.362 0 0 0 1.365 1.359 1.359 1.359 0 0 0-.011-2.716 1.363 1.363 0 0 0-1.354 1.357zM146.702 66.577a1.365 1.365 0 0 0 1.354 1.366 1.372 1.372 0 0 0 1.361-1.365c0-.748-.61-1.354-1.36-1.35a1.35 1.35 0 0 0-1.355 1.349z"/><path fill="#4CFF3A" stroke="#46474D" stroke-width=".188" stroke-miterlimit="10" d="M143.99 66.582c.005.753.606 1.36 1.354 1.362a1.372 1.372 0 0 0 1.359-1.367 1.352 1.352 0 0 0-1.355-1.349 1.353 1.353 0 0 0-1.358 1.354z"/><path fill="#4CFF3A" stroke="#46474D" stroke-width=".188" stroke-miterlimit="10" d="M141.279 66.593a1.347 1.347 0 0 0 1.356 1.346 1.344 1.344 0 0 0 1.354-1.357 1.35 1.35 0 0 0-1.361-1.351 1.347 1.347 0 0 0-1.349 1.362z"/><path fill="#4CFF3A" stroke="#46474D" stroke-width=".188" stroke-miterlimit="10" d="M138.565 66.589a1.358 1.358 0 0 0 1.359 1.353 1.351 1.351 0 0 0 1.355-1.349 1.36 1.36 0 0 0-1.362-1.363 1.36 1.36 0 0 0-1.352 1.359z"/><path fill="#4CFF3A" stroke="#46474D" stroke-width=".188" stroke-miterlimit="10" d="M135.848 66.593a1.363 1.363 0 0 0 1.366 1.354 1.352 1.352 0 0 0 1.352-1.358 1.362 1.362 0 0 0-1.36-1.358c-.741.01-1.352.61-1.358 1.362z"/><path fill="#4CFF3A" stroke="#46474D" stroke-width=".188" stroke-miterlimit="10" d="M133.139 66.599a1.361 1.361 0 0 0 1.357 1.354 1.358 1.358 0 0 0 1.352-1.36 1.347 1.347 0 0 0-1.351-1.354 1.356 1.356 0 0 0-1.358 1.36z"/><path fill="#4CFF3A" stroke="#46474D" stroke-width=".188" stroke-miterlimit="10" d="M130.429 66.601a1.355 1.355 0 0 0 2.71-.002 1.352 1.352 0 0 0-1.359-1.36 1.349 1.349 0 0 0-1.351 1.362zM153.532 59.207a1.356 1.356 0 0 0 1.361 1.349 1.343 1.343 0 0 0 1.348-1.356c.001-.748-.605-1.352-1.353-1.351s-1.352.608-1.356 1.358zM150.818 59.204a1.364 1.364 0 0 0 1.357 1.358 1.352 1.352 0 0 0 1.356-1.355 1.357 1.357 0 0 0-1.359-1.359 1.366 1.366 0 0 0-1.354 1.356z"/><path fill="#4CFF3A" stroke="#46474D" stroke-width=".188" stroke-miterlimit="10" d="M148.104 59.208a1.363 1.363 0 0 0 1.359 1.353c.753 0 1.363-.603 1.355-1.357a1.356 1.356 0 1 0-2.714.004zM152.178 61.655a1.348 1.348 0 0 0 1.354 1.35 1.352 1.352 0 0 0 1.361-1.352c0-.754-.614-1.353-1.364-1.357a1.361 1.361 0 0 0-1.351 1.359z"/><path fill="#4CFF3A" stroke="#46474D" stroke-width=".188" stroke-miterlimit="10" d="M149.463 61.654a1.362 1.362 0 0 0 1.365 1.359 1.359 1.359 0 0 0-.011-2.716 1.362 1.362 0 0 0-1.354 1.357z"/><path fill="#4CFF3A" stroke="#46474D" stroke-width=".188" stroke-miterlimit="10" d="M150.827 64.127a1.356 1.356 0 1 0 2.711-.006 1.36 1.36 0 0 0-1.36-1.352 1.36 1.36 0 0 0-1.351 1.358z"/><path fill="#4CFF3A" stroke="#46474D" stroke-width=".188" stroke-miterlimit="10" d="M148.114 64.129c0 .748.61 1.354 1.353 1.352a1.352 1.352 0 1 0 .002-2.704 1.34 1.34 0 0 0-1.355 1.352zM145.346 59.212a1.351 1.351 0 0 0 1.354 1.351 1.356 1.356 0 0 0 1.359-1.352 1.355 1.355 0 0 0-1.357-1.354c-.752-.005-1.36.6-1.356 1.355z"/><path fill="#4CFF3A" stroke="#46474D" stroke-width=".188" stroke-miterlimit="10" d="M142.631 59.211a1.359 1.359 0 0 0 1.359 1.36 1.366 1.366 0 0 0 1.356-1.359 1.361 1.361 0 0 0-1.359-1.356 1.355 1.355 0 0 0-1.356 1.355z"/><path fill="#4CFF3A" stroke="#46474D" stroke-width=".188" stroke-miterlimit="10" d="M139.92 59.22a1.36 1.36 0 0 0 1.355 1.354c.752 0 1.358-.605 1.355-1.363.006-.75-.609-1.347-1.356-1.352a1.36 1.36 0 0 0-1.354 1.361z"/><path fill="#4CFF3A" stroke="#46474D" stroke-width=".188" stroke-miterlimit="10" d="M137.209 59.221a1.355 1.355 0 0 0 1.358 1.351 1.358 1.358 0 0 0 1.354-1.353 1.346 1.346 0 0 0-1.354-1.354 1.35 1.35 0 0 0-1.358 1.356z"/><path fill="#4CFF3A" stroke="#46474D" stroke-width=".188" stroke-miterlimit="10" d="M134.493 59.221a1.363 1.363 0 0 0 1.36 1.352 1.352 1.352 0 1 0-.001-2.706 1.359 1.359 0 0 0-1.359 1.354z"/><path fill="#4CFF3A" stroke="#46474D" stroke-width=".188" stroke-miterlimit="10" d="M131.783 59.227a1.356 1.356 0 0 0 1.354 1.354 1.36 1.36 0 0 0 1.356-1.36 1.351 1.351 0 0 0-1.356-1.354 1.354 1.354 0 0 0-1.354 1.36z"/><path fill="#4CFF3A" stroke="#46474D" stroke-width=".188" stroke-miterlimit="10" d="M129.069 59.231a1.359 1.359 0 0 0 1.357 1.35 1.348 1.348 0 0 0 1.356-1.354 1.36 1.36 0 0 0-1.356-1.358 1.363 1.363 0 0 0-1.357 1.362zM146.702 61.655a1.366 1.366 0 0 0 1.354 1.367 1.372 1.372 0 0 0 1.361-1.365c0-.749-.61-1.354-1.36-1.351a1.351 1.351 0 0 0-1.355 1.349z"/><path fill="#4CFF3A" stroke="#46474D" stroke-width=".188" stroke-miterlimit="10" d="M143.99 61.66c.005.753.606 1.36 1.354 1.362a1.372 1.372 0 0 0 1.359-1.367 1.352 1.352 0 0 0-1.355-1.349 1.353 1.353 0 0 0-1.358 1.354z"/><path fill="#4CFF3A" stroke="#46474D" stroke-width=".188" stroke-miterlimit="10" d="M141.279 61.671a1.347 1.347 0 0 0 1.356 1.346 1.344 1.344 0 0 0 1.354-1.357 1.35 1.35 0 0 0-1.361-1.35 1.347 1.347 0 0 0-1.349 1.361z"/><path fill="#4CFF3A" stroke="#46474D" stroke-width=".188" stroke-miterlimit="10" d="M138.565 61.667a1.358 1.358 0 0 0 1.359 1.353 1.351 1.351 0 0 0 1.355-1.349 1.361 1.361 0 0 0-1.362-1.363 1.36 1.36 0 0 0-1.352 1.359z"/><path fill="#4CFF3A" stroke="#46474D" stroke-width=".188" stroke-miterlimit="10" d="M135.848 61.672a1.363 1.363 0 0 0 1.366 1.354 1.352 1.352 0 0 0 1.352-1.359 1.362 1.362 0 0 0-1.36-1.358 1.377 1.377 0 0 0-1.358 1.363z"/><path fill="#4CFF3A" stroke="#46474D" stroke-width=".188" stroke-miterlimit="10" d="M133.139 61.677a1.361 1.361 0 0 0 1.357 1.354 1.358 1.358 0 0 0 1.352-1.36 1.347 1.347 0 0 0-1.351-1.354 1.357 1.357 0 0 0-1.358 1.36z"/><path fill="#4CFF3A" stroke="#46474D" stroke-width=".188" stroke-miterlimit="10" d="M130.429 61.679a1.355 1.355 0 0 0 2.71-.001 1.353 1.353 0 0 0-1.359-1.361 1.349 1.349 0 0 0-1.351 1.362zM145.345 64.128a1.357 1.357 0 1 0 1.36-1.359 1.366 1.366 0 0 0-1.36 1.359z"/><path fill="#4CFF3A" stroke="#46474D" stroke-width=".188" stroke-miterlimit="10" d="M142.634 64.135c.006.75.607 1.357 1.359 1.361a1.362 1.362 0 0 0 1.352-1.368 1.353 1.353 0 0 0-1.349-1.352 1.362 1.362 0 0 0-1.362 1.359z"/><path fill="#4CFF3A" stroke="#46474D" stroke-width=".188" stroke-miterlimit="10" d="M139.922 64.137a1.355 1.355 0 0 0 1.355 1.352 1.345 1.345 0 0 0 1.357-1.354c0-.749-.607-1.357-1.357-1.361a1.37 1.37 0 0 0-1.355 1.363z"/><path fill="#4CFF3A" stroke="#46474D" stroke-width=".188" stroke-miterlimit="10" d="M137.213 64.145a1.353 1.353 0 0 0 1.354 1.352 1.358 1.358 0 0 0 1.355-1.36c0-.748-.609-1.358-1.358-1.353a1.352 1.352 0 0 0-1.351 1.361z"/><path fill="#4CFF3A" stroke="#46474D" stroke-width=".188" stroke-miterlimit="10" d="M134.5 64.145a1.354 1.354 0 0 0 1.36 1.354 1.363 1.363 0 0 0 1.353-1.354 1.349 1.349 0 0 0-1.356-1.355 1.348 1.348 0 0 0-1.357 1.355z"/><path fill="#4CFF3A" stroke="#46474D" stroke-width=".188" stroke-miterlimit="10" d="M131.789 64.143c.004.751.61 1.357 1.356 1.361a1.363 1.363 0 0 0 1.355-1.358 1.354 1.354 0 0 0-1.356-1.353 1.345 1.345 0 0 0-1.355 1.35z"/><path fill="#4CFF3A" stroke="#46474D" stroke-width=".188" stroke-miterlimit="10" d="M129.079 64.151a1.359 1.359 0 0 0 1.354 1.35 1.347 1.347 0 0 0 1.356-1.358 1.358 1.358 0 0 0-1.362-1.355c-.75 0-1.346.608-1.348 1.363zM127.713 56.712a1.346 1.346 0 0 0 1.358 1.353 1.35 1.35 0 0 0 1.353-1.361 1.349 1.349 0 0 0-1.356-1.35 1.354 1.354 0 0 0-1.355 1.358z"/><path fill="#4CFF3A" stroke="#46474D" stroke-width=".188" stroke-miterlimit="10" d="M125.004 56.712a1.355 1.355 0 0 0 2.709 0 1.362 1.362 0 0 0-1.36-1.361 1.359 1.359 0 0 0-1.349 1.361zM122.287 56.712a1.36 1.36 0 0 0 1.359 1.362c.748 0 1.356-.617 1.358-1.362a1.364 1.364 0 0 0-1.36-1.353 1.363 1.363 0 0 0-1.357 1.353z"/><path fill="#4CFF3A" stroke="#46474D" stroke-width=".188" stroke-miterlimit="10" d="M119.577 56.721a1.36 1.36 0 0 0 1.357 1.352 1.361 1.361 0 0 0 1.353-1.361 1.359 1.359 0 0 0-1.356-1.352 1.35 1.35 0 0 0-1.354 1.361z"/><path fill="#4CFF3A" stroke="#46474D" stroke-width=".188" stroke-miterlimit="10" d="M116.862 56.724a1.354 1.354 0 0 0 1.358 1.35 1.348 1.348 0 0 0 1.356-1.352 1.356 1.356 0 0 0-1.362-1.356 1.35 1.35 0 0 0-1.352 1.358zM126.358 49.343a1.346 1.346 0 0 0 1.349 1.351 1.344 1.344 0 0 0 1.354-1.358 1.348 1.348 0 0 0-1.355-1.355 1.36 1.36 0 0 0-1.348 1.362z"/><path fill="#4CFF3A" stroke="#46474D" stroke-width=".188" stroke-miterlimit="10" d="M123.646 49.342A1.357 1.357 0 0 0 125 50.696a1.366 1.366 0 0 0 1.359-1.353c0-.75-.62-1.36-1.359-1.354a1.34 1.34 0 0 0-1.354 1.353z"/><path fill="#4CFF3A" stroke="#46474D" stroke-width=".188" stroke-miterlimit="10" d="M120.927 49.345c0 .744.611 1.351 1.363 1.357.743 0 1.354-.617 1.355-1.36a1.357 1.357 0 0 0-1.359-1.351 1.35 1.35 0 0 0-1.359 1.354zM127.713 51.791a1.347 1.347 0 0 0 1.358 1.353 1.35 1.35 0 0 0 1.353-1.36 1.35 1.35 0 0 0-1.356-1.351c-.748 0-1.357.603-1.355 1.358z"/><path fill="#4CFF3A" stroke="#46474D" stroke-width=".188" stroke-miterlimit="10" d="M125.004 51.79a1.35 1.35 0 0 0 1.354 1.354 1.354 1.354 0 0 0 1.355-1.353 1.362 1.362 0 0 0-1.36-1.361 1.358 1.358 0 0 0-1.349 1.36z"/><path fill="#4CFF3A" stroke="#46474D" stroke-width=".188" stroke-miterlimit="10" d="M122.287 51.79a1.36 1.36 0 0 0 1.359 1.362c.748 0 1.356-.616 1.358-1.362a1.364 1.364 0 0 0-1.36-1.353 1.363 1.363 0 0 0-1.357 1.353z"/><path fill="#4CFF3A" stroke="#46474D" stroke-width=".188" stroke-miterlimit="10" d="M119.577 51.799a1.36 1.36 0 0 0 1.357 1.352 1.361 1.361 0 0 0 1.353-1.361 1.36 1.36 0 0 0-1.356-1.352 1.352 1.352 0 0 0-1.354 1.361zM126.361 54.266a1.342 1.342 0 0 0 1.352 1.345 1.343 1.343 0 0 0 1.356-1.353c0-.75-.605-1.355-1.359-1.348a1.343 1.343 0 0 0-1.349 1.356z"/><path fill="#4CFF3A" stroke="#46474D" stroke-width=".188" stroke-miterlimit="10" d="M123.645 54.258a1.354 1.354 0 0 0 1.36 1.357c.747 0 1.354-.605 1.356-1.349a1.361 1.361 0 0 0-1.361-1.36 1.357 1.357 0 0 0-1.355 1.352z"/><path fill="#4CFF3A" stroke="#46474D" stroke-width=".188" stroke-miterlimit="10" d="M120.933 54.266a1.36 1.36 0 0 0 1.361 1.355 1.35 1.35 0 0 0 1.35-1.364 1.351 1.351 0 0 0-1.353-1.347 1.36 1.36 0 0 0-1.358 1.356z"/><path fill="#4CFF3A" stroke="#46474D" stroke-width=".188" stroke-miterlimit="10" d="M118.217 54.27a1.364 1.364 0 0 0 1.369 1.353c.744 0 1.354-.604 1.348-1.356a1.354 1.354 0 0 0-1.355-1.353 1.362 1.362 0 0 0-1.362 1.356zM154.894 56.731a1.359 1.359 0 0 0 1.353 1.355 1.355 1.355 0 0 0 1.354-1.357 1.352 1.352 0 0 0-1.354-1.359 1.351 1.351 0 0 0-1.353 1.361z"/><path fill="#4CFF3A" stroke="#46474D" stroke-width=".188" stroke-miterlimit="10" d="M152.178 56.733a1.35 1.35 0 0 0 1.354 1.351 1.352 1.352 0 0 0 1.361-1.352c0-.754-.614-1.354-1.364-1.358a1.362 1.362 0 0 0-1.351 1.359z"/><path fill="#4CFF3A" stroke="#46474D" stroke-width=".188" stroke-miterlimit="10" d="M149.463 56.732a1.362 1.362 0 0 0 1.365 1.359 1.354 1.354 0 0 0 1.35-1.358c.006-.749-.61-1.353-1.361-1.358a1.362 1.362 0 0 0-1.354 1.357zM146.702 56.733a1.366 1.366 0 0 0 1.354 1.367 1.372 1.372 0 0 0 1.361-1.365c0-.748-.61-1.354-1.36-1.35a1.35 1.35 0 0 0-1.355 1.348z"/><path fill="#4CFF3A" stroke="#46474D" stroke-width=".188" stroke-miterlimit="10" d="M143.99 56.738c.005.753.606 1.36 1.354 1.362a1.372 1.372 0 0 0 1.359-1.367 1.35 1.35 0 0 0-1.355-1.348 1.351 1.351 0 0 0-1.358 1.353z"/><path fill="#4CFF3A" stroke="#46474D" stroke-width=".188" stroke-miterlimit="10" d="M141.279 56.75a1.348 1.348 0 0 0 1.356 1.346 1.345 1.345 0 0 0 1.354-1.358 1.35 1.35 0 0 0-1.361-1.35 1.347 1.347 0 0 0-1.349 1.362z"/><path fill="#4CFF3A" stroke="#46474D" stroke-width=".188" stroke-miterlimit="10" d="M138.565 56.746a1.358 1.358 0 0 0 1.359 1.353 1.352 1.352 0 0 0 1.355-1.349 1.36 1.36 0 0 0-1.362-1.363 1.36 1.36 0 0 0-1.352 1.359z"/><path fill="#4CFF3A" stroke="#46474D" stroke-width=".188" stroke-miterlimit="10" d="M135.848 56.75a1.363 1.363 0 0 0 1.366 1.354 1.352 1.352 0 0 0 1.352-1.359 1.362 1.362 0 0 0-1.36-1.358 1.378 1.378 0 0 0-1.358 1.363z"/><path fill="#4CFF3A" stroke="#46474D" stroke-width=".188" stroke-miterlimit="10" d="M133.139 56.755a1.361 1.361 0 0 0 1.357 1.354 1.358 1.358 0 0 0 1.352-1.36 1.347 1.347 0 0 0-1.351-1.354 1.357 1.357 0 0 0-1.358 1.36z"/><path fill="#4CFF3A" stroke="#46474D" stroke-width=".188" stroke-miterlimit="10" d="M130.429 56.757a1.355 1.355 0 0 0 2.71-.002 1.352 1.352 0 0 0-1.359-1.36 1.35 1.35 0 0 0-1.351 1.362zM153.532 49.364a1.357 1.357 0 0 0 1.361 1.349 1.343 1.343 0 0 0 1.348-1.356 1.35 1.35 0 0 0-1.353-1.351 1.36 1.36 0 0 0-1.356 1.358zM150.818 49.361a1.364 1.364 0 0 0 1.357 1.358 1.352 1.352 0 0 0 1.356-1.355 1.357 1.357 0 0 0-1.359-1.359 1.366 1.366 0 0 0-1.354 1.356z"/><path fill="#4CFF3A" stroke="#46474D" stroke-width=".188" stroke-miterlimit="10" d="M148.104 49.365a1.363 1.363 0 0 0 1.359 1.353c.753 0 1.363-.603 1.355-1.357a1.357 1.357 0 0 0-1.357-1.356c-.747 0-1.353.611-1.357 1.36zM154.894 51.81a1.36 1.36 0 0 0 1.353 1.356 1.356 1.356 0 0 0 1.354-1.358 1.35 1.35 0 0 0-1.354-1.358 1.348 1.348 0 0 0-1.353 1.36z"/><path fill="#4CFF3A" stroke="#46474D" stroke-width=".188" stroke-miterlimit="10" d="M152.178 51.812a1.348 1.348 0 0 0 1.354 1.35 1.352 1.352 0 0 0 1.361-1.352c0-.754-.614-1.354-1.364-1.357a1.361 1.361 0 0 0-1.351 1.359z"/><path fill="#4CFF3A" stroke="#46474D" stroke-width=".188" stroke-miterlimit="10" d="M149.463 51.81a1.362 1.362 0 0 0 1.365 1.359 1.359 1.359 0 0 0-.011-2.716 1.363 1.363 0 0 0-1.354 1.357zM153.539 54.277a1.36 1.36 0 0 0 1.355 1.36 1.346 1.346 0 0 0 1.353-1.358 1.354 1.354 0 1 0-2.708-.002z"/><path fill="#4CFF3A" stroke="#46474D" stroke-width=".188" stroke-miterlimit="10" d="M150.827 54.284a1.356 1.356 0 1 0 2.711-.007 1.36 1.36 0 0 0-1.36-1.352 1.362 1.362 0 0 0-1.351 1.359z"/><path fill="#4CFF3A" stroke="#46474D" stroke-width=".188" stroke-miterlimit="10" d="M148.114 54.286c0 .748.61 1.354 1.353 1.352a1.352 1.352 0 1 0 .002-2.704 1.34 1.34 0 0 0-1.355 1.352zM145.346 49.369a1.351 1.351 0 0 0 1.354 1.351 1.356 1.356 0 0 0 1.359-1.352 1.355 1.355 0 0 0-1.357-1.354c-.752-.005-1.36.6-1.356 1.355z"/><path fill="#4CFF3A" stroke="#46474D" stroke-width=".188" stroke-miterlimit="10" d="M142.631 49.368a1.359 1.359 0 0 0 1.359 1.36 1.366 1.366 0 0 0 1.356-1.359 1.36 1.36 0 0 0-1.359-1.356 1.354 1.354 0 0 0-1.356 1.355z"/><path fill="#4CFF3A" stroke="#46474D" stroke-width=".188" stroke-miterlimit="10" d="M139.92 49.376a1.36 1.36 0 0 0 1.355 1.354c.752 0 1.358-.606 1.355-1.363a1.353 1.353 0 0 0-1.356-1.353 1.362 1.362 0 0 0-1.354 1.362z"/><path fill="#4CFF3A" stroke="#46474D" stroke-width=".188" stroke-miterlimit="10" d="M137.209 49.378a1.356 1.356 0 0 0 2.712-.001 1.346 1.346 0 0 0-1.354-1.354 1.348 1.348 0 0 0-1.358 1.355z"/><path fill="#4CFF3A" stroke="#46474D" stroke-width=".188" stroke-miterlimit="10" d="M134.493 49.378a1.359 1.359 0 0 0 2.716 0 1.352 1.352 0 0 0-1.357-1.354 1.358 1.358 0 0 0-1.359 1.354z"/><path fill="#4CFF3A" stroke="#46474D" stroke-width=".188" stroke-miterlimit="10" d="M131.783 49.384c.001.748.607 1.35 1.354 1.354a1.36 1.36 0 0 0 1.356-1.36 1.351 1.351 0 0 0-1.356-1.354 1.353 1.353 0 0 0-1.354 1.36z"/><path fill="#4CFF3A" stroke="#46474D" stroke-width=".188" stroke-miterlimit="10" d="M129.069 49.387a1.36 1.36 0 0 0 1.357 1.351 1.35 1.35 0 0 0 1.356-1.354 1.36 1.36 0 0 0-1.356-1.358 1.362 1.362 0 0 0-1.357 1.361zM146.702 51.812a1.366 1.366 0 0 0 1.354 1.367 1.372 1.372 0 0 0 1.361-1.365c0-.748-.61-1.354-1.36-1.35a1.349 1.349 0 0 0-1.355 1.348z"/><path fill="#4CFF3A" stroke="#46474D" stroke-width=".188" stroke-miterlimit="10" d="M143.99 51.816c.005.753.606 1.36 1.354 1.362a1.372 1.372 0 0 0 1.359-1.367 1.352 1.352 0 0 0-1.355-1.349 1.353 1.353 0 0 0-1.358 1.354z"/><path fill="#4CFF3A" stroke="#46474D" stroke-width=".188" stroke-miterlimit="10" d="M141.279 51.828a1.347 1.347 0 0 0 1.356 1.346 1.344 1.344 0 0 0 1.354-1.357 1.35 1.35 0 0 0-1.361-1.351 1.347 1.347 0 0 0-1.349 1.362z"/><path fill="#4CFF3A" stroke="#46474D" stroke-width=".188" stroke-miterlimit="10" d="M138.565 51.824a1.358 1.358 0 0 0 1.359 1.353 1.351 1.351 0 0 0 1.355-1.349 1.36 1.36 0 0 0-1.362-1.363 1.36 1.36 0 0 0-1.352 1.359z"/><path fill="#4CFF3A" stroke="#46474D" stroke-width=".188" stroke-miterlimit="10" d="M135.848 51.828a1.363 1.363 0 0 0 1.366 1.354 1.352 1.352 0 0 0 1.352-1.358 1.362 1.362 0 0 0-1.36-1.358c-.741.01-1.352.61-1.358 1.362z"/><path fill="#4CFF3A" stroke="#46474D" stroke-width=".188" stroke-miterlimit="10" d="M133.139 51.834a1.361 1.361 0 0 0 1.357 1.354 1.358 1.358 0 0 0 1.352-1.36 1.347 1.347 0 0 0-1.351-1.354 1.356 1.356 0 0 0-1.358 1.36z"/><path fill="#4CFF3A" stroke="#46474D" stroke-width=".188" stroke-miterlimit="10" d="M130.429 51.835a1.355 1.355 0 0 0 2.71-.002 1.353 1.353 0 0 0-1.359-1.361 1.351 1.351 0 0 0-1.351 1.363zM145.345 54.285a1.358 1.358 0 1 0 1.36-1.359 1.366 1.366 0 0 0-1.36 1.359z"/><path fill="#4CFF3A" stroke="#46474D" stroke-width=".188" stroke-miterlimit="10" d="M142.634 54.292c.006.75.607 1.357 1.359 1.361a1.362 1.362 0 0 0 1.352-1.368 1.353 1.353 0 0 0-1.349-1.352 1.362 1.362 0 0 0-1.362 1.359z"/><path fill="#4CFF3A" stroke="#46474D" stroke-width=".188" stroke-miterlimit="10" d="M139.922 54.293a1.355 1.355 0 0 0 1.355 1.352 1.346 1.346 0 0 0 1.357-1.354c0-.749-.607-1.357-1.357-1.362a1.372 1.372 0 0 0-1.355 1.364z"/><path fill="#4CFF3A" stroke="#46474D" stroke-width=".188" stroke-miterlimit="10" d="M137.213 54.301a1.353 1.353 0 0 0 1.354 1.352 1.358 1.358 0 0 0-.003-2.714c-.744 0-1.354.607-1.351 1.362z"/><path fill="#4CFF3A" stroke="#46474D" stroke-width=".188" stroke-miterlimit="10" d="M134.5 54.302a1.354 1.354 0 0 0 1.36 1.354 1.363 1.363 0 0 0 1.353-1.354 1.349 1.349 0 0 0-1.356-1.355 1.347 1.347 0 0 0-1.357 1.355z"/><path fill="#4CFF3A" stroke="#46474D" stroke-width=".188" stroke-miterlimit="10" d="M131.789 54.299c.004.751.61 1.357 1.356 1.361a1.363 1.363 0 0 0 1.355-1.358 1.354 1.354 0 0 0-1.356-1.353 1.345 1.345 0 0 0-1.355 1.35z"/><path fill="#4CFF3A" stroke="#46474D" stroke-width=".188" stroke-miterlimit="10" d="M129.079 54.308a1.36 1.36 0 0 0 1.354 1.35 1.347 1.347 0 0 0 1.356-1.358 1.358 1.358 0 0 0-1.362-1.355c-.75 0-1.346.607-1.348 1.363zM127.713 46.869a1.346 1.346 0 0 0 1.358 1.353 1.348 1.348 0 0 0 1.353-1.36 1.349 1.349 0 0 0-1.356-1.35c-.748 0-1.357.602-1.355 1.357z"/><path fill="#4CFF3A" stroke="#46474D" stroke-width=".188" stroke-miterlimit="10" d="M125.004 46.869a1.355 1.355 0 0 0 2.709 0 1.362 1.362 0 0 0-1.36-1.361 1.359 1.359 0 0 0-1.349 1.361zM122.287 46.869a1.36 1.36 0 0 0 1.359 1.362 1.368 1.368 0 0 0 1.358-1.362 1.364 1.364 0 0 0-1.36-1.353 1.363 1.363 0 0 0-1.357 1.353zM126.361 44.423a1.343 1.343 0 0 0 1.352 1.345 1.344 1.344 0 0 0 1.356-1.353c0-.75-.605-1.355-1.359-1.348a1.343 1.343 0 0 0-1.349 1.356zM152.178 46.89a1.35 1.35 0 0 0 1.354 1.351 1.353 1.353 0 0 0 1.361-1.353c0-.754-.614-1.353-1.364-1.357a1.361 1.361 0 0 0-1.351 1.359z"/><path fill="#4CFF3A" stroke="#46474D" stroke-width=".188" stroke-miterlimit="10" d="M149.463 46.889a1.362 1.362 0 0 0 1.365 1.359 1.354 1.354 0 0 0 1.35-1.358c.006-.75-.61-1.353-1.361-1.358a1.362 1.362 0 0 0-1.354 1.357zM146.702 46.89a1.366 1.366 0 0 0 1.354 1.367 1.372 1.372 0 0 0 1.361-1.365c0-.749-.61-1.354-1.36-1.351a1.351 1.351 0 0 0-1.355 1.349z"/><path fill="#4CFF3A" stroke="#46474D" stroke-width=".188" stroke-miterlimit="10" d="M143.99 46.895c.005.753.606 1.36 1.354 1.362a1.372 1.372 0 0 0 1.359-1.367 1.352 1.352 0 0 0-1.355-1.349 1.353 1.353 0 0 0-1.358 1.354z"/><path fill="#4CFF3A" stroke="#46474D" stroke-width=".188" stroke-miterlimit="10" d="M141.279 46.906a1.348 1.348 0 0 0 1.356 1.346 1.344 1.344 0 0 0 1.354-1.357 1.35 1.35 0 0 0-1.361-1.35 1.346 1.346 0 0 0-1.349 1.361z"/><path fill="#4CFF3A" stroke="#46474D" stroke-width=".188" stroke-miterlimit="10" d="M138.565 46.902a1.358 1.358 0 0 0 1.359 1.353 1.351 1.351 0 0 0 1.355-1.349 1.36 1.36 0 0 0-1.362-1.363 1.36 1.36 0 0 0-1.352 1.359z"/><path fill="#4CFF3A" stroke="#46474D" stroke-width=".188" stroke-miterlimit="10" d="M135.848 46.907a1.363 1.363 0 0 0 1.366 1.354 1.352 1.352 0 0 0 1.352-1.359 1.362 1.362 0 0 0-1.36-1.358 1.377 1.377 0 0 0-1.358 1.363z"/><path fill="#4CFF3A" stroke="#46474D" stroke-width=".188" stroke-miterlimit="10" d="M133.139 46.912a1.361 1.361 0 0 0 1.357 1.354 1.358 1.358 0 0 0 1.352-1.36 1.347 1.347 0 0 0-1.351-1.354 1.357 1.357 0 0 0-1.358 1.36z"/><path fill="#4CFF3A" stroke="#46474D" stroke-width=".188" stroke-miterlimit="10" d="M130.429 46.914a1.355 1.355 0 0 0 2.71-.002 1.353 1.353 0 0 0-1.359-1.361 1.35 1.35 0 0 0-1.351 1.363zM148.104 39.521a1.364 1.364 0 0 0 1.359 1.354c.753 0 1.363-.604 1.355-1.357a1.357 1.357 0 0 0-1.357-1.356c-.747 0-1.353.611-1.357 1.359zM149.463 41.967a1.362 1.362 0 0 0 1.365 1.359 1.354 1.354 0 0 0 1.35-1.358c.006-.749-.61-1.353-1.361-1.358a1.362 1.362 0 0 0-1.354 1.357zM150.827 44.44a1.356 1.356 0 1 0 2.711-.007 1.36 1.36 0 0 0-1.36-1.352 1.362 1.362 0 0 0-1.351 1.359z"/><path fill="#4CFF3A" stroke="#46474D" stroke-width=".188" stroke-miterlimit="10" d="M148.114 44.442c0 .748.61 1.354 1.353 1.352a1.352 1.352 0 1 0 .002-2.704 1.34 1.34 0 0 0-1.355 1.352zM145.346 39.525a1.351 1.351 0 0 0 1.354 1.351 1.356 1.356 0 0 0 1.359-1.352 1.355 1.355 0 0 0-1.357-1.354 1.345 1.345 0 0 0-1.356 1.355z"/><path fill="#4CFF3A" stroke="#46474D" stroke-width=".188" stroke-miterlimit="10" d="M142.631 39.524a1.358 1.358 0 0 0 1.359 1.36 1.365 1.365 0 0 0 1.356-1.358 1.36 1.36 0 0 0-1.359-1.356 1.354 1.354 0 0 0-1.356 1.354z"/><path fill="#4CFF3A" stroke="#46474D" stroke-width=".188" stroke-miterlimit="10" d="M139.92 39.533a1.36 1.36 0 0 0 1.355 1.354c.752 0 1.358-.606 1.355-1.363.006-.75-.609-1.347-1.356-1.352a1.36 1.36 0 0 0-1.354 1.361z"/><path fill="#4CFF3A" stroke="#46474D" stroke-width=".188" stroke-miterlimit="10" d="M137.209 39.534a1.357 1.357 0 0 0 2.712-.001 1.346 1.346 0 0 0-1.354-1.354 1.35 1.35 0 0 0-1.358 1.355zM146.702 41.968a1.366 1.366 0 0 0 1.354 1.367 1.372 1.372 0 0 0 1.361-1.365c0-.748-.61-1.354-1.36-1.35a1.35 1.35 0 0 0-1.355 1.348z"/><path fill="#4CFF3A" stroke="#46474D" stroke-width=".188" stroke-miterlimit="10" d="M143.99 41.973c.005.753.606 1.36 1.354 1.363a1.373 1.373 0 0 0 1.359-1.368 1.35 1.35 0 0 0-1.355-1.348 1.351 1.351 0 0 0-1.358 1.353z"/><path fill="#4CFF3A" stroke="#46474D" stroke-width=".188" stroke-miterlimit="10" d="M141.279 41.984a1.348 1.348 0 0 0 1.356 1.346 1.345 1.345 0 0 0 1.354-1.358 1.35 1.35 0 0 0-1.361-1.35 1.349 1.349 0 0 0-1.349 1.362z"/><path fill="#4CFF3A" stroke="#46474D" stroke-width=".188" stroke-miterlimit="10" d="M138.565 41.98a1.358 1.358 0 0 0 2.714.004 1.36 1.36 0 0 0-1.362-1.363 1.361 1.361 0 0 0-1.352 1.359z"/><path fill="#4CFF3A" stroke="#46474D" stroke-width=".188" stroke-miterlimit="10" d="M135.848 41.985a1.363 1.363 0 0 0 1.366 1.354 1.352 1.352 0 0 0 1.352-1.359 1.362 1.362 0 0 0-1.36-1.358 1.377 1.377 0 0 0-1.358 1.363z"/><path fill="#4CFF3A" stroke="#46474D" stroke-width=".188" stroke-miterlimit="10" d="M133.139 41.99a1.361 1.361 0 0 0 1.357 1.354 1.358 1.358 0 0 0 1.352-1.36 1.347 1.347 0 0 0-1.351-1.354 1.357 1.357 0 0 0-1.358 1.36z"/><path fill="#4CFF3A" stroke="#46474D" stroke-width=".188" stroke-miterlimit="10" d="M130.429 41.992a1.355 1.355 0 0 0 2.71-.002 1.352 1.352 0 0 0-1.359-1.36 1.35 1.35 0 0 0-1.351 1.362zM145.345 44.441a1.358 1.358 0 1 0 1.36-1.358 1.366 1.366 0 0 0-1.36 1.358z"/><path fill="#4CFF3A" stroke="#46474D" stroke-width=".188" stroke-miterlimit="10" d="M142.634 44.448c.006.75.607 1.357 1.359 1.361a1.362 1.362 0 0 0 1.352-1.368 1.354 1.354 0 0 0-1.349-1.352 1.362 1.362 0 0 0-1.362 1.359z"/><path fill="#4CFF3A" stroke="#46474D" stroke-width=".188" stroke-miterlimit="10" d="M139.922 44.45a1.354 1.354 0 0 0 1.355 1.351 1.345 1.345 0 0 0 1.357-1.353c0-.749-.607-1.357-1.357-1.362a1.372 1.372 0 0 0-1.355 1.364z"/><path fill="#4CFF3A" stroke="#46474D" stroke-width=".188" stroke-miterlimit="10" d="M137.213 44.458a1.354 1.354 0 1 0 2.709-.008 1.353 1.353 0 1 0-2.709.008z"/><path fill="#4CFF3A" stroke="#46474D" stroke-width=".188" stroke-miterlimit="10" d="M134.5 44.458a1.354 1.354 0 0 0 1.36 1.354 1.363 1.363 0 0 0 1.353-1.354 1.348 1.348 0 0 0-1.356-1.355 1.348 1.348 0 0 0-1.357 1.355z"/><path fill="#4CFF3A" stroke="#46474D" stroke-width=".188" stroke-miterlimit="10" d="M131.789 44.456c.004.751.61 1.357 1.356 1.36a1.363 1.363 0 0 0 1.355-1.358 1.353 1.353 0 0 0-1.356-1.353 1.346 1.346 0 0 0-1.355 1.351z"/><path fill="#4CFF3A" stroke="#46474D" stroke-width=".188" stroke-miterlimit="10" d="M129.079 44.464a1.359 1.359 0 0 0 1.354 1.35 1.347 1.347 0 0 0 1.356-1.358 1.358 1.358 0 0 0-1.362-1.355 1.353 1.353 0 0 0-1.348 1.363z"/></svg>