<?xml version="1.0" encoding="UTF-8" standalone="no"?>
<!-- Created with Inkscape (http://www.inkscape.org/) -->

<svg
   width="123.21011mm"
   height="34.50193mm"
   viewBox="0 0 123.21011 34.50193"
   version="1.1"
   id="svg2387"
   inkscape:version="1.1.1 (3bf5ae0d25, 2021-09-20)"
   sodipodi:docname="taba-na-rowerze-footer.svg"
   xmlns:inkscape="http://www.inkscape.org/namespaces/inkscape"
   xmlns:sodipodi="http://sodipodi.sourceforge.net/DTD/sodipodi-0.dtd"
   xmlns="http://www.w3.org/2000/svg"
   xmlns:svg="http://www.w3.org/2000/svg">
  <sodipodi:namedview
     id="namedview2389"
     pagecolor="#ffffff"
     bordercolor="#666666"
     borderopacity="1.0"
     inkscape:pageshadow="2"
     inkscape:pageopacity="0.0"
     inkscape:pagecheckerboard="0"
     inkscape:document-units="mm"
     showgrid="false"
     inkscape:zoom="0.77682379"
     inkscape:cx="390.04984"
     inkscape:cy="158.98071"
     inkscape:window-width="1849"
     inkscape:window-height="1057"
     inkscape:window-x="-8"
     inkscape:window-y="1072"
     inkscape:window-maximized="1"
     inkscape:current-layer="layer1" />
  <defs
     id="defs2384" />
  <g
     inkscape:label="Warstwa 1"
     inkscape:groupmode="layer"
     id="layer1"
     transform="translate(-1.7458645,-106.7261)">
    <polygon
       points="612.496,1409.632 192.879,1409.632 146.82,1474.836 192.877,1540.033 612.496,1540.033 "
       id="polygon23"
       transform="matrix(0.26458333,0,0,0.26458333,-37.10026,-266.23903)" />
    <polygon
       fill="#ffc246"
       points="612.496,1409.632 400.57,1409.632 354.51,1474.836 400.568,1540.033 612.496,1540.033 "
       id="polygon25"
       transform="matrix(0.26458333,0,0,0.26458333,-37.10026,-266.23903)" />
    <g
       id="LOGO_2_"
       transform="matrix(0.26458333,0,0,0.26458333,-37.10026,-266.23903)">
      <path
         fill-rule="evenodd"
         clip-rule="evenodd"
         fill="#ffffff"
         d="m 215.838,1463.529 c -1.596,2.101 -3.049,3.981 -4.447,5.899 -0.211,0.288 -0.168,0.76 -0.25,1.188 -0.814,0.398 -0.914,1.062 -0.631,2.014 0.547,1.876 1.109,3.776 1.346,5.705 0.35,2.829 0.473,5.766 -0.889,8.366 -3.688,7.045 -11.564,9.601 -17.715,4.474 -1.336,-1.116 -2.113,-2.63 -2.867,-4.149 -1.588,-3.197 -2.564,-6.545 -2.512,-10.156 0.082,-5.585 4.262,-11.007 9.471,-12.199 3.453,-0.789 6.461,0.305 9.236,2.29 0.223,0.157 0.436,0.318 0.707,0.519 2.955,-4.075 5.883,-8.117 8.85,-12.209 0.283,0.179 0.564,0.357 0.842,0.536 -0.574,-1.63 -2.137,-2.186 -3.352,-3.249 -0.719,0.71 -0.027,2.107 -1.346,2.401 -0.854,-0.532 -0.854,-0.532 -1.438,-2.349 -0.426,0.103 -0.836,0.198 -1.24,0.294 -0.486,-1.55 0.434,-2.916 1.918,-3.075 0.961,-0.104 1.912,-0.296 2.869,-0.445 0.105,-0.017 0.225,-0.043 0.311,-0.01 2.016,0.848 4.15,0.445 6.229,0.564 2.971,0.172 5.953,0.15 8.928,0.294 0.93,0.043 1.84,0.455 2.768,0.527 1.168,0.092 2.363,0.118 3.521,-0.03 2.152,-0.272 4.113,0.207 6.008,1.159 0.188,0.096 0.391,0.159 0.867,0.347 -0.182,-0.66 -0.289,-1.129 -0.443,-1.58 -0.094,-0.278 -0.357,-0.525 -0.375,-0.8 -0.041,-0.499 -0.154,-0.821 -0.723,-0.88 -0.094,-0.013 -0.227,-0.316 -0.229,-0.484 -0.002,-0.385 0.096,-0.773 0.107,-1.159 0.063,-1.978 0.52,-3.768 2.279,-4.968 0.223,-0.155 0.432,-0.335 0.643,-0.508 0.041,-0.033 0.068,-0.083 0.127,-0.155 -0.223,-0.244 -0.508,-0.459 -0.658,-0.75 -0.131,-0.259 -0.107,-0.599 -0.164,-0.98 2.619,0.29 5.115,0.545 7.322,1.858 0.43,0.255 0.727,0.792 0.994,1.249 0.824,1.403 0.92,2.826 0.178,4.336 -0.463,0.946 -0.729,1.987 -1.084,2.983 3.691,1.767 6.652,4.469 9.225,7.498 2.033,2.395 3.713,5.13 5.283,7.867 1.293,2.255 2.553,4.646 3.178,7.141 0.811,3.229 -0.27,6.263 -2.559,8.74 -0.721,0.781 -1.691,1.129 -2.803,1.153 -3.094,0.061 -6.17,-0.021 -9.33,-0.865 0.16,0.186 0.217,0.285 0.305,0.347 3.561,2.606 5.148,6.267 5.563,10.523 0.277,2.859 0.057,5.678 -0.977,8.39 -1.492,3.905 -4.219,6.509 -8.238,7.701 -3.49,1.035 -7.023,1.087 -10.508,0.048 -5.363,-1.602 -8.357,-5.438 -9.59,-10.737 -0.322,-1.388 -0.344,-2.866 -0.367,-4.304 -0.01,-0.702 -0.283,-0.861 -0.867,-0.983 -0.381,-0.081 -0.74,-0.331 -1.068,-0.564 -0.281,-0.199 -0.471,-0.628 -0.764,-0.698 -1.291,-0.298 -1.975,-1.281 -2.707,-2.229 -0.232,-0.305 -0.512,-0.58 -0.701,-0.909 -0.563,-0.974 -1.375,-1.386 -2.498,-1.327 -0.313,0.018 -0.684,-0.166 -0.951,-0.362 -1.727,-1.253 -3.461,-2.495 -5.123,-3.824 -0.928,-0.743 -1.781,-1.591 -1.957,-2.907 -0.131,-0.97 0.268,-2.046 1.186,-2.321 0.379,-0.115 1.018,0.103 1.326,0.395 0.727,0.688 1.59,0.756 2.482,0.859 0.703,0.081 1.402,0.218 2.107,0.296 0.908,0.102 1.156,-0.214 0.85,-1.079 -1.068,-3.007 -2.146,-6.01 -3.221,-9.015 -0.492,-1.388 -0.961,-2.788 -1.5,-4.158 -0.198,-0.506 -0.563,-0.946 -0.934,-1.545 z m 5.295,-8.239 c -0.277,1.31 -0.277,1.31 -1.057,2.417 -0.621,0.883 -0.514,1.994 0.27,2.704 3.215,2.918 6.432,5.836 9.646,8.75 1.168,1.059 2.34,2.112 3.559,3.208 0.107,-0.144 0.174,-0.229 0.24,-0.316 1.697,-2.288 3.813,-3.534 6.809,-3.07 2.525,0.393 5.137,0.177 7.605,1.002 1.346,0.451 2.684,0.917 4.029,1.357 0.605,0.198 1.229,0.349 1.84,0.523 0.053,-0.079 0.102,-0.16 0.152,-0.238 -0.432,-0.466 -0.848,-0.952 -1.301,-1.399 -2.17,-2.148 -4.375,-4.262 -6.514,-6.444 -0.65,-0.663 -1.168,-1.425 -2.199,-1.536 -0.209,-0.022 -0.408,-0.253 -0.586,-0.414 -1.285,-1.181 -2.551,-2.388 -3.857,-3.546 -0.283,-0.25 -0.695,-0.44 -1.068,-0.479 -3.283,-0.346 -6.58,-0.588 -9.678,-1.898 -0.211,-0.089 -0.514,0.033 -0.775,0.06 -0.473,0.048 -0.957,0.191 -1.416,0.135 -1.891,-0.239 -3.773,-0.536 -5.699,-0.816 z m -16.481,14.885 c -0.563,-0.46 -1.057,-0.979 -1.65,-1.325 -3.424,-1.996 -7.455,-0.946 -9.73,2.497 -3.383,5.117 -2.299,13.295 2.318,17.451 3.766,3.395 9.158,2.415 11.441,-2.107 1.33,-2.635 1.699,-5.459 1.395,-8.366 -0.113,-1.101 -0.408,-2.182 -0.619,-3.273 -0.879,0.885 -1.5,1.748 -2.133,2.602 -0.635,0.856 -1.318,1.678 -1.902,2.567 -0.26,0.397 -0.441,0.92 -0.455,1.393 -0.029,1.142 -0.98,1.828 -2.01,1.357 -1.258,1.189 -2.807,1.253 -4.115,0.167 -1.834,-1.517 -2.398,-4.005 -1.389,-6.156 0.508,-1.079 1.344,-1.722 2.553,-1.75 0.809,-0.017 1.619,0.065 2.543,0.109 1.169,-1.608 2.419,-3.329 3.753,-5.166 z m 34.577,24.842 c -1.135,1.048 -1.551,0.137 -2.064,-0.525 -0.033,-0.043 -0.061,-0.113 -0.104,-0.124 -0.367,-0.096 -0.738,-0.246 -1.105,-0.238 -0.145,0 -0.328,0.351 -0.406,0.571 -0.219,0.631 -0.557,0.982 -1.273,0.732 -0.137,-0.048 -0.299,-0.022 -0.57,-0.037 0.143,0.75 0.242,1.421 0.406,2.074 0.531,2.119 1.408,4.084 2.842,5.747 3.313,3.848 7.514,4.016 11.99,2.743 3.129,-0.891 5.326,-2.898 6.258,-6.041 1.135,-3.835 0.885,-7.621 -0.941,-11.218 -0.971,-1.907 -2.404,-3.413 -4.314,-4.484 -1.1,1.517 -2.164,2.985 -3.25,4.478 2.777,1.702 4.045,4.075 3.666,7.27 -0.379,3.197 -3.465,5.228 -6.525,4.229 -2.417,-0.788 -4.169,-2.243 -4.61,-5.177 z m 1.039,-12.12 c -2.08,1.05 -3.805,2.107 -4.98,4.018 1.213,0.65 2.303,1.231 3.094,1.652 1.105,-0.621 1.977,-1.107 3.082,-1.728 -0.351,-1.149 -0.751,-2.471 -1.196,-3.942 z m -0.313,-4.04 c -0.117,-0.316 -0.16,-0.806 -0.348,-0.87 -0.498,-0.161 -1.016,-0.599 -1.592,-0.076 -2.041,1.854 -4.125,3.652 -6.568,4.984 -0.58,0.318 -0.592,1.017 -0.076,1.436 0.246,0.203 0.5,0.394 0.758,0.592 2.207,-2.506 4.201,-5.159 7.826,-6.066 z m -5.129,8.714 c -0.203,0.534 -0.553,1.018 -0.484,1.43 0.047,0.261 0.703,0.455 1.111,0.604 0.352,0.128 0.75,0.124 1.113,0.227 0.576,0.166 0.928,-0.022 1.092,-0.634 -0.879,-0.507 -1.765,-1.014 -2.832,-1.627 z"
         id="path161" />
    </g>
  </g>
</svg>
