<svg xmlns="http://www.w3.org/2000/svg" width="241.633" height="148.489" xml:space="preserve"><path fill="#46474D" d="M201.61 36.243c-2.22-.807-6.86-2.017-6.86-2.017l-20.788-.809-1.01-1.614-13.319-21.798h-2.424v2.918l-.607-3.22-.302-1.616V7.08h2.323V4.959h-1.819l-.504-2.42h-3.936l-.506 1.312-1.108.502S150.648.722 147.218.42c-.779-.07-1.434.061-1.981.319A1.737 1.737 0 0 0 143.821 0c-.956 0-1.729.775-1.729 1.729 0 .744.472 1.372 1.129 1.619-.194.771-.203 1.568-.04 2.217.504 2.017 3.333 2.522 3.333 2.522l-.709 1.918 1.011 4.44 1.686 1.514h.937l1.058 1.124-1.157.592-.809 1.616.809 2.22v2.42l-5.517 3.029-13.455 6.054-27.248 6.256-50.455-2.423-43.193-4.64-2.173.959 2.173 2.573 18.414 3.483s3.028 1.966 3.934 3.932c14.687 22.554 25.736 19.907 25.736 19.907l13.925-2.345 20.132 18.177-.152.894-.453 2.572v3.029l-.91-1.36-2.12-.305-.604 1.665-.606 1.515-.604 2.271-.15 1.664-56.766 18.315 2.269 6.964 44.354-11.807 2.572.908.456 2.906h2.875l1.363-.002s-1.212 1.181 2.118 2.444c3.33 1.256 2.876-3.684 2.876-3.684l.756-1.966 1.668-.457h3.026l1.363-1.662 6.356 6.206 3.839-2.725s22.604 1.212 25.429.807c2.826-.403 15.542-.403 17.355-25.631 0-.403.406-1.413.406-1.413l1.815-1.147s1.414-1.075 1.614-3.164c9.083-22.276 16.047-24.547 16.047-24.547l11.602 21.53.404 2.046h1.924l18.864 37.98h3.361l3.502-.807 1.615-3.809-2.422-2.65-2.695-1.413s-27.378-56.512-28.385-58.933c5.045-5.046 21.595-4.843 26.034-.606 8.277 1.413 16.349 6.459 16.349 6.459s5.047 1.01 9.084 0c-2.827-5.048-23.209-13.93-25.432-14.737zM98.425 56.097l-1.515-.454h-1.665l-.832 1.135-.983 1.138-2.875.681-2.802 10.215-11.124-12.034s-.911-.377-.608-1.061c.303-.681 6.661-2.116 6.661-2.116l4.087.831 2.347.756 4.087.077 4.846-.833 1.131.529-.755 1.136z"/><circle fill="none" stroke="#46474D" stroke-width="3.027" stroke-miterlimit="10" stroke-dasharray="2.9883,2.9883" cx="203.963" cy="108.121" r="36.156"/><path fill="none" stroke="#46474D" stroke-width="4.238" stroke-miterlimit="10" stroke-dasharray="3.2132,3.2132" d="M73.736 110.565c0 19.776-16.032 35.805-35.81 35.805-19.774 0-35.807-16.029-35.807-35.805 0-19.778 16.033-35.808 35.807-35.808 19.778 0 35.81 16.03 35.81 35.808z"/><path fill="none" stroke="#46474D" stroke-width="10.57" stroke-miterlimit="10" d="M68.738 110.565c0 17.015-13.794 30.811-30.812 30.811-17.017 0-30.812-13.796-30.812-30.811 0-17.02 13.795-30.813 30.812-30.813 17.018 0 30.812 13.793 30.812 30.813z"/><circle fill="none" stroke="#46474D" stroke-width="7.871" stroke-miterlimit="10" cx="203.964" cy="108.121" r="31.184"/><circle fill="#46474D" cx="206.201" cy="108.85" r="5.45"/><path fill="#46474D" d="M42.974 110.565a5.046 5.046 0 1 1-10.092-.004 5.046 5.046 0 0 1 10.092.004z"/><path fill="#4CFF3A" d="m143.465 97.115 5.658-47.693-3.232-4.082-22.277-2.643-4.019 3.182-5.655 47.693 3.232 4.087 22.274 2.64z"/><circle fill="#FFC246" stroke="#46474D" stroke-width=".146" stroke-miterlimit="10" cx="106.01" cy="81.349" r="8.448"/><circle fill="none" stroke="#FFC246" stroke-width="1.816" stroke-miterlimit="10" stroke-dasharray="1.2116,1.2116" cx="107.205" cy="93.303" r="9.644"/><circle fill="#FFC246" cx="107.205" cy="93.303" r="9.644"/><path fill="none" stroke="#FFF" stroke-width="3" stroke-miterlimit="10" d="M998.694 45.939-247.191-273.958"/></svg>