<svg xmlns="http://www.w3.org/2000/svg" width="242.1" height="148.776" xml:space="preserve"><path fill="#46474D" d="M202.001 36.313c-2.225-.808-6.875-2.021-6.875-2.021l-20.828-.809-1.012-1.617-13.346-21.84h-2.426v2.924l-.609-3.227-.305-1.619V7.093h2.326V4.97h-1.82l-.506-2.427h-3.943l-.504 1.314-1.113.506S150.938.722 147.501.42c-.781-.067-1.436.062-1.984.318a1.733 1.733 0 0 0-3.15.995c0 .746.473 1.375 1.133 1.62-.197.773-.205 1.572-.041 2.223.504 2.022 3.336 2.527 3.336 2.527l-.707 1.922 1.01 4.447 1.691 1.518h.938l1.059 1.125-1.158.594-.807 1.618.807 2.225v2.428l-5.527 3.032-13.48 6.066-27.299 6.269-50.557-2.427L9.49 32.271l-2.176.959 2.176 2.577 18.45 3.489s3.033 1.973 3.943 3.942c14.711 22.598 25.783 19.943 25.783 19.943l13.953-2.35 20.17 18.214-.15.896-.455 2.579v3.032l-.91-1.365-2.125-.303-.605 1.668-.607 1.517-.605 2.274-.152 1.669-56.873 18.351 2.275 6.977 44.438-11.829 2.578.909.455 2.912h2.881l1.365-.001s-1.213 1.185 2.123 2.445 2.883-3.688 2.883-3.688l.758-1.972 1.668-.455h3.033l1.365-1.668 6.369 6.219 3.846-2.73s22.646 1.213 25.479.809 15.57-.404 17.391-25.681c0-.405.404-1.416.404-1.416l1.82-1.148s1.414-1.075 1.617-3.173c9.1-22.318 16.078-24.596 16.078-24.596L179.76 72.85l.402 2.05h1.926l18.904 38.053h3.365l3.51-.809 1.617-3.813-2.428-2.657-2.699-1.416s-27.43-56.619-28.441-59.047c5.055-5.055 21.639-4.854 26.086-.606 8.291 1.416 16.379 6.47 16.379 6.47s5.057 1.012 9.102 0c-2.834-5.054-23.257-13.954-25.482-14.762zM98.616 56.205l-1.518-.454H95.43l-.834 1.138-.986 1.138-2.881.683-2.807 10.236-11.146-12.057s-.91-.38-.607-1.063c.305-.681 6.674-2.122 6.674-2.122l4.094.833 2.352.758 4.096.077 4.854-.835 1.137.531-.76 1.137z"/><circle fill="none" stroke="#46474D" stroke-width="3.033" stroke-miterlimit="10" stroke-dasharray="2.9941,2.9941" cx="204.357" cy="108.331" r="36.226"/><circle fill="none" stroke="#46474D" stroke-width="4.247" stroke-miterlimit="10" stroke-dasharray="3.2194,3.2194" cx="38" cy="110.777" r="35.877"/><circle fill="none" stroke="#46474D" stroke-width="10.591" stroke-miterlimit="10" cx="38" cy="110.777" r="30.872"/><circle fill="none" stroke="#46474D" stroke-width="7.886" stroke-miterlimit="10" cx="204.356" cy="108.331" r="31.244"/><circle fill="#46474D" cx="206.6" cy="109.061" r="5.46"/><circle fill="#46474D" cx="38.001" cy="110.776" r="5.055"/><path fill="#4CFF3A" d="m143.743 97.303 5.668-47.782-3.24-4.095-22.315-2.647-4.031 3.19-5.666 47.785 3.24 4.094 22.315 2.644z"/><circle fill="#FFC246" stroke="#46474D" stroke-width=".146" stroke-miterlimit="10" cx="106.214" cy="81.506" r="8.465"/><circle fill="none" stroke="#FFC246" stroke-width="1.82" stroke-miterlimit="10" stroke-dasharray="1.2139,1.2139" cx="107.411" cy="93.482" r="9.662"/><circle fill="#FFC246" cx="107.411" cy="93.482" r="9.662"/></svg>