<svg xmlns="http://www.w3.org/2000/svg" width="73.217" height="96.638" xml:space="preserve"><path fill="#46474D" d="M34.666 16.198c-4.906 1.297-8.248 2.698-10.035 4.218-2.184 1.65-3.707 5.109-4.551 10.37l-9.1-.603L0 28.849v-.938c1.965-9.639 5.088-16.24 9.369-19.809C16.689 2.702 25.076 0 34.535 0l.131 16.198zm-9.434 50.593c0-15.614 5.91-25.141 17.73-28.574 1.787-.444 3.193-.912 4.225-1.405 3.299-2.187 4.945-5.487 4.945-9.902.092-4.73-1.623-7.766-5.154-9.104-1.691-.714-4.721-1.246-9.094-1.606L37.818.204l6.223.136c19.451 2.674 29.176 11.535 29.176 26.569v1.271c-.135 13.873-5.4 22.618-15.793 26.234l.268-.208c-2.053 1.074-4.328 1.986-6.824 2.747-3.35 1.607-4.934 5.332-4.754 11.179l.137 6.755-21.018.07v-8.166zm21.682 12.174v17.673H25.232V78.965h21.682z"/></svg>