<svg xmlns="http://www.w3.org/2000/svg" width="200.886" height="112.079" xml:space="preserve"><path fill="#FFC246" stroke="#46474D" stroke-width=".147" stroke-linecap="round" stroke-linejoin="round" stroke-miterlimit="10" d="M106.589 77.069v-.742h-.368a5.863 5.863 0 0 0-.279-1.459l.337-.136-.278-.688-.339.136a5.942 5.942 0 0 0-.883-1.332l.259-.26-.525-.526-.259.262a5.834 5.834 0 0 0-1.23-.832l.144-.337-.684-.29-.144.337a5.771 5.771 0 0 0-1.565-.316v-.369h-.741v.369a5.78 5.78 0 0 0-1.461.277l-.137-.339-.689.278.138.343c-.483.23-.93.528-1.33.879l-.261-.262-.525.526.261.26a5.833 5.833 0 0 0-.833 1.231l-.339-.146-.29.685.339.144a5.802 5.802 0 0 0-.316 1.565h-.37v.742h.37c.032.507.123.997.276 1.459l-.337.137.276.689.343-.138c.233.484.528.932.881 1.332l-.26.262.525.525.261-.262c.37.328.783.607 1.23.832l-.144.337.684.291.143-.336a5.855 5.855 0 0 0 1.567.316v.369h.741v-.369a5.87 5.87 0 0 0 1.459-.277l.136.337.69-.277-.138-.342a5.78 5.78 0 0 0 1.332-.881l.259.262.525-.525-.259-.261c.328-.371.608-.783.832-1.229l.337.146.292-.686-.337-.144a5.88 5.88 0 0 0 .318-1.567h.366z"/><g fill="#4CFF3A" stroke="#46474D" stroke-width=".147" stroke-miterlimit="10"><circle cx="98.872" cy="42.601" r="1.112"/><path d="M96.94 45.32a1.11 1.11 0 0 0 1.552-.262 1.114 1.114 0 0 0-.263-1.55 1.109 1.109 0 0 0-1.55.265 1.108 1.108 0 0 0 .261 1.547z"/><circle cx="101.194" cy="42.887" r="1.112"/><circle cx="99.906" cy="44.699" r="1.111"/><circle cx="102.203" cy="44.968" r="1.112"/><circle cx="100.917" cy="46.781" r="1.111"/><path d="M103.843 46.13c.5.355 1.195.237 1.552-.262a1.113 1.113 0 1 0-1.552.262z"/><path d="M102.555 47.942a1.11 1.11 0 0 0 1.55-.261 1.115 1.115 0 0 0-.261-1.552 1.114 1.114 0 0 0-1.552.265 1.11 1.11 0 0 0 .263 1.548z"/><circle cx="105.495" cy="47.303" r="1.112"/><path d="M103.564 50.021a1.11 1.11 0 1 0-.262-1.546 1.106 1.106 0 0 0 .262 1.546zM95.629 47.172a1.114 1.114 0 0 0 1.286-1.816 1.113 1.113 0 1 0-1.286 1.816z"/><path d="M94.341 48.986a1.113 1.113 0 1 0 1.284-1.818 1.113 1.113 0 0 0-1.284 1.818z"/><circle cx="93.697" cy="49.893" r="1.112"/><circle cx="92.409" cy="51.707" r="1.112"/><path d="M90.479 54.428a1.112 1.112 0 1 0 1.285-1.814 1.112 1.112 0 0 0-1.285 1.814z"/><circle cx="89.835" cy="55.334" r="1.112"/><circle cx="88.547" cy="57.147" r="1.111"/><circle cx="98.595" cy="46.549" r="1.112"/><path d="M96.662 49.271a1.118 1.118 0 0 0 1.556-.264 1.111 1.111 0 1 0-1.815-1.286 1.11 1.11 0 0 0 .259 1.55z"/><circle cx="96.018" cy="50.178" r="1.112"/><path d="M94.089 52.897a1.112 1.112 0 1 0 1.29-1.81 1.112 1.112 0 0 0-1.29 1.81z"/><path d="M92.802 54.711a1.112 1.112 0 1 0 1.289-1.812 1.112 1.112 0 0 0-1.289 1.812z"/><path d="M91.514 56.524a1.113 1.113 0 1 0 1.291-1.813 1.113 1.113 0 0 0-1.291 1.813z"/><path d="M90.227 58.34a1.112 1.112 0 0 0 1.287-1.816 1.11 1.11 0 0 0-1.548.266c-.359.5-.239 1.195.261 1.55z"/><circle cx="99.604" cy="48.629" r="1.113"/><circle cx="98.316" cy="50.443" r="1.111"/><path d="M96.383 53.165a1.118 1.118 0 0 0 1.554-.264 1.112 1.112 0 1 0-1.815-1.285 1.113 1.113 0 0 0 .261 1.549z"/><path d="M95.101 54.982a1.113 1.113 0 1 0 1.283-1.818 1.107 1.107 0 0 0-1.548.262 1.116 1.116 0 0 0 .265 1.556z"/><path d="M93.812 56.792a1.111 1.111 0 0 0 1.289-1.81 1.108 1.108 0 0 0-1.552.259 1.11 1.11 0 0 0 .263 1.551z"/><circle cx="93.168" cy="57.699" r="1.112"/><path d="M91.235 60.42a1.117 1.117 0 0 0 1.554-.265 1.112 1.112 0 1 0-1.554.265zM101.242 49.795a1.117 1.117 0 0 0 1.554-.266 1.114 1.114 0 0 0-1.815-1.289 1.115 1.115 0 0 0 .261 1.555z"/><path d="M99.957 51.605c.5.356 1.193.238 1.546-.262.358-.5.241-1.193-.261-1.549a1.109 1.109 0 0 0-1.55.262 1.108 1.108 0 0 0 .265 1.549zM102.253 51.873a1.114 1.114 0 0 0 1.287-1.816 1.118 1.118 0 0 0-1.554.265 1.115 1.115 0 0 0 .267 1.551z"/><circle cx="89.584" cy="59.247" r="1.112"/><path d="M89.949 62.235a1.112 1.112 0 1 0 1.286-1.816 1.115 1.115 0 0 0-1.55.26 1.118 1.118 0 0 0 .264 1.556zM106.803 38.627a1.111 1.111 0 1 0-.265-1.549 1.11 1.11 0 0 0 .265 1.549z"/><circle cx="109.725" cy="37.976" r="1.113"/><path d="M111.379 39.149a1.113 1.113 0 0 0 1.288-1.814 1.115 1.115 0 0 0-1.552.263 1.115 1.115 0 0 0 .264 1.551z"/><path d="M110.092 40.966a1.114 1.114 0 0 0 1.287-1.817 1.112 1.112 0 0 0-1.287 1.817zM100.893 39.891a1.112 1.112 0 1 0 1.288-1.814 1.113 1.113 0 0 0-1.552.261 1.12 1.12 0 0 0 .264 1.553z"/><path d="M99.604 41.701c.504.356 1.195.24 1.554-.26a1.114 1.114 0 0 0-1.815-1.288 1.11 1.11 0 0 0 .261 1.548z"/><circle cx="105.148" cy="37.455" r="1.112"/><path d="M103.216 40.176a1.113 1.113 0 1 0 1.289-1.814 1.113 1.113 0 0 0-1.289 1.814z"/><path d="M101.927 41.988a1.114 1.114 0 1 0 1.29-1.816 1.114 1.114 0 0 0-1.29 1.816z"/><circle cx="106.158" cy="39.534" r="1.113"/><circle cx="104.87" cy="41.348" r="1.112"/><circle cx="103.583" cy="43.162" r="1.112"/><circle cx="108.439" cy="39.791" r="1.112"/><path d="M106.507 42.509a1.11 1.11 0 0 0 1.55-.262 1.111 1.111 0 1 0-1.55.262z"/><path d="M105.221 44.323c.5.356 1.192.238 1.552-.26a1.118 1.118 0 0 0-.265-1.555 1.114 1.114 0 0 0-1.55.267 1.107 1.107 0 0 0 .263 1.548zM108.804 42.778a1.111 1.111 0 1 0 1.288-1.816 1.111 1.111 0 0 0-1.288 1.816z"/><path d="M107.515 44.59a1.114 1.114 0 0 0 1.552-.263c.358-.5.239-1.197-.263-1.549a1.11 1.11 0 0 0-1.55.263 1.11 1.11 0 0 0 .261 1.549z"/><path d="M106.229 46.405a1.112 1.112 0 1 0 1.288-1.814 1.112 1.112 0 0 0-1.288 1.814z"/><circle cx="95.444" cy="58.062" r="1.113"/><path d="M93.513 60.782a1.112 1.112 0 1 0 1.288-1.812 1.112 1.112 0 0 0-1.288 1.812z"/><circle cx="96.451" cy="60.142" r="1.112"/><path d="M94.521 62.86c.5.359 1.198.24 1.552-.262a1.11 1.11 0 1 0-1.813-1.283 1.105 1.105 0 0 0 .261 1.545zM92.2 62.633a1.112 1.112 0 1 0 1.287-1.81 1.112 1.112 0 0 0-1.287 1.81zM101.048 53.806a1.113 1.113 0 0 0 1.287-1.817 1.11 1.11 0 0 0-1.548.263 1.117 1.117 0 0 0 .261 1.554z"/><circle cx="99.395" cy="52.629" r="1.112"/><path d="M97.465 55.348a1.11 1.11 0 1 0 1.287-1.812 1.112 1.112 0 0 0-1.287 1.812z"/><path d="M96.177 57.163a1.117 1.117 0 0 0 1.552-.261 1.12 1.12 0 0 0-.263-1.555 1.113 1.113 0 0 0-1.55.269 1.108 1.108 0 0 0 .261 1.547zM99.762 55.618a1.115 1.115 0 0 0 1.55-.265 1.109 1.109 0 0 0-.263-1.548 1.104 1.104 0 0 0-1.548.259 1.113 1.113 0 0 0 .261 1.554z"/><path d="M98.471 57.43c.502.354 1.2.238 1.552-.263.358-.5.241-1.198-.261-1.549a1.113 1.113 0 0 0-1.291 1.812z"/><path d="M97.187 59.243a1.112 1.112 0 1 0 1.29-1.813 1.112 1.112 0 0 0-1.29 1.813z"/></g><circle fill="none" stroke="#46474D" stroke-width="6.555" stroke-miterlimit="10" cx="40.609" cy="69.766" r="36.88"/><circle fill="none" stroke="#46474D" stroke-width="6.555" stroke-miterlimit="10" cx="160.179" cy="71.372" r="36.881"/><path fill="none" stroke="#46474D" stroke-width="3.535" stroke-linejoin="round" stroke-miterlimit="10" d="M77.488 38.328 88.26 78.097l-47.65-8.331 36.878-31.438"/><path fill="#46474D" d="M86.831 77.058s2.798-4.106 7.068-10.213c2.127-3.059 4.605-6.63 7.308-10.423l8.431-11.91c2.854-4.066 5.786-8.076 8.5-11.86l7.439-10.328 5.262-7.306c.321-.438.593-.84.855-1.171.273-.323.569-.552.84-.714.549-.321 1.009-.371 1.008-.371l2.86 2.078s.095.452-.041 1.073a3.359 3.359 0 0 1-.42 1.021c-.233.352-.532.734-.849 1.176l-5.321 7.262-7.523 10.267c-2.76 3.751-5.668 7.778-8.653 11.749l-8.721 11.699c-2.772 3.742-5.403 7.203-7.655 10.171-4.488 5.948-7.529 9.879-7.529 9.879l-2.859-2.079z"/><path fill="none" stroke="#46474D" stroke-width="3.535" stroke-miterlimit="10" d="m77.488 38.328 58.317-26.427"/><path fill="none" stroke="#46474D" stroke-width="4.409" stroke-miterlimit="10" d="m133.81 6.599 7.402 22.56"/><path fill="none" stroke="#46474D" stroke-width="4.409" stroke-linecap="round" stroke-miterlimit="10" d="m147.729 37.091 12.45 34.283"/><path fill="none" stroke="#46474D" stroke-width="2.939" stroke-miterlimit="10" d="m143.767 27.101 4.136 11.227"/><path fill="none" stroke="#46474D" stroke-width="2.911" stroke-miterlimit="10" d="m148.301 30.167 4.398 11.646"/><path fill="none" stroke="#46474D" stroke-width="4.042" stroke-linecap="round" stroke-miterlimit="10" d="m140.432 28.173 3.344-1.205"/><path fill="none" stroke="#46474D" stroke-width="3.535" stroke-miterlimit="10" d="m133.588 9.127 10.188-3.882"/><path fill="none" stroke="#46474D" stroke-width="3.535" stroke-linecap="round" stroke-miterlimit="10" d="m137.539 2.543 6.237 2.702"/><path fill="none" stroke="#46474D" stroke-width="3.535" stroke-linejoin="round" stroke-miterlimit="10" d="m52.876 1.768 25.649.899-20.517 1.041z"/><circle fill="#46474D" cx="88.866" cy="78.097" r="10.502"/><path fill="none" stroke="#46474D" stroke-width="3.535" stroke-linecap="round" stroke-miterlimit="10" d="M88.867 78.097 99.65 91.839M78.261 64.355l10.783 13.742M95.489 91.839h6.995M74.038 64.355h6.995"/><path fill="none" stroke="#46474D" stroke-width="3.535" stroke-linejoin="round" stroke-miterlimit="10" d="M77.488 38.328 67.074 3.895"/><path fill="#46474D" d="m138.317 20.337-2.513-7.317-3.404 1.71.078-.149-7.936 2.664s3.767 2.298 3.079 5.328c.438-.649.849-1.274 1.233-1.872l.603 3.157 8.86-3.521z"/><circle fill="none" stroke="#46474D" stroke-width="5.885" stroke-miterlimit="10" stroke-dasharray="2.366,2.366" cx="40.609" cy="69.768" r="37.666"/><circle fill="none" stroke="#46474D" stroke-width="5.885" stroke-miterlimit="10" stroke-dasharray="2.3721,2.3721" cx="160.179" cy="71.372" r="37.763"/></svg>