<svg xmlns="http://www.w3.org/2000/svg" width="190.219" height="113.317" xml:space="preserve"><path fill="#FFC246" stroke="#46474D" stroke-width=".221" stroke-miterlimit="10" d="M54.759 76.387c0 10.395-8.424 18.823-18.816 18.823-10.391 0-18.82-8.429-18.82-18.823s8.43-18.813 18.82-18.813c10.392-.001 18.816 8.419 18.816 18.813z"/><path fill="#FFC246" stroke="#46474D" stroke-width=".194" stroke-linecap="round" stroke-linejoin="round" stroke-miterlimit="10" d="m113.188 61.614-6.409-5.639-5.813 6.637-.018-.014-16.459 18.779 5.83 5.137v.006l1.098.966.967-1.101-.528-.464.977-1.109.516.458.97-1.1-.527-.459.971-1.107.527.457.968-1.1-.522-.457.974-1.116.519.462.007.001.011.012.958-1.103-.514-.463.966-1.102.506.447h.002l.022.006.956-1.093-.521-.469.971-1.101.511.447h0l.014.006.971-1.094-.527-.462.968-1.108.506.449.006-.004.02.013.957-1.101-.522-.457.974-1.112.501.45.007-.004.014.013.965-1.103-.529-.459.972-1.107.516.447v-.004l.012.016.973-1.1-.532-.461.975-1.111.519.46.968-1.099-.522-.463.972-1.107.521.463.967-1.102-.525-.466.969-1.11.529.463.965-1.104z"/><circle fill="none" stroke="#46474D" stroke-width="7.587" stroke-miterlimit="10" cx="35.335" cy="76.527" r="30.594"/><circle fill="none" stroke="#46474D" stroke-width="6.177" stroke-miterlimit="10" cx="153.428" cy="76.527" r="32.593"/><path fill="#46474D" d="M80.266 81.51s.688-.994 1.896-2.734c.598-.873 1.342-1.921 2.198-3.117a5090.89 5090.89 0 0 1 2.881-4.021l3.444-4.728c1.218-1.683 2.542-3.423 3.889-5.241 1.359-1.811 2.738-3.699 4.186-5.585 1.44-1.889 2.905-3.808 4.369-5.726 2.907-3.854 5.912-7.629 8.688-11.201 1.397-1.779 2.727-3.516 4.026-5.131l3.65-4.563 5.462-6.828.883-1.1c.271-.307.694-.413 1.139-.418.216-.007.468.037.661.055.237.053.409.074.601.137.343.09.608.207.592.194l2.782 2.252c-.017-.013.154.222.314.538.101.176.157.339.26.56.056.185.152.423.188.636.088.435.074.871-.171 1.201-.259.316-.557.682-.889 1.092-1.339 1.633-3.248 3.966-5.542 6.766-1.145 1.4-2.389 2.916-3.7 4.52-1.31 1.609-2.73 3.271-4.179 5.008-2.915 3.46-5.981 7.186-9.145 10.832l-4.689 5.467c-1.543 1.807-3.103 3.551-4.589 5.256-1.499 1.697-2.925 3.355-4.317 4.896-1.385 1.546-2.693 3.007-3.904 4.355l-3.333 3.656a186.104 186.104 0 0 1-2.592 2.8c-1.45 1.542-2.278 2.425-2.278 2.425l-2.781-2.253z"/><path fill="#46474D" d="M69.257 35.146s3.683-1.456 9.257-3.469a571.28 571.28 0 0 1 9.546-3.357c3.492-1.227 7.244-2.449 10.989-3.696 3.741-1.257 7.514-2.413 11.032-3.55 3.52-1.143 6.832-2.113 9.658-2.988l3.861-1.18c1.154-.336 2.141-.692 2.986-.875 1.721-.27 3.141 1.037 3.141 1.037l1.026 3.43s-.47 1.873-2.058 2.591c-.806.312-1.827.556-2.977.908l-3.874 1.134c-2.843.818-6.145 1.826-9.713 2.801-3.566.982-7.354 2.086-11.171 3.089-3.815 1.013-7.623 2.05-11.217 2.942a577.76 577.76 0 0 1-9.822 2.432c-5.764 1.378-9.641 2.182-9.641 2.182l-1.023-3.431z"/><path fill="none" stroke="#46474D" stroke-width="3.851" stroke-miterlimit="10" d="m119.571 7.18 10.711 26.112"/><path fill="none" stroke="#46474D" stroke-width="6.744" stroke-miterlimit="10" d="m125.729 12.383 27.698 64.144"/><path fill="none" stroke="#46474D" stroke-width="5.17" stroke-miterlimit="10" d="m118.954 11.695 10.461-4.716"/><path fill="none" stroke="#46474D" stroke-width="5.494" stroke-linecap="round" stroke-miterlimit="10" d="m122.204 2.747 8.598 4.858"/><path fill="#46474D" stroke="#46474D" stroke-width="4.215" stroke-linejoin="round" stroke-miterlimit="10" d="m53.437 22.28 26.304-1.716-7.886 2.61-16.09 3.591z"/><circle fill="#46474D" cx="81.655" cy="82.635" r="9.16"/><path fill="none" stroke="#46474D" stroke-width="3.579" stroke-linecap="round" stroke-miterlimit="10" d="m81.656 82.635 10.919 13.914M70.919 68.723l10.918 13.912M88.36 96.549h7.084M66.642 68.723h7.082"/><path fill="none" stroke="#46474D" stroke-width="6.744" stroke-linecap="round" stroke-linejoin="round" stroke-miterlimit="10" d="m81.656 82.635-46.322-5.244"/><path fill="none" stroke="#46474D" stroke-width="3.579" stroke-linejoin="round" stroke-miterlimit="10" d="M36.106 77.605 54.622 43.73M66.647 24.844l15.009 57.791"/><path fill="#46474D" stroke="#46474D" stroke-width="3.372" stroke-linecap="round" stroke-linejoin="round" stroke-miterlimit="10" d="m81.354 41.611-27.246 2.532 18.782 5.435z"/><path fill="#46474D" d="M114.935 26.205s5.551 5.058 5.271 5.198 4.005-7.164 4.005-7.164l-9.276 1.966z"/><path fill="none" stroke="#46474D" stroke-width="6.744" stroke-linecap="round" stroke-miterlimit="10" d="m131.101 25.123 22.326 51.404"/><path fill="none" stroke="#46474D" stroke-width="1.531" stroke-linecap="round" stroke-linejoin="round" stroke-miterlimit="10" d="m84.489 45.043-5.183 2.92M84.856 48.273l-5.185 2.921M85.222 51.504l-5.185 2.919M85.587 54.734l-5.184 2.92M85.952 57.964l-5.185 2.921M86.306 61.105l-5.184 2.918"/><path fill="none" stroke="#46474D" stroke-width="1.485" stroke-linecap="round" stroke-linejoin="round" stroke-miterlimit="10" d="m81.394 42.04 2.984 26.386"/><path fill="none" stroke="#46474D" stroke-width="4.215" stroke-linejoin="round" stroke-miterlimit="10" d="m82.79 54.395 1.588 14.031"/><path fill="#FFF" stroke="#46474D" stroke-width="4.215" stroke-linecap="round" stroke-linejoin="round" stroke-miterlimit="10" d="M80.151 69.169s5.408-.772 8.146 1.476"/><circle fill="none" stroke="#46474D" stroke-width="8.608" stroke-miterlimit="10" stroke-dasharray="2.532" cx="35.334" cy="76.527" r="31.03"/><circle fill="none" stroke="#46474D" stroke-width="6.369" stroke-miterlimit="10" stroke-dasharray="2.532" cx="153.428" cy="76.527" r="33.606"/><g fill="#4CFF3A" stroke="#46474D" stroke-width=".152" stroke-miterlimit="10"><path d="M98.065 33.899a1.108 1.108 0 0 0 1.543-.201 1.103 1.103 0 0 0-.204-1.538 1.094 1.094 0 0 0-1.536.2 1.093 1.093 0 0 0 .197 1.539z"/><path d="M96.728 35.639c.484.367 1.17.28 1.543-.201a1.103 1.103 0 0 0-.205-1.538 1.089 1.089 0 0 0-1.535.198 1.093 1.093 0 0 0 .197 1.541zM100.356 34.275a1.096 1.096 0 1 0 1.34-1.734 1.096 1.096 0 0 0-1.34 1.734z"/><path d="M99.022 36.016c.479.373 1.17.278 1.535-.199a1.094 1.094 0 0 0-.201-1.541 1.097 1.097 0 0 0-1.535.203 1.102 1.102 0 0 0 .201 1.537zM103.948 32.889a1.09 1.09 0 0 0 1.536-.204 1.091 1.091 0 0 0-.202-1.532 1.094 1.094 0 1 0-1.334 1.736z"/><path d="M102.608 34.623c.485.373 1.17.285 1.537-.199a1.092 1.092 0 0 0-.197-1.535 1.098 1.098 0 0 0-1.543.201 1.102 1.102 0 0 0 .203 1.533z"/><path d="M101.28 36.369c.477.364 1.16.277 1.526-.207a1.09 1.09 0 0 0-.198-1.539 1.102 1.102 0 0 0-1.539.204 1.104 1.104 0 0 0 .211 1.542zM99.94 38.106a1.087 1.087 0 0 0 1.53-.207 1.082 1.082 0 0 0-.198-1.531 1.09 1.09 0 0 0-1.535.198 1.098 1.098 0 0 0 .203 1.54zM107.56 31.518a1.104 1.104 0 0 0 1.541-.198 1.1 1.1 0 0 0-.203-1.54 1.094 1.094 0 0 0-1.534.199 1.1 1.1 0 0 0 .196 1.539z"/><path d="M106.226 33.256c.479.37 1.17.279 1.541-.199a1.099 1.099 0 0 0-1.744-1.338 1.095 1.095 0 0 0 .203 1.537z"/><path d="M104.89 34.996a1.095 1.095 0 0 0 1.535-.203 1.094 1.094 0 0 0-.199-1.537 1.096 1.096 0 1 0-1.336 1.74z"/><path d="M103.556 36.732a1.095 1.095 0 1 0 1.334-1.736 1.094 1.094 0 1 0-1.334 1.736z"/><path d="M102.218 38.469a1.09 1.09 0 0 0 1.537-.197 1.105 1.105 0 0 0-.199-1.539 1.1 1.1 0 0 0-1.541.2 1.093 1.093 0 0 0 .203 1.536zM111.153 30.126a1.09 1.09 0 0 0 1.533-.198 1.087 1.087 0 0 0-.202-1.537 1.096 1.096 0 0 0-1.54.2 1.103 1.103 0 0 0 .209 1.535z"/><path d="M109.815 31.863a1.098 1.098 0 0 0 1.535-.199 1.104 1.104 0 0 0-.197-1.538 1.097 1.097 0 0 0-1.536.202 1.084 1.084 0 0 0 .198 1.535z"/><path d="M108.476 33.605a1.107 1.107 0 0 0 1.542-.203 1.107 1.107 0 0 0-.202-1.539 1.097 1.097 0 0 0-1.535.204 1.087 1.087 0 0 0 .195 1.538z"/><path d="M107.146 35.344a1.095 1.095 0 1 0 1.33-1.736 1.095 1.095 0 0 0-1.33 1.736z"/><path d="M105.807 37.081a1.09 1.09 0 0 0 1.536-.202 1.097 1.097 0 0 0-.197-1.535 1.107 1.107 0 0 0-1.541.199 1.094 1.094 0 0 0 .202 1.538z"/><path d="M104.467 38.822a1.094 1.094 0 0 0 1.536-.204 1.093 1.093 0 1 0-1.731-1.336 1.095 1.095 0 0 0 .195 1.54zM103.13 40.561a1.106 1.106 0 0 0 1.541-.197 1.103 1.103 0 0 0-.204-1.541 1.096 1.096 0 0 0-1.337 1.738zM113.392 30.466a1.087 1.087 0 0 0 1.535-.202 1.094 1.094 0 0 0-.203-1.539 1.094 1.094 0 0 0-1.535.203 1.092 1.092 0 0 0 .203 1.538z"/><path d="M112.054 32.201a1.091 1.091 0 0 0 1.535-.198 1.097 1.097 0 1 0-1.74-1.339 1.098 1.098 0 0 0 .205 1.537z"/><path d="M110.714 33.941a1.098 1.098 0 1 0-.197-1.536 1.1 1.1 0 0 0 .197 1.536z"/><path d="M109.382 35.682a1.1 1.1 0 0 0 1.537-.203 1.102 1.102 0 0 0-.205-1.537 1.1 1.1 0 0 0-1.535.201 1.092 1.092 0 0 0 .203 1.539z"/><path d="M108.044 37.422c.479.367 1.17.277 1.535-.205a1.09 1.09 0 0 0-.197-1.535 1.099 1.099 0 0 0-1.54.203 1.091 1.091 0 0 0 .202 1.537z"/><path d="M106.705 39.156a1.09 1.09 0 0 0 1.536-.199 1.09 1.09 0 0 0-.197-1.535 1.102 1.102 0 0 0-1.541.194 1.106 1.106 0 0 0 .202 1.54z"/><path d="M105.37 40.9a1.1 1.1 0 0 0 1.539-.202 1.103 1.103 0 0 0-.204-1.542 1.092 1.092 0 0 0-1.534.205 1.1 1.1 0 0 0 .199 1.539zM114.31 32.553a1.086 1.086 0 0 0 1.528-.2 1.09 1.09 0 0 0-.198-1.538 1.087 1.087 0 0 0-1.533.205 1.083 1.083 0 0 0 .203 1.533z"/><path d="M112.964 34.29a1.1 1.1 0 0 0 1.346-1.737 1.1 1.1 0 0 0-1.543.201 1.097 1.097 0 0 0 .197 1.536z"/><path d="M111.632 36.029c.484.368 1.17.279 1.539-.203a1.09 1.09 0 0 0-.207-1.536 1.096 1.096 0 0 0-1.332 1.739z"/><path d="M110.294 37.771a1.1 1.1 0 0 0 1.541-.208 1.094 1.094 0 0 0-1.738-1.332 1.098 1.098 0 0 0 .197 1.54z"/><path d="M108.956 39.508a1.106 1.106 0 0 0 1.541-.199 1.092 1.092 0 0 0-.203-1.537 1.098 1.098 0 0 0-1.54.197 1.11 1.11 0 0 0 .202 1.539z"/><path d="M107.622 41.248c.481.365 1.17.276 1.538-.201a1.099 1.099 0 0 0-.204-1.539 1.094 1.094 0 0 0-1.534.204 1.098 1.098 0 0 0 .2 1.536z"/><path d="M106.286 42.986a1.104 1.104 0 0 0 1.539-.201 1.094 1.094 0 0 0-.203-1.537 1.087 1.087 0 0 0-1.533.201 1.089 1.089 0 0 0 .197 1.537zM90.864 36.659a1.09 1.09 0 0 0 1.533-.202 1.088 1.088 0 0 0-.201-1.536 1.098 1.098 0 0 0-1.535.2 1.101 1.101 0 0 0 .203 1.538z"/><path d="M89.522 38.4a1.093 1.093 0 0 0 1.537-.207 1.09 1.09 0 0 0-.195-1.534 1.104 1.104 0 0 0-1.543.199 1.109 1.109 0 0 0 .201 1.542zM94.479 35.29a1.097 1.097 0 0 0 1.534-.196 1.101 1.101 0 0 0-.202-1.541 1.095 1.095 0 1 0-1.332 1.737z"/><path d="M93.138 37.031a1.107 1.107 0 0 0 1.539-.205 1.099 1.099 0 0 0-.198-1.536 1.092 1.092 0 0 0-1.54.204 1.1 1.1 0 0 0 .199 1.537z"/><path d="M91.804 38.764a1.094 1.094 0 1 0 1.334-1.732 1.092 1.092 0 1 0-1.334 1.732zM95.396 37.379a1.1 1.1 0 0 0 1.537-.203 1.09 1.09 0 0 0-.205-1.537 1.097 1.097 0 0 0-1.535.197c-.366.486-.28 1.17.203 1.543z"/><path d="M94.056 39.115c.48.369 1.17.279 1.538-.199a1.099 1.099 0 0 0-1.739-1.341 1.104 1.104 0 0 0 .201 1.54z"/><path d="M92.72 40.854a1.105 1.105 0 0 0 1.541-.199 1.1 1.1 0 0 0-.205-1.539 1.09 1.09 0 0 0-1.533.197 1.093 1.093 0 0 0 .197 1.541zM97.685 37.754c.479.369 1.17.279 1.535-.199a1.098 1.098 0 0 0-.197-1.539 1.103 1.103 0 0 0-1.541.205 1.095 1.095 0 0 0 .203 1.533z"/><circle cx="97.016" cy="38.623" r="1.097"/><path d="M95.015 41.232a1.094 1.094 0 0 0 1.534-.202 1.1 1.1 0 0 0-.202-1.538 1.098 1.098 0 0 0-1.535.2 1.09 1.09 0 0 0 .203 1.54zM98.603 39.846c.48.366 1.168.275 1.535-.207a1.088 1.088 0 0 0-.197-1.532 1.098 1.098 0 1 0-1.338 1.739z"/><path d="M97.263 41.583c.48.366 1.172.277 1.541-.206a1.089 1.089 0 0 0-.201-1.531 1.088 1.088 0 0 0-1.535.198 1.099 1.099 0 0 0 .195 1.539z"/><path d="M95.933 43.32a1.095 1.095 0 0 0 1.535-.203 1.091 1.091 0 0 0-.205-1.534 1.093 1.093 0 1 0-1.33 1.737zM100.88 40.21a1.1 1.1 0 0 0 1.543-.2 1.105 1.105 0 0 0-.205-1.541 1.105 1.105 0 0 0-1.541.203 1.095 1.095 0 0 0 .203 1.538z"/><path d="M99.542 41.951c.48.364 1.17.277 1.543-.203a1.098 1.098 0 0 0-.205-1.538 1.106 1.106 0 0 0-1.541.198 1.106 1.106 0 0 0 .203 1.543z"/><path d="M98.21 43.689a1.099 1.099 0 0 0 1.535-.201 1.098 1.098 0 0 0-1.739-1.341 1.1 1.1 0 0 0 .204 1.542zM101.798 42.301a1.097 1.097 0 0 0 1.536-.207 1.087 1.087 0 0 0-.204-1.533 1.091 1.091 0 0 0-1.533.201 1.1 1.1 0 0 0 .201 1.539z"/><path d="M100.458 44.037c.486.368 1.17.277 1.539-.199a1.097 1.097 0 1 0-1.74-1.338 1.105 1.105 0 0 0 .201 1.537z"/><path d="M99.121 45.777a1.101 1.101 0 0 0 1.536-.201 1.088 1.088 0 0 0-.199-1.539 1.1 1.1 0 0 0-1.539.201 1.104 1.104 0 0 0 .202 1.539zM104.036 42.635a1.1 1.1 0 0 0 1.536-.197c.372-.48.276-1.17-.202-1.537a1.09 1.09 0 0 0-1.538.198 1.091 1.091 0 0 0 .204 1.536z"/><path d="M102.698 44.375a1.089 1.089 0 0 0 1.533-.201 1.096 1.096 0 0 0-.195-1.539 1.102 1.102 0 0 0-1.541.203 1.102 1.102 0 0 0 .203 1.537z"/><path d="M101.358 46.113a1.098 1.098 0 0 0 1.34-1.738 1.1 1.1 0 0 0-1.541.201 1.102 1.102 0 0 0 .201 1.537zM104.948 44.721a1.102 1.102 0 0 0 1.541-.197 1.09 1.09 0 0 0-.203-1.537 1.098 1.098 0 0 0-1.537.198 1.1 1.1 0 0 0 .199 1.536z"/><path d="M103.614 46.461a1.1 1.1 0 0 0 1.539-.199 1.097 1.097 0 0 0-1.741-1.338 1.104 1.104 0 0 0 .202 1.537zM102.276 48.199a1.097 1.097 0 0 0 1.338-1.738 1.09 1.09 0 0 0-1.533.203 1.085 1.085 0 0 0 .195 1.535zM87.245 38.083a1.097 1.097 0 0 0 1.342-1.735 1.098 1.098 0 0 0-1.543.195 1.103 1.103 0 0 0 .201 1.54z"/><path d="M85.909 39.822a1.096 1.096 0 1 0 1.34-1.737 1.096 1.096 0 0 0-1.34 1.737zM88.163 40.172c.479.367 1.17.277 1.537-.203a1.096 1.096 0 1 0-1.537.203z"/><path d="M86.823 41.911a1.107 1.107 0 0 0 1.543-.204 1.099 1.099 0 0 0-.203-1.535 1.098 1.098 0 0 0-1.34 1.739zM90.44 40.538c.481.368 1.17.278 1.539-.198a1.099 1.099 0 0 0-.199-1.539 1.11 1.11 0 0 0-1.543.197 1.101 1.101 0 0 0 .203 1.54z"/><path d="M89.108 42.276a1.095 1.095 0 1 0-.203-1.536c-.373.481-.28 1.17.203 1.536z"/><path d="M87.772 44.018a1.094 1.094 0 0 0 1.534-.201 1.103 1.103 0 0 0-.198-1.54 1.103 1.103 0 0 0-1.54.2 1.095 1.095 0 0 0 .204 1.541zM91.353 42.627a1.112 1.112 0 0 0 1.546-.199 1.095 1.095 0 0 0-.21-1.539 1.086 1.086 0 0 0-1.527.199 1.094 1.094 0 0 0 .191 1.539z"/><path d="M90.02 44.364a1.1 1.1 0 0 0 1.543-.202 1.098 1.098 0 0 0-1.745-1.334 1.097 1.097 0 0 0 .202 1.536z"/><path d="M88.682 46.104a1.107 1.107 0 0 0 1.544-.201c.364-.48.28-1.168-.206-1.538a1.11 1.11 0 0 0-1.54.2 1.105 1.105 0 0 0 .202 1.539zM93.647 43.006c.482.366 1.17.277 1.541-.199a1.095 1.095 0 0 0-.201-1.539 1.093 1.093 0 0 0-1.537.202 1.096 1.096 0 0 0 .197 1.536z"/><path d="M92.315 44.744a1.089 1.089 0 0 0 1.53-.202 1.094 1.094 0 1 0-1.53.202z"/><path d="M90.978 46.482a1.096 1.096 0 0 0 1.338-1.738 1.094 1.094 0 0 0-1.535.201 1.087 1.087 0 0 0 .197 1.537z"/><path d="M89.64 48.219a1.1 1.1 0 0 0 1.541-.199 1.097 1.097 0 1 0-1.541.199z"/><path d="M88.308 49.959a1.095 1.095 0 1 0-.203-1.537 1.09 1.09 0 0 0 .203 1.537zM94.565 45.094c.483.369 1.17.274 1.533-.203a1.088 1.088 0 0 0-.195-1.537 1.097 1.097 0 1 0-1.338 1.74z"/><path d="M93.226 46.83a1.105 1.105 0 0 0 1.544-.203 1.097 1.097 0 1 0-1.544.203z"/><path d="M91.895 48.57c.476.369 1.168.28 1.535-.2a1.097 1.097 0 0 0-.204-1.54 1.088 1.088 0 0 0-1.533.203 1.094 1.094 0 0 0 .202 1.537z"/><path d="M90.556 50.307a1.093 1.093 0 0 0 1.534-.202 1.092 1.092 0 0 0-.195-1.534 1.1 1.1 0 0 0-1.542.199 1.1 1.1 0 0 0 .203 1.537z"/><path d="M89.224 52.045a1.095 1.095 0 0 0 1.535-.197c.369-.482.273-1.17-.203-1.541a1.096 1.096 0 1 0-1.332 1.738zM96.843 45.46a1.108 1.108 0 0 0 1.543-.198 1.104 1.104 0 0 0-.204-1.541 1.103 1.103 0 0 0-1.542.203 1.099 1.099 0 0 0 .203 1.536z"/><path d="M95.511 47.199a1.094 1.094 0 1 0 1.332-1.739 1.094 1.094 0 0 0-1.533.202 1.09 1.09 0 0 0 .201 1.537z"/><path d="M94.173 48.939a1.09 1.09 0 0 0 1.533-.202 1.096 1.096 0 1 0-1.736-1.336 1.091 1.091 0 0 0 .203 1.538z"/><path d="M92.841 50.676a1.09 1.09 0 0 0 1.529-.199 1.093 1.093 0 0 0-.197-1.537 1.1 1.1 0 0 0-1.541.199 1.092 1.092 0 0 0 .209 1.537z"/><path d="M91.495 52.412a1.1 1.1 0 0 0 1.543-.199 1.101 1.101 0 0 0-.197-1.537 1.1 1.1 0 0 0-1.54.203 1.093 1.093 0 0 0 .194 1.533z"/><path d="M90.165 54.151a1.098 1.098 0 0 0 1.541-.2 1.1 1.1 0 0 0-.211-1.539 1.091 1.091 0 0 0-1.53.204 1.087 1.087 0 0 0 .2 1.535zM97.762 47.547a1.093 1.093 0 0 0 1.534-.201 1.093 1.093 0 1 0-1.732-1.336 1.086 1.086 0 0 0 .198 1.537z"/><path d="M96.422 49.286a1.1 1.1 0 0 0 1.542-.2 1.104 1.104 0 0 0-.202-1.539 1.097 1.097 0 0 0-1.34 1.739z"/><path d="M95.091 51.025a1.097 1.097 0 0 0 1.535-.199 1.09 1.09 0 0 0-.204-1.54 1.092 1.092 0 0 0-1.534.2 1.096 1.096 0 0 0 .203 1.539z"/><path d="M93.753 52.764a1.098 1.098 0 0 0 1.536-.202 1.1 1.1 0 0 0-.198-1.536 1.09 1.09 0 0 0-1.535.199 1.09 1.09 0 0 0 .197 1.539z"/><path d="M92.413 54.504c.479.365 1.17.273 1.537-.205a1.1 1.1 0 0 0-.197-1.535 1.09 1.09 0 0 0-1.535.201 1.098 1.098 0 0 0 .195 1.539z"/><path d="M91.081 56.242a1.096 1.096 0 0 0 1.535-.199 1.101 1.101 0 0 0-.203-1.539 1.09 1.09 0 0 0-1.535.201 1.093 1.093 0 0 0 .203 1.537z"/><path d="M89.744 57.982a1.098 1.098 0 0 0 1.337-1.74 1.1 1.1 0 0 0-1.54.2 1.101 1.101 0 0 0 .203 1.54zM99.997 47.883a1.103 1.103 0 0 0 1.543-.193 1.11 1.11 0 0 0-.202-1.545 1.097 1.097 0 0 0-1.341 1.738z"/><path d="M98.661 49.624c.484.368 1.17.282 1.541-.196a1.11 1.11 0 0 0-.205-1.545 1.094 1.094 0 0 0-1.533.203 1.095 1.095 0 0 0 .197 1.538z"/><path d="M97.331 51.365a1.09 1.09 0 0 0 1.531-.205 1.086 1.086 0 0 0-.201-1.536 1.09 1.09 0 0 0-1.536.204 1.091 1.091 0 0 0 .206 1.537z"/><path d="M95.989 53.103a1.099 1.099 0 0 0 1.537-.204 1.093 1.093 0 0 0-.195-1.533 1.1 1.1 0 0 0-1.545.199 1.103 1.103 0 0 0 .203 1.538z"/><path d="M94.652 54.844a1.1 1.1 0 0 0 1.54-.207 1.089 1.089 0 0 0-.203-1.534 1.1 1.1 0 0 0-1.541.201 1.112 1.112 0 0 0 .204 1.54z"/><path d="M93.319 56.582a1.1 1.1 0 0 0 1.536-.201 1.098 1.098 0 0 0-.203-1.537 1.09 1.09 0 0 0-1.534.198 1.095 1.095 0 0 0 .201 1.54z"/><path d="M91.983 58.318a1.092 1.092 0 0 0 1.533-.199 1.098 1.098 0 1 0-1.74-1.338 1.091 1.091 0 0 0 .207 1.537zM100.911 49.973a1.099 1.099 0 0 0 1.541-.201 1.098 1.098 0 0 0-1.74-1.34 1.105 1.105 0 0 0 .199 1.541z"/><path d="M99.577 51.714c.484.365 1.17.278 1.543-.2a1.1 1.1 0 0 0-.209-1.541 1.094 1.094 0 0 0-1.531.198 1.102 1.102 0 0 0 .197 1.543z"/><path d="M98.24 53.451a1.098 1.098 0 0 0 1.535-.201 1.087 1.087 0 0 0-.198-1.536 1.1 1.1 0 0 0-1.541.196 1.11 1.11 0 0 0 .204 1.541z"/><path d="M96.909 55.189a1.095 1.095 0 1 0 1.331-1.738 1.094 1.094 0 1 0-1.331 1.738z"/><path d="M95.571 56.928a1.096 1.096 0 0 0 1.338-1.738 1.091 1.091 0 0 0-1.537.201 1.09 1.09 0 0 0 .199 1.537z"/><path d="M94.231 58.665c.484.366 1.17.279 1.541-.198a1.095 1.095 0 1 0-1.736-1.338 1.09 1.09 0 0 0 .195 1.536z"/><path d="M92.9 60.404a1.1 1.1 0 0 0 1.532-.201 1.088 1.088 0 0 0-.201-1.538 1.095 1.095 0 1 0-1.331 1.739zM90.646 60.057a1.094 1.094 0 0 0 1.533-.2 1.097 1.097 0 1 0-1.533.2z"/><path d="M91.454 62.203a1.091 1.091 0 0 0 1.531-.199 1.097 1.097 0 1 0-1.531.199zM115.595 30.705a1.104 1.104 0 0 0 1.545-.202 1.103 1.103 0 0 0-.199-1.536 1.1 1.1 0 0 0-1.539.202 1.095 1.095 0 0 0 .193 1.536z"/></g></svg>