<svg xmlns="http://www.w3.org/2000/svg" width="190.22" height="113.317" xml:space="preserve"><circle fill="#FFC246" stroke="#46474D" stroke-width=".152" stroke-miterlimit="10" cx="153.441" cy="76.389" r="12.934"/><path fill="#FFC246" stroke="#46474D" stroke-width=".152" stroke-linecap="round" stroke-linejoin="round" stroke-miterlimit="10" d="m110.451 61.143-5.006-4.405-4.537 5.184-.013-.012-12.852 14.663 4.552 4.011v.004l.856.756.755-.861-.411-.362.762-.866.402.357.759-.858-.413-.358.758-.866.414.359.754-.86-.409-.357.761-.871.407.36.004.001.01.01.748-.861-.402-.362.754-.859.395.348h.001l.018.005.746-.855-.407-.365.76-.86.4.348h0l.008.005.76-.854-.414-.36.758-.865.394.349.005-.002.015.011.748-.86-.408-.358.761-.868.391.351.006-.002.011.011.753-.863-.413-.357.759-.865.402.349v-.003l.01.012.759-.858-.414-.36.76-.869.408.359.754-.857-.408-.361.758-.866.408.364.755-.862-.409-.363.755-.867.413.361.754-.861z"/><circle fill="none" stroke="#46474D" stroke-width="7.587" stroke-miterlimit="10" cx="35.335" cy="76.527" r="30.593"/><circle fill="none" stroke="#46474D" stroke-width="6.177" stroke-miterlimit="10" cx="153.427" cy="76.527" r="32.593"/><path fill="#46474D" d="m80.265 81.509 1.896-2.732c.599-.873 1.341-1.922 2.198-3.119l2.881-4.021 3.445-4.728c1.217-1.683 2.542-3.423 3.889-5.242 1.358-1.81 2.738-3.7 4.184-5.584l4.369-5.726c2.908-3.854 5.913-7.628 8.688-11.202 1.398-1.778 2.727-3.515 4.027-5.13l3.649-4.563 5.462-6.829.882-1.098c.271-.308.695-.414 1.139-.417.216-.008.468.036.661.053.238.054.408.075.601.137.343.09.608.207.592.194l2.782 2.252c-.016-.013.154.222.313.539.101.176.158.338.26.559.057.185.152.423.19.635.088.435.073.872-.171 1.201l-.89 1.092-5.541 6.766a21539.46 21539.46 0 0 0-3.702 4.521c-1.308 1.608-2.73 3.27-4.178 5.007-2.916 3.459-5.981 7.185-9.144 10.832l-4.689 5.466c-1.542 1.807-3.103 3.551-4.59 5.256-1.498 1.697-2.924 3.356-4.316 4.896l-3.905 4.355-3.333 3.656a192.885 192.885 0 0 1-2.591 2.8l-2.278 2.424-2.78-2.25z"/><path fill="#46474D" d="M69.257 35.146s3.682-1.456 9.256-3.468a576.798 576.798 0 0 1 9.547-3.359c3.494-1.226 7.245-2.449 10.99-3.695 3.741-1.257 7.513-2.413 11.033-3.55 3.519-1.143 6.831-2.113 9.657-2.989l3.861-1.179c1.154-.336 2.141-.692 2.987-.875 1.72-.271 3.141 1.037 3.141 1.037l1.025 3.43s-.47 1.873-2.056 2.591c-.808.312-1.828.556-2.978.908l-3.875 1.133c-2.843.819-6.145 1.826-9.713 2.802-3.566.982-7.354 2.085-11.171 3.088-3.814 1.013-7.622 2.05-11.215 2.942-3.583.926-6.942 1.74-9.824 2.432-5.764 1.378-9.641 2.181-9.641 2.182l-1.024-3.43z"/><path fill="none" stroke="#46474D" stroke-width="3.851" stroke-miterlimit="10" d="m119.57 7.18 10.712 26.112"/><path fill="none" stroke="#46474D" stroke-width="6.744" stroke-miterlimit="10" d="m125.729 12.383 27.698 64.144"/><path fill="none" stroke="#46474D" stroke-width="5.17" stroke-miterlimit="10" d="m118.955 11.695 10.46-4.716"/><path fill="none" stroke="#46474D" stroke-width="5.494" stroke-linecap="round" stroke-miterlimit="10" d="m122.203 2.747 8.598 4.858"/><path fill="#46474D" stroke="#46474D" stroke-width="4.215" stroke-linejoin="round" stroke-miterlimit="10" d="m53.437 22.28 26.305-1.716-7.887 2.61-16.09 3.591z"/><circle fill="#46474D" cx="81.655" cy="82.635" r="9.161"/><path fill="none" stroke="#46474D" stroke-width="3.579" stroke-linecap="round" stroke-miterlimit="10" d="m81.656 82.635 10.92 13.914M70.919 68.723l10.917 13.912M88.36 96.549h7.084M66.641 68.723h7.083"/><path fill="none" stroke="#46474D" stroke-width="6.744" stroke-linecap="round" stroke-linejoin="round" stroke-miterlimit="10" d="m81.656 82.635-46.322-5.244"/><path fill="none" stroke="#46474D" stroke-width="3.579" stroke-linejoin="round" stroke-miterlimit="10" d="M36.105 77.605 54.622 43.73M66.648 24.844l15.008 57.791"/><path fill="#46474D" stroke="#46474D" stroke-width="3.372" stroke-linecap="round" stroke-linejoin="round" stroke-miterlimit="10" d="m81.354 41.611-27.246 2.532 18.781 5.435z"/><path fill="#46474D" d="M114.934 26.205s5.552 5.058 5.271 5.198c-.281.141 4.004-7.164 4.004-7.164l-9.275 1.966z"/><path fill="none" stroke="#46474D" stroke-width="6.744" stroke-linecap="round" stroke-miterlimit="10" d="m131.101 25.123 22.326 51.404"/><path fill="none" stroke="#46474D" stroke-width="1.531" stroke-linecap="round" stroke-linejoin="round" stroke-miterlimit="10" d="m84.49 45.043-5.185 2.92M84.856 48.273l-5.185 2.921M85.221 51.504l-5.184 2.919M85.587 54.734l-5.185 2.92M85.952 57.964l-5.186 2.921M86.305 61.105l-5.183 2.918"/><path fill="none" stroke="#46474D" stroke-width="1.485" stroke-linecap="round" stroke-linejoin="round" stroke-miterlimit="10" d="m81.393 42.04 2.984 26.386"/><path fill="none" stroke="#46474D" stroke-width="4.215" stroke-linejoin="round" stroke-miterlimit="10" d="m82.791 54.395 1.586 14.031"/><path fill="#FFF" stroke="#46474D" stroke-width="4.215" stroke-linecap="round" stroke-linejoin="round" stroke-miterlimit="10" d="M80.151 69.169s5.408-.772 8.146 1.476"/><circle fill="none" stroke="#46474D" stroke-width="8.608" stroke-miterlimit="10" stroke-dasharray="2.532" cx="35.334" cy="76.527" r="31.03"/><path fill="none" stroke="#46474D" stroke-width="6.369" stroke-miterlimit="10" stroke-dasharray="2.532" d="M187.035 76.527c0 18.561-15.049 33.605-33.608 33.605-18.558 0-33.605-15.045-33.605-33.605 0-18.559 15.048-33.604 33.605-33.604 18.559 0 33.608 15.046 33.608 33.604z"/><g fill="#4CFF3A" stroke="#46474D" stroke-width=".152" stroke-miterlimit="10"><path d="M98.065 33.899a1.108 1.108 0 0 0 1.543-.201 1.104 1.104 0 0 0-.204-1.538 1.093 1.093 0 0 0-1.535.2 1.092 1.092 0 0 0 .196 1.539z"/><path d="M96.728 35.639c.483.367 1.169.28 1.542-.201a1.103 1.103 0 0 0-.204-1.538 1.09 1.09 0 0 0-1.536.198 1.095 1.095 0 0 0 .198 1.541zM100.356 34.275a1.096 1.096 0 1 0 1.34-1.735 1.096 1.096 0 0 0-1.34 1.735z"/><path d="M99.021 36.016a1.092 1.092 0 0 0 1.535-.199 1.094 1.094 0 0 0-.2-1.541 1.097 1.097 0 0 0-1.335 1.74zM103.949 32.889a1.09 1.09 0 0 0 1.535-.204 1.092 1.092 0 0 0-.202-1.532 1.094 1.094 0 1 0-1.333 1.736z"/><path d="M102.608 34.623a1.087 1.087 0 0 0 1.536-.199 1.092 1.092 0 0 0-.195-1.535 1.098 1.098 0 0 0-1.543.201 1.1 1.1 0 0 0 .202 1.533z"/><path d="M101.28 36.369a1.085 1.085 0 0 0 1.526-.207 1.09 1.09 0 0 0-.198-1.539 1.102 1.102 0 0 0-1.539.204 1.102 1.102 0 0 0 .211 1.542zM99.941 38.106a1.086 1.086 0 0 0 1.529-.207 1.083 1.083 0 0 0-.198-1.531 1.09 1.09 0 0 0-1.535.198 1.097 1.097 0 0 0 .204 1.54zM107.56 31.518a1.104 1.104 0 0 0 1.541-.198 1.1 1.1 0 0 0-.204-1.54 1.092 1.092 0 0 0-1.533.199 1.1 1.1 0 0 0 .196 1.539z"/><path d="M106.225 33.256c.479.37 1.172.279 1.541-.199a1.1 1.1 0 0 0-1.744-1.338 1.098 1.098 0 0 0 .203 1.537z"/><path d="M104.889 34.996a1.095 1.095 0 0 0 1.535-.203 1.093 1.093 0 0 0-.199-1.537 1.1 1.1 0 0 0-1.54.201 1.095 1.095 0 0 0 .204 1.539z"/><path d="M103.557 36.732a1.095 1.095 0 1 0 1.332-1.736 1.094 1.094 0 1 0-1.332 1.736z"/><path d="M102.217 38.469a1.09 1.09 0 0 0 1.538-.197 1.106 1.106 0 0 0-.198-1.539 1.1 1.1 0 0 0-1.542.2 1.094 1.094 0 0 0 .202 1.536zM111.154 30.126c.478.372 1.16.281 1.531-.198a1.087 1.087 0 0 0-.201-1.537 1.094 1.094 0 0 0-1.539.2 1.101 1.101 0 0 0 .209 1.535z"/><path d="M109.815 31.863a1.097 1.097 0 0 0 1.534-.199 1.103 1.103 0 0 0-.195-1.538 1.098 1.098 0 0 0-1.537.202 1.085 1.085 0 0 0 .198 1.535z"/><path d="M108.477 33.605a1.106 1.106 0 0 0 1.541-.203 1.107 1.107 0 0 0-.202-1.539 1.097 1.097 0 0 0-1.535.204 1.087 1.087 0 0 0 .196 1.538z"/><path d="M107.145 35.344a1.096 1.096 0 1 0 1.33-1.737 1.096 1.096 0 0 0-1.33 1.737z"/><path d="M105.807 37.081a1.09 1.09 0 0 0 1.536-.202 1.096 1.096 0 0 0-.198-1.535 1.106 1.106 0 0 0-1.54.199 1.093 1.093 0 0 0 .202 1.538z"/><path d="M104.467 38.822c.479.367 1.17.279 1.536-.204a1.094 1.094 0 1 0-1.731-1.336 1.094 1.094 0 0 0 .195 1.54zM103.13 40.561a1.106 1.106 0 0 0 1.541-.197 1.104 1.104 0 0 0-.204-1.541 1.095 1.095 0 1 0-1.337 1.738zM113.392 30.466a1.087 1.087 0 0 0 1.535-.202 1.094 1.094 0 0 0-.203-1.539 1.094 1.094 0 0 0-1.535.203 1.093 1.093 0 0 0 .203 1.538z"/><path d="M112.053 32.201a1.097 1.097 0 1 0 1.334-1.737 1.097 1.097 0 0 0-1.334 1.737z"/><path d="M110.715 33.941a1.098 1.098 0 0 0 1.541-.199 1.105 1.105 0 0 0-.203-1.541 1.098 1.098 0 0 0-1.338 1.74zM109.382 35.682a1.098 1.098 0 0 0 1.536-.203 1.1 1.1 0 0 0-.203-1.537 1.1 1.1 0 0 0-1.536.201 1.091 1.091 0 0 0 .203 1.539z"/><path d="M108.043 37.422a1.094 1.094 0 0 0 1.535-.205 1.09 1.09 0 0 0-.196-1.535 1.099 1.099 0 0 0-1.54.203 1.092 1.092 0 0 0 .201 1.537z"/><path d="M106.705 39.156a1.091 1.091 0 0 0 1.537-.199 1.093 1.093 0 0 0-.199-1.535 1.101 1.101 0 0 0-1.54.194 1.105 1.105 0 0 0 .202 1.54z"/><path d="M105.371 40.9a1.1 1.1 0 0 0 1.539-.202 1.103 1.103 0 0 0-.205-1.542 1.094 1.094 0 0 0-1.535.205 1.1 1.1 0 0 0 .201 1.539zM114.309 32.553a1.087 1.087 0 0 0 1.529-.2 1.09 1.09 0 0 0-.198-1.538 1.088 1.088 0 0 0-1.534.205 1.086 1.086 0 0 0 .203 1.533z"/><path d="M112.963 34.29a1.098 1.098 0 0 0 1.346-1.737 1.099 1.099 0 0 0-1.346 1.737z"/><path d="M111.632 36.029a1.099 1.099 0 0 0 1.54-.203 1.09 1.09 0 0 0-.209-1.536 1.096 1.096 0 0 0-1.331 1.739z"/><path d="M110.294 37.771a1.1 1.1 0 0 0 1.541-.208 1.096 1.096 0 0 0-1.739-1.332 1.1 1.1 0 0 0 .198 1.54z"/><path d="M108.955 39.508c.482.367 1.17.277 1.542-.199a1.092 1.092 0 0 0-.203-1.537 1.097 1.097 0 0 0-1.54.197 1.11 1.11 0 0 0 .201 1.539z"/><path d="M107.622 41.248a1.103 1.103 0 0 0 1.538-.201 1.1 1.1 0 0 0-.205-1.539 1.097 1.097 0 0 0-1.333 1.74z"/><path d="M106.286 42.986a1.105 1.105 0 0 0 1.54-.201 1.096 1.096 0 0 0-.204-1.537 1.088 1.088 0 0 0-1.534.201 1.089 1.089 0 0 0 .198 1.537zM90.864 36.659c.478.368 1.168.28 1.532-.202a1.088 1.088 0 0 0-.2-1.536 1.098 1.098 0 0 0-1.535.2 1.1 1.1 0 0 0 .203 1.538z"/><path d="M89.521 38.4a1.094 1.094 0 0 0 1.538-.207 1.09 1.09 0 0 0-.195-1.534 1.104 1.104 0 0 0-1.543.199 1.11 1.11 0 0 0 .2 1.542zM94.479 35.29a1.096 1.096 0 0 0 1.533-.196 1.1 1.1 0 0 0-.201-1.541 1.095 1.095 0 1 0-1.332 1.737z"/><path d="M93.137 37.031a1.106 1.106 0 0 0 1.539-.205c.37-.478.278-1.17-.197-1.536a1.093 1.093 0 0 0-1.541.204 1.102 1.102 0 0 0 .199 1.537z"/><path d="M91.804 38.764a1.094 1.094 0 0 0 1.535-.195 1.089 1.089 0 0 0-.202-1.537 1.093 1.093 0 1 0-1.333 1.732zM95.396 37.379a1.1 1.1 0 0 0 1.536-.203 1.09 1.09 0 0 0-.205-1.537 1.097 1.097 0 0 0-1.535.197 1.105 1.105 0 0 0 .204 1.543z"/><path d="M94.057 39.115a1.098 1.098 0 0 0 1.537-.199 1.104 1.104 0 0 0-.197-1.537 1.1 1.1 0 0 0-1.543.196 1.103 1.103 0 0 0 .203 1.54zM92.72 40.854a1.103 1.103 0 0 0 1.54-.199 1.102 1.102 0 0 0-.203-1.539 1.092 1.092 0 0 0-1.535.197 1.093 1.093 0 0 0 .198 1.541zM97.685 37.754a1.095 1.095 0 0 0 1.535-.199c.371-.48.28-1.166-.198-1.539a1.096 1.096 0 0 0-1.337 1.738z"/><path d="M96.348 39.492a1.096 1.096 0 1 0 1.338-1.736 1.096 1.096 0 0 0-1.338 1.736z"/><path d="M95.015 41.232a1.094 1.094 0 0 0 1.534-.202 1.1 1.1 0 0 0-.201-1.538 1.097 1.097 0 0 0-1.535.2 1.088 1.088 0 0 0 .202 1.54zM98.604 39.846a1.093 1.093 0 0 0 1.533-.207 1.088 1.088 0 0 0-.195-1.532 1.099 1.099 0 0 0-1.542.198 1.1 1.1 0 0 0 .204 1.541z"/><path d="M97.264 41.583c.48.366 1.171.277 1.541-.206a1.091 1.091 0 0 0-.201-1.531 1.09 1.09 0 0 0-1.537.198 1.098 1.098 0 0 0 .197 1.539z"/><path d="M95.933 43.32a1.095 1.095 0 0 0 1.331-1.737 1.094 1.094 0 1 0-1.331 1.737zM100.879 40.21c.479.368 1.17.284 1.544-.2a1.106 1.106 0 0 0-.206-1.541 1.106 1.106 0 0 0-1.541.203 1.096 1.096 0 0 0 .203 1.538z"/><path d="M99.542 41.951a1.107 1.107 0 0 0 1.542-.203 1.098 1.098 0 0 0-.205-1.538 1.105 1.105 0 0 0-1.54.198 1.107 1.107 0 0 0 .203 1.543zM98.21 43.689a1.099 1.099 0 0 0 1.535-.201 1.1 1.1 0 0 0-.203-1.537 1.094 1.094 0 1 0-1.332 1.738zM101.798 42.301a1.097 1.097 0 0 0 1.536-.207 1.087 1.087 0 0 0-.204-1.533 1.093 1.093 0 0 0-1.534.201 1.101 1.101 0 0 0 .202 1.539z"/><path d="M100.458 44.037a1.102 1.102 0 0 0 1.539-.199 1.098 1.098 0 0 0-1.741-1.338 1.106 1.106 0 0 0 .202 1.537z"/><path d="M99.121 45.777a1.102 1.102 0 0 0 1.537-.201 1.089 1.089 0 0 0-.2-1.539 1.1 1.1 0 0 0-1.539.201 1.105 1.105 0 0 0 .202 1.539zM104.035 42.635a1.1 1.1 0 0 0 1.537-.197c.372-.48.276-1.17-.201-1.537a1.091 1.091 0 0 0-1.539.198 1.09 1.09 0 0 0 .203 1.536z"/><path d="M102.698 44.375a1.089 1.089 0 0 0 1.533-.201 1.093 1.093 0 0 0-.196-1.539 1.102 1.102 0 0 0-1.541.203 1.102 1.102 0 0 0 .204 1.537z"/><path d="M101.357 46.113a1.1 1.1 0 0 0 1.544-.203 1.096 1.096 0 0 0-1.743-1.334 1.1 1.1 0 0 0 .199 1.537zM104.948 44.721a1.102 1.102 0 0 0 1.541-.197c.371-.484.28-1.17-.203-1.537a1.096 1.096 0 0 0-1.536.198 1.1 1.1 0 0 0 .198 1.536z"/><path d="M103.613 46.461a1.1 1.1 0 0 0 1.54-.199 1.098 1.098 0 0 0-1.741-1.338 1.105 1.105 0 0 0 .201 1.537z"/><path d="M102.277 48.199a1.095 1.095 0 0 0 1.336-1.738 1.089 1.089 0 0 0-1.532.203 1.085 1.085 0 0 0 .196 1.535zM87.245 38.083a1.097 1.097 0 0 0 1.342-1.735 1.1 1.1 0 0 0-1.544.195 1.102 1.102 0 0 0 .202 1.54z"/><path d="M85.91 39.822a1.101 1.101 0 0 0 1.539-.201 1.098 1.098 0 0 0-.204-1.538 1.09 1.09 0 0 0-1.534.203 1.096 1.096 0 0 0 .199 1.536zM88.162 40.172a1.1 1.1 0 0 0 1.539-.203 1.095 1.095 0 1 0-1.74-1.332 1.099 1.099 0 0 0 .201 1.535z"/><path d="M86.822 41.911a1.11 1.11 0 0 0 1.545-.204 1.098 1.098 0 0 0-1.74-1.336 1.1 1.1 0 0 0 .195 1.54zM90.44 40.538a1.104 1.104 0 0 0 1.54-.198 1.1 1.1 0 0 0-.2-1.539 1.11 1.11 0 0 0-1.543.197 1.1 1.1 0 0 0 .203 1.54z"/><path d="M89.108 42.276a1.095 1.095 0 1 0-.202-1.536 1.087 1.087 0 0 0 .202 1.536z"/><path d="M87.772 44.018a1.095 1.095 0 0 0 1.534-.201 1.103 1.103 0 0 0-.198-1.54 1.103 1.103 0 0 0-1.54.2 1.094 1.094 0 0 0 .204 1.541zM91.353 42.627a1.112 1.112 0 0 0 1.546-.199 1.095 1.095 0 0 0-.209-1.539 1.086 1.086 0 0 0-1.527.199 1.093 1.093 0 0 0 .19 1.539z"/><path d="M90.02 44.364a1.1 1.1 0 0 0 1.543-.202 1.097 1.097 0 0 0-.21-1.535 1.094 1.094 0 1 0-1.333 1.737zM88.682 46.104a1.096 1.096 0 1 0 1.338-1.739 1.11 1.11 0 0 0-1.54.2 1.104 1.104 0 0 0 .202 1.539zM93.647 43.006c.483.366 1.17.277 1.541-.199a1.095 1.095 0 0 0-.202-1.539 1.09 1.09 0 0 0-1.535.202 1.094 1.094 0 0 0 .196 1.536z"/><path d="M92.316 44.744a1.088 1.088 0 0 0 1.529-.202 1.094 1.094 0 1 0-1.529.202z"/><path d="M90.977 46.482a1.095 1.095 0 0 0 1.535-.201 1.102 1.102 0 0 0-.195-1.537 1.095 1.095 0 0 0-1.536.201 1.09 1.09 0 0 0 .196 1.537z"/><path d="M89.64 48.219a1.1 1.1 0 0 0 1.54-.199 1.096 1.096 0 1 0-1.54.199z"/><path d="M88.308 49.959a1.095 1.095 0 1 0-.203-1.537 1.09 1.09 0 0 0 .203 1.537zM94.565 45.094a1.094 1.094 0 0 0 1.534-.203 1.09 1.09 0 0 0-.197-1.537 1.098 1.098 0 1 0-1.337 1.74z"/><path d="M93.225 46.83a1.106 1.106 0 0 0 1.545-.203 1.093 1.093 0 0 0-.204-1.533 1.097 1.097 0 0 0-1.341 1.736z"/><path d="M91.895 48.57c.476.369 1.168.28 1.535-.2a1.099 1.099 0 0 0-.205-1.54 1.087 1.087 0 0 0-1.532.203 1.094 1.094 0 0 0 .202 1.537z"/><path d="M90.557 50.307a1.091 1.091 0 0 0 1.533-.202 1.093 1.093 0 0 0-.195-1.534 1.1 1.1 0 0 0-1.542.199 1.098 1.098 0 0 0 .204 1.537z"/><path d="M89.225 52.045a1.094 1.094 0 0 0 1.534-.197 1.105 1.105 0 0 0-.202-1.541 1.097 1.097 0 0 0-1.54.203c-.37.48-.279 1.168.208 1.535zM96.843 45.46a1.107 1.107 0 0 0 1.542-.198 1.103 1.103 0 0 0-.203-1.541 1.103 1.103 0 0 0-1.542.203 1.098 1.098 0 0 0 .203 1.536z"/><path d="M95.511 47.199c.478.37 1.169.277 1.534-.201a1.095 1.095 0 1 0-1.534.201z"/><path d="M94.172 48.939a1.093 1.093 0 0 0 1.535-.202 1.098 1.098 0 0 0-.196-1.538 1.1 1.1 0 0 0-1.542.202 1.092 1.092 0 0 0 .203 1.538z"/><path d="M92.84 50.676a1.094 1.094 0 0 0 1.332-1.736 1.1 1.1 0 0 0-1.54.199 1.093 1.093 0 0 0 .208 1.537z"/><path d="M91.494 52.412a1.101 1.101 0 0 0 1.544-.199 1.102 1.102 0 0 0-.198-1.537 1.1 1.1 0 0 0-1.539.203 1.094 1.094 0 0 0 .193 1.533z"/><path d="M90.165 54.151a1.098 1.098 0 0 0 1.541-.2 1.1 1.1 0 0 0-.212-1.539 1.09 1.09 0 0 0-1.529.204 1.088 1.088 0 0 0 .2 1.535zM97.762 47.547a1.092 1.092 0 0 0 1.533-.201 1.092 1.092 0 1 0-1.731-1.336 1.085 1.085 0 0 0 .198 1.537z"/><path d="M96.422 49.286a1.1 1.1 0 0 0 1.541-.2 1.103 1.103 0 0 0-.201-1.539 1.097 1.097 0 0 0-1.34 1.739z"/><path d="M95.091 51.025a1.097 1.097 0 0 0 1.535-.199 1.09 1.09 0 0 0-.204-1.54 1.095 1.095 0 1 0-1.331 1.739z"/><path d="M93.752 52.764a1.1 1.1 0 0 0 1.537-.202 1.1 1.1 0 0 0-.198-1.536 1.09 1.09 0 0 0-1.535.199 1.09 1.09 0 0 0 .196 1.539z"/><path d="M92.413 54.504c.479.365 1.17.273 1.538-.205a1.103 1.103 0 0 0-.199-1.535 1.09 1.09 0 0 0-1.535.201 1.098 1.098 0 0 0 .196 1.539z"/><path d="M91.081 56.242a1.098 1.098 0 0 0 1.536-.199 1.102 1.102 0 0 0-.204-1.539 1.091 1.091 0 0 0-1.536.201 1.093 1.093 0 0 0 .204 1.537z"/><path d="M89.744 57.982a1.097 1.097 0 0 0 1.337-1.74 1.1 1.1 0 0 0-1.54.2 1.102 1.102 0 0 0 .203 1.54zM99.998 47.883a1.1 1.1 0 0 0 1.541-.193 1.108 1.108 0 0 0-.201-1.545 1.096 1.096 0 0 0-1.537.205 1.091 1.091 0 0 0 .197 1.533z"/><path d="M98.661 49.624a1.103 1.103 0 0 0 1.541-.196 1.11 1.11 0 0 0-.204-1.545 1.097 1.097 0 0 0-1.337 1.741z"/><path d="M97.33 51.365a1.089 1.089 0 0 0 1.531-.205 1.086 1.086 0 0 0-.2-1.536 1.09 1.09 0 0 0-1.536.204 1.092 1.092 0 0 0 .205 1.537z"/><path d="M95.99 53.103a1.097 1.097 0 1 0-.204-1.538 1.102 1.102 0 0 0 .204 1.538z"/><path d="M94.652 54.844a1.102 1.102 0 0 0 1.541-.207 1.09 1.09 0 0 0-.203-1.534 1.102 1.102 0 0 0-1.542.201 1.111 1.111 0 0 0 .204 1.54z"/><path d="M93.318 56.582a1.102 1.102 0 0 0 1.537-.201 1.098 1.098 0 0 0-.203-1.537 1.09 1.09 0 0 0-1.533.198 1.095 1.095 0 0 0 .199 1.54z"/><path d="M91.983 58.318a1.092 1.092 0 0 0 1.533-.199 1.097 1.097 0 0 0-.198-1.537 1.092 1.092 0 0 0-1.541.199 1.091 1.091 0 0 0 .206 1.537zM100.91 49.973a1.1 1.1 0 0 0 1.542-.201 1.1 1.1 0 0 0-1.741-1.34 1.107 1.107 0 0 0 .199 1.541z"/><path d="M99.578 51.714a1.106 1.106 0 0 0 1.541-.2 1.1 1.1 0 0 0-1.74-1.343 1.103 1.103 0 0 0 .199 1.543z"/><path d="M98.24 53.451c.483.365 1.17.277 1.535-.201a1.088 1.088 0 0 0-.197-1.536 1.102 1.102 0 0 0-1.543.196 1.111 1.111 0 0 0 .205 1.541z"/><path d="M96.91 55.189a1.094 1.094 0 0 0 1.533-.199 1.098 1.098 0 0 0-1.74-1.338 1.094 1.094 0 0 0 .207 1.537z"/><path d="M95.57 56.928a1.096 1.096 0 0 0 1.539-.203 1.104 1.104 0 0 0-.199-1.535 1.093 1.093 0 0 0-1.539.201c-.37.48-.284 1.167.199 1.537z"/><path d="M94.231 58.665c.484.366 1.17.279 1.541-.198a1.096 1.096 0 1 0-1.737-1.338 1.092 1.092 0 0 0 .196 1.536z"/><path d="M92.9 60.404a1.1 1.1 0 0 0 1.532-.201 1.088 1.088 0 0 0-.201-1.538 1.095 1.095 0 1 0-1.331 1.739zM90.645 60.057a1.095 1.095 0 0 0 1.534-.2 1.096 1.096 0 1 0-1.534.2zM91.454 62.203a1.093 1.093 0 0 0 1.532-.199 1.095 1.095 0 0 0-.195-1.539 1.098 1.098 0 0 0-1.543.202 1.1 1.1 0 0 0 .206 1.536zM115.595 30.705a1.104 1.104 0 0 0 1.545-.202 1.103 1.103 0 0 0-.199-1.536 1.098 1.098 0 0 0-1.538.202 1.095 1.095 0 0 0 .192 1.536z"/></g></svg>