<svg xmlns="http://www.w3.org/2000/svg" width="190.219" height="113.318" xml:space="preserve"><path fill="#FFC246" stroke="#46474D" stroke-width=".152" stroke-miterlimit="10" d="m94.321 61.902 8.512-10.762-2.343-1.855-.63-.496-.499.629.302.237-.502.639-.303-.237-.497.628.301.24-.501.634-.303-.237-.497.631.301.237-.504.636-.303-.238-.497.631.3.236-.505.638-.299-.238-.501.631.305.237-.505.638-.3-.238-.495.629.3.238-.506.635-.301-.237-.498.63.303.241-.505.633-.299-.238-.5.633.301.234-.502.638-.302-.239-.5.632.302.238z"/><circle fill="#FFC246" stroke="#46474D" stroke-width=".152" stroke-miterlimit="10" cx="35.942" cy="76.391" r="8.747"/><circle fill="none" stroke="#46474D" stroke-width="7.587" stroke-miterlimit="10" cx="35.335" cy="76.527" r="30.594"/><circle fill="none" stroke="#46474D" stroke-width="6.177" stroke-miterlimit="10" cx="153.428" cy="76.527" r="32.593"/><path fill="#46474D" d="m80.265 81.509 1.897-2.732c.599-.873 1.341-1.922 2.198-3.119l2.881-4.021 3.445-4.728c1.218-1.683 2.542-3.423 3.89-5.242 1.358-1.81 2.737-3.699 4.184-5.584l4.368-5.727c2.909-3.854 5.912-7.629 8.689-11.201 1.397-1.777 2.727-3.516 4.026-5.13l3.65-4.563 5.462-6.829.882-1.098c.272-.309.695-.414 1.14-.418.216-.008.468.036.661.053.237.055.408.076.601.138.343.089.608.207.592.194l2.782 2.252c-.017-.013.154.223.314.539.101.176.157.338.259.559.057.185.152.423.189.635.088.436.074.872-.171 1.201l-.888 1.092c-1.34 1.634-3.248 3.967-5.541 6.767-1.148 1.399-2.39 2.917-3.703 4.521-1.309 1.607-2.729 3.27-4.18 5.008-2.914 3.459-5.979 7.184-9.143 10.832l-4.69 5.466c-1.541 1.808-3.102 3.55-4.59 5.257-1.498 1.697-2.924 3.355-4.314 4.896-1.388 1.545-2.697 3.006-3.906 4.355l-3.332 3.654a198.818 198.818 0 0 1-2.592 2.801c-1.448 1.543-2.278 2.424-2.278 2.424l-2.782-2.252z"/><path fill="#46474D" d="M69.259 35.147s3.684-1.457 9.257-3.469a563.932 563.932 0 0 1 9.545-3.359c3.494-1.226 7.245-2.449 10.99-3.695 3.741-1.258 7.514-2.413 11.032-3.55 3.518-1.143 6.831-2.113 9.656-2.989 1.416-.432 2.713-.828 3.861-1.18 1.154-.335 2.142-.691 2.988-.874 1.72-.271 3.141 1.037 3.141 1.037l1.025 3.429s-.47 1.873-2.057 2.592c-.809.312-1.828.556-2.977.908-1.152.338-2.455.719-3.875 1.133-2.844.82-6.145 1.826-9.713 2.803-3.566.981-7.354 2.086-11.171 3.088-3.813 1.014-7.622 2.05-11.216 2.942-3.581.927-6.94 1.74-9.822 2.433-5.764 1.377-9.641 2.18-9.641 2.18l-1.023-3.429z"/><path fill="none" stroke="#46474D" stroke-width="3.851" stroke-miterlimit="10" d="m119.572 7.18 10.71 26.112"/><path fill="none" stroke="#46474D" stroke-width="6.744" stroke-miterlimit="10" d="m125.729 12.384 27.699 64.143"/><path fill="none" stroke="#46474D" stroke-width="5.17" stroke-miterlimit="10" d="m118.956 11.695 10.459-4.716"/><path fill="none" stroke="#46474D" stroke-width="5.494" stroke-linecap="round" stroke-miterlimit="10" d="m122.205 2.747 8.598 4.858"/><path fill="#46474D" stroke="#46474D" stroke-width="4.215" stroke-linejoin="round" stroke-miterlimit="10" d="m53.438 22.28 26.304-1.716-7.884 2.611-16.093 3.59z"/><circle fill="#46474D" cx="81.658" cy="82.635" r="9.161"/><path fill="none" stroke="#46474D" stroke-width="3.579" stroke-linecap="round" stroke-miterlimit="10" d="M81.657 82.635 92.576 96.55M70.919 68.723l10.919 13.912M88.362 96.55h7.083M66.642 68.723h7.083"/><path fill="none" stroke="#46474D" stroke-width="6.744" stroke-linecap="round" stroke-linejoin="round" stroke-miterlimit="10" d="m81.657 82.635-46.322-5.244"/><path fill="none" stroke="#46474D" stroke-width="3.579" stroke-linejoin="round" stroke-miterlimit="10" d="M36.108 77.605 54.623 43.73M66.651 24.843l15.006 57.792"/><path fill="#46474D" stroke="#46474D" stroke-width="3.372" stroke-linecap="round" stroke-linejoin="round" stroke-miterlimit="10" d="M81.355 41.611 54.11 44.143l18.78 5.435z"/><path fill="#46474D" d="M114.937 26.205s5.551 5.058 5.271 5.198c-.282.141 4.004-7.164 4.004-7.164l-9.275 1.966z"/><path fill="none" stroke="#46474D" stroke-width="6.744" stroke-linecap="round" stroke-miterlimit="10" d="m131.101 25.123 22.327 51.404"/><path fill="none" stroke="#46474D" stroke-width="1.531" stroke-linecap="round" stroke-linejoin="round" stroke-miterlimit="10" d="m84.491 45.043-5.183 2.92M84.858 48.273l-5.187 2.921M85.223 51.504l-5.185 2.919M85.589 54.734l-5.186 2.92M85.953 57.964l-5.184 2.921M86.308 61.105l-5.185 2.918"/><path fill="none" stroke="#46474D" stroke-width="1.485" stroke-linecap="round" stroke-linejoin="round" stroke-miterlimit="10" d="m81.396 42.04 2.983 26.385"/><path fill="none" stroke="#46474D" stroke-width="4.215" stroke-linejoin="round" stroke-miterlimit="10" d="m82.792 54.395 1.587 14.03"/><path fill="#FFF" stroke="#46474D" stroke-width="4.215" stroke-linecap="round" stroke-linejoin="round" stroke-miterlimit="10" d="M80.152 69.169s5.408-.772 8.146 1.476"/><circle fill="none" stroke="#46474D" stroke-width="8.608" stroke-miterlimit="10" stroke-dasharray="2.532" cx="35.335" cy="76.527" r="31.03"/><circle fill="none" stroke="#46474D" stroke-width="6.369" stroke-miterlimit="10" stroke-dasharray="2.532" cx="153.428" cy="76.527" r="33.606"/><g fill="#4CFF3A" stroke="#46474D" stroke-width=".152" stroke-miterlimit="10"><path d="M98.98 39.66a1.145 1.145 0 0 0 1.406-1.81 1.146 1.146 0 1 0-1.406 1.81z"/><path d="M97.572 41.469a1.142 1.142 0 0 0 1.607-.201 1.147 1.147 0 1 0-1.607.201zM101.358 40.057a1.144 1.144 0 1 0 1.406-1.808 1.145 1.145 0 0 0-1.406 1.808z"/><path d="M99.95 41.865a1.146 1.146 0 1 0 1.41-1.806 1.146 1.146 0 0 0-1.41 1.806z"/><circle cx="103.007" cy="41.34" r="1.145"/><circle cx="101.601" cy="43.149" r="1.146"/><path d="M104.644 42.611a1.146 1.146 0 1 0 1.406-1.809 1.14 1.14 0 0 0-1.607.202 1.146 1.146 0 0 0 .201 1.607z"/><path d="M103.236 44.42c.499.391 1.22.299 1.607-.199a1.145 1.145 0 1 0-1.607.199z"/><circle cx="106.291" cy="43.893" r="1.146"/><path d="M104.181 46.606a1.141 1.141 0 0 0 1.608-.2 1.145 1.145 0 1 0-1.808-1.404 1.14 1.14 0 0 0 .2 1.604z"/><circle cx="96.841" cy="42.409" r="1.146"/><path d="M94.729 45.125a1.145 1.145 0 0 0 1.608-.203c.39-.499.3-1.219-.199-1.607a1.148 1.148 0 1 0-1.409 1.81z"/><path d="M93.32 46.936c.5.387 1.221.298 1.61-.203a1.15 1.15 0 0 0-.201-1.607c-.501-.389-1.221-.301-1.608.199s-.3 1.218.199 1.611z"/><path d="M91.914 48.746a1.15 1.15 0 0 0 1.612-.2 1.151 1.151 0 0 0-.206-1.61 1.143 1.143 0 0 0-1.608.199 1.15 1.15 0 0 0 .202 1.611z"/><path d="M90.508 50.557a1.145 1.145 0 1 0 1.406-1.81 1.146 1.146 0 1 0-1.406 1.81z"/><path d="M89.1 52.365a1.147 1.147 0 0 0 1.608-.201 1.143 1.143 0 0 0-.2-1.607 1.145 1.145 0 1 0-1.408 1.808z"/><circle cx="88.397" cy="53.269" r="1.145"/><path d="M98.517 43.712c.5.39 1.221.298 1.608-.198a1.152 1.152 0 0 0-.201-1.611 1.148 1.148 0 0 0-1.61.203 1.142 1.142 0 0 0 .203 1.606z"/><path d="M97.108 45.521a1.148 1.148 0 0 0 1.611-.201c.385-.5.297-1.219-.203-1.608a1.142 1.142 0 0 0-1.606.202c-.391.5-.302 1.22.198 1.607z"/><circle cx="96.405" cy="46.428" r="1.148"/><path d="M94.294 49.143a1.148 1.148 0 0 0 1.61-.201 1.143 1.143 0 0 0-.203-1.607 1.145 1.145 0 1 0-1.407 1.808z"/><path d="M92.887 50.951c.5.392 1.218.301 1.608-.199a1.148 1.148 0 0 0-1.81-1.409 1.148 1.148 0 0 0 .202 1.608z"/><circle cx="92.184" cy="51.856" r="1.146"/><path d="M90.074 54.573a1.144 1.144 0 0 0 1.605-.202 1.145 1.145 0 1 0-1.605.202z"/><circle cx="100.165" cy="44.995" r="1.147"/><path d="M98.055 47.709A1.145 1.145 0 1 0 99.46 45.9a1.146 1.146 0 0 0-1.405 1.809z"/><path d="M96.646 49.521a1.153 1.153 0 0 0 1.612-.202 1.146 1.146 0 1 0-1.812-1.406 1.148 1.148 0 0 0 .2 1.608z"/><path d="M95.242 51.334a1.147 1.147 0 1 0-.202-1.613 1.15 1.15 0 0 0 .202 1.613zM93.835 53.14a1.144 1.144 0 1 0 1.407-1.805 1.143 1.143 0 1 0-1.407 1.805z"/><circle cx="93.13" cy="54.045" r="1.147"/><circle cx="91.723" cy="55.855" r="1.146"/><path d="M101.8 46.268a1.147 1.147 0 1 0 1.408-1.812 1.147 1.147 0 0 0-1.408 1.812z"/><path d="M100.394 48.076a1.145 1.145 0 1 0 1.406-1.808 1.14 1.14 0 0 0-1.606.2 1.14 1.14 0 0 0 .2 1.608zM102.747 48.453c.5.39 1.219.299 1.605-.203a1.143 1.143 0 0 0-.199-1.607 1.15 1.15 0 0 0-1.609.202c-.386.5-.298 1.219.203 1.608zM88.666 56.384a1.14 1.14 0 0 0 1.605-.204 1.142 1.142 0 0 0-.197-1.606 1.148 1.148 0 0 0-1.611.2 1.149 1.149 0 0 0 .203 1.61z"/><circle cx="90.315" cy="57.666" r="1.148"/><path d="M114.235 33.871a1.145 1.145 0 1 0 1.405-1.809 1.152 1.152 0 0 0-1.611.202c-.384.5-.296 1.22.206 1.607zM107.081 32.83a1.146 1.146 0 1 0 1.408-1.809 1.146 1.146 0 0 0-1.408 1.809zM109.433 33.209a1.148 1.148 0 0 0 1.41-1.813 1.144 1.144 0 0 0-1.607.204 1.143 1.143 0 0 0 .197 1.609z"/><path d="M108.028 35.018a1.146 1.146 0 0 0 1.607-.199c.389-.503.3-1.223-.203-1.609a1.14 1.14 0 0 0-1.606.201c-.389.497-.3 1.221.202 1.607z"/><circle cx="112.475" cy="32.668" r="1.148"/><circle cx="111.067" cy="34.479" r="1.146"/><path d="M112.716 35.762a1.148 1.148 0 0 0 1.611-.201 1.15 1.15 0 0 0-.2-1.608 1.151 1.151 0 0 0-1.611.2 1.15 1.15 0 0 0 .2 1.609z"/><path d="M111.31 37.574c.5.387 1.22.295 1.609-.205.389-.497.3-1.219-.203-1.607a1.142 1.142 0 0 0-1.605.201 1.15 1.15 0 0 0 .199 1.611zM103.295 34.244a1.143 1.143 0 0 0 1.606-.205 1.145 1.145 0 1 0-1.81-1.405c-.387.5-.297 1.219.204 1.61z"/><path d="M101.886 36.053a1.146 1.146 0 1 0 1.407-1.809 1.146 1.146 0 0 0-1.407 1.809z"/><path d="M100.478 37.859a1.148 1.148 0 0 0 1.612-.197 1.147 1.147 0 0 0-1.813-1.409 1.144 1.144 0 0 0 .201 1.606z"/><circle cx="106.378" cy="33.735" r="1.147"/><path d="M104.265 36.451c.5.387 1.221.299 1.613-.203a1.148 1.148 0 0 0-1.812-1.407c-.389.5-.299 1.222.199 1.61z"/><circle cx="103.562" cy="37.356" r="1.146"/><path d="M106.618 36.828a1.148 1.148 0 0 0 1.41-1.81 1.146 1.146 0 1 0-1.41 1.81z"/><circle cx="105.914" cy="37.733" r="1.147"/><path d="M103.804 40.445a1.146 1.146 0 0 0 1.61-.198 1.147 1.147 0 0 0-.204-1.608 1.143 1.143 0 1 0-1.406 1.806zM108.957 37.194a1.15 1.15 0 0 0 1.61-.2 1.15 1.15 0 0 0-.203-1.609 1.145 1.145 0 1 0-1.407 1.809zM107.55 39.002a1.144 1.144 0 1 0 1.407-1.807 1.145 1.145 0 1 0-1.407 1.807z"/><path d="M106.145 40.813c.499.39 1.217.299 1.606-.198a1.146 1.146 0 1 0-1.606.198zM109.903 39.384c.498.384 1.22.296 1.607-.204a1.14 1.14 0 0 0-.201-1.605 1.14 1.14 0 0 0-1.607.197c-.389.5-.298 1.22.201 1.612z"/><path d="M108.494 41.191a1.15 1.15 0 0 0 1.61-.201c.39-.5.297-1.223-.201-1.606a1.141 1.141 0 0 0-1.608.199c-.39.499-.3 1.221.199 1.608z"/><circle cx="107.79" cy="42.096" r="1.146"/></g></svg>