<svg xmlns="http://www.w3.org/2000/svg" width="200.886" height="112.079" xml:space="preserve"><path fill="#FFC246" stroke="#46474D" stroke-width=".147" stroke-miterlimit="10" d="m103.672 33.685-2.22-5.003-5.163 2.311-.006-.012-14.618 6.528 2.021 4.554-.002.002.379.858.858-.383-.181-.411.864-.384.178.404.86-.38-.184-.409.862-.386.186.41.857-.383-.182-.406.865-.388.183.407.001.003.004.008.853-.384-.176-.408.858-.382.174.396.004.001.01.008.85-.381-.178-.412.86-.381.178.397.006.006.859-.377-.184-.409.862-.385.174.394h.004l.008.013.852-.384-.182-.407.864-.386.174.395.006.002.002.011.859-.385-.186-.409.864-.383.18.398.002-.002.002.012.862-.381-.186-.411.864-.386.182.408.857-.382-.183-.409.863-.386.182.411.858-.383-.18-.411.86-.389.182.413.859-.385z"/><circle fill="#FFC246" stroke="#46474D" stroke-width=".147" stroke-miterlimit="10" cx="160.109" cy="71.265" r="12.548"/><circle fill="none" stroke="#46474D" stroke-width="6.555" stroke-miterlimit="10" cx="40.609" cy="69.766" r="36.88"/><circle fill="none" stroke="#46474D" stroke-width="6.555" stroke-miterlimit="10" cx="160.179" cy="71.372" r="36.881"/><path fill="none" stroke="#46474D" stroke-width="3.535" stroke-linejoin="round" stroke-miterlimit="10" d="M77.488 38.329 88.26 78.097l-47.65-8.331 36.878-31.437"/><path fill="#46474D" d="M86.831 77.059s2.798-4.107 7.068-10.214c2.128-3.059 4.606-6.631 7.308-10.424l8.431-11.91c2.854-4.065 5.786-8.076 8.5-11.86l7.439-10.328 5.263-7.306c.321-.438.593-.84.855-1.171.273-.323.569-.552.84-.714.549-.321 1.009-.371 1.008-.371l2.86 2.078s.095.452-.041 1.073a3.359 3.359 0 0 1-.42 1.021c-.233.352-.532.734-.849 1.176a61492.507 61492.507 0 0 0-12.845 17.529c-2.76 3.75-5.668 7.778-8.653 11.749l-8.722 11.699c-2.772 3.742-5.403 7.202-7.655 10.171-4.489 5.949-7.53 9.879-7.53 9.879l-2.857-2.077z"/><path fill="none" stroke="#46474D" stroke-width="3.535" stroke-miterlimit="10" d="m77.488 38.329 58.317-26.427"/><path fill="none" stroke="#46474D" stroke-width="4.409" stroke-miterlimit="10" d="m133.809 6.599 7.403 22.561"/><path fill="none" stroke="#46474D" stroke-width="4.409" stroke-linecap="round" stroke-miterlimit="10" d="m147.729 37.091 12.45 34.283"/><path fill="none" stroke="#46474D" stroke-width="2.939" stroke-miterlimit="10" d="m143.767 27.101 4.136 11.228"/><path fill="none" stroke="#46474D" stroke-width="2.911" stroke-miterlimit="10" d="m148.303 30.167 4.396 11.646"/><path fill="none" stroke="#46474D" stroke-width="4.042" stroke-linecap="round" stroke-miterlimit="10" d="m140.432 28.173 3.344-1.205"/><path fill="none" stroke="#46474D" stroke-width="3.535" stroke-miterlimit="10" d="m133.587 9.127 10.189-3.881"/><path fill="none" stroke="#46474D" stroke-width="3.535" stroke-linecap="round" stroke-miterlimit="10" d="m137.539 2.543 6.237 2.703"/><path fill="none" stroke="#46474D" stroke-width="3.535" stroke-linejoin="round" stroke-miterlimit="10" d="m52.876 1.768 25.649.899-20.517 1.041z"/><circle fill="#46474D" cx="88.866" cy="78.097" r="10.502"/><path fill="none" stroke="#46474D" stroke-width="3.535" stroke-linecap="round" stroke-miterlimit="10" d="M88.867 78.097 99.65 91.839M78.259 64.356l10.783 13.741M95.489 91.839h6.993M74.038 64.356h6.994"/><path fill="none" stroke="#46474D" stroke-width="3.535" stroke-linejoin="round" stroke-miterlimit="10" d="M77.488 38.329 67.074 3.895"/><path fill="#46474D" d="m138.317 20.337-2.512-7.317-3.405 1.711a6.73 6.73 0 0 0 .077-.15l-7.933 2.664s3.765 2.298 3.075 5.328c.441-.649.851-1.274 1.235-1.872l.603 3.157 8.86-3.521z"/><circle fill="none" stroke="#46474D" stroke-width="5.885" stroke-miterlimit="10" stroke-dasharray="2.366,2.366" cx="40.609" cy="69.768" r="37.666"/><path fill="none" stroke="#46474D" stroke-width="5.885" stroke-miterlimit="10" stroke-dasharray="2.3721,2.3721" d="M197.943 71.372c0 20.858-16.909 37.765-37.764 37.765-20.856 0-37.763-16.906-37.763-37.765 0-20.854 16.907-37.761 37.763-37.761 20.855 0 37.764 16.907 37.764 37.761z"/><g fill="#4CFF3A" stroke="#46474D" stroke-width=".147" stroke-miterlimit="10"><path d="M94.185 42.973a1.07 1.07 0 0 0 1.491-.233 1.067 1.067 0 0 0-.235-1.485 1.056 1.056 0 0 0-1.485.229 1.062 1.062 0 0 0 .229 1.489zM97.67 41.562a1.067 1.067 0 0 0 1.489-.229 1.066 1.066 0 0 0-.233-1.487 1.061 1.061 0 0 0-1.484.232 1.06 1.06 0 0 0 .228 1.484z"/><path d="M96.421 43.283c.474.35 1.141.24 1.483-.232a1.061 1.061 0 0 0-.235-1.489 1.062 1.062 0 0 0-1.482.235 1.07 1.07 0 0 0 .234 1.486zM101.12 40.129a1.061 1.061 0 0 0 1.486-.236 1.058 1.058 0 0 0-.233-1.481 1.06 1.06 0 0 0-1.487.231 1.067 1.067 0 0 0 .234 1.486z"/><path d="M99.864 41.844a1.053 1.053 0 0 0 1.486-.231 1.058 1.058 0 0 0-.229-1.483 1.062 1.062 0 1 0-1.257 1.714z"/><path d="M98.617 43.571c.474.34 1.133.238 1.476-.239a1.056 1.056 0 0 0-.229-1.488 1.069 1.069 0 0 0-1.487.235 1.074 1.074 0 0 0 .24 1.492z"/><path d="M97.363 45.289c.47.344 1.133.239 1.478-.239a1.051 1.051 0 0 0-.229-1.482 1.06 1.06 0 0 0-1.485.231 1.065 1.065 0 0 0 .236 1.49zM104.589 38.709a1.07 1.07 0 0 0 1.49-.229 1.066 1.066 0 0 0-1.719-1.257 1.066 1.066 0 0 0 .229 1.486z"/><path d="M103.337 40.428a1.068 1.068 0 0 0 1.491-.231 1.065 1.065 0 0 0-1.724-1.255 1.065 1.065 0 0 0 .233 1.486zM102.084 42.149c.478.345 1.141.24 1.484-.234a1.06 1.06 0 0 0-.231-1.486 1.066 1.066 0 0 0-1.488.234 1.066 1.066 0 0 0 .235 1.486z"/><path d="M100.834 43.865a1.065 1.065 0 0 0 1.486-.231 1.063 1.063 0 0 0-.235-1.485 1.07 1.07 0 0 0-1.491.231 1.062 1.062 0 0 0 .24 1.485z"/><path d="M99.58 45.584a1.057 1.057 0 0 0 1.486-.231 1.07 1.07 0 0 0-.231-1.488 1.067 1.067 0 0 0-1.489.232 1.063 1.063 0 0 0 .234 1.487zM108.042 37.271a1.054 1.054 0 0 0 1.48-.229 1.053 1.053 0 0 0-.233-1.485 1.06 1.06 0 1 0-1.247 1.714z"/><path d="M106.784 38.99a1.066 1.066 0 0 0 1.485-.23 1.07 1.07 0 0 0-.227-1.488 1.063 1.063 0 0 0-1.486.236 1.05 1.05 0 0 0 .228 1.482z"/><path d="M105.529 40.712a1.076 1.076 0 0 0 1.491-.234 1.063 1.063 0 1 0-1.72-1.253c-.35.472-.248 1.14.229 1.487z"/><path d="M104.281 42.431a1.058 1.058 0 0 0 1.483-.233 1.06 1.06 0 0 0-.235-1.485 1.062 1.062 0 1 0-1.248 1.718z"/><path d="M103.024 44.148a1.06 1.06 0 0 0 1.488-.234 1.062 1.062 0 0 0-.231-1.483 1.074 1.074 0 0 0-1.491.231 1.066 1.066 0 0 0 .234 1.486z"/><path d="M101.77 45.87a1.06 1.06 0 0 0 1.484-.235 1.06 1.06 0 1 0-1.712-1.255 1.064 1.064 0 0 0 .228 1.49z"/><path d="M100.516 47.589a1.07 1.07 0 0 0 1.488-.23c.345-.479.24-1.144-.233-1.488s-1.141-.244-1.483.231a1.063 1.063 0 0 0 .228 1.487zM110.219 37.547a1.058 1.058 0 0 0 1.485-.233 1.06 1.06 0 0 0-.237-1.488 1.063 1.063 0 1 0-1.248 1.721z"/><path d="M108.965 39.263a1.057 1.057 0 0 0 1.483-.23 1.06 1.06 0 0 0-.229-1.485 1.069 1.069 0 0 0-1.491.23 1.068 1.068 0 0 0 .237 1.485z"/><path d="M107.708 40.984a1.068 1.068 0 0 0 1.491-.232 1.074 1.074 0 0 0-.235-1.49 1.069 1.069 0 0 0-1.486.235 1.07 1.07 0 0 0 .23 1.487zM106.459 42.703c.472.344 1.135.24 1.484-.234a1.067 1.067 0 0 0-.235-1.484 1.066 1.066 0 0 0-1.485.232 1.06 1.06 0 0 0 .236 1.486z"/><path d="M105.204 44.424a1.058 1.058 0 0 0 1.483-.236 1.058 1.058 0 0 0-.228-1.485 1.066 1.066 0 0 0-1.489.236 1.058 1.058 0 0 0 .234 1.485z"/><path d="M103.949 46.139a1.056 1.056 0 0 0 1.483-.229 1.06 1.06 0 0 0-.229-1.486 1.067 1.067 0 0 0-1.489.227 1.072 1.072 0 0 0 .235 1.488z"/><path d="M102.697 47.863a1.066 1.066 0 0 0 1.252-1.724 1.064 1.064 0 0 0-1.486.237 1.068 1.068 0 0 0 .234 1.487zM111.161 39.547c.47.347 1.133.244 1.478-.231a1.054 1.054 0 0 0-.231-1.486 1.054 1.054 0 0 0-1.482.236 1.051 1.051 0 0 0 .235 1.481z"/><path d="M109.899 41.267a1.06 1.06 0 0 0 1.489-.235 1.065 1.065 0 0 0-.228-1.484 1.067 1.067 0 0 0-1.261 1.719zM110.42 33.736c.47.345 1.135.243 1.485-.23a1.073 1.073 0 0 0-.229-1.488 1.063 1.063 0 0 0-1.485.236 1.051 1.051 0 0 0 .229 1.482zM105.857 36.947a1.074 1.074 0 0 0 1.491-.235 1.073 1.073 0 0 0-.234-1.486 1.067 1.067 0 0 0-1.486.235 1.057 1.057 0 0 0 .229 1.486zM108.5 29.51c.47.349 1.139.246 1.483-.233a1.06 1.06 0 0 0-.235-1.488 1.057 1.057 0 0 0-1.483.236 1.06 1.06 0 0 0 .235 1.485z"/><path d="M107.244 31.226a1.064 1.064 0 0 0 1.256-1.716 1.071 1.071 0 0 0-1.493.23 1.072 1.072 0 0 0 .237 1.486zM105.014 31.096c.47.348 1.137.247 1.483-.23a1.062 1.062 0 0 0-.231-1.486 1.067 1.067 0 0 0-1.489.23 1.068 1.068 0 0 0 .237 1.486z"/><path d="M105.988 32.947a1.067 1.067 0 0 0 1.491-.232 1.064 1.064 0 1 0-1.72-1.252 1.066 1.066 0 0 0 .229 1.484zM108.178 33.23a1.065 1.065 0 0 0 1.491-.235 1.069 1.069 0 0 0-.228-1.484 1.067 1.067 0 0 0-1.263 1.719zM106.922 35.075a1.074 1.074 0 0 0 1.491-.233 1.072 1.072 0 0 0-.235-1.487 1.064 1.064 0 0 0-1.485.235 1.056 1.056 0 0 0 .229 1.485zM109.24 35.421a1.066 1.066 0 0 0 1.491-.232 1.076 1.076 0 0 0-.235-1.489 1.064 1.064 0 0 0-1.485.237 1.063 1.063 0 0 0 .229 1.484zM111.428 35.705a1.067 1.067 0 0 0 1.263-1.72 1.066 1.066 0 0 0-1.263 1.72zM108.648 42.986a1.068 1.068 0 0 0 1.491-.236 1.06 1.06 0 0 0-.241-1.484 1.056 1.056 0 0 0-1.478.232 1.063 1.063 0 0 0 .228 1.488z"/><path d="M107.394 44.708a1.066 1.066 0 0 0 1.489-.24 1.055 1.055 0 0 0-.235-1.481 1.06 1.06 0 0 0-1.482.233 1.066 1.066 0 0 0 .228 1.488z"/><path d="M106.14 46.425a1.072 1.072 0 0 0 1.489-.231 1.058 1.058 0 0 0-.235-1.487 1.063 1.063 0 0 0-1.487.229 1.075 1.075 0 0 0 .233 1.489zM104.889 48.144a1.068 1.068 0 0 0 1.487-.231 1.065 1.065 0 0 0-.237-1.487 1.059 1.059 0 0 0-1.482.235 1.062 1.062 0 0 0 .232 1.483z"/><path d="M103.636 49.864a1.073 1.073 0 0 0 1.49-.233 1.064 1.064 0 1 0-1.49.233zM87.267 45.829a1.06 1.06 0 0 0 1.484-.238 1.055 1.055 0 0 0-.228-1.483 1.068 1.068 0 0 0-1.491.23 1.075 1.075 0 0 0 .235 1.491zM90.739 44.411a1.065 1.065 0 0 0 1.256-1.722 1.058 1.058 0 0 0-1.487.236 1.069 1.069 0 0 0 .231 1.486z"/><path d="M89.486 46.125a1.065 1.065 0 0 0 1.486-.227 1.06 1.06 0 0 0-.233-1.487 1.062 1.062 0 1 0-1.253 1.714zM92.937 44.693a1.067 1.067 0 0 0 1.486-.234 1.059 1.059 0 0 0-.237-1.486 1.063 1.063 0 1 0-1.249 1.72z"/><path d="M91.68 46.41a1.063 1.063 0 0 0 1.256-1.716 1.065 1.065 0 0 0-1.491.229 1.072 1.072 0 0 0 .235 1.487z"/><path d="M90.428 48.129a1.07 1.07 0 0 0 1.488-.231 1.067 1.067 0 0 0-.235-1.487 1.057 1.057 0 0 0-1.483.23 1.06 1.06 0 0 0 .23 1.488zM95.165 45a1.06 1.06 0 0 0 1.484-.231 1.059 1.059 0 0 0-.227-1.486 1.068 1.068 0 0 0-1.49.236A1.063 1.063 0 0 0 95.165 45z"/><path d="M93.913 46.719a1.061 1.061 0 0 0 1.487-.232 1.063 1.063 0 1 0-1.487.232z"/><path d="M92.662 48.44a1.061 1.061 0 0 0 1.484-.234 1.071 1.071 0 0 0-.233-1.488 1.065 1.065 0 0 0-1.484.233 1.056 1.056 0 0 0 .233 1.489zM96.106 47.006c.474.343 1.141.24 1.484-.238a1.054 1.054 0 0 0-.228-1.479 1.062 1.062 0 1 0-1.256 1.717z"/><path d="M94.852 48.724a1.067 1.067 0 0 0 1.489-.236 1.062 1.062 0 0 0-.235-1.482 1.054 1.054 0 0 0-1.483.231 1.064 1.064 0 0 0 .229 1.487z"/><path d="M93.602 50.443a1.062 1.062 0 0 0 1.484-.236 1.06 1.06 0 0 0-.233-1.484 1.063 1.063 0 1 0-1.251 1.72zM98.324 47.305a1.066 1.066 0 0 0 1.491-.233 1.07 1.07 0 0 0-.235-1.487 1.068 1.068 0 0 0-1.487.233 1.06 1.06 0 0 0 .231 1.487z"/><path d="M97.071 49.026a1.073 1.073 0 0 0 1.491-.235 1.065 1.065 0 0 0-.238-1.486 1.07 1.07 0 0 0-1.489.23 1.071 1.071 0 0 0 .236 1.491z"/><path d="M95.82 50.746a1.07 1.07 0 0 0 1.486-.233 1.07 1.07 0 0 0-.235-1.486 1.064 1.064 0 1 0-1.251 1.719zM99.267 49.31a1.06 1.06 0 0 0 1.483-.24 1.052 1.052 0 0 0-.235-1.481 1.057 1.057 0 0 0-1.481.234 1.066 1.066 0 0 0 .233 1.487zM98.011 51.026a1.065 1.065 0 0 0 1.486-.231 1.066 1.066 0 0 0-1.72-1.255 1.069 1.069 0 0 0 .234 1.486z"/><path d="M96.756 52.747a1.067 1.067 0 0 0 1.486-.233 1.058 1.058 0 0 0-.231-1.488 1.066 1.066 0 0 0-1.489.234 1.072 1.072 0 0 0 .234 1.487zM101.446 49.578a1.064 1.064 0 0 0 1.483-.228 1.062 1.062 0 0 0-.233-1.487 1.056 1.056 0 0 0-1.487.231 1.057 1.057 0 0 0 .237 1.484z"/><path d="M100.19 51.3a1.057 1.057 0 0 0 1.483-.234 1.06 1.06 0 0 0-.227-1.487 1.07 1.07 0 0 0-1.491.235 1.07 1.07 0 0 0 .235 1.486z"/><path d="M98.936 53.018a1.065 1.065 0 0 0 1.491-.236 1.066 1.066 0 0 0-1.726-1.249 1.065 1.065 0 0 0 .235 1.485zM102.382 51.579a1.065 1.065 0 0 0 1.487-.229 1.058 1.058 0 0 0-.233-1.486 1.064 1.064 0 0 0-1.485.229 1.067 1.067 0 0 0 .231 1.486z"/><path d="M101.129 53.3a1.066 1.066 0 0 0 1.488-.232 1.065 1.065 0 0 0-1.721-1.253 1.072 1.072 0 0 0 .233 1.485z"/><path d="M99.877 55.018a1.06 1.06 0 0 0 1.481-.231 1.058 1.058 0 0 0-.229-1.487 1.054 1.054 0 0 0-1.481.235 1.051 1.051 0 0 0 .229 1.483zM85.99 47.579a1.061 1.061 0 0 0 1.485-.235 1.06 1.06 0 0 0-.229-1.483 1.068 1.068 0 0 0-1.491.234 1.065 1.065 0 0 0 .235 1.484z"/><path d="M84.736 49.3a1.065 1.065 0 1 0-.23-1.49 1.068 1.068 0 0 0 .23 1.49zM88.209 47.878a1.066 1.066 0 0 0 1.487-.231 1.064 1.064 0 0 0-.233-1.486 1.073 1.073 0 0 0-1.489.23 1.064 1.064 0 0 0 .235 1.487zM86.96 49.597a1.057 1.057 0 0 0 1.481-.231 1.066 1.066 0 0 0-.233-1.488 1.065 1.065 0 0 0-1.484.235 1.055 1.055 0 0 0 .236 1.484z"/><path d="M85.706 51.319c.47.347 1.141.241 1.482-.234.35-.475.24-1.144-.228-1.488a1.064 1.064 0 1 0-1.254 1.722zM89.145 49.881a1.073 1.073 0 0 0 1.493-.229 1.064 1.064 0 0 0-.241-1.49 1.055 1.055 0 0 0-1.476.232 1.06 1.06 0 0 0 .224 1.487z"/><path d="M87.895 51.601a1.068 1.068 0 0 0 1.491-.234 1.067 1.067 0 0 0-1.724-1.253 1.067 1.067 0 0 0 .233 1.487z"/><path d="M86.638 53.32c.479.344 1.148.24 1.493-.233a1.063 1.063 0 0 0-.237-1.486 1.074 1.074 0 0 0-1.489.23 1.076 1.076 0 0 0 .233 1.489zM91.379 50.193a1.071 1.071 0 0 0 1.489-.23 1.061 1.061 0 0 0-.233-1.489 1.06 1.06 0 0 0-1.485.235 1.06 1.06 0 0 0 .229 1.484z"/><path d="M90.13 51.912a1.057 1.057 0 0 0 1.48-.233 1.057 1.057 0 0 0-.231-1.485 1.057 1.057 0 0 0-1.483.234 1.067 1.067 0 0 0 .234 1.484z"/><path d="M88.874 53.631a1.066 1.066 0 0 0 1.256-1.719 1.06 1.06 0 0 0-1.483.232 1.056 1.056 0 0 0 .227 1.487z"/><path d="M87.62 55.348a1.069 1.069 0 0 0 1.491-.231 1.068 1.068 0 0 0-.237-1.485 1.06 1.06 0 0 0-1.483.233 1.058 1.058 0 0 0 .229 1.483z"/><path d="M86.371 57.068a1.061 1.061 0 0 0 1.484-.235 1.063 1.063 0 0 0-1.718-1.25 1.057 1.057 0 0 0 .234 1.485zM92.321 52.196a1.058 1.058 0 0 0 1.481-.234 1.053 1.053 0 0 0-.225-1.485 1.064 1.064 0 1 0-1.256 1.719z"/><path d="M91.064 53.913a1.07 1.07 0 0 0 1.491-.234 1.06 1.06 0 0 0-.235-1.483 1.062 1.062 0 0 0-1.485.231 1.068 1.068 0 0 0 .229 1.486z"/><path d="M89.816 55.632a1.059 1.059 0 0 0 1.483-.231 1.064 1.064 0 0 0-1.719-1.254 1.063 1.063 0 0 0 .236 1.485z"/><path d="M88.562 57.351c.47.349 1.139.239 1.482-.233a1.06 1.06 0 0 0-.228-1.485 1.066 1.066 0 0 0-1.491.232 1.069 1.069 0 0 0 .237 1.486z"/><path d="M87.313 59.069c.47.348 1.135.245 1.481-.229a1.065 1.065 0 1 0-1.722-1.256 1.059 1.059 0 0 0 .241 1.485zM94.538 52.495a1.072 1.072 0 0 0 1.491-.23 1.067 1.067 0 0 0-1.724-1.254 1.062 1.062 0 0 0 .233 1.484zM93.289 54.215c.472.347 1.141.24 1.483-.232a1.072 1.072 0 0 0-.235-1.488 1.059 1.059 0 0 0-1.481.234 1.061 1.061 0 0 0 .233 1.486z"/><path d="M92.035 55.936a1.06 1.06 0 0 0 1.483-.233 1.064 1.064 0 1 0-1.483.233z"/><path d="M90.786 57.651a1.053 1.053 0 0 0 1.478-.231 1.06 1.06 0 0 0-.229-1.484 1.067 1.067 0 0 0-1.491.231 1.062 1.062 0 0 0 .242 1.484z"/><path d="M89.522 59.369a1.065 1.065 0 0 0 1.264-1.718 1.07 1.07 0 0 0-1.49.236 1.06 1.06 0 0 0 .226 1.482z"/><path d="M88.275 61.088c.472.35 1.139.244 1.491-.231a1.069 1.069 0 0 0-.245-1.488 1.056 1.056 0 0 0-1.478.236 1.056 1.056 0 0 0 .232 1.483zM95.481 54.496c.47.349 1.139.24 1.481-.232a1.06 1.06 0 1 0-1.713-1.254 1.056 1.056 0 0 0 .232 1.486z"/><path d="M94.223 56.216a1.068 1.068 0 0 0 1.491-.231 1.071 1.071 0 0 0-.233-1.488 1.065 1.065 0 0 0-1.258 1.719z"/><path d="M92.976 57.936a1.064 1.064 0 0 0 1.484-.231 1.058 1.058 0 0 0-.237-1.489 1.06 1.06 0 0 0-1.482.232 1.066 1.066 0 0 0 .235 1.488z"/><path d="M91.722 59.655c.47.346 1.139.239 1.483-.235a1.065 1.065 0 0 0-.229-1.484 1.057 1.057 0 0 0-1.483.23 1.06 1.06 0 0 0 .229 1.489z"/><path d="M90.464 61.375a1.066 1.066 0 0 0 1.258-1.721 1.058 1.058 0 0 0-1.486.233 1.066 1.066 0 0 0 .228 1.488zM89.215 63.095a1.065 1.065 0 0 0 1.485-.233 1.068 1.068 0 0 0-.237-1.486 1.062 1.062 0 1 0-1.248 1.719zM83.32 51.077a1.06 1.06 0 0 0 1.482-.229 1.07 1.07 0 0 0-.233-1.489 1.063 1.063 0 0 0-1.489.234 1.058 1.058 0 0 0 .24 1.484zM84.283 53.097a1.068 1.068 0 0 0 1.491-.23 1.071 1.071 0 0 0-.242-1.49 1.058 1.058 0 0 0-1.48.238 1.054 1.054 0 0 0 .231 1.482zM85.223 55.102a1.066 1.066 0 0 0 1.486-.231 1.069 1.069 0 0 0-.237-1.488 1.056 1.056 0 0 0-1.483.233 1.059 1.059 0 0 0 .234 1.486zM97.659 54.769a1.068 1.068 0 0 0 1.491-.228 1.08 1.08 0 0 0-.235-1.493 1.062 1.062 0 0 0-1.485.237 1.06 1.06 0 0 0 .229 1.484z"/><path d="M96.404 56.489a1.069 1.069 0 0 0 1.488-.227 1.073 1.073 0 0 0-.233-1.493 1.061 1.061 0 0 0-1.484.233 1.063 1.063 0 0 0 .229 1.487z"/><path d="M95.157 58.209c.47.346 1.131.243 1.48-.235a1.054 1.054 0 0 0-.233-1.485 1.053 1.053 0 0 0-1.483.236 1.056 1.056 0 0 0 .236 1.484z"/><path d="M93.899 59.928a1.067 1.067 0 0 0 1.486-.235 1.063 1.063 0 1 0-1.721-1.251 1.068 1.068 0 0 0 .235 1.486zM92.645 61.649a1.065 1.065 0 0 0 1.254-1.721 1.066 1.066 0 0 0-1.489.234 1.075 1.075 0 0 0 .235 1.487z"/><path d="M91.394 63.368c.47.345 1.141.24 1.486-.232a1.068 1.068 0 0 0-.235-1.487 1.062 1.062 0 1 0-1.251 1.719zM98.594 56.771a1.065 1.065 0 1 0 1.259-1.718 1.065 1.065 0 0 0-1.259 1.718z"/><path d="M97.344 58.493a1.075 1.075 0 0 0 1.491-.233 1.065 1.065 0 0 0-.241-1.489 1.06 1.06 0 0 0-1.479.231 1.068 1.068 0 0 0 .229 1.491z"/><path d="M96.089 60.21a1.067 1.067 0 0 0 1.486-.231 1.057 1.057 0 0 0-.231-1.486 1.065 1.065 0 0 0-1.489.229 1.075 1.075 0 0 0 .234 1.488z"/><path d="M94.841 61.929a1.064 1.064 0 0 0 1.484-.229 1.065 1.065 0 0 0-1.72-1.255 1.062 1.062 0 0 0 .236 1.484z"/><path d="M93.586 63.649a1.062 1.062 0 0 0 1.487-.235 1.067 1.067 0 0 0-.233-1.485 1.058 1.058 0 0 0-1.484.233 1.06 1.06 0 0 0 .23 1.487zM112.362 37.724c.479.35 1.148.241 1.493-.233a1.068 1.068 0 0 0-.231-1.485 1.065 1.065 0 0 0-1.487.234 1.064 1.064 0 0 0 .225 1.484zM112.034 28.168a1.067 1.067 0 0 0 1.489-.231 1.063 1.063 0 0 0-.241-1.488 1.063 1.063 0 0 0-1.248 1.719z"/><path d="M110.78 29.888c.478.346 1.139.24 1.484-.234a1.059 1.059 0 0 0-.229-1.485 1.069 1.069 0 0 0-1.491.234 1.062 1.062 0 0 0 .236 1.485z"/><path d="M109.531 31.605a1.061 1.061 0 1 0 1.249-1.717 1.068 1.068 0 0 0-1.489.23 1.065 1.065 0 0 0 .24 1.487zM116.735 25.01a1.056 1.056 0 0 0 1.483-.229 1.053 1.053 0 0 0-.235-1.485 1.06 1.06 0 0 0-1.487.233 1.066 1.066 0 0 0 .239 1.481z"/><path d="M115.481 26.729c.47.345 1.135.242 1.483-.23a1.07 1.07 0 0 0-.229-1.488 1.067 1.067 0 0 0-1.486.235 1.053 1.053 0 0 0 .232 1.483z"/><path d="M114.225 28.452a1.074 1.074 0 0 0 1.491-.236 1.072 1.072 0 0 0-.235-1.487 1.062 1.062 0 0 0-1.483.236 1.053 1.053 0 0 0 .227 1.487z"/><path d="M112.978 30.17a1.06 1.06 0 1 0 1.246-1.717 1.061 1.061 0 1 0-1.246 1.717z"/><path d="M111.722 31.889a1.058 1.058 0 0 0 1.484-.235 1.062 1.062 0 0 0-.228-1.484 1.077 1.077 0 0 0-1.491.231 1.066 1.066 0 0 0 .235 1.488zM118.915 25.285c.472.35 1.141.246 1.483-.232a1.059 1.059 0 0 0-.235-1.488 1.06 1.06 0 0 0-1.484.236 1.06 1.06 0 0 0 .236 1.484z"/><path d="M117.66 27.001a1.057 1.057 0 0 0 1.484-.229 1.063 1.063 0 0 0-.229-1.487 1.07 1.07 0 0 0-1.491.231 1.067 1.067 0 0 0 .236 1.485z"/><path d="M116.404 28.722a1.067 1.067 0 0 0 1.491-.23 1.074 1.074 0 0 0-.235-1.49 1.064 1.064 0 0 0-1.485.238 1.063 1.063 0 0 0 .229 1.482zM115.153 30.442a1.065 1.065 0 0 0 1.485-.234 1.068 1.068 0 0 0-.235-1.486 1.066 1.066 0 0 0-1.484.233 1.06 1.06 0 0 0 .234 1.487z"/><path d="M113.901 32.164c.472.344 1.139.24 1.483-.235a1.061 1.061 0 0 0-.231-1.487 1.068 1.068 0 0 0-1.49.235 1.062 1.062 0 0 0 .238 1.487z"/><path d="M112.645 33.878a1.056 1.056 0 0 0 1.483-.229 1.057 1.057 0 0 0-.227-1.484 1.067 1.067 0 0 0-1.491.227 1.07 1.07 0 0 0 .235 1.486zM119.856 27.286c.47.347 1.135.245 1.478-.23a1.058 1.058 0 0 0-.231-1.487 1.055 1.055 0 0 0-1.482.236 1.052 1.052 0 0 0 .235 1.481z"/><path d="M118.594 29.004a1.067 1.067 0 0 0 1.261-1.719 1.066 1.066 0 0 0-1.261 1.719z"/><path d="M117.343 30.725a1.067 1.067 0 0 0 1.49-.235 1.06 1.06 0 0 0-.239-1.486 1.061 1.061 0 0 0-1.48.233 1.068 1.068 0 0 0 .229 1.488z"/><path d="M116.089 32.447a1.07 1.07 0 0 0 1.491-.241 1.057 1.057 0 0 0-.237-1.481 1.057 1.057 0 0 0-1.481.234 1.065 1.065 0 0 0 .227 1.488z"/><path d="M114.835 34.164a1.07 1.07 0 0 0 1.489-.231 1.057 1.057 0 0 0-.235-1.485 1.063 1.063 0 0 0-1.487.228 1.075 1.075 0 0 0 .233 1.488z"/><path d="M113.584 35.884a1.063 1.063 0 1 0 1.252-1.717 1.063 1.063 0 0 0-1.252 1.717zM121.057 25.463a1.068 1.068 0 0 0 1.493-.233 1.063 1.063 0 1 0-1.718-1.25 1.063 1.063 0 0 0 .225 1.483zM86.111 60.964a1.06 1.06 0 0 0 1.484-.235 1.063 1.063 0 1 0-1.484.235zM87.053 62.965c.47.347 1.135.245 1.481-.229a1.065 1.065 0 1 0-1.722-1.256 1.058 1.058 0 0 0 .241 1.485z"/></g></svg>