<svg xmlns="http://www.w3.org/2000/svg" width="200.885" height="112.079" xml:space="preserve"><path fill="#FFC246" stroke="#46474D" stroke-width=".147" stroke-linecap="round" stroke-linejoin="round" stroke-miterlimit="10" d="M106.588 77.07v-.743h-.368a5.863 5.863 0 0 0-.279-1.459l.337-.135-.278-.689-.339.136a5.92 5.92 0 0 0-.883-1.332l.259-.26-.525-.526-.259.261a5.834 5.834 0 0 0-1.23-.832l.144-.337-.684-.29-.144.337a5.771 5.771 0 0 0-1.565-.316v-.37h-.741v.37a5.78 5.78 0 0 0-1.461.277l-.137-.338-.689.278.138.343c-.483.231-.93.529-1.33.879l-.261-.261-.525.526.261.26a5.833 5.833 0 0 0-.833 1.231l-.339-.145-.29.684.339.144a5.81 5.81 0 0 0-.316 1.565h-.37v.743h.37c.032.507.123.997.276 1.459l-.337.137.276.689.343-.138c.233.485.528.932.881 1.332l-.261.261.525.525.261-.261c.37.328.783.607 1.23.832l-.144.337.684.291.143-.336a5.855 5.855 0 0 0 1.567.316v.37h.741v-.37a5.87 5.87 0 0 0 1.459-.277l.136.337.69-.277-.138-.341a5.812 5.812 0 0 0 1.332-.881l.259.261.525-.525-.259-.261c.328-.371.608-.783.832-1.228l.337.145.292-.685-.337-.144c.174-.496.282-1.02.318-1.567h.367z"/><g fill="#4CFF3A" stroke="#46474D" stroke-width=".147" stroke-miterlimit="10"><path d="M98.229 43.509a1.112 1.112 0 1 0 1.286-1.815 1.112 1.112 0 0 0-1.286 1.815z"/><path d="M96.94 45.321a1.11 1.11 0 0 0 1.552-.262 1.113 1.113 0 0 0-.263-1.55 1.109 1.109 0 0 0-1.55.264 1.107 1.107 0 0 0 .261 1.548z"/><circle cx="101.194" cy="42.887" r="1.112"/><circle cx="99.906" cy="44.7" r="1.111"/><circle cx="102.203" cy="44.968" r="1.112"/><path d="M100.273 47.688a1.11 1.11 0 0 0 1.55-.265c.356-.5.241-1.193-.263-1.548a1.11 1.11 0 1 0-1.287 1.813zM103.843 46.13c.5.356 1.195.238 1.552-.262a1.113 1.113 0 1 0-1.552.262z"/><path d="M102.554 47.943a1.11 1.11 0 0 0 1.55-.261 1.115 1.115 0 0 0-.261-1.552 1.111 1.111 0 1 0-1.289 1.813z"/><circle cx="105.495" cy="47.303" r="1.112"/><path d="M103.564 50.021a1.11 1.11 0 1 0-.262-1.545c-.358.5-.238 1.191.262 1.545zM95.628 47.172a1.113 1.113 0 0 0 1.286-1.815 1.112 1.112 0 1 0-1.286 1.815z"/><path d="M94.34 48.986c.5.355 1.195.237 1.55-.265a1.11 1.11 0 0 0-.262-1.55 1.115 1.115 0 0 0-1.554.262 1.116 1.116 0 0 0 .266 1.553z"/><circle cx="93.696" cy="49.893" r="1.113"/><circle cx="92.408" cy="51.708" r="1.112"/><path d="M90.479 54.428a1.112 1.112 0 1 0 1.285-1.814 1.112 1.112 0 0 0-1.285 1.814z"/><path d="M89.19 56.241a1.114 1.114 0 0 0 1.55-.261 1.113 1.113 0 1 0-1.55.261z"/><circle cx="88.547" cy="57.147" r="1.111"/><circle cx="98.595" cy="46.549" r="1.112"/><path d="M96.661 49.271a1.117 1.117 0 0 0 1.556-.264 1.111 1.111 0 1 0-1.815-1.286 1.11 1.11 0 0 0 .259 1.55z"/><circle cx="96.018" cy="50.178" r="1.112"/><path d="M94.088 52.898a1.11 1.11 0 1 0 1.286-1.812 1.11 1.11 0 1 0-1.286 1.812z"/><path d="M92.802 54.711a1.112 1.112 0 1 0 1.289-1.812 1.112 1.112 0 0 0-1.289 1.812z"/><path d="M91.513 56.524a1.113 1.113 0 0 0 1.552-.26 1.118 1.118 0 0 0-.263-1.553 1.114 1.114 0 0 0-1.55.264 1.108 1.108 0 0 0 .261 1.549z"/><path d="M90.227 58.34a1.112 1.112 0 1 0 1.287-1.815 1.11 1.11 0 0 0-1.548.266 1.107 1.107 0 0 0 .261 1.549z"/><circle cx="99.603" cy="48.63" r="1.113"/><circle cx="98.316" cy="50.443" r="1.111"/><path d="M96.383 53.165a1.118 1.118 0 0 0 1.554-.263 1.112 1.112 0 1 0-1.815-1.286 1.11 1.11 0 0 0 .261 1.549z"/><path d="M95.1 54.982a1.113 1.113 0 1 0 1.283-1.818 1.107 1.107 0 0 0-1.548.262 1.118 1.118 0 0 0 .265 1.556z"/><path d="M93.812 56.792a1.112 1.112 0 1 0 1.285-1.81 1.112 1.112 0 0 0-1.285 1.81z"/><circle cx="93.167" cy="57.699" r="1.113"/><path d="M91.234 60.42a1.118 1.118 0 0 0 1.554-.264 1.115 1.115 0 0 0-.265-1.55 1.113 1.113 0 0 0-1.289 1.814zM101.241 49.795a1.117 1.117 0 0 0 1.554-.266 1.114 1.114 0 0 0-1.815-1.289 1.117 1.117 0 0 0 .261 1.555z"/><path d="M99.957 51.605c.5.356 1.193.239 1.546-.261.358-.5.241-1.194-.261-1.549a1.109 1.109 0 0 0-1.55.261 1.107 1.107 0 0 0 .265 1.549zM102.253 51.873a1.114 1.114 0 0 0 1.287-1.816 1.118 1.118 0 0 0-1.554.265 1.114 1.114 0 0 0 .267 1.551z"/><circle cx="89.583" cy="59.247" r="1.112"/><path d="M89.948 62.235a1.112 1.112 0 1 0 1.286-1.815 1.115 1.115 0 0 0-1.55.259 1.119 1.119 0 0 0 .264 1.556zM106.802 38.627a1.111 1.111 0 1 0 1.287-1.813 1.112 1.112 0 1 0-1.287 1.813z"/><circle cx="109.725" cy="37.976" r="1.112"/><path d="M111.378 39.149a1.112 1.112 0 1 0 1.289-1.812 1.112 1.112 0 0 0-1.289 1.812z"/><path d="M110.092 40.966a1.114 1.114 0 0 0 1.287-1.817 1.112 1.112 0 0 0-1.287 1.817zM100.893 39.891a1.116 1.116 0 0 0 1.55-.263 1.11 1.11 0 0 0-.262-1.55 1.111 1.111 0 1 0-1.288 1.813z"/><path d="M99.604 41.702c.504.356 1.195.24 1.554-.26a1.114 1.114 0 0 0-1.815-1.289 1.11 1.11 0 0 0 .261 1.549z"/><circle cx="105.147" cy="37.455" r="1.112"/><path d="M103.215 40.176a1.111 1.111 0 1 0 1.292-1.813 1.111 1.111 0 0 0-1.292 1.813z"/><path d="M101.927 41.989a1.114 1.114 0 1 0 1.29-1.816 1.114 1.114 0 0 0-1.29 1.816z"/><circle cx="106.158" cy="39.534" r="1.113"/><circle cx="104.87" cy="41.348" r="1.112"/><circle cx="103.582" cy="43.162" r="1.112"/><circle cx="108.438" cy="39.791" r="1.112"/><path d="M106.507 42.509c.502.358 1.195.24 1.55-.262a1.111 1.111 0 1 0-1.55.262z"/><path d="M105.22 44.324c.5.356 1.192.237 1.552-.261a1.118 1.118 0 0 0-.265-1.555 1.114 1.114 0 0 0-1.287 1.816zM108.803 42.779a1.115 1.115 0 0 0 1.55-.264 1.11 1.11 0 0 0-.261-1.548 1.109 1.109 0 0 0-1.552.261c-.354.5-.237 1.193.263 1.551z"/><path d="M107.515 44.59a1.114 1.114 0 0 0 1.552-.263c.358-.5.239-1.197-.263-1.549a1.112 1.112 0 0 0-1.289 1.812z"/><path d="M106.228 46.405a1.112 1.112 0 1 0 1.29-1.813 1.112 1.112 0 0 0-1.29 1.813z"/><circle cx="95.443" cy="58.062" r="1.113"/><path d="M93.512 60.782a1.11 1.11 0 1 0 1.287-1.813 1.11 1.11 0 0 0-1.287 1.813z"/><circle cx="96.451" cy="60.142" r="1.112"/><path d="M94.52 62.861c.5.359 1.198.24 1.552-.261a1.11 1.11 0 1 0-1.813-1.284 1.105 1.105 0 0 0 .261 1.545zM92.199 62.633a1.112 1.112 0 1 0 1.287-1.81 1.112 1.112 0 0 0-1.287 1.81zM101.048 53.806a1.113 1.113 0 0 0 1.287-1.816 1.114 1.114 0 0 0-1.287 1.816z"/><circle cx="99.395" cy="52.63" r="1.112"/><path d="M97.465 55.348a1.11 1.11 0 1 0 1.287-1.812 1.112 1.112 0 1 0-1.287 1.812z"/><path d="M96.176 57.163a1.116 1.116 0 0 0 1.552-.26 1.12 1.12 0 0 0-.263-1.555 1.113 1.113 0 0 0-1.289 1.815zM99.761 55.619c.502.35 1.196.236 1.55-.266a1.109 1.109 0 0 0-.263-1.548 1.104 1.104 0 0 0-1.548.259 1.116 1.116 0 0 0 .261 1.555z"/><path d="M98.471 57.43c.502.354 1.2.238 1.552-.263.358-.5.241-1.198-.261-1.548a1.112 1.112 0 1 0-1.291 1.811z"/><path d="M97.186 59.244a1.112 1.112 0 1 0 1.29-1.813 1.112 1.112 0 0 0-1.29 1.813z"/></g><circle fill="none" stroke="#46474D" stroke-width="6.555" stroke-miterlimit="10" cx="40.608" cy="69.766" r="36.88"/><circle fill="none" stroke="#46474D" stroke-width="6.555" stroke-miterlimit="10" cx="160.179" cy="71.372" r="36.881"/><path fill="none" stroke="#46474D" stroke-width="3.535" stroke-linejoin="round" stroke-miterlimit="10" d="M77.488 38.329 88.26 78.097l-47.651-8.331 36.879-31.437"/><path fill="#46474D" d="M86.83 77.059s2.798-4.107 7.068-10.214c2.127-3.059 4.605-6.631 7.308-10.424l8.431-11.91c2.854-4.065 5.786-8.075 8.5-11.86l7.439-10.328 5.262-7.306c.321-.438.593-.84.855-1.171.273-.323.569-.552.84-.714.549-.321 1.009-.371 1.008-.371l2.86 2.078s.095.452-.041 1.073a3.334 3.334 0 0 1-.42 1.021c-.233.352-.532.734-.849 1.176l-5.321 7.262-7.523 10.267c-2.76 3.75-5.668 7.778-8.653 11.749l-8.721 11.699c-2.772 3.742-5.403 7.202-7.655 10.171a1124.435 1124.435 0 0 1-7.529 9.879l-2.859-2.077z"/><path fill="none" stroke="#46474D" stroke-width="3.535" stroke-miterlimit="10" d="m77.488 38.329 58.316-26.427"/><path fill="none" stroke="#46474D" stroke-width="4.409" stroke-miterlimit="10" d="m133.809 6.599 7.403 22.561"/><path fill="none" stroke="#46474D" stroke-width="4.409" stroke-linecap="round" stroke-miterlimit="10" d="m147.728 37.091 12.451 34.283"/><path fill="none" stroke="#46474D" stroke-width="2.939" stroke-miterlimit="10" d="m143.766 27.101 4.136 11.228"/><path fill="none" stroke="#46474D" stroke-width="2.911" stroke-miterlimit="10" d="m148.3 30.167 4.398 11.646"/><path fill="none" stroke="#46474D" stroke-width="4.042" stroke-linecap="round" stroke-miterlimit="10" d="m140.431 28.173 3.344-1.205"/><path fill="none" stroke="#46474D" stroke-width="3.535" stroke-miterlimit="10" d="m133.587 9.127 10.188-3.881"/><path fill="none" stroke="#46474D" stroke-width="3.535" stroke-linecap="round" stroke-miterlimit="10" d="m137.538 2.543 6.237 2.703"/><path fill="none" stroke="#46474D" stroke-width="3.535" stroke-linejoin="round" stroke-miterlimit="10" d="m52.876 1.768 25.648.899-20.517 1.041z"/><circle fill="#46474D" cx="88.865" cy="78.097" r="10.502"/><path fill="none" stroke="#46474D" stroke-width="3.535" stroke-linecap="round" stroke-miterlimit="10" d="m88.866 78.097 10.783 13.742M78.261 64.356l10.783 13.741M95.488 91.839h6.996M74.037 64.356h6.996"/><path fill="none" stroke="#46474D" stroke-width="3.535" stroke-linejoin="round" stroke-miterlimit="10" d="M77.488 38.329 67.074 3.895"/><path fill="#46474D" d="m138.317 20.338-2.513-7.318-3.405 1.711.078-.15-7.936 2.664s3.767 2.298 3.079 5.329c.438-.65.849-1.274 1.233-1.872l.603 3.157 8.861-3.521z"/><circle fill="none" stroke="#46474D" stroke-width="5.885" stroke-miterlimit="10" stroke-dasharray="2.366,2.366" cx="40.608" cy="69.768" r="37.666"/><path fill="none" stroke="#46474D" stroke-width="5.885" stroke-miterlimit="10" stroke-dasharray="2.3721,2.3721" d="M197.942 71.372c0 20.858-16.907 37.765-37.764 37.765-20.856 0-37.763-16.906-37.763-37.765 0-20.854 16.907-37.761 37.763-37.761 20.857 0 37.764 16.907 37.764 37.761z"/></svg>